<svg width="381" height="424" viewBox="0 0 381 424" fill="none" xmlns="http://www.w3.org/2000/svg">
<g clip-path="url(#clip0_6_491)">
<path d="M66.5984 268.096C72.2817 254.518 65.8753 238.907 52.2894 233.227C38.7034 227.547 23.0826 233.95 17.3994 247.527C11.7161 261.105 18.1225 276.716 31.7084 282.396C45.2944 288.076 60.9152 281.673 66.5984 268.096Z" fill="white"/>
<path d="M60.0469 253.844C60.0469 253.461 60.0469 252.982 59.951 252.598C59.8551 250.777 59.5673 248.764 58.4163 247.326C57.3611 246.079 55.8264 245.792 54.2916 245.6C52.3732 245.408 50.4548 245.217 48.5364 245.217C44.6995 245.025 40.7667 245.121 36.9299 245.217C34.9155 245.217 32.9012 245.313 30.9827 245.504C28.5847 245.696 25.9948 246.079 24.9397 248.476C23.8845 250.681 24.0764 253.461 24.0764 255.762C24.0764 257.87 24.0764 259.979 24.1723 262.088C24.2682 264.868 24.4601 268.415 27.4336 269.566C28.9684 270.237 30.8868 270.333 32.6134 270.429C34.4359 270.524 36.1625 270.524 37.985 270.524C41.7259 270.62 45.4669 270.428 49.2078 270.333C51.7977 270.237 54.4835 270.237 56.9774 269.374C59.0877 268.607 59.6632 266.306 59.951 264.293C60.2388 262.28 60.1429 260.267 60.1429 258.254C60.0469 256.816 60.1428 255.282 60.0469 253.844ZM38.3687 263.239C38.3687 259.596 38.3687 255.953 38.3687 252.31C41.4382 254.132 44.6036 255.953 47.6731 257.775C44.6036 259.596 41.5341 261.417 38.3687 263.239Z" fill="#FF4D43"/>
<path d="M325.366 108.229H286.997C284.599 108.229 282.776 110.146 282.776 112.447V137.467C282.776 139.864 284.695 141.685 286.997 141.685H300.618L306.277 148.971L311.937 141.685H325.557C327.955 141.685 329.778 139.768 329.778 137.467V112.447C329.682 110.146 327.764 108.229 325.366 108.229Z" fill="white"/>
<path d="M321.624 114.556H289.779V115.61H321.624V114.556Z" fill="#454258"/>
<path d="M321.624 117.432H289.779V118.486H321.624V117.432Z" fill="#454258"/>
<path d="M321.624 120.308H289.779V121.362H321.624V120.308Z" fill="#454258"/>
<path d="M296.109 123.184H289.779V124.238H296.109V123.184Z" fill="#454258"/>
<path d="M321.625 123.184H298.316V124.238H321.625V123.184Z" fill="#454258"/>
<path d="M321.624 126.155H289.779V127.21H321.624V126.155Z" fill="#454258"/>
<path d="M309.634 129.031H289.779V130.086H309.634V129.031Z" fill="#454258"/>
<path d="M321.625 129.031H311.937V130.086H321.625V129.031Z" fill="#454258"/>
<path d="M321.624 131.907H289.779V132.961H321.624V131.907Z" fill="#454258"/>
<path d="M306.853 134.783H289.779V135.837H306.853V134.783Z" fill="#454258"/>
<path d="M338.315 289.409C326.517 289.409 316.829 279.823 316.829 267.936C316.829 256.145 326.421 246.463 338.315 246.463C350.113 246.463 359.801 256.049 359.801 267.936C359.801 279.727 350.113 289.409 338.315 289.409ZM338.315 248.763C327.764 248.763 319.131 257.295 319.131 267.936C319.131 278.481 327.668 287.108 338.315 287.108C348.866 287.108 357.499 278.481 357.499 267.936C357.403 257.391 348.866 248.763 338.315 248.763Z" fill="white"/>
<path d="M349.154 269.086H338.315C337.644 269.086 337.164 268.607 337.164 267.936V251.543C337.164 250.872 337.644 250.393 338.315 250.393C338.987 250.393 339.466 250.872 339.466 251.543V266.786H349.154C349.826 266.786 350.305 267.265 350.305 267.936C350.305 268.607 349.73 269.086 349.154 269.086Z" fill="#454258"/>
<path d="M22.1579 317.113C21.966 317.113 21.6783 317.017 21.5824 316.826C21.3905 316.634 21.2946 316.442 21.2946 316.251V311.362H16.4026C16.2108 311.362 15.923 311.266 15.8271 311.074C15.6352 310.882 15.5393 310.691 15.5393 310.499C15.5393 310.019 15.923 309.636 16.4026 309.636H21.2946V304.747C21.2946 304.268 21.6783 303.884 22.1579 303.884C22.6375 303.884 23.0212 304.268 23.0212 304.747V309.636H27.9132C28.3928 309.636 28.7765 310.019 28.7765 310.499C28.7765 310.978 28.3928 311.362 27.9132 311.362H23.0212V316.251C23.0212 316.73 22.6375 317.113 22.1579 317.113Z" fill="white"/>
<path d="M372.271 205.913C372.079 205.913 371.792 205.817 371.696 205.625C371.504 205.434 371.408 205.242 371.408 205.05V200.161H366.516C366.324 200.161 366.036 200.065 365.94 199.874C365.748 199.682 365.653 199.49 365.653 199.298C365.653 198.819 366.036 198.436 366.516 198.436H371.408V193.547C371.408 193.067 371.792 192.684 372.271 192.684C372.751 192.684 373.134 193.067 373.134 193.547V198.436H378.026C378.506 198.436 378.89 198.819 378.89 199.298C378.89 199.778 378.506 200.161 378.026 200.161H373.134V205.05C373.134 205.529 372.751 205.913 372.271 205.913Z" fill="white"/>
<path d="M55.5385 98.9302C55.3467 98.9302 55.0589 98.8343 54.963 98.6426C54.7711 98.4509 54.6752 98.2592 54.6752 98.0674V93.1784H49.7832C49.5914 93.1784 49.3036 93.0826 49.2077 92.8909C48.9199 92.6991 48.9199 92.5074 48.9199 92.3157C48.9199 91.8364 49.3036 91.4529 49.7832 91.4529H54.6752V86.5639C54.6752 86.0846 55.0589 85.7012 55.5385 85.7012C56.0181 85.7012 56.4018 86.0846 56.4018 86.5639V91.4529H61.2938C61.7734 91.4529 62.1571 91.8364 62.1571 92.3157C62.1571 92.795 61.7734 93.1784 61.2938 93.1784H56.4018V98.0674C56.4018 98.5468 56.0181 98.9302 55.5385 98.9302Z" fill="white"/>
<path d="M0 223.743C0 221.634 1.72659 219.909 3.83686 219.909C5.94713 219.909 7.67372 221.634 7.67372 223.743C7.67372 225.852 5.94713 227.578 3.83686 227.578C1.72659 227.578 0 225.852 0 223.743Z" fill="white"/>
<path d="M45.3708 212.623C45.3708 210.994 46.7138 209.652 48.3444 209.652C49.9751 209.652 51.318 210.994 51.318 212.623C51.318 214.253 49.9751 215.595 48.3444 215.595C46.7138 215.595 45.3708 214.253 45.3708 212.623Z" stroke="#454258" stroke-width="1.9162" stroke-miterlimit="10"/>
<path d="M335.341 227.386C335.341 225.756 336.684 224.414 338.315 224.414C339.946 224.414 341.288 225.756 341.288 227.386C341.288 229.016 339.946 230.358 338.315 230.358C336.684 230.358 335.341 229.016 335.341 227.386Z" stroke="#454258" stroke-width="1.9162" stroke-miterlimit="10"/>
<path d="M166.615 329.863C166.615 328.233 167.958 326.891 169.589 326.891C171.22 326.891 172.563 328.233 172.563 329.863C172.563 331.493 171.22 332.835 169.589 332.835C167.958 332.835 166.615 331.493 166.615 329.863Z" stroke="#454258" stroke-width="1.9162" stroke-miterlimit="10"/>
<path d="M271.554 85.7012C271.554 84.0716 272.897 82.7295 274.527 82.7295C276.158 82.7295 277.501 84.0716 277.501 85.7012C277.501 87.3309 276.158 88.673 274.527 88.673C272.897 88.5771 271.554 87.3309 271.554 85.7012Z" stroke="#454258" stroke-width="1.9162" stroke-miterlimit="10"/>
<path d="M261.386 136.988C261.386 134.879 263.113 133.153 265.223 133.153C267.333 133.153 269.06 134.879 269.06 136.988C269.06 139.097 267.333 140.822 265.223 140.822C263.113 140.822 261.386 139.097 261.386 136.988Z" fill="white"/>
<path d="M317.788 300.433C317.788 298.324 319.514 296.599 321.624 296.599C323.735 296.599 325.461 298.324 325.461 300.433C325.461 302.542 323.735 304.268 321.624 304.268C319.514 304.268 317.788 302.542 317.788 300.433Z" fill="white"/>
<path d="M376.499 155.223C382.492 149.233 382.492 139.522 376.499 133.532C370.505 127.542 360.788 127.542 354.794 133.532C348.801 139.522 348.801 149.233 354.794 155.223C360.788 161.213 370.505 161.213 376.499 155.223Z" fill="white"/>
<path d="M361.624 136.221V152.517L373.902 144.369L361.624 136.221Z" fill="#FF4D43"/>
<path d="M108.2 124.909H22.158V191.246H108.2V124.909Z" fill="white"/>
<path d="M50.5507 171.306H31.1746V184.535H50.5507V171.306Z" fill="#2D4F76"/>
<path d="M74.9147 171.306H55.5386V184.535H74.9147V171.306Z" fill="#2D4F76"/>
<path d="M91.2213 131.619H39.136V166.993H91.2213V131.619Z" fill="#DBE2E8"/>
<path d="M99.1828 171.306H79.8066V184.535H99.1828V171.306Z" fill="#2D4F76"/>
<path d="M34.6278 155.106C34.4359 155.106 34.2441 155.01 34.0523 154.818L29.5439 149.737C29.2562 149.45 29.2562 149.066 29.5439 148.779L34.0523 143.698C34.34 143.41 34.8196 143.41 35.1074 143.602C35.3952 143.89 35.3952 144.369 35.2033 144.657L31.0787 149.258L35.2033 153.859C35.4911 154.147 35.3952 154.626 35.1074 154.914C35.0115 155.106 34.8196 155.106 34.6278 155.106Z" fill="#2D4F76"/>
<path d="M95.7298 155.106C95.9216 155.106 96.1134 155.01 96.3053 154.818L100.814 149.737C101.101 149.45 101.101 149.066 100.814 148.779L96.3053 143.698C96.0175 143.41 95.5379 143.41 95.2501 143.602C94.9624 143.89 94.9624 144.369 95.1542 144.657L99.2788 149.258L95.1542 153.859C94.8665 154.147 94.9624 154.626 95.2501 154.914C95.442 155.106 95.5379 155.106 95.7298 155.106Z" fill="#2D4F76"/>
<path d="M78.6557 156.735C82.7349 156.735 86.0417 153.43 86.0417 149.354C86.0417 145.277 82.7349 141.972 78.6557 141.972C74.5766 141.972 71.2698 145.277 71.2698 149.354C71.2698 153.43 74.5766 156.735 78.6557 156.735Z" fill="#FFD264"/>
<path d="M79.8068 154.243C79.8068 155.777 78.5598 157.023 77.0251 157.023H60.4306C58.8959 157.023 57.6489 155.777 57.6489 154.243C57.6489 152.709 58.8959 151.463 60.4306 151.463H77.0251C78.5598 151.463 79.8068 152.709 79.8068 154.243Z" fill="white"/>
<path d="M67.6247 148.108C67.6247 148.779 67.0492 149.354 66.3777 149.354H52.2773C51.6058 149.354 51.0303 148.779 51.0303 148.108C51.0303 147.437 51.6058 146.861 52.2773 146.861H66.3777C67.0492 146.861 67.6247 147.437 67.6247 148.108Z" fill="white"/>
<path d="M68.7757 140.439C68.7757 141.301 68.1042 141.972 67.2409 141.972H57.7447C56.8814 141.972 56.21 141.301 56.21 140.439C56.21 139.576 56.8814 138.905 57.7447 138.905H67.2409C68.1042 138.905 68.7757 139.576 68.7757 140.439Z" fill="white"/>
<path fill-rule="evenodd" clip-rule="evenodd" d="M43.9319 387.86L110.405 402.431L121.916 350.282L170.356 283.657L71.6532 261.992L43.9319 387.86Z" fill="#F3D5B6"/>
<path fill-rule="evenodd" clip-rule="evenodd" d="M77.4085 284.808C87.2885 300.242 102.06 323.728 85.8496 341.846C78.6555 336.286 69.3511 306.665 77.4085 284.808Z" fill="#D2B79A"/>
<path fill-rule="evenodd" clip-rule="evenodd" d="M112.228 83.113H208.149C226.758 83.113 241.914 93.9455 241.914 107.27V289.218C241.914 302.447 226.758 313.375 208.149 313.375H112.228C93.6192 313.375 78.4636 302.542 78.4636 289.218V107.27C78.4636 93.9455 93.6192 83.113 112.228 83.113Z" fill="#2D4F76"/>
<path fill-rule="evenodd" clip-rule="evenodd" d="M88.9191 102.381H231.362C231.65 102.381 231.842 102.573 231.842 102.765V291.806C231.842 291.997 231.65 292.189 231.362 292.189H88.9191C88.6313 292.189 88.4395 291.997 88.4395 291.806V102.765C88.4395 102.573 88.6313 102.381 88.9191 102.381Z" fill="white"/>
<path fill-rule="evenodd" clip-rule="evenodd" d="M142.443 88.769H177.838C178.797 88.769 179.565 89.5359 179.565 90.4946C179.565 91.4532 178.797 92.2201 177.838 92.2201H142.443C141.484 92.2201 140.717 91.4532 140.717 90.4946C140.717 89.6318 141.484 88.769 142.443 88.769Z" fill="#6E94C8"/>
<path fill-rule="evenodd" clip-rule="evenodd" d="M160.189 296.503C163.45 296.503 166.136 299.187 166.136 302.446C166.136 305.706 163.45 308.39 160.189 308.39C156.927 308.39 154.241 305.706 154.241 302.446C154.241 299.091 156.927 296.503 160.189 296.503Z" fill="#6E94C8"/>
<path d="M149.445 145.999H99.7581V183.481H149.445V145.999Z" fill="#DBE2E8"/>
<path d="M197.694 155.393H157.599C156.448 155.393 155.584 154.531 155.584 153.38C155.584 152.23 156.448 151.367 157.599 151.367H197.694C198.845 151.367 199.708 152.23 199.708 153.38C199.708 154.531 198.845 155.393 197.694 155.393Z" fill="#DBE2E8"/>
<path d="M197.694 164.404H157.599C156.448 164.404 155.584 163.542 155.584 162.391C155.584 161.241 156.448 160.378 157.599 160.378H197.694C198.845 160.378 199.708 161.241 199.708 162.391C199.708 163.542 198.845 164.404 197.694 164.404Z" fill="#DBE2E8"/>
<path d="M173.426 173.32H157.599C156.448 173.32 155.584 172.457 155.584 171.307C155.584 170.156 156.448 169.293 157.599 169.293H173.426C174.577 169.293 175.44 170.156 175.44 171.307C175.44 172.457 174.577 173.32 173.426 173.32Z" fill="#DBE2E8"/>
<path d="M197.694 206.776H157.599C156.448 206.776 155.584 205.913 155.584 204.763C155.584 203.612 156.448 202.75 157.599 202.75H197.694C198.845 202.75 199.708 203.612 199.708 204.763C199.708 205.913 198.845 206.776 197.694 206.776Z" fill="#DBE2E8"/>
<path d="M197.694 215.691H157.599C156.448 215.691 155.584 214.828 155.584 213.678C155.584 212.527 156.448 211.665 157.599 211.665H197.694C198.845 211.665 199.708 212.527 199.708 213.678C199.708 214.828 198.845 215.691 197.694 215.691Z" fill="#DBE2E8"/>
<path d="M173.426 224.702H157.599C156.448 224.702 155.584 223.839 155.584 222.689C155.584 221.539 156.448 220.676 157.599 220.676H173.426C174.577 220.676 175.44 221.539 175.44 222.689C175.44 223.839 174.577 224.702 173.426 224.702Z" fill="#DBE2E8"/>
<path d="M197.694 255.761H157.599C156.448 255.761 155.584 254.899 155.584 253.748C155.584 252.598 156.448 251.735 157.599 251.735H197.694C198.845 251.735 199.708 252.598 199.708 253.748C199.708 254.803 198.845 255.761 197.694 255.761Z" fill="#DBE2E8"/>
<path d="M197.694 264.677H157.599C156.448 264.677 155.584 263.814 155.584 262.664C155.584 261.513 156.448 260.65 157.599 260.65H197.694C198.845 260.65 199.708 261.513 199.708 262.664C199.708 263.814 198.845 264.677 197.694 264.677Z" fill="#DBE2E8"/>
<path d="M173.426 273.688H157.599C156.448 273.688 155.584 272.825 155.584 271.674C155.584 270.524 156.448 269.661 157.599 269.661H173.426C174.577 269.661 175.44 270.524 175.44 271.674C175.44 272.729 174.577 273.688 173.426 273.688Z" fill="#DBE2E8"/>
<path d="M149.445 194.985H99.7581V232.467H149.445V194.985Z" fill="#DBE2E8"/>
<path d="M149.445 243.97H99.7581V281.452H149.445V243.97Z" fill="#DBE2E8"/>
<path d="M133.15 172.937C137.87 168.22 137.87 160.572 133.15 155.855C128.43 151.138 120.778 151.138 116.058 155.855C111.338 160.572 111.338 168.22 116.058 172.937C120.778 177.654 128.43 177.654 133.15 172.937Z" fill="#FF4D43"/>
<path d="M121.341 157.982V170.827L131.125 164.404L121.341 157.982Z" fill="white"/>
<path d="M133.176 222.295C137.896 217.578 137.896 209.93 133.176 205.213C128.456 200.496 120.804 200.496 116.084 205.213C111.364 209.93 111.364 217.578 116.084 222.295C120.804 227.012 128.456 227.012 133.176 222.295Z" fill="#FF4D43"/>
<path d="M121.34 207.255V220.197L131.124 213.774L121.34 207.255Z" fill="white"/>
<path d="M124.602 275.701C131.277 275.701 136.688 270.293 136.688 263.622C136.688 256.951 131.277 251.543 124.602 251.543C117.927 251.543 112.516 256.951 112.516 263.622C112.516 270.293 117.927 275.701 124.602 275.701Z" fill="#FF4D43"/>
<path d="M121.34 257.199V270.045L131.124 263.622L121.34 257.199Z" fill="white"/>
<path d="M210.068 156.352H209.109C208.917 156.352 208.821 156.544 208.821 156.64V159.42C208.821 159.611 209.013 159.707 209.109 159.707H210.068C210.26 159.707 210.356 159.516 210.356 159.42V156.64C210.451 156.544 210.26 156.352 210.068 156.352Z" fill="#DBE2E8"/>
<path d="M214.576 156.735C214.768 156.735 215.056 156.544 215.056 156.16C215.056 155.873 214.864 155.585 214.48 155.585H212.754C212.945 155.298 213.233 154.722 213.233 154.339C213.233 153.668 212.85 153.284 212.658 153.284C212.466 153.284 212.274 153.38 212.178 153.572C212.082 153.764 212.274 154.147 212.178 154.339C212.082 154.531 211.699 154.818 211.219 155.489C210.739 156.064 210.835 156.735 210.835 156.735V157.694V158.653V159.132C210.835 159.324 211.027 159.42 211.123 159.42H214.288C214.48 159.42 214.672 159.228 214.672 159.036C214.672 158.844 214.48 158.653 214.288 158.653H214.384C214.672 158.653 214.864 158.461 214.864 158.173C214.864 157.886 214.672 157.694 214.384 157.694H214.576C214.864 157.694 215.056 157.502 215.056 157.215C215.056 156.927 214.864 156.735 214.576 156.735Z" fill="#DBE2E8"/>
<path d="M223.497 158.557H224.456C224.648 158.557 224.744 158.365 224.744 158.269V155.489C224.744 155.298 224.552 155.202 224.456 155.202H223.497C223.305 155.202 223.209 155.393 223.209 155.489V158.269C223.113 158.461 223.305 158.557 223.497 158.557Z" fill="#DBE2E8"/>
<path d="M218.989 158.269C218.797 158.269 218.509 158.461 218.509 158.845C218.509 159.132 218.701 159.42 219.085 159.42H220.811C220.619 159.707 220.332 160.282 220.332 160.666C220.332 161.337 220.715 161.72 220.907 161.72C221.195 161.72 221.291 161.625 221.387 161.433C221.483 161.241 221.291 160.858 221.387 160.666C221.483 160.474 221.866 160.187 222.346 159.516C222.825 158.94 222.73 158.269 222.73 158.269V157.311V156.352V155.873C222.73 155.681 222.538 155.585 222.442 155.585H219.276C219.085 155.585 218.893 155.777 218.893 155.969C218.893 156.16 219.085 156.352 219.276 156.352H219.18C218.893 156.352 218.701 156.544 218.701 156.831C218.701 157.119 218.893 157.311 219.18 157.311H218.989C218.701 157.311 218.509 157.502 218.509 157.79C218.509 158.078 218.701 158.269 218.989 158.269Z" fill="#DBE2E8"/>
<path d="M210.068 207.159H209.109C208.917 207.159 208.821 207.351 208.821 207.447V210.227C208.821 210.419 209.013 210.514 209.109 210.514H210.068C210.26 210.514 210.356 210.323 210.356 210.227V207.447C210.451 207.351 210.26 207.159 210.068 207.159Z" fill="#DBE2E8"/>
<path d="M214.576 207.543C214.768 207.543 215.056 207.351 215.056 206.967C215.056 206.68 214.864 206.392 214.48 206.392H212.754C212.945 206.105 213.233 205.529 213.233 205.146C213.233 204.475 212.85 204.092 212.658 204.092C212.466 204.092 212.274 204.187 212.178 204.379C212.082 204.571 212.274 204.954 212.178 205.146C212.082 205.338 211.699 205.625 211.219 206.296C210.739 206.872 210.835 207.543 210.835 207.543V208.501V209.46V209.939C210.835 210.131 211.027 210.227 211.123 210.227H214.288C214.48 210.227 214.672 210.035 214.672 209.843C214.672 209.652 214.48 209.46 214.288 209.46H214.384C214.672 209.46 214.864 209.268 214.864 208.981C214.864 208.693 214.672 208.501 214.384 208.501H214.576C214.864 208.501 215.056 208.31 215.056 208.022C215.056 207.734 214.864 207.543 214.576 207.543Z" fill="#DBE2E8"/>
<path d="M223.497 209.364H224.456C224.648 209.364 224.744 209.172 224.744 209.076V206.296C224.744 206.105 224.552 206.009 224.456 206.009H223.497C223.305 206.009 223.209 206.201 223.209 206.296V209.076C223.113 209.268 223.305 209.364 223.497 209.364Z" fill="#DBE2E8"/>
<path d="M218.989 209.076C218.797 209.076 218.509 209.268 218.509 209.652C218.509 209.939 218.701 210.227 219.085 210.227H220.811C220.619 210.514 220.332 211.09 220.332 211.473C220.332 212.144 220.715 212.528 220.907 212.528C221.195 212.528 221.291 212.432 221.387 212.24C221.483 212.048 221.291 211.665 221.387 211.473C221.483 211.281 221.866 210.994 222.346 210.323C222.825 209.748 222.73 209.076 222.73 209.076V208.118V207.159V206.68C222.73 206.488 222.538 206.392 222.442 206.392H219.276C219.085 206.392 218.893 206.584 218.893 206.776C218.893 206.968 219.085 207.159 219.276 207.159H219.18C218.893 207.159 218.701 207.351 218.701 207.639C218.701 207.926 218.893 208.118 219.18 208.118H218.989C218.701 208.118 218.509 208.31 218.509 208.597C218.509 208.885 218.701 209.076 218.989 209.076Z" fill="#DBE2E8"/>
<path d="M210.068 256.145H209.109C208.917 256.145 208.821 256.337 208.821 256.433V259.213C208.821 259.404 209.013 259.5 209.109 259.5H210.068C210.26 259.5 210.356 259.308 210.356 259.213V256.433C210.451 256.241 210.26 256.145 210.068 256.145Z" fill="#DBE2E8"/>
<path d="M214.576 256.433C214.768 256.433 215.056 256.241 215.056 255.857C215.056 255.57 214.864 255.282 214.48 255.282H212.754C212.945 254.995 213.233 254.419 213.233 254.036C213.233 253.365 212.85 252.981 212.658 252.981C212.37 252.981 212.274 253.077 212.178 253.269C212.082 253.461 212.274 253.844 212.178 254.036C212.082 254.228 211.699 254.515 211.219 255.186C210.739 255.761 210.835 256.433 210.835 256.433V257.391V258.35V258.829C210.835 259.021 211.027 259.117 211.123 259.117H214.288C214.48 259.117 214.672 258.925 214.672 258.733C214.672 258.541 214.48 258.35 214.288 258.35H214.384C214.672 258.35 214.864 258.158 214.864 257.87C214.864 257.583 214.672 257.391 214.384 257.391H214.576C214.864 257.391 215.056 257.199 215.056 256.912C215.056 256.624 214.864 256.433 214.576 256.433Z" fill="#DBE2E8"/>
<path d="M223.497 258.35H224.456C224.648 258.35 224.744 258.158 224.744 258.062V255.282C224.744 255.09 224.552 254.995 224.456 254.995H223.497C223.305 254.995 223.209 255.186 223.209 255.282V258.062C223.113 258.158 223.305 258.35 223.497 258.35Z" fill="#DBE2E8"/>
<path d="M218.989 257.966C218.797 257.966 218.509 258.158 218.509 258.542C218.509 258.925 218.701 259.117 219.085 259.117H220.811C220.619 259.404 220.332 259.98 220.332 260.363C220.332 261.034 220.715 261.417 220.907 261.417C221.195 261.417 221.291 261.322 221.387 261.13C221.483 260.938 221.291 260.555 221.387 260.363C221.483 260.171 221.866 259.884 222.346 259.213C222.825 258.637 222.73 257.966 222.73 257.966V257.008V256.049V255.57C222.73 255.378 222.538 255.282 222.442 255.282H219.276C219.085 255.282 218.893 255.474 218.893 255.666C218.893 255.857 219.085 256.049 219.276 256.049H219.18C218.893 256.049 218.701 256.241 218.701 256.528C218.701 256.816 218.893 257.008 219.18 257.008H218.989C218.701 257.008 218.509 257.199 218.509 257.487C218.509 257.775 218.701 257.966 218.989 257.966Z" fill="#DBE2E8"/>
<path d="M231.842 102.381H88.3435V117.336H231.842V102.381Z" fill="#FF4D43"/>
<path d="M231.842 117.336H88.3435V136.988H231.842V117.336Z" fill="#DBE2E8"/>
<path d="M105.609 106.887C105.609 107.27 105.226 107.654 104.842 107.654H96.209C95.8253 107.654 95.4417 107.27 95.4417 106.887C95.4417 106.503 95.8253 106.12 96.209 106.12H104.842C105.322 106.12 105.609 106.407 105.609 106.887Z" fill="white"/>
<path d="M105.609 109.858C105.609 110.242 105.226 110.625 104.842 110.625H96.209C95.8253 110.625 95.4417 110.242 95.4417 109.858C95.4417 109.475 95.8253 109.092 96.209 109.092H104.842C105.322 109.092 105.609 109.475 105.609 109.858Z" fill="white"/>
<path d="M105.609 112.926C105.609 113.31 105.226 113.693 104.842 113.693H96.209C95.8253 113.693 95.4417 113.31 95.4417 112.926C95.4417 112.543 95.8253 112.159 96.209 112.159H104.842C105.322 112.159 105.609 112.447 105.609 112.926Z" fill="white"/>
<path d="M223.401 108.804L223.113 108.229L223.689 106.887L222.921 106.12C222.825 106.024 221.578 106.695 221.578 106.695L221.003 106.408L220.427 105.065H219.372C219.276 105.065 218.797 106.408 218.797 106.408L218.221 106.695C218.221 106.695 216.878 106.12 216.782 106.216L216.015 106.983C215.919 107.079 216.59 108.325 216.59 108.325L216.303 108.9C216.303 108.9 214.96 109.379 214.96 109.475V110.53C214.96 110.625 216.303 111.105 216.303 111.105L216.59 111.68L216.015 113.022L216.782 113.789C216.878 113.885 218.125 113.214 218.125 113.214L218.701 113.501L219.276 114.843H220.331C220.427 114.843 220.907 113.501 220.907 113.501L221.482 113.214C221.482 113.214 222.825 113.789 222.921 113.693L223.689 112.926C223.784 112.83 223.113 111.584 223.113 111.584L223.401 111.009C223.401 111.009 224.744 110.53 224.744 110.434V109.283C224.84 109.283 223.401 108.804 223.401 108.804ZM221.386 109.859C221.386 110.721 220.715 111.392 219.756 111.392C218.892 111.392 218.125 110.721 218.125 109.859C218.125 108.996 218.797 108.325 219.756 108.325C220.715 108.325 221.386 108.996 221.386 109.859Z" fill="white"/>
<path fill-rule="evenodd" clip-rule="evenodd" d="M40.4788 353.35L125.945 372.043L114.626 424H25.0354L40.4788 353.35Z" fill="white"/>
<path fill-rule="evenodd" clip-rule="evenodd" d="M54.9629 337.82L65.802 343.859L68.4878 327.179L86.4251 242.532C90.166 224.894 79.231 219.046 68.2959 215.691L49.1117 305.802C47.3851 314.142 47.9606 333.889 54.9629 337.82Z" fill="#F3D5B6"/>
<path fill-rule="evenodd" clip-rule="evenodd" d="M229.252 352.87L259.18 424H322.488C325.27 421.508 328.051 419.016 330.641 416.331L299.754 339.354L229.252 352.87Z" fill="#F3D5B6"/>
<path fill-rule="evenodd" clip-rule="evenodd" d="M322.008 369.359L343.303 424H252.369L243.161 400.802L322.008 369.359Z" fill="white"/>
<path fill-rule="evenodd" clip-rule="evenodd" d="M166.999 297.078L201.435 345.968C205.847 352.295 228.965 371.755 235.583 367.825C242.202 363.894 232.897 342.421 228.293 336.19L201.915 303.118C186.663 284.137 173.618 292.093 166.999 297.078Z" fill="#F3D5B6"/>
<path fill-rule="evenodd" clip-rule="evenodd" d="M177.646 199.97L205.368 263.335C207.574 251.831 225.128 250.106 231.458 260.938C232.13 248.859 248.437 245.888 256.11 254.515C258.508 243.491 276.158 242.437 281.338 254.132L305.126 307.815C311.841 322.865 312.224 345.872 309.155 356.417C300.138 387.668 258.796 388.627 244.312 379.041C232.993 371.564 224.072 367.441 220.332 359.485L152.227 210.706C143.594 192.013 170.932 184.344 177.646 199.97Z" fill="#F3D5B6"/>
<path fill-rule="evenodd" clip-rule="evenodd" d="M265.223 273.017C265.223 273.017 260.714 262.28 256.686 252.79C256.494 253.365 256.206 253.94 256.11 254.611C255.439 253.844 254.671 253.173 253.904 252.598C258.892 261.801 265.223 273.017 265.223 273.017ZM205.464 262.951C205.655 261.897 206.039 261.034 206.519 260.171C211.027 270.908 218.317 289.313 218.317 289.313C218.317 289.313 209.013 271.195 205.464 263.335C205.464 263.431 205.464 263.335 205.464 262.951ZM228.101 257.008C229.444 258.062 230.595 259.404 231.458 260.938C231.458 260.171 231.65 259.404 231.746 258.637C236.35 269.182 241.914 282.22 241.914 282.22C241.914 282.22 233.185 266.69 228.101 257.008Z" fill="#D2B79A"/>
<path fill-rule="evenodd" clip-rule="evenodd" d="M72.1328 216.937C70.8858 216.458 69.6389 216.074 68.296 215.691L63.9795 235.822C71.2695 235.63 71.8451 224.319 72.1328 216.937Z" fill="#FAF1E7"/>
<path fill-rule="evenodd" clip-rule="evenodd" d="M174.193 200.545L176.591 206.009C172.275 213.774 165.656 216.266 157.215 214.541L154.817 209.364C148.39 195.368 169.205 188.849 174.193 200.545Z" fill="#FAF1E7"/>
<path fill-rule="evenodd" clip-rule="evenodd" d="M77.4085 284.808C84.219 296.791 93.907 318.647 87.7681 337.916C81.725 357.28 64.3632 314.046 77.4085 284.808Z" fill="#F3D5B6"/>
<path fill-rule="evenodd" clip-rule="evenodd" d="M170.548 295.161C169.301 295.736 168.15 296.407 166.999 297.078L178.893 313.95C183.689 308.486 175.728 300.337 170.548 295.161Z" fill="#FAF1E7"/>
<path fill-rule="evenodd" clip-rule="evenodd" d="M189.733 292.86L206.615 329.575L185.032 292.093L189.733 292.86Z" fill="#D2B79A"/>
<path d="M196.735 127.114C196.735 129.894 194.529 132.099 191.747 132.099H128.439C125.657 132.099 123.451 129.894 123.451 127.114C123.451 124.334 125.657 122.129 128.439 122.129H191.747C194.529 122.225 196.735 124.43 196.735 127.114Z" fill="white"/>
<path d="M190.308 124.909C189.445 124.046 188.102 124.046 187.239 124.909C186.375 125.772 186.375 127.114 187.239 127.977C187.91 128.648 188.965 128.839 189.829 128.36L191.555 130.086L192.514 129.127L190.788 127.401C191.172 126.635 191.076 125.58 190.308 124.909ZM189.733 127.306C189.253 127.785 188.39 127.785 187.91 127.306C187.431 126.826 187.431 125.964 187.91 125.484C188.39 125.005 189.253 125.005 189.733 125.484C190.212 126.059 190.212 126.826 189.733 127.306Z" fill="#DBE2E8"/>
<path d="M322.68 165.075H236.638V231.412H322.68V165.075Z" fill="white"/>
<path d="M311.457 172.169H247.957V224.318H311.457V172.169Z" fill="#2D4F76"/>
<path d="M274.431 190.479L287.956 198.244L274.431 206.009V190.479Z" fill="white"/>
<path d="M279.707 211.473C272.417 211.473 266.47 205.529 266.47 198.244C266.47 190.958 272.417 185.015 279.707 185.015C286.997 185.015 292.944 190.958 292.944 198.244C292.944 205.529 286.997 211.473 279.707 211.473ZM279.707 186.836C273.472 186.836 268.292 191.917 268.292 198.244C268.292 204.475 273.376 209.652 279.707 209.652C285.942 209.652 291.122 204.571 291.122 198.244C291.026 191.917 285.942 186.836 279.707 186.836Z" fill="white"/>
<path d="M306.181 220.772C306.181 221.155 305.893 221.538 305.414 221.538H253.808C253.424 221.538 253.041 221.251 253.041 220.772C253.041 220.388 253.329 220.005 253.808 220.005H305.414C305.893 220.005 306.181 220.388 306.181 220.772Z" fill="#F5F5F5"/>
<path d="M280.282 220.772C280.282 221.155 279.995 221.538 279.515 221.538H253.808C253.424 221.538 253.041 221.251 253.041 220.772C253.041 220.388 253.329 220.005 253.808 220.005H279.515C279.995 220.005 280.282 220.388 280.282 220.772Z" fill="#FF4D43"/>
<path d="M279.707 222.497C280.66 222.497 281.433 221.725 281.433 220.772C281.433 219.819 280.66 219.046 279.707 219.046C278.753 219.046 277.98 219.819 277.98 220.772C277.98 221.725 278.753 222.497 279.707 222.497Z" fill="#FF4D43"/>
<path d="M322.68 174.758C317.404 174.758 313.184 170.54 313.184 165.267V164.692C313.184 159.42 317.404 155.202 322.68 155.202C327.955 155.202 332.176 159.42 332.176 164.692V165.267C332.176 170.54 327.955 174.758 322.68 174.758Z" fill="#2D4F76"/>
<path d="M323.543 165.076L327.284 161.337C327.476 161.145 327.476 160.762 327.284 160.474C327.092 160.282 326.708 160.282 326.421 160.474L322.68 164.213L318.939 160.474C318.747 160.282 318.363 160.282 318.076 160.474C317.884 160.666 317.884 161.049 318.076 161.337L321.816 165.076L318.076 168.814C317.884 169.006 317.884 169.389 318.076 169.677C318.171 169.773 318.363 169.869 318.459 169.869C318.651 169.869 318.747 169.773 318.843 169.677L322.584 165.938L326.325 169.677C326.421 169.773 326.613 169.869 326.708 169.869C326.9 169.869 326.996 169.773 327.092 169.677C327.284 169.485 327.284 169.102 327.092 168.814L323.543 165.076Z" fill="white"/>
</g>
<defs>
<clipPath id="clip0_6_491">
<rect width="381" height="424" fill="white"/>
</clipPath>
</defs>
</svg>
