<svg width="919" height="1280" viewBox="0 0 919 1280" fill="none" xmlns="http://www.w3.org/2000/svg">
<path d="M149.551 91.9467C121.208 110.024 93.352 128.523 65.9356 147.083C38.5354 165.763 11.5904 184.625 -14.8669 203.907C-144.746 300.602 -285.078 388.491 -431.918 479.208C-575.129 568.095 -705.592 687.503 -665.286 786.33C-640.231 850.473 -528.894 861.674 -412.215 832.846C-391.816 827.648 -386.36 840.903 -392.351 850.72C-411.824 884.998 -461.771 910.505 -514.671 926.92C-562.107 942.352 -604.464 950.768 -651.209 955.397C-746.522 963.929 -846.168 984.974 -923.953 975.069C-901.799 971.702 -880.833 969.105 -857.851 967.087C-762.604 959.659 -679.509 956.311 -583.507 936.976C-523.486 925.437 -445.714 903.462 -423.877 861.198C-418.846 852.241 -431.221 848.32 -445.062 849.465C-536.814 860.435 -620.179 853.841 -655.788 811.937C-728.661 725.432 -610.777 591.057 -469.19 498.13C-331.508 408.167 -192.007 322.094 -63.6903 228.167C-41.1544 211.728 -18.5699 195.648 4.24221 179.658C49.8826 147.798 96.8889 116.483 144.627 85.7992L149.551 91.9467Z" fill="url(#paint0_diamond_6_348)"/>
<path d="M162.731 108.171C134.111 125.8 106.403 143.791 79.3766 162.056C52.3507 180.32 26.0077 198.857 0.575296 217.757C-111.617 300.373 -230.243 373.639 -363.314 449.957C-529.575 545.131 -694.36 671.865 -649.426 782.6C-638.154 806.993 -612.776 822.66 -576.025 831.675C-522.215 844.22 -452.692 826.526 -393.307 792.804C-379.201 784.078 -359.697 778.637 -345.24 782.033C-332.654 785.925 -328.74 794.157 -327.477 803.477C-325.076 838.685 -364.881 877.056 -417.839 905.77C-456.544 926.833 -498.385 942.237 -542.84 951.059C-653.661 975.443 -771.606 998.115 -866.86 991.185C-719.074 972.623 -554.566 977.351 -411.7 893.864C-368.243 868.141 -325.295 824.356 -360.396 803.678C-367.387 799.758 -380.252 800.162 -389.606 804.228C-485.183 845.774 -601.314 854.815 -637.406 806.161C-751.744 653.598 -410.477 472.166 -189.936 338.972C-136 306.354 -88.3585 273.371 -39.4957 238.275C-17.318 222.371 3.85109 206.969 25.264 191.778C68.0736 161.275 112.493 131.527 158.278 102.325L162.731 108.171Z" fill="url(#paint1_diamond_6_348)"/>
<path d="M174.203 124.505C146.527 141.154 120.217 158.347 95.0136 175.756C69.826 193.285 45.549 211.176 20.4747 229.541C-88.0576 312.148 -214.374 381.102 -346.467 453.515C-510.774 544.043 -683.725 674.075 -632.153 779.772C-615.424 817.42 -539.519 842.061 -464.209 803.504C-430.401 786.025 -415.664 756.527 -371.158 743.317C-337.826 733.447 -310.915 742.944 -299.165 756.563C-263.639 799.452 -314.408 866.567 -394.536 910.887C-433.241 931.951 -472.43 946.265 -515.894 957.63C-613.3 984.09 -714.899 1006.62 -801.063 1003.2C-668.86 987.237 -525.11 973.846 -398.664 905.849C-352.491 881.096 -319.521 851.075 -306.685 818.67C-296.78 791.651 -298.747 764.416 -333.627 754.904C-355.223 749.677 -388.62 760.651 -404.958 775.155C-445.608 812.058 -512.745 836.243 -565.792 826.15C-606.333 817.77 -633.45 800.392 -640.817 773.036C-688.159 612.735 -390.474 473.593 -179.016 354.407C-96.9356 308.605 -30.0108 259.015 36.9959 208.441C57.9373 192.948 79.5616 177.728 101.657 162.809C123.753 147.89 146.743 133.214 170.205 118.84L174.203 124.505Z" fill="url(#paint2_diamond_6_348)"/>
<path d="M184.716 140.117C166.086 152.011 147.895 163.968 129.965 176.254C112.034 188.54 94.7704 200.979 77.7666 213.748C13.4449 261.89 -48.6479 309 -127.945 351.504C-323.975 455.822 -564.24 554.694 -623.262 710.3C-636.523 745.926 -624.685 776.084 -592.316 795.671C-573.863 806.313 -547.86 812.282 -513.553 801.672C-470.933 788.839 -471.86 762.923 -450.688 742.775C-417.719 712.754 -358.885 701.984 -319.189 708.896C-246.286 722.505 -243.459 779.925 -276.766 829.706C-352.108 944.323 -577.658 999.219 -732.434 1010.7C-567.112 988.055 -329.741 937.764 -275.241 809.177C-256.054 764.838 -267.407 712.833 -348.746 718.012C-408.291 721.942 -445.299 760.298 -476.302 792.122C-495.783 812.041 -537.079 815.568 -564.14 811.324C-620.96 801.986 -637.82 766.546 -631.909 729.117C-616.873 636.664 -501.262 549.082 -371.756 476.655C-211.223 386.881 -47.7374 309.363 76.7152 204.399C93.1818 192.433 110.104 180.648 127.481 169.046C144.858 157.443 162.691 146.022 180.962 134.663L184.716 140.117Z" fill="url(#paint3_diamond_6_348)"/>
<path d="M196.352 154.482C178.878 165.368 162.086 176.526 145.978 187.957C129.869 199.388 114.444 211.091 99.0342 222.914C-10.7729 315.185 -158.103 384.795 -303.077 457.493C-430.92 521.542 -554.15 597.379 -600.219 689.655C-620.037 729.333 -620.991 773.149 -565.295 785.317C-550.057 788.12 -524.064 782.895 -515.127 770.976C-497.255 747.137 -500.766 718.042 -461.641 701.667C-381.292 668.512 -277.249 665.612 -246.114 707.879C-205.065 762.919 -234.913 846.183 -340.684 907.85C-436.253 963.755 -554.191 1000.79 -660.613 1011.55C-550.915 989.998 -435.195 962.029 -340.405 903.553C-231.426 835.367 -195.022 722.618 -299.792 693.126C-335.583 683.25 -387.842 686.923 -434.514 704.807C-472.809 719.365 -491.658 743.945 -497.576 767.016C-502.385 783.974 -532.008 794.193 -554.859 794.003C-570.228 793.408 -584.7 789.893 -592.389 782.416C-677.759 705.393 -529.139 575.372 -386.618 497.286C-217.772 405.291 -37.1624 330.199 91.4574 219.438C107.257 207.319 123.089 195.439 139.605 183.831C156.331 172.195 173.53 160.86 191.833 149.74L196.352 154.482Z" fill="url(#paint4_diamond_6_348)"/>
<path d="M210.103 166.979C191.588 178.127 174.422 189.701 158.167 201.639C24.319 324.669 -173.892 404.945 -358.597 500.67C-476.24 562.121 -588.22 644.708 -593.33 727.784C-593.954 737.482 -589.064 744.973 -581.082 751.436C-572.335 757.188 -551.453 758.739 -543.625 749.769C-491.527 690.871 -430.204 626.951 -328.277 598.904C-353.706 613.057 -395.054 646.405 -352.978 645.45C-189.668 639.753 -161.645 744.868 -235.802 838.029C-306.052 925.063 -460.939 984.988 -593.701 1009.55C-463.244 977.512 -311.501 926.166 -245.854 838.539C-201.303 781.15 -195.541 720.377 -241.414 682.175C-273.291 655.098 -338.285 660.131 -393.775 655.845C-404.671 654.887 -414.262 647.668 -418.801 649.135C-484.961 672.58 -499.611 718.616 -531.17 755.87C-537.941 763.115 -554.779 770.75 -567.496 769.066C-581.124 767.018 -590.635 761.979 -594.761 753.776C-611.276 712.936 -584.54 663.923 -536.078 617.93C-418.745 506.507 -239.749 438.57 -76.8296 355.288C13.4317 309.473 80.7671 253.378 151.729 198.617C168.374 186.383 186.126 174.365 205.032 162.92L210.103 166.979Z" fill="url(#paint5_diamond_6_348)"/>
<path d="M227.207 177.195C208.724 188.583 191.59 200.396 175.774 212.395C41.5182 337.184 -161.862 414.266 -348.111 508.133C-450.672 560.116 -550.494 627.549 -568.122 702.464C-569.443 708.606 -566.991 713.993 -557.981 715.328C-554.273 715.677 -547.848 713.833 -544.919 711.611C-374.364 563.894 -50.7103 486.094 119.708 558.288C113.282 560.132 108.811 557.331 104.404 556.589C-10.9103 535.097 -162.135 537.818 -290.402 605.089C-308.282 614.569 -287.729 621.641 -276.133 622.991C-128.595 637.562 -147.614 751.485 -219.816 840C-282.871 916.567 -412.532 976.726 -531.667 1003.33C-411.974 968.132 -281.048 914.13 -222.253 834.733C-156.621 746.986 -162.056 646.476 -296.532 628.188C-308.339 626.868 -322.321 619.027 -312.819 612.872C-237.516 559.957 -125.71 549.19 -34.8689 537.856C-210.01 527.755 -425.394 606.828 -546.651 724.258C-551.403 728.918 -561.602 731.517 -567.049 729.456C-576.903 726.653 -580.119 718.814 -578.732 711.568C-570.507 667.376 -531.333 624.345 -480.483 584.843C-369.559 500.816 -223.618 441.617 -84.797 377.541C15.532 331.335 90.3349 271.551 164.666 211.466C181.654 198.578 200.186 185.967 220.719 173.815L227.207 177.195Z" fill="url(#paint6_diamond_6_348)"/>
<path d="M248.507 185.018C230.041 196.525 213.119 208.31 197.547 220.52C81.1413 330.843 -96.6549 406.041 -267.962 481.455C-366.468 525.223 -475.585 581.259 -509.995 651.511C-513.072 655.822 -498.188 652.832 -492.591 649.64C-336.456 570.319 -158.219 517.453 1.75033 523.647C137.047 528.924 219.261 582.647 319.913 618.294C286.237 633.566 253.877 625.172 231.714 617.345C159.714 589.741 94.5664 553.907 -7.39222 553.118C-75.7332 552.52 -169.806 555.895 -233.359 596.996C-182.743 619.344 -122.222 640.107 -126.384 690.441C-136.59 809.011 -280.322 949.687 -486.646 1000.27C-279.763 941.093 -135.466 806.182 -142.45 686.29C-145.967 639.673 -207.76 623.828 -250.829 599.971C-218.007 572.038 -158.46 564.944 -113.387 557.499C43.138 530.33 138.414 580.336 244.663 612.791C250.809 615.244 259.835 616.699 270.034 614.1C190.404 563.557 90.1629 521.404 -52.3131 526.712C-203.052 533.019 -364.372 580.429 -494.453 661.331C-503.955 667.486 -514.433 674.382 -526.388 675.15C-543.726 675.917 -532.623 659.323 -525.771 651.093C-488.836 599.482 -424.077 554.567 -349.743 516.751C-236.786 458.856 -121.771 412.973 -8.87953 356.182C70.9692 316.158 128.803 266.218 190.327 218.09C205.915 206 222.414 194.273 240.247 182.852L248.507 185.018Z" fill="url(#paint7_diamond_6_348)"/>
<path d="M274.624 190.242C252.66 202.952 233.379 216.395 216.065 230.058C102.958 347.236 -87.2274 415.229 -261.398 491.761C-320.501 518.021 -383.315 547.097 -415.087 587.543C-419.14 592.595 -403.28 588.864 -397.749 586.776C-201.418 521.237 -1.98846 494.461 145.416 539.838C219.582 562.768 277.812 607.935 389.134 590.419C395.493 589.679 405.561 589.289 404.437 592.118C389.913 618.424 339.202 644.643 299.227 642.028C222.008 637.887 183.616 599.28 121.825 580.271C45.772 557.719 -49.057 547.567 -156.596 575.522C-172.244 579.224 -183.002 590.417 -170.627 594.338C-47.2558 632.384 -89.7566 741.456 -169.361 832.556C-233.047 904.463 -337.773 961.121 -453.256 1000.37C-455.143 1000.75 -453.125 998.167 -455.011 998.544C-355.307 962.036 -259.467 916.074 -196.191 850.672C-101.702 753.418 -51.1752 632.063 -194.748 595.902C-206.423 592.373 -188.543 582.893 -178.262 579.309C-136.276 564.981 -97.9059 560.513 -56.6094 556.987C87.9031 546.048 162.846 600.146 261.126 632.587C281.679 639.659 313.328 641.212 341.423 629.253C356.309 623.099 388.375 607.072 378.373 606.358C265.995 597.002 197.827 553.181 97.0529 530.935C-59.2884 497.478 -256.824 538.235 -438.065 608.667C-451.193 613.487 -454.213 605.5 -445.556 597.878C-365.1 522.603 -242.132 476.616 -126.091 428.769C5.81208 374.027 122.207 306.539 211.238 224.627C227.217 212.241 244.546 200.279 263.859 188.658L274.624 190.242Z" fill="url(#paint8_diamond_6_348)"/>
<path d="M305.443 193.611C274.285 213.165 245.046 234.163 218.521 256.132C169.366 290.658 135.008 331.09 74.6488 362.388C-44.8814 424.216 -185.39 456.76 -289.183 528.259C-295.822 533.296 -284.991 535.358 -278.632 534.618C-54.2723 486.82 127.022 513.733 273.671 571.016C311.981 585.174 365.086 579.805 421.81 561.411C436.613 556.241 450.889 563.069 446.557 572.418C432.047 602.007 388.247 629.967 340.943 643.19C301.041 653.829 270.713 646.134 245.624 637.364C197.394 621.507 158.667 599.496 110.65 583.61C59.8344 567.739 2.88223 560.609 -67.8382 567.878C-86.1524 569.385 -123.872 575.469 -118.071 583.323C-86.9518 625.471 -41.0786 663.673 -68.8636 725.605C-120.719 838.743 -264.056 947.361 -440.053 1005.64C-253.51 936.198 -106.753 821.032 -71.8233 698.991C-57.5932 648.265 -96.7545 618.281 -139.462 589.142C-147.298 583.754 -127.662 576.105 -117.463 573.506C-50.803 556.93 7.33893 560.126 61.3621 569.479C123.5 579.922 165.935 602.283 211.917 623.799C246.386 639.816 288.322 655.309 346.655 637.67C386.623 625.928 424.352 605.605 435.997 580.298C438.229 574.519 432.979 569.146 424.666 571.368C368.139 586.449 318.941 585.691 276.873 575.571C199.712 555.968 137.912 525.765 51.0355 515.509C-62.723 502.324 -188.635 521.817 -319.921 552.503C-329.144 554.361 -345.423 553.402 -335.855 546.143C-295.484 513.537 -238.465 490.966 -185.104 466.821C-81.001 419.861 39.52 386.01 122.783 321.916C150.576 299.775 177.408 278.495 205.689 256.775C233.026 234.453 262.429 213.068 293.668 192.529L305.443 193.611Z" fill="url(#paint9_diamond_6_348)"/>
<path d="M341.059 195.844C311.838 213.797 284.047 232.773 259.395 252.663C230.448 274.23 207.257 296.964 181.27 319.711C116.666 376.896 13.8114 404.46 -73.3713 442.8C-104.33 455.878 -142.395 467.363 -155.386 487.498C-163.346 498.677 -134.07 497.023 -119.529 496.27C25.6145 489.991 140.732 514.796 244.099 551.414C294.767 569.375 363.814 559.29 434.314 540.855C463.024 533.436 472.623 555.014 458.657 572.725C437.708 600.875 406.625 630.519 358.622 643.351C249.276 673.863 197.949 619.242 132.175 596.27C102.744 585.655 73.3126 575.04 36.1347 572.41C4.34022 569.781 -32.6404 563.839 -69.2453 581.333C-72.1085 582.451 -73.2325 585.28 -72.3219 585.644C-7.35699 653.507 -30.0747 752.841 -134.287 845.084C-214.53 917.166 -321.061 973.216 -438.58 1018.1C-439.557 1018.84 -438.449 1015.89 -437.457 1015.27C-258.25 947.305 -106.799 842.942 -53.0059 725.038C-27.6803 668.794 -49.3653 624.76 -90.8972 588.404C-97.7568 582.275 -76.5116 575.381 -65.4019 573.146C-9.21998 563.465 35.8595 570.379 80.7914 579.381C145.514 593.003 187.392 620.794 242.613 640.571C272.11 650.082 308.032 657.749 352.604 643.436C396.266 628.759 435.119 605.607 453.189 578.455C459.196 568.758 460.731 559.424 455.824 551.813C450.933 544.323 434.426 543.274 421.509 548.066C362.619 571.134 304.262 574.294 263.155 560.15C133.072 513.887 -10.9624 488.619 -200.759 507.031C-207.118 507.771 -212.5 504.606 -207.536 499.918C-193.085 485.791 -169.676 477.387 -148.998 467.893C-39.4466 419.829 87.6457 385.209 169.367 316.091C195.272 294.328 219.585 271.929 248.727 250.214C272.387 230.946 298.974 212.619 327.382 195.019L341.059 195.844Z" fill="url(#paint10_diamond_6_348)"/>
<path d="M380.938 197.742C356.403 212.14 334.128 227.327 314.308 243.155C219.367 333.899 89.4246 401.518 -53.787 464.972C-60.2782 467.92 -54.411 474.67 -47.2065 475.398C67.6901 489.037 165.258 514.637 265.492 542.432C308.406 554.019 364.867 540.042 420.335 526.686C451.843 519.253 476.59 530.26 477.311 548.294C478.933 580.93 431.292 613.913 385.185 637.562C342.007 658.988 292.464 663.631 256.673 653.756C167.269 628.023 111.616 571.676 -13.817 580.395C-28.4232 582.252 -39.9436 590.992 -35.0528 598.483C74.6102 737.198 -172.372 940.66 -445.062 1032.24C-445.062 1032.24 -440.458 1029.67 -441.075 1028.3C-252.498 956.383 -70.5321 845.208 -23.9999 713.442C-7.3315 664.82 -21.2625 627.159 -51.0533 593.228C-54.6136 590.789 -50.495 584.634 -43.0932 582.049C26.4302 564.355 75.145 583.796 121.635 597.942C177.979 614.89 213.416 644.405 278.286 655.938C349.434 667.717 431.029 618.33 464.756 573.238C471.74 562.8 477.048 552.711 472.011 544.144C466.407 532.978 447.823 524.544 428.253 531.089C324.012 565.899 245.939 549.097 180.996 524.309C106.28 495.734 9.26912 490.137 -86.8297 481.739C-104.93 480.054 -95.9283 467.031 -80.0666 460.136C9.01914 421.538 107.255 393.261 179.76 340.36C223.628 308.132 260.44 273.087 302.405 239.535C321.069 224.715 342.189 210.537 365.991 197.09L380.938 197.742Z" fill="url(#paint11_diamond_6_348)"/>
<path d="M424.8 200.44C398.134 215.005 368.931 229.913 350.492 247.987C277.173 328.257 165.528 394.25 39.9853 448.252C18.3973 457.383 39.6477 468.011 53.2099 471.163C116.045 485.163 175.318 499.888 229.628 519.302C276.881 535.9 340.12 529.036 406.632 514.548C439.75 507.871 474.276 511.59 481.275 529.869C492.333 557.454 462.661 594.331 424.439 622.143C395.802 642.816 356.334 661.428 317.9 663.836C216.36 670.9 179.505 619.794 105.142 600.176C78.2945 592.74 32.9447 575.885 -1.50107 599.778C84.6193 752.27 -174.251 955.395 -455.336 1050.18C-457.223 1050.56 -450.584 1045.52 -450.584 1045.52C-173.986 947.815 80.4115 745.052 -12.2002 595.508C-14.7841 592.33 -4.45349 587.523 2.88249 586.042C58.7195 581.763 95.0598 597.283 135.387 608.856C201.504 629.591 248.992 686.071 358.617 651.261C426.533 629.648 476.671 583.306 482.031 543.396C485.1 524.726 459.508 512.252 427.221 517.113C364.827 525.445 300.751 545.2 251.545 530.084C180.045 509.348 113.847 489.598 33.8213 474.277C18.5836 471.474 -4.96435 467.728 4.03781 454.704C9.97949 446.111 23.1734 440.186 36.3176 435.485C135.309 395.301 238.222 352.275 291.855 284.042C301.767 271.382 318.884 259.449 333.253 247.889C355.431 230.403 381.204 214.013 408.683 199.094L424.8 200.44Z" fill="url(#paint12_diamond_6_348)"/>
<path d="M471.703 204.915C448.063 217.975 424.277 231.541 403.222 246.198C381.956 260.883 363.437 276.778 349.635 294.102C304.01 353.097 217.327 398.305 129.495 435.03C113.633 441.924 110.08 453.845 118.81 459.476C188.365 496.052 274.058 524.599 395.645 503.381C462.026 491.102 511.305 519.472 487.581 562.114C464.818 603.895 408.601 643.516 339.208 662.166C284.568 676.87 244.371 663.089 208.794 650.02C157.216 631.697 111.967 583.797 31.1203 606.919C24.6948 608.763 24.1365 617.357 25.6784 622.381C87.1343 788.314 -200.529 974.41 -464.342 1069.54C-462.324 1066.95 -463.087 1064.5 -460.224 1063.38C-194.376 965.788 86.083 778.965 17.1435 616.601C14.6253 612.318 15.1016 604.708 25.3827 601.125C63.5953 587.551 93.7237 601.723 119.595 609.9C180.33 627.47 218.022 665.685 296.365 666.996C379.181 667.945 464.962 608.135 489.098 555.824C506.832 519.835 462.574 499.911 406.671 505.294C353.565 510.664 299.559 526.864 257.622 514.536C196.952 495.862 118.126 487.801 85.0357 450.18C83.3622 447.364 88.3914 441.572 95.8589 437.883C167.961 405.845 247.266 377.699 297.829 328.136C326.959 299.973 347.826 272.808 383.346 247.308C404.874 231.371 429.555 216.467 455.066 202.91L471.703 204.915Z" fill="url(#paint13_diamond_6_348)"/>
<path d="M519.319 211.485C495.908 223.054 472.578 235.219 452.435 248.657C432.275 261.975 415.075 276.475 404.12 292.562C367.947 346.625 293.006 394.258 213.988 432.466C204.633 436.532 196.042 443.05 196.591 448.695C199.469 476.294 241.554 486.534 280.553 489.89C332.124 493.855 387.895 490.68 440.653 493.876C465.958 496.289 488.382 502.864 493.642 519.431C510.23 573.526 432.505 649.891 329.996 672.054C280.042 683.202 243.406 671.859 210.56 659.881C165.129 644.011 134.214 612.909 71.2543 615.476C57.4787 615.517 52.3161 626.682 52.816 633.55C76.2726 809.865 -205.466 987.248 -470.599 1088.52C-470.468 1086.31 -469.278 1082.37 -467.391 1082C-191.132 978.613 81.7782 796.463 46.5148 618.828C45.8834 614.167 56.2302 609.48 63.4185 610.088C139.727 613.866 181.063 650.37 243.685 667.562C276.745 676.348 317.844 676.134 360.661 659.989C428.856 634.079 484.457 589.917 495.397 546.695C511.427 479.055 380.198 497.442 299.836 498.716C244.213 499.803 204.23 482.829 171.016 461.774C162.352 455.038 162.197 442.768 179.035 435.133C261.549 397.303 339.091 352.968 380.551 296.607C392.857 279.363 410.513 263.463 431.357 248.836C452.2 234.208 476.458 220.943 501.756 208.997L519.319 211.485Z" fill="url(#paint14_diamond_6_348)"/>
<path d="M566.805 220.263C525.873 239.195 493.884 262.147 467.748 286.984C454.567 299.357 442.963 312.246 432.025 325.288C407.799 365.807 358.336 398.064 301.751 428.607C280.926 440.191 273.531 457.134 288.49 464.234C329.934 484.052 398.005 474.708 450.287 485.513C492.438 494.649 517.469 518.881 502.469 552.796C485.169 596.757 429.699 638.711 363.325 665.348C255.728 708.766 193.568 655.248 124.865 634.498C115.922 632.059 105.091 629.997 92.3059 632.581C82.1067 635.18 77.2233 642.048 75.8859 648.07C61.1867 720.763 32.9233 793.469 -48.9291 864.795C-160.822 963.92 -316.758 1036.76 -469.538 1107.48C-469.406 1105.27 -470.103 1101.71 -467.24 1100.6C-210.217 991.908 65.4477 825.326 66.5173 648.853C66.928 642.348 68.3969 634.117 79.72 628.689C98.4449 620.676 115.356 626.295 127.942 630.187C180.857 642.489 209.935 672.744 270.742 678.135C314.149 682.233 367.179 666.773 410.62 640.931C464.474 609.297 507.224 568.823 502.025 533.629C493.397 468.355 357.336 489.223 274.513 473.916C250.332 468.673 233.331 449.681 265.268 432.698C333.242 395.622 397.722 355.004 428.15 306.221C439.708 288.227 457.544 272.06 478.81 257.375C500.076 242.69 524.741 229.248 549.958 216.705L566.805 220.263Z" fill="url(#paint15_diamond_6_348)"/>
<path d="M612.695 231.569C571.046 253.153 535.591 277.548 507.958 304.048C494.044 317.372 482.13 331.155 472.233 345.517C460.057 362.134 455.249 379.092 444.146 395.686C435.144 408.709 409.215 415.995 394.552 430.15C383.86 440.239 379.608 451.767 391.006 456.429C428.339 471.328 477.193 477.487 500.077 501.766C509.277 510.864 514.816 521.552 514.727 533.611C514.85 545.642 509.572 559.134 497.381 574.05C457.928 621.378 390.871 673.176 308.063 686.586C231.614 699.255 192.535 668.286 143.606 652.037C127.606 646.782 101.824 651.979 95.1947 668.21C67.2762 735.514 42.2391 798.656 -28.2407 863.33C-142.497 970.442 -306.468 1044.37 -459.189 1125.06C-460.944 1123.23 -462.683 1121.52 -464.227 1119.66C-207.134 1001.95 64.3308 842.513 89.5906 657.043C92.3149 643.775 118.859 641.031 132.144 645.315C184.912 659.705 218.69 689.689 289.896 686.005C366.697 682.292 441.442 637.971 480.829 591.747C502.542 566.05 514.902 541.254 507.272 518.315C494.73 470.243 393.755 483.071 351.958 454.296C323.996 435.45 400.224 411.615 422.715 388.489C438.29 371.533 444.009 354.938 457.421 337.91C467.839 324.208 479.785 310.664 493.536 297.727C521.022 271.734 555.013 247.659 596.206 227.475L612.695 231.569Z" fill="url(#paint16_diamond_6_348)"/>
<path d="M655.721 245.575C590.903 280.52 524.471 322.62 515.772 371.258C512.592 384.344 512.78 396.853 510.625 409.557C508.47 422.261 503.973 435.161 491.636 449.001C487.715 451.845 490.315 455.143 492.054 456.855C502.843 474.498 517.047 491.923 522.89 511.21C528.944 530.468 526.605 551.351 504.504 575.762C489.774 592.604 472.931 608.15 454.625 622.434C412.091 654.969 358.303 685.499 297.437 695.57C235.872 705.25 197.924 685.81 152.131 675.22C129.625 669.63 111.121 688.808 104.9 701.698C90.0452 736.689 72.3133 769.513 45.6356 803.063C-6.80707 867.362 -76.9258 926.755 -163.338 981.905C-252.614 1038.17 -345.673 1084 -441.859 1138.53C-442.836 1139.27 -444.443 1135.35 -447.94 1134.97C-328.696 1063.08 -192.741 1003.29 -86.5685 923.924C11.0779 849.971 70.6378 769.862 105.252 685.222C111.604 670.124 135.924 662.083 152.9 666.598C203.929 679.277 245.109 706.675 319.089 688.499C379.324 673.767 429.338 643.992 466.976 611.878C481.248 599.6 493.291 586.773 502.244 573.391C511.426 560.1 517.517 546.254 520.112 532.03C523.555 512.945 513.789 499.665 499.907 487.795C487.573 471.456 447.877 464.544 456.658 440.355C460.014 431.747 476.77 425.096 480.126 416.488C486.609 399.181 489.465 383.705 498.145 366.709C505.929 351.052 516.331 335.648 529.368 320.618C555.474 290.796 592.41 263.036 640.745 239.938L655.721 245.575Z" fill="url(#paint17_diamond_6_348)"/>
<path d="M693.834 261.464C649.613 286.317 599.944 310.691 577.804 342.775C549.871 381.362 563.171 414.364 561.799 450.326C561.755 494.506 555.14 539.453 509.327 587.521C493.085 604.325 475.136 619.656 455.529 633.872C377.453 699.697 255.735 723.124 162.992 706.119C152.096 705.161 136.997 714.508 130.926 722.145C50.3526 828.344 -41.6348 929.762 -194.897 1019.16C-272.505 1064.6 -342.368 1105.22 -416.35 1151.99C-416.35 1151.99 -421.585 1149.9 -425.228 1148.45C-405.182 1134.29 -385.201 1121.24 -361.724 1108.57C-156.957 998.808 27.454 878.662 109.549 731.247C118.83 713.927 148.026 684.66 171.018 693.836C257.49 724.955 396.326 689.596 470.94 618.885C490.305 602.876 506.742 585.925 518.772 568.232C530.802 550.539 538.637 532.076 541.202 512.866C542.039 499.976 539.021 488.824 541.746 475.556C550.454 438.112 539.543 408.438 546.576 371.343C553.956 325.684 621.085 287.14 680.322 255.507L693.834 261.464Z" fill="url(#paint18_diamond_6_348)"/>
<path d="M728.189 278.227C669.263 307.384 603.028 346.172 601.179 389.744C599.608 457.616 605.241 526.216 522.413 598.282C504.675 613.584 485.719 627.835 465.819 641.483C382.851 702.981 274.35 734.961 160.658 746.105C146.051 747.962 133.341 760.636 125.447 770.711C18.8203 900.762 -143.108 1012.02 -316.612 1115.72C-361.033 1147.05 -384.496 1164.59 -384.496 1164.59L-395.195 1160.32C-371.749 1144.24 -351.701 1126.92 -324.107 1111.26C-126.543 997.607 30.2677 878.767 141.161 740.472C144.237 736.161 154.568 731.354 159.951 731.355C243.957 728.37 333.74 718.762 409.836 671.702C432.858 658.848 454.855 644.794 475.39 629.478C495.925 614.162 515.013 597.703 532.199 579.92C603.366 507.608 583.415 447.762 588.335 382.357C592.997 338.891 658.174 301.828 716.401 272.279L728.189 278.227Z" fill="url(#paint19_diamond_6_348)"/>
<path d="M760.642 295.248C699.457 320.452 646.852 358.123 636.189 400.212C623.993 448.471 630.309 491.911 596.303 541.3C570.208 579.152 532.633 613.326 488.002 644.684C465.791 660.349 441.776 675.407 416.558 689.532C340.934 736.893 247.713 756.094 159.054 788.306C145.926 793.127 134.666 800.615 126.643 809.734C8.75127 929.75 -140.385 1027.35 -290.76 1128.52C-331.439 1158.86 -354.692 1176.37 -354.692 1176.37L-365.391 1172.1C-365.391 1172.1 -342.138 1154.59 -300.012 1123.82C-146.466 1023.79 7.27507 923.622 117.978 802.998C134.595 784.196 159.391 768.546 190.557 763.351C278.246 746.238 363.699 717.38 435.126 672.413C456.229 659.698 476.388 646.379 495.361 632.248C514.333 618.118 532.347 603.265 548.751 587.656C615.586 524.693 619.396 465.401 621.32 406.486C623.25 361.929 681.649 317.754 749.26 289.123L760.642 295.248Z" fill="url(#paint20_diamond_6_348)"/>
<path d="M791.776 312.082C678.162 354.002 659.755 426.346 641.207 489.704C624.908 545.821 580.867 595.839 521.361 641.381C501.672 656.583 480.194 671.297 457.578 685.556C372.856 742.059 270.223 780.789 169.344 821.35C156.134 827.155 143.07 834.036 133.436 842.399C11.1469 947.435 -124.083 1042.79 -262.193 1140.72C-301.831 1170.79 -325.083 1188.3 -325.083 1188.3L-335.782 1184.03C-335.782 1184.03 -312.741 1166.55 -272.68 1136.42C-142.331 1043.19 -4.78056 955.434 104.66 850.922C126.027 830.625 155.296 814.613 187.93 801.186C272.963 767.64 359.669 736.91 433.406 691.508C454.557 679.151 474.993 666.282 495.104 652.605C600.799 580.848 641.559 498.661 651.985 419.854C658.323 376.039 714.687 334.33 780.607 305.928L791.776 312.082Z" fill="url(#paint21_diamond_6_348)"/>
<path d="M822.44 328.614C758.115 356.069 701.037 394.103 691.008 437.688C669.713 523.687 598.071 600.444 502.899 670.411C479.208 687.858 453.956 704.909 427.581 721.624C351.923 770.328 265.503 811.121 179.994 852.276C122.712 879.264 80.5174 914.307 38.1935 948.395C-49.1223 1017.54 -141.674 1084.6 -232.795 1152.68C-272.433 1182.75 -295.473 1200.23 -295.473 1200.23L-306.172 1195.96C-306.172 1195.96 -283.132 1178.48 -243.494 1148.41C-143.781 1073.81 -39.9725 1002.43 53.203 925.674C90.7112 894.186 130.106 862.321 181.662 837.569C268.993 797.14 355.964 758.829 433.574 710.225C454.253 697.567 474.461 684.607 494.181 671.227C513.69 657.875 532.711 644.103 551.001 629.699C639.293 559.813 656.578 487.135 691.267 412.585C708.156 375.129 760.137 347.155 811.108 322.848L822.44 328.614Z" fill="url(#paint22_diamond_6_348)"/>
<defs>
<radialGradient id="paint0_diamond_6_348" cx="0" cy="0" r="1" gradientUnits="userSpaceOnUse" gradientTransform="translate(-386.473 538.883) rotate(114.16) scale(551.181 724.462)">
<stop/>
<stop offset="0.0001" stop-color="#FE3131" stop-opacity="0.22"/>
<stop offset="1" stop-opacity="0"/>
</radialGradient>
<radialGradient id="paint1_diamond_6_348" cx="0" cy="0" r="1" gradientUnits="userSpaceOnUse" gradientTransform="translate(-351.638 552.828) rotate(113.185) scale(545.903 705.072)">
<stop/>
<stop offset="0.0001" stop-color="#FE3131" stop-opacity="0.22"/>
<stop offset="1" stop-opacity="0"/>
</radialGradient>
<radialGradient id="paint2_diamond_6_348" cx="0" cy="0" r="1" gradientUnits="userSpaceOnUse" gradientTransform="translate(-313.315 564.701) rotate(112.033) scale(538.009 679.33)">
<stop/>
<stop offset="0.0001" stop-color="#FE3131" stop-opacity="0.22"/>
<stop offset="1" stop-opacity="0"/>
</radialGradient>
<radialGradient id="paint3_diamond_6_348" cx="0" cy="0" r="1" gradientUnits="userSpaceOnUse" gradientTransform="translate(-274.13 573.405) rotate(110.887) scale(527.462 649.787)">
<stop/>
<stop offset="0.0001" stop-color="#FE3131" stop-opacity="0.22"/>
<stop offset="1" stop-opacity="0"/>
</radialGradient>
<radialGradient id="paint4_diamond_6_348" cx="0" cy="0" r="1" gradientUnits="userSpaceOnUse" gradientTransform="translate(-232.46 580.588) rotate(109.655) scale(516.327 617.872)">
<stop/>
<stop offset="0.0001" stop-color="#FE3131" stop-opacity="0.22"/>
<stop offset="1" stop-opacity="0"/>
</radialGradient>
<radialGradient id="paint5_diamond_6_348" cx="0" cy="0" r="1" gradientUnits="userSpaceOnUse" gradientTransform="translate(-192.114 585.932) rotate(108.568) scale(505.701 588.49)">
<stop/>
<stop offset="0.0001" stop-color="#FE3131" stop-opacity="0.22"/>
<stop offset="1" stop-opacity="0"/>
</radialGradient>
<radialGradient id="paint6_diamond_6_348" cx="0" cy="0" r="1" gradientUnits="userSpaceOnUse" gradientTransform="translate(-156.649 588.732) rotate(107.929) scale(495.585 566.727)">
<stop/>
<stop offset="0.0001" stop-color="#FE3131" stop-opacity="0.22"/>
<stop offset="1" stop-opacity="0"/>
</radialGradient>
<radialGradient id="paint7_diamond_6_348" cx="0" cy="0" r="1" gradientUnits="userSpaceOnUse" gradientTransform="translate(-115.135 590.471) rotate(107.769) scale(489.045 556.73)">
<stop/>
<stop offset="0.0001" stop-color="#FE3131" stop-opacity="0.22"/>
<stop offset="1" stop-opacity="0"/>
</radialGradient>
<radialGradient id="paint8_diamond_6_348" cx="0" cy="0" r="1" gradientUnits="userSpaceOnUse" gradientTransform="translate(-53.1801 588.894) rotate(109.239) scale(492.25 582.947)">
<stop/>
<stop offset="0.0001" stop-color="#FE3131" stop-opacity="0.22"/>
<stop offset="1" stop-opacity="0"/>
</radialGradient>
<radialGradient id="paint9_diamond_6_348" cx="0" cy="0" r="1" gradientUnits="userSpaceOnUse" gradientTransform="translate(-22.7571 592.253) rotate(110.07) scale(495.366 598.792)">
<stop/>
<stop offset="0.0001" stop-color="#FE3131" stop-opacity="0.22"/>
<stop offset="1" stop-opacity="0"/>
</radialGradient>
<radialGradient id="paint10_diamond_6_348" cx="0" cy="0" r="1" gradientUnits="userSpaceOnUse" gradientTransform="translate(-12.1653 600.718) rotate(110.379) scale(500.742 609.735)">
<stop/>
<stop offset="0.0001" stop-color="#FE3131" stop-opacity="0.22"/>
<stop offset="1" stop-opacity="0"/>
</radialGradient>
<radialGradient id="paint11_diamond_6_348" cx="0" cy="0" r="1" gradientUnits="userSpaceOnUse" gradientTransform="translate(-8.19682 610.421) rotate(110.707) scale(506.388 621.296)">
<stop/>
<stop offset="0.0001" stop-color="#FE3131" stop-opacity="0.22"/>
<stop offset="1" stop-opacity="0"/>
</radialGradient>
<radialGradient id="paint12_diamond_6_348" cx="0" cy="0" r="1" gradientUnits="userSpaceOnUse" gradientTransform="translate(-9.36626 622.749) rotate(110.909) scale(513.491 632.898)">
<stop/>
<stop offset="0.0001" stop-color="#FE3131" stop-opacity="0.22"/>
<stop offset="1" stop-opacity="0"/>
</radialGradient>
<radialGradient id="paint13_diamond_6_348" cx="0" cy="0" r="1" gradientUnits="userSpaceOnUse" gradientTransform="translate(3.39702 635.135) rotate(111.701) scale(523.101 655.952)">
<stop/>
<stop offset="0.0001" stop-color="#FE3131" stop-opacity="0.22"/>
<stop offset="1" stop-opacity="0"/>
</radialGradient>
<radialGradient id="paint14_diamond_6_348" cx="0" cy="0" r="1" gradientUnits="userSpaceOnUse" gradientTransform="translate(24.0362 647.611) rotate(112.785) scale(532.911 683.065)">
<stop/>
<stop offset="0.0001" stop-color="#FE3131" stop-opacity="0.22"/>
<stop offset="1" stop-opacity="0"/>
</radialGradient>
<radialGradient id="paint15_diamond_6_348" cx="0" cy="0" r="1" gradientUnits="userSpaceOnUse" gradientTransform="translate(48.2453 661.003) rotate(113.687) scale(541.473 705.814)">
<stop/>
<stop offset="0.0001" stop-color="#FE3131" stop-opacity="0.22"/>
<stop offset="1" stop-opacity="0"/>
</radialGradient>
<radialGradient id="paint16_diamond_6_348" cx="0" cy="0" r="1" gradientUnits="userSpaceOnUse" gradientTransform="translate(74.2177 675.493) rotate(114.509) scale(547.722 724.183)">
<stop/>
<stop offset="0.0001" stop-color="#FE3131" stop-opacity="0.22"/>
<stop offset="1" stop-opacity="0"/>
</radialGradient>
<radialGradient id="paint17_diamond_6_348" cx="0" cy="0" r="1" gradientUnits="userSpaceOnUse" gradientTransform="translate(103.676 688.691) rotate(115.177) scale(549.902 734.972)">
<stop/>
<stop offset="0.0001" stop-color="#FE3131" stop-opacity="0.22"/>
<stop offset="1" stop-opacity="0"/>
</radialGradient>
<radialGradient id="paint18_diamond_6_348" cx="0" cy="0" r="1" gradientUnits="userSpaceOnUse" gradientTransform="translate(134.101 703.461) rotate(115.64) scale(549.815 740.105)">
<stop/>
<stop offset="0.0001" stop-color="#FE3131" stop-opacity="0.22"/>
<stop offset="1" stop-opacity="0"/>
</radialGradient>
<radialGradient id="paint19_diamond_6_348" cx="0" cy="0" r="1" gradientUnits="userSpaceOnUse" gradientTransform="translate(166.375 718.376) rotate(115.886) scale(547.877 740.191)">
<stop/>
<stop offset="0.0001" stop-color="#FE3131" stop-opacity="0.22"/>
<stop offset="1" stop-opacity="0"/>
</radialGradient>
<radialGradient id="paint20_diamond_6_348" cx="0" cy="0" r="1" gradientUnits="userSpaceOnUse" gradientTransform="translate(197.496 732.718) rotate(116.123) scale(545.343 739.302)">
<stop/>
<stop offset="0.0001" stop-color="#FE3131" stop-opacity="0.22"/>
<stop offset="1" stop-opacity="0"/>
</radialGradient>
<radialGradient id="paint21_diamond_6_348" cx="0" cy="0" r="1" gradientUnits="userSpaceOnUse" gradientTransform="translate(227.868 747.1) rotate(116.325) scale(542.856 738.053)">
<stop/>
<stop offset="0.0001" stop-color="#FE3131" stop-opacity="0.22"/>
<stop offset="1" stop-opacity="0"/>
</radialGradient>
<radialGradient id="paint22_diamond_6_348" cx="0" cy="0" r="1" gradientUnits="userSpaceOnUse" gradientTransform="translate(258.029 761.51) rotate(116.521) scale(540.318 736.601)">
<stop/>
<stop offset="0.0001" stop-color="#FE3131" stop-opacity="0.22"/>
<stop offset="1" stop-opacity="0"/>
</radialGradient>
</defs>
</svg>
