<svg width="71" height="71" viewBox="0 0 71 71" fill="none" xmlns="http://www.w3.org/2000/svg">
<path d="M35.5 4.4375L8.875 13.3125V39.9375C8.875 54.6437 20.7938 66.5625 35.5 66.5625C50.2062 66.5625 62.125 54.6437 62.125 39.9375V13.3125L35.5 4.4375ZM57.1328 39.9375C57.1328 51.8841 47.4466 61.5703 35.5 61.5703C23.5534 61.5703 13.8672 51.8841 13.8672 39.9375V17.0566L35.5 9.42969L57.1328 17.0566V39.9375Z" fill="white"/>
<path d="M26.2368 32.9415C26.0055 32.7091 25.7305 32.5247 25.4277 32.3988C25.1249 32.273 24.8002 32.2082 24.4722 32.2082C24.1443 32.2082 23.8196 32.273 23.5168 32.3988C23.214 32.5247 22.939 32.7091 22.7076 32.9415C22.4752 33.1729 22.2908 33.4478 22.165 33.7507C22.0391 34.0535 21.9744 34.3782 21.9744 34.7061C21.9744 35.034 22.0391 35.3587 22.165 35.6616C22.2908 35.9644 22.4752 36.2394 22.7076 36.4707L31.6797 45.4428L31.8253 45.5884C32.0442 45.8076 32.3041 45.9816 32.5902 46.1002C32.8763 46.2189 33.1831 46.28 33.4928 46.28C33.8026 46.28 34.1093 46.2189 34.3955 46.1002C34.6816 45.9816 34.9415 45.8076 35.1604 45.5884L50.657 30.0918C50.8762 29.873 51.0501 29.613 51.1688 29.3269C51.2875 29.0408 51.3486 28.734 51.3486 28.4243C51.3486 28.1145 51.2875 27.8078 51.1688 27.5216C51.0501 27.2355 50.8762 26.9756 50.657 26.7567L50.4628 26.5626C50.244 26.3434 49.9841 26.1694 49.6979 26.0507C49.4118 25.9321 49.1051 25.871 48.7953 25.871C48.4855 25.871 48.1788 25.9321 47.8927 26.0507C47.6065 26.1694 47.3466 26.3434 47.1278 26.5626L33.4894 40.194L26.2368 32.9415Z" fill="white"/>
</svg>
