<svg width="147" height="98" viewBox="0 0 147 98" fill="none" xmlns="http://www.w3.org/2000/svg">
<mask id="mask0_6_235" style="mask-type:luminance" maskUnits="userSpaceOnUse" x="40" y="16" width="67" height="66">
<path d="M73.4999 81.6667C91.5412 81.6667 106.167 67.0413 106.167 49C106.167 30.9587 91.5412 16.3333 73.4999 16.3333C55.4586 16.3333 40.8333 30.9587 40.8333 49C40.8333 67.0413 55.4586 81.6667 73.4999 81.6667Z" fill="white"/>
</mask>
<g mask="url(#mask0_6_235)">
<path d="M46.019 16.3333V56.4243H60.6411L73.4999 34.1515H106.167V16.3333H46.019Z" fill="#DB4437"/>
<path d="M46.019 16.3333V56.4243H60.6411L73.4999 34.1515H106.167V16.3333H46.019Z" fill="url(#paint0_linear_6_235)"/>
</g>
<mask id="mask1_6_235" style="mask-type:luminance" maskUnits="userSpaceOnUse" x="40" y="16" width="67" height="66">
<path d="M73.4999 81.6667C91.5412 81.6667 106.167 67.0413 106.167 49C106.167 30.9587 91.5412 16.3333 73.4999 16.3333C55.4586 16.3333 40.8333 30.9587 40.8333 49C40.8333 67.0413 55.4586 81.6667 73.4999 81.6667Z" fill="white"/>
</mask>
<g mask="url(#mask1_6_235)">
<path d="M60.9938 56.2943L46.2085 30.9368L45.9932 31.308L60.6709 56.4762L60.9938 56.2943Z" fill="#3E2723" fill-opacity="0.15"/>
</g>
<mask id="mask2_6_235" style="mask-type:luminance" maskUnits="userSpaceOnUse" x="40" y="16" width="67" height="66">
<path d="M73.4999 81.6667C91.5412 81.6667 106.167 67.0413 106.167 49C106.167 30.9587 91.5412 16.3333 73.4999 16.3333C55.4586 16.3333 40.8333 30.9587 40.8333 49C40.8333 67.0413 55.4586 81.6667 73.4999 81.6667Z" fill="white"/>
</mask>
<g mask="url(#mask2_6_235)">
<path d="M40.8333 81.6667H71.9297L86.3624 67.234V56.4243H60.6411L40.8333 22.4509V81.6667Z" fill="#0F9D58"/>
<path d="M40.8333 81.6667H71.9297L86.3624 67.234V56.4243H60.6411L40.8333 22.4509V81.6667Z" fill="url(#paint1_linear_6_235)"/>
</g>
<mask id="mask3_6_235" style="mask-type:luminance" maskUnits="userSpaceOnUse" x="40" y="16" width="67" height="66">
<path d="M73.4999 81.6667C91.5412 81.6667 106.167 67.0413 106.167 49C106.167 30.9587 91.5412 16.3333 73.4999 16.3333C55.4586 16.3333 40.8333 30.9587 40.8333 49C40.8333 67.0413 55.4586 81.6667 73.4999 81.6667Z" fill="white"/>
</mask>
<g mask="url(#mask3_6_235)">
<path d="M86.0616 56.918L85.7535 56.7398L71.5027 81.6667H71.9296L86.0728 56.9291L86.0616 56.918Z" fill="#263238" fill-opacity="0.15"/>
</g>
<mask id="mask4_6_235" style="mask-type:luminance" maskUnits="userSpaceOnUse" x="40" y="16" width="67" height="66">
<path d="M73.4999 81.6667C91.5412 81.6667 106.167 67.0413 106.167 49C106.167 30.9587 91.5412 16.3333 73.4999 16.3333C55.4586 16.3333 40.8333 30.9587 40.8333 49C40.8333 67.0413 55.4586 81.6667 73.4999 81.6667Z" fill="white"/>
</mask>
<g mask="url(#mask4_6_235)">
<mask id="mask5_6_235" style="mask-type:luminance" maskUnits="userSpaceOnUse" x="40" y="22" width="47" height="60">
<path d="M40.8333 81.6667H71.9297L86.3624 67.234V56.4243H60.6411L40.8333 22.4509V81.6667Z" fill="white"/>
</mask>
<g mask="url(#mask5_6_235)">
<path d="M73.4999 34.1515L86.3624 56.4242L71.9297 81.6667H106.167V34.1515H73.4999Z" fill="#FFCD40"/>
<path d="M73.4999 34.1515L86.3624 56.4242L71.9297 81.6667H106.167V34.1515H73.4999Z" fill="url(#paint2_linear_6_235)"/>
</g>
</g>
<mask id="mask6_6_235" style="mask-type:luminance" maskUnits="userSpaceOnUse" x="40" y="16" width="67" height="66">
<path d="M73.4999 81.6667C91.5412 81.6667 106.167 67.0413 106.167 49C106.167 30.9587 91.5412 16.3333 73.4999 16.3333C55.4586 16.3333 40.8333 30.9587 40.8333 49C40.8333 67.0413 55.4586 81.6667 73.4999 81.6667Z" fill="white"/>
</mask>
<g mask="url(#mask6_6_235)">
<path d="M73.4999 34.1515L86.3624 56.4242L71.9297 81.6667H106.167V34.1515H73.4999Z" fill="#FFCD40"/>
<path d="M73.4999 34.1515L86.3624 56.4242L71.9297 81.6667H106.167V34.1515H73.4999Z" fill="url(#paint3_linear_6_235)"/>
</g>
<mask id="mask7_6_235" style="mask-type:luminance" maskUnits="userSpaceOnUse" x="40" y="16" width="67" height="66">
<path d="M73.4999 81.6667C91.5412 81.6667 106.167 67.0413 106.167 49C106.167 30.9587 91.5412 16.3333 73.4999 16.3333C55.4586 16.3333 40.8333 30.9587 40.8333 49C40.8333 67.0413 55.4586 81.6667 73.4999 81.6667Z" fill="white"/>
</mask>
<g mask="url(#mask7_6_235)">
<mask id="mask8_6_235" style="mask-type:luminance" maskUnits="userSpaceOnUse" x="71" y="34" width="36" height="48">
<path d="M73.4999 34.1515L86.3624 56.4242L71.9297 81.6667H106.167V34.1515H73.4999Z" fill="white"/>
</mask>
<g mask="url(#mask8_6_235)">
<path d="M46.019 16.3333V56.4243H60.6411L73.4999 34.1515H106.167V16.3333H46.019Z" fill="#DB4437"/>
<path d="M46.019 16.3333V56.4243H60.6411L73.4999 34.1515H106.167V16.3333H46.019Z" fill="url(#paint4_linear_6_235)"/>
</g>
</g>
<mask id="mask9_6_235" style="mask-type:luminance" maskUnits="userSpaceOnUse" x="40" y="16" width="67" height="66">
<path d="M73.4999 81.6667C91.5412 81.6667 106.167 67.0413 106.167 49C106.167 30.9587 91.5412 16.3333 73.4999 16.3333C55.4586 16.3333 40.8333 30.9587 40.8333 49C40.8333 67.0413 55.4586 81.6667 73.4999 81.6667Z" fill="white"/>
</mask>
<g mask="url(#mask9_6_235)">
<path d="M73.5 34.1515V41.9284L102.603 34.1515H73.5Z" fill="url(#paint5_radial_6_235)"/>
</g>
<mask id="mask10_6_235" style="mask-type:luminance" maskUnits="userSpaceOnUse" x="40" y="16" width="67" height="66">
<path d="M73.4999 81.6667C91.5412 81.6667 106.167 67.0413 106.167 49C106.167 30.9587 91.5412 16.3333 73.4999 16.3333C55.4586 16.3333 40.8333 30.9587 40.8333 49C40.8333 67.0413 55.4586 81.6667 73.4999 81.6667Z" fill="white"/>
</mask>
<g mask="url(#mask10_6_235)">
<mask id="mask11_6_235" style="mask-type:luminance" maskUnits="userSpaceOnUse" x="46" y="16" width="61" height="41">
<path d="M46.019 16.3333V31.308L60.6411 56.4243L73.4999 34.1515H106.167V16.3333H46.019Z" fill="white"/>
</mask>
<g mask="url(#mask11_6_235)">
<path d="M40.8333 81.6667H71.9297L86.3624 67.234V56.4243H60.6411L40.8333 22.4509V81.6667Z" fill="#0F9D58"/>
<path d="M40.8333 81.6667H71.9297L86.3624 67.234V56.4243H60.6411L40.8333 22.4509V81.6667Z" fill="url(#paint6_linear_6_235)"/>
</g>
</g>
<mask id="mask12_6_235" style="mask-type:luminance" maskUnits="userSpaceOnUse" x="40" y="16" width="67" height="66">
<path d="M73.4999 81.6667C91.5412 81.6667 106.167 67.0413 106.167 49C106.167 30.9587 91.5412 16.3333 73.4999 16.3333C55.4586 16.3333 40.8333 30.9587 40.8333 49C40.8333 67.0413 55.4586 81.6667 73.4999 81.6667Z" fill="white"/>
</mask>
<g mask="url(#mask12_6_235)">
<path d="M46.019 31.3489L67.2709 52.5971L60.6411 56.4243L46.019 31.3489Z" fill="url(#paint7_radial_6_235)"/>
</g>
<mask id="mask13_6_235" style="mask-type:luminance" maskUnits="userSpaceOnUse" x="40" y="16" width="67" height="66">
<path d="M73.4999 81.6667C91.5412 81.6667 106.167 67.0413 106.167 49C106.167 30.9587 91.5412 16.3333 73.4999 16.3333C55.4586 16.3333 40.8333 30.9587 40.8333 49C40.8333 67.0413 55.4586 81.6667 73.4999 81.6667Z" fill="white"/>
</mask>
<g mask="url(#mask13_6_235)">
<path d="M71.9519 81.6258L79.7325 52.597L86.3624 56.4242L71.9519 81.6258Z" fill="url(#paint8_radial_6_235)"/>
</g>
<mask id="mask14_6_235" style="mask-type:luminance" maskUnits="userSpaceOnUse" x="40" y="16" width="67" height="66">
<path d="M73.4999 81.6667C91.5412 81.6667 106.167 67.0413 106.167 49C106.167 30.9587 91.5412 16.3333 73.4999 16.3333C55.4586 16.3333 40.8333 30.9587 40.8333 49C40.8333 67.0413 55.4586 81.6667 73.4999 81.6667Z" fill="white"/>
</mask>
<g mask="url(#mask14_6_235)">
<path d="M73.4999 63.8485C81.7004 63.8485 88.3483 57.2006 88.3483 49C88.3483 40.7994 81.7004 34.1515 73.4999 34.1515C65.2993 34.1515 58.6514 40.7994 58.6514 49C58.6514 57.2006 65.2993 63.8485 73.4999 63.8485Z" fill="#F1F1F1"/>
<path d="M73.4999 60.8788C80.0604 60.8788 85.3787 55.5605 85.3787 49C85.3787 42.4395 80.0604 37.1212 73.4999 37.1212C66.9394 37.1212 61.6211 42.4395 61.6211 49C61.6211 55.5605 66.9394 60.8788 73.4999 60.8788Z" fill="#4285F4"/>
</g>
<mask id="mask15_6_235" style="mask-type:luminance" maskUnits="userSpaceOnUse" x="40" y="16" width="67" height="66">
<path d="M73.4999 81.6667C91.5412 81.6667 106.167 67.0413 106.167 49C106.167 30.9587 91.5412 16.3333 73.4999 16.3333C55.4586 16.3333 40.8333 30.9587 40.8333 49C40.8333 67.0413 55.4586 81.6667 73.4999 81.6667Z" fill="white"/>
</mask>
<g mask="url(#mask15_6_235)">
<path d="M73.4999 33.7803C65.2998 33.7803 58.6514 40.4287 58.6514 48.6288V49C58.6514 40.8 65.2998 34.1515 73.4999 34.1515H106.167V33.7803H73.4999Z" fill="#3E2723" fill-opacity="0.2"/>
<path d="M86.3439 56.4243C83.7751 60.8565 78.9902 63.8485 73.4999 63.8485C68.006 63.8485 63.2211 60.8565 60.6523 56.4243H60.6374L40.8333 22.4509V22.8221L60.6411 56.7955H60.656C63.2248 61.2277 68.0097 64.2197 73.5036 64.2197C78.9939 64.2197 83.7788 61.2315 86.3476 56.7955H86.3661V56.4243H86.3439Z" fill="white" fill-opacity="0.1"/>
<path opacity="0.1" d="M73.8712 34.1515C73.808 34.1515 73.7487 34.1589 73.6855 34.1627C81.8002 34.2629 88.3484 40.863 88.3484 49C88.3484 57.137 81.8002 63.7371 73.6855 63.8374C73.7487 63.8374 73.808 63.8485 73.8712 63.8485C82.0712 63.8485 88.7196 57.2001 88.7196 49C88.7196 40.7999 82.0712 34.1515 73.8712 34.1515Z" fill="#3E2723"/>
<path d="M86.4923 56.918C87.7545 54.7353 88.4857 52.211 88.4857 49.5086C88.4857 47.9421 88.2407 46.4349 87.7916 45.0206C88.1442 46.2902 88.3484 47.6228 88.3484 49.0037C88.3484 51.7062 87.6171 54.2304 86.355 56.4131L86.3624 56.428L71.9297 81.6704H72.3603L86.4998 56.9328L86.4923 56.918Z" fill="white" fill-opacity="0.2"/>
</g>
<mask id="mask16_6_235" style="mask-type:luminance" maskUnits="userSpaceOnUse" x="40" y="16" width="67" height="66">
<path d="M73.4999 81.6667C91.5412 81.6667 106.167 67.0413 106.167 49C106.167 30.9587 91.5412 16.3333 73.4999 16.3333C55.4586 16.3333 40.8333 30.9587 40.8333 49C40.8333 67.0413 55.4586 81.6667 73.4999 81.6667Z" fill="white"/>
</mask>
<g mask="url(#mask16_6_235)">
<path d="M73.4999 16.7046C91.4777 16.7046 106.063 31.2301 106.163 49.1856C106.163 49.1225 106.167 49.0631 106.167 49C106.167 30.9591 91.5408 16.3333 73.4999 16.3333C55.459 16.3333 40.8333 30.9591 40.8333 49C40.8333 49.0631 40.837 49.1225 40.837 49.1856C40.9372 31.2301 55.5221 16.7046 73.4999 16.7046Z" fill="white" fill-opacity="0.2"/>
<path d="M73.4999 81.2955C91.4777 81.2955 106.063 66.7699 106.163 48.8144C106.163 48.8775 106.167 48.9369 106.167 49C106.167 67.0409 91.5408 81.6667 73.4999 81.6667C55.459 81.6667 40.8333 67.0409 40.8333 49C40.8333 48.9369 40.837 48.8775 40.837 48.8144C40.9372 66.7699 55.5221 81.2955 73.4999 81.2955Z" fill="#3E2723" fill-opacity="0.15"/>
</g>
<path d="M73.4999 81.6667C91.5412 81.6667 106.167 67.0413 106.167 49C106.167 30.9587 91.5412 16.3333 73.4999 16.3333C55.4586 16.3333 40.8333 30.9587 40.8333 49C40.8333 67.0413 55.4586 81.6667 73.4999 81.6667Z" fill="url(#paint9_radial_6_235)"/>
<defs>
<linearGradient id="paint0_linear_6_235" x1="48.7538" y1="41.2123" x2="68.2424" y2="29.8284" gradientUnits="userSpaceOnUse">
<stop stop-color="#A52714" stop-opacity="0.6"/>
<stop offset="0.66" stop-color="#A52714" stop-opacity="0"/>
</linearGradient>
<linearGradient id="paint1_linear_6_235" x1="79.0198" y1="74.4281" x2="57.3663" y2="61.7437" gradientUnits="userSpaceOnUse">
<stop stop-color="#055524" stop-opacity="0.4"/>
<stop offset="0.33" stop-color="#055524" stop-opacity="0"/>
</linearGradient>
<linearGradient id="paint2_linear_6_235" x1="83.0995" y1="31.8515" x2="88.5526" y2="55.7301" gradientUnits="userSpaceOnUse">
<stop stop-color="#EA6100" stop-opacity="0.3"/>
<stop offset="0.66" stop-color="#EA6100" stop-opacity="0"/>
</linearGradient>
<linearGradient id="paint3_linear_6_235" x1="83.0995" y1="31.8515" x2="88.5526" y2="55.7301" gradientUnits="userSpaceOnUse">
<stop stop-color="#EA6100" stop-opacity="0.3"/>
<stop offset="0.66" stop-color="#EA6100" stop-opacity="0"/>
</linearGradient>
<linearGradient id="paint4_linear_6_235" x1="48.7538" y1="41.2123" x2="68.2424" y2="29.8284" gradientUnits="userSpaceOnUse">
<stop stop-color="#A52714" stop-opacity="0.6"/>
<stop offset="0.66" stop-color="#A52714" stop-opacity="0"/>
</linearGradient>
<radialGradient id="paint5_radial_6_235" cx="0" cy="0" r="1" gradientUnits="userSpaceOnUse" gradientTransform="translate(72.082 34.1322) scale(31.2108)">
<stop stop-color="#3E2723" stop-opacity="0.2"/>
<stop offset="1" stop-color="#3E2723" stop-opacity="0"/>
</radialGradient>
<linearGradient id="paint6_linear_6_235" x1="79.0198" y1="74.4281" x2="57.3663" y2="61.7437" gradientUnits="userSpaceOnUse">
<stop stop-color="#055524" stop-opacity="0.4"/>
<stop offset="0.33" stop-color="#055524" stop-opacity="0"/>
</linearGradient>
<radialGradient id="paint7_radial_6_235" cx="0" cy="0" r="1" gradientUnits="userSpaceOnUse" gradientTransform="translate(45.9856 31.3749) scale(28.9709)">
<stop stop-color="#3E2723" stop-opacity="0.2"/>
<stop offset="1" stop-color="#3E2723" stop-opacity="0"/>
</radialGradient>
<radialGradient id="paint8_radial_6_235" cx="0" cy="0" r="1" gradientUnits="userSpaceOnUse" gradientTransform="translate(73.4405 49.0512) scale(32.6184 32.6184)">
<stop stop-color="#263238" stop-opacity="0.2"/>
<stop offset="1" stop-color="#263238" stop-opacity="0"/>
</radialGradient>
<radialGradient id="paint9_radial_6_235" cx="0" cy="0" r="1" gradientUnits="userSpaceOnUse" gradientTransform="translate(50.5909 25.2476) scale(65.6117 65.6117)">
<stop stop-color="white" stop-opacity="0.1"/>
<stop offset="1" stop-color="white" stop-opacity="0"/>
</radialGradient>
</defs>
</svg>
