<svg width="67" height="67" viewBox="0 0 67 67" fill="none" xmlns="http://www.w3.org/2000/svg">
<path d="M65.15 37.9585C63.65 38.8265 62.9167 40.5625 63.3167 42.2317C63.9834 44.7689 63.6167 47.5065 62.25 49.8768C60.3834 53.0817 57.0834 55.018 53.3834 55.018L13.6167 54.9847C12.3167 54.9847 11.1834 54.317 10.5167 53.1819C9.88337 52.0468 9.88337 50.7114 10.5167 49.6097L27.5834 20.0309C28.75 17.9944 28.75 15.524 27.5834 13.4875L27.5167 13.4541L7.75004 47.7736C6.48337 49.977 6.41671 52.7479 7.71671 54.9513C8.98337 57.0545 11.1834 58.2897 13.6167 58.2897L53.3834 58.3231C58.2834 58.3231 62.6834 55.7859 65.15 51.5126C67.6167 47.3062 67.6167 42.2317 65.15 37.9585Z" fill="#EE4545"/>
<path d="M16.05 6.81048C17.55 7.67848 19.4167 7.44479 20.65 6.24294C22.5167 4.40678 25.05 3.33847 27.7834 3.33847C31.4834 3.33847 34.7834 5.2414 36.65 8.47971L56.5167 42.9995C57.15 44.1346 57.15 45.47 56.5167 46.5717C55.8834 47.7067 54.7167 48.3744 53.4167 48.3744H19.3167C16.9834 48.3744 14.8167 49.6097 13.65 51.6461V51.7129H53.25C55.8167 51.7129 58.2167 50.3775 59.4834 48.1407C60.65 46.0041 60.65 43.4669 59.4167 41.3303L39.55 6.81048C37.0834 2.53724 32.6834 0 27.7834 0C22.8834 0 18.4834 2.53724 16.05 6.81048Z" fill="url(#paint0_linear_17_15)"/>
<path d="M18 67C16 64.5 14.6667 63.4674 13 63C10.4667 62.2989 6.11667 58.9239 4.75 56.5536C2.88333 53.3486 2.88333 49.5094 4.75 46.3045L24.6833 11.8181C25.3167 10.683 26.4833 10.0153 27.7833 10.0153C29.0833 10.0153 30.2167 10.683 30.8833 11.8181L47.95 41.3969C49.1167 43.4334 51.2833 44.6686 53.6167 44.6686L53.6833 44.6352L33.8167 10.2824C32.55 8.079 30.1833 6.64345 27.6167 6.67684C25.1833 6.71022 22.9833 8.01223 21.7833 10.1155L1.85 44.6352C-0.616667 48.8751 -0.616667 53.983 1.85 58.2228C4.31667 62.4627 13.1 67 18 67Z" fill="white"/>
<defs>
<linearGradient id="paint0_linear_17_15" x1="37.0001" y1="0" x2="37.0001" y2="51.7129" gradientUnits="userSpaceOnUse">
<stop stop-color="white"/>
<stop offset="1" stop-color="#EE4545"/>
</linearGradient>
</defs>
</svg>
