<svg width="387" height="368" viewBox="0 0 387 368" fill="none" xmlns="http://www.w3.org/2000/svg">
<path d="M354.85 126.354C347.349 108.446 332.348 89.1711 320.523 83.1282C328.943 99.4064 334.792 116.889 337.863 134.956V135.264C318.581 87.0539 285.799 67.6462 259.017 25.3022C257.605 23.185 256.281 21.0236 254.957 18.7741C254.207 17.4509 253.634 16.304 253.06 15.2454C251.945 13.0888 251.086 10.8091 250.501 8.45276C250.503 8.34957 250.469 8.24891 250.404 8.16832C250.34 8.08773 250.249 8.03229 250.148 8.01167C250.006 7.95737 249.849 7.95737 249.707 8.01167V8.09989C249.707 8.18811 249.575 8.09989 249.575 8.09989V8.01167C206.688 33.1534 192.083 79.7319 190.76 102.977C173.597 104.167 157.191 110.5 143.682 121.15C142.272 119.953 140.8 118.834 139.269 117.797C135.365 104.122 135.212 89.6488 138.828 75.8945C123.032 83.5404 108.999 94.3852 97.6181 107.741C90.7792 99.1837 91.2645 70.8661 91.6616 64.9556C89.6489 65.7497 87.7261 66.7551 85.9257 67.9549C79.9238 72.2282 74.313 77.0254 69.1593 82.2902C63.3392 88.2324 58.0261 94.6504 53.2754 101.477C42.2825 117.055 34.4847 134.654 30.3319 153.261L30.023 154.451C29.7142 155.907 28.5229 163.45 28.3464 165.037V165.479C26.8635 173.253 25.9493 181.125 25.6108 189.032L25.6108 189.915C25.6799 232.696 41.7906 273.896 70.7625 305.382C99.7343 336.868 139.462 356.351 182.101 359.985C224.741 363.619 267.194 351.139 301.079 325.01C334.964 298.881 357.818 261.002 365.13 218.85C365.439 216.644 365.66 214.439 365.924 212.233C369.466 183.135 365.674 153.614 354.894 126.354H354.85ZM157.756 260.135C158.551 260.576 159.301 261.017 160.095 261.326L160.227 261.414C159.433 261.003 158.624 260.561 157.801 260.091L157.756 260.135ZM337.907 135.22V135.088V135.264V135.22Z" fill="url(#paint0_linear_6_102)"/>
<path d="M354.85 126.354C347.349 108.446 332.348 89.1711 320.523 83.1283C328.943 99.4064 334.792 116.889 337.863 134.956V135.308C351.054 173.014 349.157 214.356 332.568 250.696C312.978 292.731 265.503 335.825 191.245 333.708C111.031 331.503 40.3476 271.956 27.111 193.973C24.7284 181.622 27.111 175.447 28.3464 165.435C26.704 173.184 25.7882 181.069 25.6108 188.988V189.871C25.6799 232.651 41.7906 273.852 70.7625 305.338C99.7343 336.824 139.462 356.307 182.101 359.941C224.741 363.575 267.194 351.095 301.079 324.966C334.964 298.837 357.818 260.958 365.13 218.806C365.439 216.6 365.66 214.395 365.924 212.189C369.466 183.091 365.674 153.57 354.894 126.31L354.85 126.354Z" fill="url(#paint1_radial_6_102)"/>
<path d="M354.85 126.354C347.349 108.446 332.348 89.1711 320.523 83.1283C328.943 99.4064 334.792 116.889 337.863 134.956V135.308C351.054 173.014 349.157 214.356 332.568 250.696C312.978 292.731 265.503 335.825 191.245 333.708C111.031 331.503 40.3476 271.956 27.111 193.973C24.7284 181.622 27.111 175.447 28.3464 165.435C26.704 173.184 25.7882 181.069 25.6108 188.988V189.871C25.6799 232.651 41.7906 273.852 70.7625 305.338C99.7343 336.824 139.462 356.307 182.101 359.941C224.741 363.575 267.194 351.095 301.079 324.966C334.964 298.837 357.818 260.958 365.13 218.806C365.439 216.6 365.66 214.395 365.924 212.189C369.466 183.091 365.674 153.57 354.894 126.31L354.85 126.354Z" fill="url(#paint2_radial_6_102)"/>
<path d="M271.724 146.424C272.165 146.688 272.43 146.953 272.783 147.218C268.489 139.596 263.142 132.617 256.899 126.487C203.776 73.3803 243 11.2757 249.619 8.14404V8.01172C206.732 33.1535 192.128 79.7319 190.804 102.977C192.789 102.845 194.775 102.712 196.805 102.712C212.036 102.734 226.991 106.786 240.149 114.455C253.308 122.125 264.201 133.139 271.724 146.38V146.424Z" fill="url(#paint3_radial_6_102)"/>
<path d="M196.937 157.098C196.628 161.288 181.626 175.976 176.332 175.976C127.709 175.976 119.856 205.353 119.856 205.353C121.973 230.141 139.269 250.52 160.095 261.37L163.007 262.693C164.684 263.429 166.36 264.12 168.037 264.767C175.192 267.31 182.688 268.767 190.274 269.089C275.518 273.059 292.02 167.199 230.514 136.455C245.022 134.588 259.708 138.171 271.724 146.512C264.201 133.272 253.308 122.257 240.149 114.588C226.991 106.918 212.036 102.867 196.804 102.845C194.775 102.845 192.834 102.933 190.804 103.065C173.641 104.255 157.235 110.588 143.726 121.238C146.373 123.443 149.285 126.354 155.506 132.486C167.11 143.954 196.849 155.731 196.981 157.186L196.937 157.098Z" fill="url(#paint4_radial_6_102)"/>
<path d="M196.937 157.098C196.628 161.288 181.627 175.976 176.332 175.976C127.709 175.976 119.856 205.353 119.856 205.353C121.973 230.141 139.269 250.52 160.095 261.37L163.007 262.693C164.684 263.429 166.36 264.12 168.037 264.767C175.192 267.31 182.688 268.767 190.274 269.089C275.518 273.059 292.02 167.199 230.514 136.455C245.022 134.588 259.708 138.171 271.724 146.512C264.201 133.272 253.308 122.257 240.149 114.588C226.991 106.918 212.036 102.867 196.804 102.845C194.775 102.845 192.834 102.933 190.804 103.065C173.641 104.255 157.235 110.588 143.726 121.238C146.373 123.443 149.285 126.354 155.506 132.486C167.11 143.954 196.849 155.731 196.981 157.186L196.937 157.098Z" fill="url(#paint5_radial_6_102)"/>
<path d="M135.784 115.46C137.107 116.342 138.299 117.092 139.313 117.797C135.409 104.122 135.256 89.6488 138.872 75.8945C123.076 83.5404 109.043 94.3852 97.6622 107.741C98.5447 107.741 123.253 107.3 135.784 115.416V115.46Z" fill="url(#paint6_radial_6_102)"/>
<path d="M27.1551 193.973C40.3917 271.912 110.987 331.458 191.289 333.708C265.547 335.825 312.978 292.687 332.568 250.696C349.157 214.356 351.054 173.014 337.863 135.308V135.132V134.956L337.951 135.264C343.952 174.874 323.832 213.204 292.329 239.14L292.196 239.36C230.867 289.335 172.184 269.53 160.271 261.414C159.389 261.032 158.551 260.62 157.756 260.179C122.018 243.109 107.193 210.513 110.369 182.549C101.879 182.677 93.5339 180.34 86.3449 175.823C79.1558 171.306 73.4314 164.802 69.8652 157.098C79.2587 151.347 89.9687 148.097 100.975 147.657C111.981 147.217 122.916 149.602 132.739 154.584C152.977 163.757 175.999 164.66 196.893 157.098C196.804 155.687 167.066 143.865 155.418 132.397C149.241 126.31 146.329 123.399 143.681 121.194C142.272 119.998 140.799 118.878 139.269 117.842C138.254 117.136 137.151 116.386 135.74 115.504C123.297 107.388 98.5005 107.829 97.6622 107.829H97.5739C90.8232 99.2719 91.2645 70.9543 91.6616 65.0438C89.6488 65.8379 87.7261 66.8433 85.9257 68.0432C79.9219 72.3304 74.311 77.1424 69.1593 82.4225C63.2953 88.3454 57.9378 94.7488 53.143 101.566C42.1501 117.143 34.3523 134.743 30.1995 153.349C30.1113 153.702 24.0224 180.255 27.0227 194.017L27.1551 193.973Z" fill="url(#paint7_radial_6_102)"/>
<path d="M256.943 126.487C263.186 132.616 268.533 139.595 272.827 147.218C273.709 147.968 274.592 148.673 275.386 149.335C314.213 185.063 293.917 235.567 292.373 239.184C323.832 213.248 343.996 174.918 337.951 135.308C318.537 87.098 285.799 67.6903 258.972 25.3463C257.649 23.2291 256.325 21.0678 255.001 18.8182C254.251 17.495 253.678 16.3482 253.104 15.2896C251.97 13.1209 251.097 10.8261 250.501 8.45276C250.503 8.34957 250.469 8.24891 250.404 8.16832C250.34 8.08773 250.249 8.03229 250.148 8.01167C250.006 7.95737 249.849 7.95737 249.707 8.01167V8.09989C249.707 8.18811 249.574 8.09989 249.574 8.09989C242.956 11.2757 203.688 73.3803 256.899 126.487H256.943Z" fill="url(#paint8_radial_6_102)"/>
<path d="M275.342 149.335C274.592 148.629 273.709 147.924 272.783 147.218L271.724 146.424C259.69 138.088 244.987 134.52 230.47 136.411C291.976 167.199 275.474 273.147 190.23 269.089C182.661 268.777 175.18 267.334 168.037 264.811C166.36 264.223 164.684 263.546 163.007 262.782C162.036 262.341 161.11 261.9 160.139 261.458H160.271C172.184 269.574 230.867 289.423 292.285 239.404L292.373 239.228C293.917 235.699 314.213 185.107 275.43 149.423L275.342 149.335Z" fill="url(#paint9_radial_6_102)"/>
<path d="M119.811 205.353C119.811 205.353 127.753 175.976 176.288 175.976C181.582 175.976 196.584 161.288 196.937 157.01C176.023 164.609 152.964 163.723 132.695 154.54C122.872 149.558 111.937 147.173 100.931 147.613C89.9246 148.053 79.2146 151.303 69.8212 157.054C73.3999 164.763 79.1408 171.268 86.3466 175.778C93.5525 180.288 101.913 182.609 110.413 182.46C107.193 210.425 121.973 243.021 157.756 260.091C158.551 260.532 159.301 260.885 160.095 261.282C139.225 250.475 121.973 230.097 119.811 205.264V205.353Z" fill="url(#paint10_radial_6_102)"/>
<path d="M354.85 126.354C347.349 108.446 332.348 89.1711 320.523 83.1282C328.943 99.4064 334.792 116.889 337.863 134.956V135.264C318.581 87.0539 285.799 67.6462 259.017 25.3022C257.605 23.185 256.281 21.0236 254.957 18.7741C254.207 17.4509 253.634 16.304 253.06 15.2454C251.945 13.0888 251.086 10.8091 250.501 8.45276C250.503 8.34957 250.469 8.24891 250.404 8.16832C250.34 8.08773 250.249 8.03229 250.148 8.01167C250.006 7.95737 249.849 7.95737 249.707 8.01167V8.09989C249.707 8.18811 249.575 8.09989 249.575 8.09989V8.01167C206.688 33.1534 192.083 79.7319 190.76 102.977C192.745 102.845 194.731 102.712 196.76 102.712C211.992 102.734 226.947 106.786 240.105 114.455C253.264 122.125 264.157 133.139 271.68 146.38C259.652 138.07 244.967 134.518 230.47 136.411C291.976 167.199 275.474 273.147 190.23 269.089C182.646 268.781 175.15 267.339 167.993 264.811C166.316 264.222 164.639 263.546 162.963 262.782L160.051 261.458H160.183C159.389 261.076 158.58 260.664 157.756 260.223C158.551 260.664 159.301 261.105 160.095 261.414C139.225 250.608 121.973 230.23 119.811 205.397C119.811 205.397 127.753 176.065 176.288 176.065C181.582 176.065 196.584 161.376 196.937 157.098C196.849 155.775 167.11 143.865 155.462 132.485C149.285 126.31 146.329 123.443 143.726 121.238C142.317 120.042 140.844 118.923 139.313 117.886C135.409 104.21 135.256 89.737 138.872 75.9827C123.076 83.6286 109.043 94.4734 97.6622 107.829C90.8233 99.2719 91.3086 70.9543 91.7057 65.0438C89.693 65.8379 87.7702 66.8433 85.9698 68.0432C79.9679 72.3164 74.3571 77.1136 69.2034 82.3784C63.3834 88.3206 58.0702 94.7386 53.3195 101.566C42.3266 117.143 34.5288 134.743 30.376 153.349L30.023 154.451C29.7142 155.907 28.2582 163.582 28.0375 165.214C26.7214 173.096 25.8816 181.05 25.5226 189.032V189.915C25.5916 232.696 41.7024 273.896 70.6742 305.382C99.646 336.868 139.373 356.351 182.013 359.985C224.653 363.619 267.106 351.139 300.991 325.01C334.876 298.881 357.73 261.002 365.042 218.85C365.351 216.644 365.571 214.439 365.836 212.233C369.378 183.135 365.586 153.614 354.806 126.354H354.85Z" fill="url(#paint11_linear_6_102)"/>
<defs>
<linearGradient id="paint0_linear_6_102" x1="332.369" y1="62.6289" x2="39.7736" y2="326.994" gradientUnits="userSpaceOnUse">
<stop offset="0.048" stop-color="#FFF44F"/>
<stop offset="0.111" stop-color="#FFE847"/>
<stop offset="0.225" stop-color="#FFC830"/>
<stop offset="0.368" stop-color="#FF980E"/>
<stop offset="0.401" stop-color="#FF8B16"/>
<stop offset="0.462" stop-color="#FF672A"/>
<stop offset="0.534" stop-color="#FF3647"/>
<stop offset="0.705" stop-color="#E31587"/>
</linearGradient>
<radialGradient id="paint1_radial_6_102" cx="0" cy="0" r="1" gradientUnits="userSpaceOnUse" gradientTransform="translate(324.816 47.1756) scale(356.493 356.382)">
<stop offset="0.129" stop-color="#FFBD4F"/>
<stop offset="0.186" stop-color="#FFAC31"/>
<stop offset="0.247" stop-color="#FF9D17"/>
<stop offset="0.283" stop-color="#FF980E"/>
<stop offset="0.403" stop-color="#FF563B"/>
<stop offset="0.467" stop-color="#FF3750"/>
<stop offset="0.71" stop-color="#F5156C"/>
<stop offset="0.782" stop-color="#EB0878"/>
<stop offset="0.86" stop-color="#E50080"/>
</radialGradient>
<radialGradient id="paint2_radial_6_102" cx="0" cy="0" r="1" gradientUnits="userSpaceOnUse" gradientTransform="translate(194.55 192.874) scale(356.493 356.382)">
<stop offset="0.3" stop-color="#960E18"/>
<stop offset="0.351" stop-color="#B11927" stop-opacity="0.74"/>
<stop offset="0.435" stop-color="#DB293D" stop-opacity="0.343"/>
<stop offset="0.497" stop-color="#F5334B" stop-opacity="0.094"/>
<stop offset="0.53" stop-color="#FF3750" stop-opacity="0"/>
</radialGradient>
<radialGradient id="paint3_radial_6_102" cx="0" cy="0" r="1" gradientUnits="userSpaceOnUse" gradientTransform="translate(237.529 -33.7016) scale(258.264 258.184)">
<stop offset="0.132" stop-color="#FFF44F"/>
<stop offset="0.252" stop-color="#FFDC3E"/>
<stop offset="0.506" stop-color="#FF9D12"/>
<stop offset="0.526" stop-color="#FF980E"/>
</radialGradient>
<radialGradient id="paint4_radial_6_102" cx="0" cy="0" r="1" gradientUnits="userSpaceOnUse" gradientTransform="translate(155.118 285.965) scale(169.742 169.689)">
<stop offset="0.353" stop-color="#3A8EE6"/>
<stop offset="0.472" stop-color="#5C79F0"/>
<stop offset="0.669" stop-color="#9059FF"/>
<stop offset="1" stop-color="#C139E6"/>
</radialGradient>
<radialGradient id="paint5_radial_6_102" cx="0" cy="0" r="1" gradientUnits="userSpaceOnUse" gradientTransform="translate(214.031 163.667) rotate(-13.5875) scale(89.9947 105.332)">
<stop offset="0.206" stop-color="#9059FF" stop-opacity="0"/>
<stop offset="0.278" stop-color="#8C4FF3" stop-opacity="0.064"/>
<stop offset="0.747" stop-color="#7716A8" stop-opacity="0.45"/>
<stop offset="0.975" stop-color="#6E008B" stop-opacity="0.6"/>
</radialGradient>
<radialGradient id="paint6_radial_6_102" cx="0" cy="0" r="1" gradientUnits="userSpaceOnUse" gradientTransform="translate(190.049 32.5934) scale(122.112 122.074)">
<stop stop-color="#FFE226"/>
<stop offset="0.121" stop-color="#FFDB27"/>
<stop offset="0.295" stop-color="#FFC82A"/>
<stop offset="0.502" stop-color="#FFA930"/>
<stop offset="0.732" stop-color="#FF7E37"/>
<stop offset="0.792" stop-color="#FF7139"/>
</radialGradient>
<radialGradient id="paint7_radial_6_102" cx="0" cy="0" r="1" gradientUnits="userSpaceOnUse" gradientTransform="translate(286.033 -44.8346) scale(520.998 520.836)">
<stop offset="0.113" stop-color="#FFF44F"/>
<stop offset="0.456" stop-color="#FF980E"/>
<stop offset="0.622" stop-color="#FF5634"/>
<stop offset="0.716" stop-color="#FF3647"/>
<stop offset="0.904" stop-color="#E31587"/>
</radialGradient>
<radialGradient id="paint8_radial_6_102" cx="0" cy="0" r="1" gradientUnits="userSpaceOnUse" gradientTransform="translate(242.12 -15.875) rotate(83.9741) scale(381.735 250.605)">
<stop stop-color="#FFF44F"/>
<stop offset="0.06" stop-color="#FFE847"/>
<stop offset="0.168" stop-color="#FFC830"/>
<stop offset="0.304" stop-color="#FF980E"/>
<stop offset="0.356" stop-color="#FF8B16"/>
<stop offset="0.455" stop-color="#FF672A"/>
<stop offset="0.57" stop-color="#FF3647"/>
<stop offset="0.737" stop-color="#E31587"/>
</radialGradient>
<radialGradient id="paint9_radial_6_102" cx="0" cy="0" r="1" gradientUnits="userSpaceOnUse" gradientTransform="translate(187.173 77.8089) scale(325.268 325.167)">
<stop offset="0.137" stop-color="#FFF44F"/>
<stop offset="0.48" stop-color="#FF980E"/>
<stop offset="0.592" stop-color="#FF5634"/>
<stop offset="0.655" stop-color="#FF3647"/>
<stop offset="0.904" stop-color="#E31587"/>
</radialGradient>
<radialGradient id="paint10_radial_6_102" cx="0" cy="0" r="1" gradientUnits="userSpaceOnUse" gradientTransform="translate(273.034 96.8416) scale(356.003 355.893)">
<stop offset="0.094" stop-color="#FFF44F"/>
<stop offset="0.231" stop-color="#FFE141"/>
<stop offset="0.509" stop-color="#FFAF1E"/>
<stop offset="0.626" stop-color="#FF980E"/>
</radialGradient>
<linearGradient id="paint11_linear_6_102" x1="328.865" y1="61.2184" x2="79.6" y2="294.5" gradientUnits="userSpaceOnUse">
<stop offset="0.167" stop-color="#FFF44F" stop-opacity="0.8"/>
<stop offset="0.266" stop-color="#FFF44F" stop-opacity="0.634"/>
<stop offset="0.489" stop-color="#FFF44F" stop-opacity="0.217"/>
<stop offset="0.6" stop-color="#FFF44F" stop-opacity="0"/>
</linearGradient>
</defs>
</svg>
