<svg width="1306" height="1410" viewBox="0 0 1306 1410" fill="none" xmlns="http://www.w3.org/2000/svg">
<path d="M422.275 105.756C389.646 126.455 357.578 147.634 326.014 168.884C294.469 190.271 263.448 211.864 232.988 233.939C83.4541 344.632 -78.097 445.266 -247.138 549.141C-412.003 650.92 -562.23 787.585 -515.953 900.549C-487.187 973.868 -359.096 986.566 -224.817 953.487C-201.342 947.524 -195.077 962.675 -201.98 973.906C-224.419 1013.12 -281.912 1042.33 -342.796 1061.16C-397.39 1078.85 -446.133 1088.51 -499.923 1093.85C-609.597 1103.7 -724.27 1127.87 -813.758 1116.62C-788.265 1112.74 -764.139 1109.75 -737.694 1107.42C-628.097 1098.84 -532.485 1094.93 -422.007 1072.72C-352.936 1059.47 -263.43 1034.27 -238.264 985.917C-232.466 975.671 -246.7 971.2 -262.627 972.523C-368.207 985.157 -464.12 977.7 -505.049 929.819C-588.812 830.977 -453.043 677.21 -290.042 570.815C-131.538 467.811 29.0556 369.254 176.788 261.727C202.734 242.907 228.735 224.498 254.998 206.192C307.543 169.717 361.659 133.864 416.616 98.7314L422.275 105.756Z" fill="url(#paint0_diamond_6_466)"/>
<path d="M437.424 124.295C404.478 144.48 372.578 165.08 341.465 185.991C310.351 206.902 280.023 228.123 250.742 249.76C121.573 344.337 -14.9895 428.23 -168.175 515.626C-359.567 624.616 -549.292 769.693 -497.701 896.268C-484.756 924.148 -455.571 942.038 -413.294 952.31C-351.394 966.601 -271.383 946.301 -203.023 907.683C-186.784 897.692 -164.337 891.451 -147.707 895.319C-133.229 899.758 -128.734 909.166 -127.29 919.822C-124.562 960.078 -170.399 1003.99 -231.36 1036.88C-275.914 1061 -324.071 1078.66 -375.229 1088.79C-502.764 1116.78 -638.492 1142.82 -748.083 1134.99C-578.024 1113.62 -388.748 1118.86 -224.285 1023.26C-174.258 993.802 -124.799 943.693 -165.166 920.084C-173.206 915.608 -188.009 916.084 -198.776 920.742C-308.786 968.342 -442.414 978.794 -483.893 923.197C-615.3 748.862 -222.462 541.068 31.4222 388.551C93.5121 351.2 148.361 313.439 204.616 273.261C230.149 255.054 254.521 237.422 279.174 220.03C328.46 185.109 379.598 151.051 432.307 117.614L437.424 124.295Z" fill="url(#paint1_diamond_6_466)"/>
<path d="M450.607 142.96C418.748 162.024 388.459 181.71 359.443 201.641C330.445 221.709 302.494 242.191 273.626 263.215C148.668 357.778 3.26149 436.747 -148.794 519.678C-337.933 623.354 -537.057 772.209 -477.823 893.017C-458.613 936.049 -371.301 964.15 -284.612 919.988C-245.696 899.968 -228.711 866.224 -177.489 851.076C-139.129 839.757 -108.175 850.589 -94.6681 866.15C-53.8341 915.157 -112.315 991.949 -204.553 1042.71C-249.108 1066.83 -294.212 1083.24 -344.233 1096.27C-456.333 1126.63 -573.254 1152.48 -672.391 1148.66C-520.262 1130.28 -354.852 1114.82 -209.298 1036.95C-156.147 1008.6 -118.183 974.239 -103.382 937.174C-91.9583 906.27 -94.1949 875.13 -134.319 864.287C-159.161 858.331 -197.598 870.913 -216.41 887.514C-263.219 929.751 -340.489 957.471 -401.515 945.983C-448.153 936.441 -479.337 916.596 -487.786 885.324C-542.099 702.075 -199.448 542.68 43.9708 406.189C138.457 353.736 215.509 296.967 292.656 239.072C316.766 221.336 341.662 203.911 367.1 186.83C392.538 169.749 419.005 152.946 446.014 136.487L450.607 142.96Z" fill="url(#paint2_diamond_6_466)"/>
<path d="M462.688 160.802C441.242 174.42 420.3 188.11 399.657 202.176C379.014 216.242 359.138 230.483 339.561 245.1C265.506 300.211 194.016 354.139 102.735 402.819C-122.918 522.294 -399.462 635.586 -467.525 813.571C-482.818 854.321 -469.227 888.792 -432.003 911.158C-410.781 923.308 -380.869 930.108 -341.385 917.941C-292.334 903.226 -293.376 873.594 -268.995 850.534C-231.031 816.174 -163.327 803.801 -117.66 811.666C-33.792 827.156 -30.5963 892.809 -68.9683 949.764C-155.768 1080.9 -415.339 1143.89 -593.434 1157.17C-403.194 1131.11 -130.026 1073.37 -67.1931 926.289C-45.0734 875.571 -58.084 816.116 -151.678 822.118C-220.193 826.671 -262.812 870.566 -298.515 906.985C-320.949 929.781 -368.468 933.854 -399.599 929.028C-464.967 918.406 -484.331 877.9 -477.493 835.095C-460.101 729.366 -326.994 629.107 -177.914 546.162C6.88214 443.353 195.063 354.554 338.361 234.411C357.319 220.712 376.801 207.22 396.806 193.936C416.812 180.652 437.341 167.575 458.375 154.569L462.688 160.802Z" fill="url(#paint3_diamond_6_466)"/>
<path d="M476.063 177.215C455.946 189.68 436.615 202.455 418.07 215.542C399.524 228.628 381.764 242.025 364.023 255.559C237.589 361.175 68.0032 440.915 -98.8741 524.184C-246.032 597.547 -387.895 684.384 -440.992 789.941C-463.833 835.331 -464.974 885.433 -400.902 899.292C-383.373 902.482 -353.46 896.482 -343.166 882.844C-322.579 855.568 -326.59 822.303 -281.557 803.541C-189.076 765.551 -69.3623 762.132 -33.5798 810.431C13.596 873.326 -20.8285 968.563 -142.588 1039.18C-252.605 1103.2 -388.339 1145.66 -510.797 1158.07C-384.559 1133.32 -251.385 1101.22 -142.263 1034.27C-16.8054 956.192 25.192 827.234 -95.327 793.614C-136.498 782.358 -196.63 786.609 -250.348 807.104C-294.424 823.788 -316.136 851.912 -322.968 878.298C-328.517 897.694 -362.612 909.408 -388.903 909.214C-406.586 908.549 -423.235 904.543 -432.074 896.002C-530.224 808.013 -359.095 659.195 -195.034 569.768C-0.671767 464.411 207.21 378.369 355.308 251.592C373.499 237.719 391.727 224.119 410.741 210.83C429.998 197.508 449.797 184.53 470.869 171.797L476.063 177.215Z" fill="url(#paint4_diamond_6_466)"/>
<path d="M491.873 191.491C470.558 204.257 450.796 217.508 432.081 231.174C277.956 371.985 49.8172 463.971 -162.797 573.61C-298.217 643.991 -427.142 738.536 -433.103 833.534C-433.831 844.624 -428.211 853.184 -419.034 860.566C-408.976 867.134 -384.951 868.888 -375.934 858.623C-315.933 791.225 -245.313 718.075 -128.008 685.904C-157.281 702.114 -204.888 740.285 -156.475 739.152C31.4338 732.476 63.5724 852.643 -21.8437 959.24C-102.758 1058.83 -281.029 1127.5 -433.808 1155.71C-283.673 1118.96 -109.029 1060.09 -33.4093 959.833C17.9065 894.168 24.5971 824.671 -28.1465 781.035C-64.797 750.105 -139.584 755.924 -203.426 751.078C-215.962 749.994 -226.99 741.749 -232.214 743.431C-308.36 770.303 -325.262 822.958 -361.61 865.587C-369.407 873.878 -388.789 882.625 -403.419 880.712C-419.098 878.384 -430.036 872.631 -434.776 863.256C-453.737 816.573 -422.927 760.504 -367.12 707.865C-232.008 580.343 -25.9911 502.485 161.545 407.095C265.444 354.619 342.975 290.411 424.676 227.725C443.841 213.72 464.277 199.96 486.041 186.855L491.873 191.491Z" fill="url(#paint5_diamond_6_466)"/>
<path d="M511.542 203.156C490.264 216.195 470.539 229.72 452.329 243.456C297.732 386.279 63.6487 474.618 -150.74 582.133C-268.797 641.674 -383.717 718.878 -404.074 804.557C-405.6 811.581 -402.783 817.739 -392.418 819.256C-388.152 819.652 -380.758 817.537 -377.385 814.993C-181.001 645.919 191.468 556.639 387.479 639.022C380.084 641.136 374.942 637.937 369.872 637.094C237.214 612.632 63.2137 615.893 -84.4358 692.94C-105.018 703.798 -81.3764 711.864 -68.0361 713.396C101.705 729.912 79.7103 860.195 -3.45227 961.478C-76.0777 1049.09 -225.324 1118.01 -362.425 1148.55C-224.674 1108.18 -73.9777 1046.3 -6.25034 955.458C69.3508 855.059 63.1969 740.138 -91.5114 719.359C-105.095 717.86 -121.175 708.908 -110.236 701.861C-23.541 641.281 105.112 628.86 209.644 615.811C8.13909 604.433 -239.758 695.061 -379.391 829.456C-384.863 834.789 -396.6 837.77 -402.866 835.419C-414.201 832.225 -417.893 823.264 -416.29 814.977C-406.783 764.438 -361.667 715.195 -303.121 669.977C-175.41 573.788 -7.43324 505.952 152.356 432.548C267.839 379.616 353.965 311.182 439.549 242.405C459.108 227.651 480.444 213.213 504.081 199.298L511.542 203.156Z" fill="url(#paint6_diamond_6_466)"/>
<path d="M536.042 212.081C514.783 225.257 495.302 238.748 477.372 252.725C343.329 378.989 138.684 465.148 -58.4947 551.549C-171.878 601.692 -297.483 665.874 -337.143 746.238C-340.688 751.17 -323.56 747.737 -317.117 744.081C-137.391 653.228 67.7394 592.602 251.792 599.527C407.458 605.428 501.999 666.776 617.773 707.438C579.011 724.933 541.786 715.367 516.293 706.439C433.478 674.946 358.555 634.036 241.244 633.234C162.612 632.618 54.3689 636.57 -18.795 683.63C39.4212 709.133 109.036 732.815 104.197 790.374C92.3371 925.962 -73.1776 1086.96 -310.622 1145.01C-72.5267 1077.13 93.6332 922.726 85.7159 785.643C81.7158 732.342 10.6326 714.286 -38.8981 687.049C-1.10593 655.077 67.4152 646.907 119.282 638.349C299.406 607.129 408.98 664.213 531.197 701.22C538.266 704.018 548.649 705.672 560.387 702.691C468.816 644.976 353.521 596.875 189.584 603.086C16.1393 610.445 -169.52 664.816 -319.27 757.451C-330.209 764.498 -342.272 772.394 -356.028 773.283C-375.977 774.177 -363.187 755.192 -355.294 745.775C-312.746 686.725 -238.191 635.302 -152.626 591.988C-22.6017 525.677 109.779 473.099 239.727 408.051C331.639 362.207 398.231 305.047 469.068 249.954C487.016 236.114 506.011 222.689 526.54 209.612L536.042 212.081Z" fill="url(#paint7_diamond_6_466)"/>
<path d="M566.087 218.027C540.802 232.583 518.604 247.973 498.67 263.613C368.414 397.711 149.522 475.645 -50.952 563.326C-118.982 593.412 -191.283 626.721 -227.88 673C-232.548 678.78 -214.297 674.499 -207.931 672.106C18.0307 596.971 247.519 566.158 417.077 617.899C502.389 644.044 569.343 695.634 697.446 675.496C704.764 674.643 716.348 674.187 715.052 677.423C698.315 707.517 639.941 737.547 593.948 734.595C505.105 729.937 460.97 685.829 389.893 664.155C302.409 638.443 193.31 626.928 69.5493 659C51.5409 663.248 39.1524 676.057 53.3865 680.528C195.299 723.91 146.29 848.67 54.6087 952.917C-18.7386 1035.2 -139.292 1100.09 -272.204 1145.09C-274.375 1145.52 -272.051 1142.56 -274.222 1143C-159.466 1101.15 -49.1486 1048.5 23.7198 973.658C132.534 862.36 190.789 723.547 25.6321 682.341C12.2021 678.317 32.784 667.459 44.6168 663.351C92.94 646.926 137.092 641.779 184.611 637.707C350.897 625.056 437.072 686.841 550.12 723.838C573.761 731.904 610.174 733.649 642.512 719.946C659.645 712.895 696.556 694.538 685.049 693.732C555.757 683.144 477.367 633.104 361.439 607.767C181.587 569.665 -45.7354 616.462 -254.339 697.176C-269.449 702.701 -272.916 693.571 -262.948 684.847C-170.301 598.696 -28.7698 545.991 104.793 491.165C256.613 428.44 390.602 351.158 493.122 257.408C511.519 243.229 531.469 229.535 553.702 216.227L566.087 218.027Z" fill="url(#paint8_diamond_6_466)"/>
<path d="M601.543 221.85C565.674 244.24 532.01 268.278 501.471 293.424C444.879 332.952 405.307 379.217 335.827 415.065C198.236 485.88 36.5359 523.23 -82.9575 605.088C-90.601 610.854 -78.1416 613.201 -70.8234 612.349C187.369 557.473 395.938 588.067 564.615 653.423C608.679 669.574 669.787 663.382 735.071 642.294C752.109 636.369 768.528 644.161 763.534 654.855C746.81 688.703 696.387 720.717 641.946 735.884C596.025 748.088 561.137 739.319 532.278 729.316C476.802 711.232 432.264 686.101 377.031 667.985C318.579 649.887 253.058 641.79 171.68 650.171C150.607 651.914 107.201 658.907 113.868 667.882C149.632 716.045 202.375 759.681 170.345 830.525C110.57 959.944 -54.4601 1084.28 -257.018 1151.1C-42.315 1071.51 126.656 939.678 166.966 800.096C183.389 742.08 138.36 707.833 89.25 674.557C80.2395 668.403 102.839 659.637 114.577 656.656C191.292 637.636 258.186 641.234 320.336 651.875C391.821 663.755 440.624 689.282 493.509 713.838C533.153 732.119 581.388 749.793 648.524 729.567C694.522 716.1 737.953 692.825 751.376 663.876C753.949 657.267 747.914 651.128 738.348 653.676C673.294 670.977 616.688 670.159 568.294 658.629C479.533 636.289 408.456 601.815 308.507 590.174C177.631 575.21 32.7386 597.622 -118.348 632.839C-128.962 634.973 -147.692 633.893 -136.676 625.583C-90.1931 588.26 -24.5648 562.395 36.8556 534.735C156.681 480.936 295.385 442.109 391.25 368.739C423.25 343.395 454.144 319.036 486.705 294.173C518.181 268.622 552.032 244.14 587.996 220.624L601.543 221.85Z" fill="url(#paint9_diamond_6_466)"/>
<path d="M642.521 224.367C608.882 244.925 576.887 266.651 548.503 289.418C515.175 314.107 488.47 340.125 458.546 366.161C384.157 431.613 265.787 463.232 165.438 507.158C129.804 522.142 85.9956 535.312 71.0282 558.348C61.8583 571.138 95.5449 569.218 112.276 568.342C279.283 561.02 411.712 589.269 530.609 631.039C588.889 651.525 668.344 639.926 749.478 618.777C782.52 610.266 793.542 634.929 777.456 655.195C753.324 687.403 717.532 721.331 662.287 736.05C536.445 771.047 477.442 708.641 401.786 682.439C367.933 670.33 334.08 658.221 291.306 655.251C254.726 652.277 212.183 645.519 170.048 665.558C166.753 666.839 165.457 670.075 166.504 670.49C241.185 748.023 214.949 861.629 94.952 967.207C2.55437 1049.71 -120.075 1113.9 -255.336 1165.34C-256.46 1166.19 -255.182 1162.82 -254.04 1162.11C-47.7794 1084.21 126.581 964.731 188.592 829.861C217.786 765.524 192.879 715.194 145.129 673.664C137.242 666.663 161.694 658.759 174.479 656.192C239.13 645.068 290.992 652.929 342.681 663.178C417.136 678.69 465.294 710.426 528.811 732.986C562.74 743.832 604.064 752.564 655.363 736.153C705.614 719.328 750.341 692.816 771.159 661.753C778.081 650.658 779.856 639.983 774.217 631.286C768.597 622.726 749.605 621.543 734.739 627.035C666.957 653.47 599.809 657.141 552.526 641.008C402.899 588.237 237.2 559.487 18.8037 580.728C11.4856 581.58 5.29694 577.966 11.0124 572.601C27.6539 556.433 54.5964 546.801 78.3971 535.924C204.494 480.858 350.759 441.146 444.854 362.033C474.683 337.123 502.679 311.487 536.231 286.628C563.473 264.572 594.081 243.591 626.785 223.439L642.521 224.367Z" fill="url(#paint10_diamond_6_466)"/>
<path d="M688.403 226.499C660.159 242.987 634.514 260.374 611.695 278.491C502.367 382.346 352.79 459.793 187.949 532.49C180.477 535.868 187.222 543.58 195.51 544.405C327.696 559.887 439.931 589.064 555.232 620.747C604.597 633.954 669.574 617.916 733.409 602.59C769.669 594.06 798.132 606.621 798.943 627.241C800.778 664.557 745.929 702.318 692.856 729.404C643.154 753.947 586.146 759.305 544.975 748.048C442.134 718.712 378.156 654.337 233.824 664.43C217.017 666.568 203.753 676.574 209.373 685.134C335.413 843.639 51.0376 1076.53 -262.808 1181.52C-262.808 1181.52 -257.508 1178.58 -258.216 1177C-41.1704 1094.59 168.307 967.287 221.977 816.573C241.203 760.96 225.212 717.91 190.968 679.141C186.874 676.357 191.619 669.314 200.138 666.351C280.148 646.05 336.18 668.233 389.657 684.361C454.469 703.684 495.214 737.399 569.841 750.523C651.691 763.92 745.622 707.369 784.473 655.775C792.519 643.833 798.636 632.291 792.85 622.501C786.413 609.739 765.038 600.113 742.515 607.617C622.541 647.523 532.728 628.387 458.029 600.107C372.091 567.507 260.476 561.203 149.914 551.696C129.089 549.787 139.46 534.886 157.717 526.986C260.256 482.764 373.313 450.334 456.789 389.773C507.295 352.879 549.684 312.771 598.003 274.364C619.492 257.4 643.806 241.167 671.206 225.768L688.403 226.499Z" fill="url(#paint11_diamond_6_466)"/>
<path d="M738.867 229.541C708.172 246.221 674.556 263.297 653.323 283.982C568.883 375.839 440.361 451.407 295.859 513.279C271.011 523.741 295.451 535.874 311.053 539.464C383.337 555.41 451.521 572.189 513.99 594.334C568.343 613.266 641.111 605.355 717.654 588.724C755.766 581.057 795.487 585.275 803.522 606.169C816.218 637.701 782.041 679.896 738.037 711.736C705.066 735.402 659.636 756.722 615.413 759.514C498.574 767.691 456.22 709.291 370.678 686.933C339.795 678.456 287.632 659.227 247.976 686.583C346.915 860.863 48.8604 1093.38 -274.647 1202.04C-276.818 1202.48 -269.174 1196.71 -269.174 1196.71C49.1727 1084.71 342.08 852.614 235.67 681.711C232.7 678.078 244.591 672.572 253.033 670.871C317.283 665.923 359.08 683.634 405.469 696.827C481.522 720.471 536.106 785.006 662.273 745.095C740.438 720.314 798.172 667.276 804.378 621.635C807.928 600.285 778.495 586.047 741.341 591.637C669.543 601.225 595.798 623.877 539.197 606.641C456.951 583.002 380.803 560.484 288.741 543.044C271.212 539.853 244.121 535.593 254.492 520.693C261.337 510.861 276.523 504.073 291.652 498.684C405.59 452.64 524.043 403.339 585.819 325.266C597.237 310.78 616.944 297.119 633.487 283.887C659.023 263.871 688.693 245.103 720.325 228.018L738.867 229.541Z" fill="url(#paint12_diamond_6_466)"/>
<path d="M792.829 234.612C765.616 249.568 738.235 265.104 713.995 281.883C689.512 298.696 668.189 316.889 652.291 336.712C599.737 404.214 499.956 455.993 398.861 498.072C380.604 505.971 376.504 519.605 386.543 526.036C466.536 567.789 565.106 600.348 705.023 575.965C781.413 561.86 838.084 594.251 810.746 643.032C784.514 690.829 719.793 736.189 639.93 757.583C577.048 774.45 530.812 758.732 489.89 743.824C430.563 722.923 378.547 668.196 285.503 694.715C278.108 696.83 277.457 706.657 279.226 712.4C349.773 902.075 18.6064 1115.15 -285.028 1224.18C-282.703 1221.22 -283.578 1218.42 -280.283 1217.14C25.6947 1105.28 348.573 891.386 269.412 705.799C266.518 700.904 267.074 692.203 278.907 688.096C322.887 672.537 357.539 688.712 387.298 698.037C457.161 718.067 500.492 761.726 590.632 763.149C685.918 764.152 784.676 695.677 812.498 635.839C832.938 594.67 782.034 571.932 717.708 578.143C656.6 584.335 594.444 602.912 546.204 588.856C476.417 567.564 385.728 558.425 347.692 515.439C345.769 512.221 351.561 505.593 360.157 501.368C443.148 464.663 534.423 432.402 592.65 375.679C626.194 343.448 650.231 312.365 691.125 283.173C715.91 264.928 744.323 247.861 773.689 232.335L792.829 234.612Z" fill="url(#paint13_diamond_6_466)"/>
<path d="M847.61 242.077C820.662 255.328 793.806 269.262 770.616 284.647C747.408 299.896 727.603 316.492 714.982 334.897C673.309 396.751 587.035 451.291 496.08 495.057C485.313 499.716 475.421 507.178 476.048 513.632C479.332 545.187 527.744 556.854 572.613 560.653C631.945 565.136 696.118 561.451 756.819 565.053C785.932 567.787 811.727 575.283 817.761 594.222C836.794 656.06 747.29 743.455 629.321 768.899C571.834 781.696 529.693 768.762 491.912 755.098C439.655 736.995 404.115 701.463 331.672 704.46C315.822 704.521 309.871 717.292 310.439 725.145C337.254 926.728 12.9142 1129.83 -292.246 1245.89C-292.093 1243.36 -290.72 1238.87 -288.549 1238.43C29.4152 1119.95 343.602 911.398 303.204 708.317C302.482 702.989 314.391 697.619 322.661 698.307C410.457 702.551 457.983 744.251 530.018 763.848C568.047 773.861 615.336 773.576 664.616 755.073C743.106 725.379 807.125 674.828 819.755 625.395C838.265 548.036 687.256 569.19 594.792 570.726C530.79 572.024 484.804 552.654 446.608 528.612C436.646 520.918 436.479 506.889 455.861 498.141C550.838 454.804 640.101 404.033 687.86 339.546C702.036 319.816 722.367 301.619 746.364 284.872C770.36 268.125 798.284 252.934 827.404 239.249L847.61 242.077Z" fill="url(#paint14_diamond_6_466)"/>
<path d="M902.238 252.068C855.123 273.755 818.294 300.031 788.198 328.456C773.019 342.617 759.655 357.367 747.058 372.291C719.143 418.646 662.2 455.578 597.064 490.559C573.091 503.824 564.566 523.205 581.77 531.309C629.436 553.929 707.767 543.177 767.912 555.481C816.401 565.885 845.178 593.569 827.885 632.364C807.937 682.648 744.072 730.674 667.677 761.198C543.834 810.95 472.366 749.816 393.338 726.158C383.049 723.378 370.59 721.031 355.877 723.998C344.139 726.98 338.514 734.838 336.969 741.725C319.985 824.86 287.393 908.023 193.144 989.661C64.3035 1103.12 -115.187 1186.56 -291.043 1267.57C-290.889 1265.05 -291.688 1260.98 -288.393 1259.7C7.4425 1135.17 324.784 944.418 326.189 742.629C326.668 735.191 328.366 725.778 341.4 719.56C362.952 710.379 382.404 716.787 396.882 721.226C457.754 735.239 491.18 769.806 561.139 775.91C611.078 780.553 672.11 762.824 722.118 733.231C784.112 697.006 833.341 650.685 827.394 610.448C817.531 535.819 660.959 559.815 565.679 542.393C537.862 536.423 518.32 514.723 555.083 495.273C633.33 452.811 707.559 406.302 742.617 350.492C755.935 329.906 776.472 311.402 800.955 294.589C825.438 277.777 853.83 262.382 882.857 248.015L902.238 252.068Z" fill="url(#paint15_diamond_6_466)"/>
<path d="M955.027 264.949C907.084 289.671 866.267 317.601 834.446 347.929C818.424 363.178 804.702 378.95 793.3 395.381C779.275 414.394 773.725 433.789 760.935 452.774C750.564 467.675 720.723 476.031 703.838 492.231C691.526 503.777 686.623 516.963 699.733 522.283C742.673 539.282 798.877 546.276 825.184 574.016C835.76 584.409 842.123 596.626 842.009 610.415C842.138 624.171 836.052 639.604 822.01 656.672C776.569 710.828 699.363 770.122 604.072 785.536C516.098 800.099 471.164 764.726 414.884 746.194C396.479 740.201 366.81 746.169 359.166 764.734C326.977 841.721 298.107 913.945 216.95 987.965C85.3818 1110.55 -103.355 1195.25 -279.153 1287.66C-281.171 1285.57 -283.17 1283.62 -284.945 1281.49C10.9805 1146.65 323.482 964.071 352.729 751.972C355.876 736.798 386.421 733.633 401.702 738.52C462.402 754.922 501.237 789.173 583.17 784.89C671.54 780.57 757.584 729.817 802.949 676.924C827.956 647.518 842.201 619.154 833.445 592.932C819.062 537.977 702.868 552.745 654.806 519.883C622.651 498.361 710.382 471.032 736.283 444.566C754.22 425.162 760.817 406.182 776.266 386.698C788.265 371.02 802.024 355.521 817.859 340.715C849.51 310.967 888.642 283.404 936.059 260.285L955.027 264.949Z" fill="url(#paint16_diamond_6_466)"/>
<path d="M1004.52 280.923C929.905 320.944 853.428 369.149 843.371 424.771C839.699 439.738 839.903 454.041 837.411 468.57C834.919 483.099 829.732 497.853 815.524 513.691C811.009 516.946 813.998 520.715 815.997 522.671C828.393 542.834 844.718 562.744 851.422 584.792C858.369 606.807 855.658 630.687 830.204 658.623C813.239 677.895 793.845 695.687 772.768 712.039C723.796 749.282 661.879 784.244 591.837 795.82C520.991 806.949 477.347 784.758 424.669 772.695C398.779 766.324 377.47 788.272 370.299 803.017C353.173 843.042 332.739 880.592 302.01 918.981C241.607 992.556 160.871 1060.54 61.3907 1123.68C-41.3844 1188.11 -148.502 1240.61 -259.227 1303.05C-260.351 1303.9 -262.197 1299.42 -266.22 1298.99C-128.949 1216.67 27.5396 1148.17 149.778 1057.31C262.202 972.652 330.81 880.993 370.72 784.178C378.044 766.908 406.034 757.689 425.563 762.835C484.263 777.282 531.617 808.57 616.756 787.714C686.076 770.809 743.651 736.714 786.99 699.955C803.422 685.903 817.291 671.224 827.607 655.914C838.183 640.707 845.206 624.869 848.205 608.602C852.186 586.776 840.962 571.601 825.002 558.042C810.826 539.371 765.159 531.506 775.287 503.838C779.156 493.992 798.442 486.371 802.312 476.525C809.789 456.73 813.09 439.03 823.093 419.588C832.065 401.677 844.049 384.054 859.064 366.855C889.13 332.729 931.657 300.951 987.293 274.491L1004.52 280.923Z" fill="url(#paint17_diamond_6_466)"/>
<path d="M1048.36 299.053C997.45 327.515 940.277 355.434 914.773 392.142C882.595 436.292 897.865 474.014 896.251 515.137C896.157 565.653 888.501 617.055 835.742 672.064C817.037 691.293 796.371 708.841 773.797 725.116C683.899 800.461 543.828 827.368 437.135 808.014C424.599 806.93 407.217 817.633 400.224 826.372C307.413 947.884 201.473 1063.94 25.0425 1166.31C-64.297 1218.35 -144.721 1264.86 -229.889 1318.41C-229.889 1318.41 -235.911 1316.03 -240.101 1314.37C-217.022 1298.17 -194.02 1283.22 -166.995 1268.71C68.7164 1143 281.016 1005.44 375.62 836.801C386.316 816.986 419.937 783.492 446.382 793.962C545.846 829.46 705.623 788.891 791.544 707.964C813.84 689.64 832.769 670.24 846.628 649.998C860.487 629.755 869.52 608.636 872.491 586.668C873.467 571.927 870.005 559.179 873.153 544.005C883.21 501.182 870.685 467.262 878.814 424.839C887.35 372.622 964.626 328.484 1032.81 292.254L1048.36 299.053Z" fill="url(#paint18_diamond_6_466)"/>
<path d="M1087.87 318.186C1020.04 351.584 943.791 396.001 941.621 445.825C939.746 523.435 946.16 601.869 850.787 684.355C830.364 701.87 808.539 718.183 785.629 733.809C690.106 804.211 565.234 840.885 434.41 853.739C417.602 855.877 402.966 870.382 393.873 881.909C271.061 1030.72 84.6374 1158.1 -115.097 1276.84C-166.237 1312.71 -193.252 1332.79 -193.252 1332.79L-205.558 1327.92C-178.565 1309.51 -155.48 1289.69 -123.716 1271.75C103.712 1141.6 284.254 1005.56 411.982 847.317C415.527 842.385 427.418 836.878 433.612 836.874C530.27 833.378 633.584 822.303 721.185 768.417C747.687 753.697 773.011 737.605 796.653 720.072C820.295 702.538 842.274 683.7 862.065 663.349C944.021 580.594 921.125 512.184 926.85 437.391C932.257 387.685 1007.29 345.242 1074.31 311.397L1087.87 318.186Z" fill="url(#paint19_diamond_6_466)"/>
<path d="M1125.19 337.617C1054.77 366.497 994.203 409.624 981.893 457.761C967.813 512.955 975.037 562.619 935.861 619.126C905.8 662.433 862.532 701.547 811.149 737.447C785.578 755.381 757.932 772.622 728.903 788.798C641.843 843.028 534.565 865.075 432.523 901.995C417.413 907.52 404.451 916.094 395.21 926.528C259.447 1063.88 87.7554 1175.62 -85.3644 1291.46C-132.199 1326.19 -158.97 1346.23 -158.97 1346.23L-171.276 1341.36C-171.276 1341.36 -144.505 1321.32 -96.0042 1286.08C80.7627 1171.56 257.754 1056.87 385.247 918.835C404.385 897.32 432.931 879.401 468.794 873.429C569.706 853.775 668.056 820.694 750.284 769.206C774.576 754.646 797.785 739.397 819.628 723.22C841.472 707.044 862.213 690.042 881.102 672.179C958.065 600.118 962.507 532.317 964.778 464.949C967.044 413.999 1034.28 363.429 1112.1 330.625L1125.19 337.617Z" fill="url(#paint20_diamond_6_466)"/>
<path d="M1161 356.835C1030.23 404.881 1008.98 487.62 987.578 560.084C968.769 624.267 918.046 681.504 849.534 733.638C826.865 751.039 802.139 767.885 776.103 784.212C678.568 848.904 560.44 893.29 444.33 939.768C429.125 946.42 414.087 954.301 402.994 963.873C262.186 1084.1 106.498 1193.26 -52.5068 1305.37C-98.1434 1339.8 -124.914 1359.84 -124.914 1359.84L-137.22 1354.97C-137.22 1354.97 -110.693 1334.96 -64.5695 1300.47C85.5009 1193.74 243.852 1093.26 369.876 973.647C394.481 950.418 428.174 932.079 465.735 916.695C563.606 878.253 663.4 843.028 748.285 791.041C772.634 776.891 796.159 762.156 819.312 746.497C940.996 664.342 987.975 570.326 1000.05 480.204C1007.38 430.098 1072.28 382.35 1148.15 349.81L1161 356.835Z" fill="url(#paint21_diamond_6_466)"/>
<path d="M1196.26 375.709C1122.22 407.165 1056.51 450.711 1044.93 500.558C1020.34 598.914 937.837 686.753 828.265 766.849C800.988 786.823 771.916 806.344 741.554 825.483C654.455 881.249 554.98 927.977 456.554 975.121C390.619 1006.04 342.035 1046.15 293.304 1085.17C192.771 1164.32 86.2165 1241.08 -18.6934 1319.02C-64.33 1353.44 -90.8577 1373.46 -90.8577 1373.46L-103.164 1368.58C-103.164 1368.58 -76.636 1348.57 -30.9994 1314.15C83.8022 1228.75 203.314 1147.03 310.597 1059.17C353.784 1023.13 399.143 986.655 458.487 958.302C559.009 911.988 659.115 868.095 748.46 812.444C772.266 797.949 795.53 783.11 818.233 767.791C840.693 752.505 862.592 736.738 883.65 720.25C985.307 640.252 1005.27 557.131 1045.25 471.854C1064.72 429.008 1124.56 396.971 1183.23 369.127L1196.26 375.709Z" fill="url(#paint22_diamond_6_466)"/>
<defs>
<radialGradient id="paint0_diamond_6_466" cx="0" cy="0" r="1" gradientUnits="userSpaceOnUse" gradientTransform="translate(-194.909 617.332) rotate(114.326) scale(631.314 832.148)">
<stop/>
<stop offset="0.0001" stop-color="#FE3131" stop-opacity="0.22"/>
<stop offset="1" stop-opacity="0"/>
</radialGradient>
<radialGradient id="paint1_diamond_6_466" cx="0" cy="0" r="1" gradientUnits="userSpaceOnUse" gradientTransform="translate(-154.842 633.243) rotate(113.349) scale(625.207 809.955)">
<stop/>
<stop offset="0.0001" stop-color="#FE3131" stop-opacity="0.22"/>
<stop offset="1" stop-opacity="0"/>
</radialGradient>
<radialGradient id="paint2_diamond_6_466" cx="0" cy="0" r="1" gradientUnits="userSpaceOnUse" gradientTransform="translate(-110.76 646.781) rotate(112.193) scale(616.096 780.472)">
<stop/>
<stop offset="0.0001" stop-color="#FE3131" stop-opacity="0.22"/>
<stop offset="1" stop-opacity="0"/>
</radialGradient>
<radialGradient id="paint3_diamond_6_466" cx="0" cy="0" r="1" gradientUnits="userSpaceOnUse" gradientTransform="translate(-65.6826 656.695) rotate(111.043) scale(603.952 746.613)">
<stop/>
<stop offset="0.0001" stop-color="#FE3131" stop-opacity="0.22"/>
<stop offset="1" stop-opacity="0"/>
</radialGradient>
<radialGradient id="paint4_diamond_6_466" cx="0" cy="0" r="1" gradientUnits="userSpaceOnUse" gradientTransform="translate(-17.7437 664.867) rotate(109.807) scale(591.134 710.025)">
<stop/>
<stop offset="0.0001" stop-color="#FE3131" stop-opacity="0.22"/>
<stop offset="1" stop-opacity="0"/>
</radialGradient>
<radialGradient id="paint5_diamond_6_466" cx="0" cy="0" r="1" gradientUnits="userSpaceOnUse" gradientTransform="translate(28.6717 670.938) rotate(108.716) scale(578.911 676.328)">
<stop/>
<stop offset="0.0001" stop-color="#FE3131" stop-opacity="0.22"/>
<stop offset="1" stop-opacity="0"/>
</radialGradient>
<radialGradient id="paint6_diamond_6_466" cx="0" cy="0" r="1" gradientUnits="userSpaceOnUse" gradientTransform="translate(69.4758 674.105) rotate(108.074) scale(567.298 651.354)">
<stop/>
<stop offset="0.0001" stop-color="#FE3131" stop-opacity="0.22"/>
<stop offset="1" stop-opacity="0"/>
</radialGradient>
<radialGradient id="paint7_diamond_6_466" cx="0" cy="0" r="1" gradientUnits="userSpaceOnUse" gradientTransform="translate(117.239 676.052) rotate(107.913) scale(559.803 639.873)">
<stop/>
<stop offset="0.0001" stop-color="#FE3131" stop-opacity="0.22"/>
<stop offset="1" stop-opacity="0"/>
</radialGradient>
<radialGradient id="paint8_diamond_6_466" cx="0" cy="0" r="1" gradientUnits="userSpaceOnUse" gradientTransform="translate(188.525 674.187) rotate(109.389) scale(563.547 669.917)">
<stop/>
<stop offset="0.0001" stop-color="#FE3131" stop-opacity="0.22"/>
<stop offset="1" stop-opacity="0"/>
</radialGradient>
<radialGradient id="paint9_diamond_6_466" cx="0" cy="0" r="1" gradientUnits="userSpaceOnUse" gradientTransform="translate(223.526 677.999) rotate(110.223) scale(567.157 688.073)">
<stop/>
<stop offset="0.0001" stop-color="#FE3131" stop-opacity="0.22"/>
<stop offset="1" stop-opacity="0"/>
</radialGradient>
<radialGradient id="paint10_diamond_6_466" cx="0" cy="0" r="1" gradientUnits="userSpaceOnUse" gradientTransform="translate(235.705 687.668) rotate(110.533) scale(573.329 700.626)">
<stop/>
<stop offset="0.0001" stop-color="#FE3131" stop-opacity="0.22"/>
<stop offset="1" stop-opacity="0"/>
</radialGradient>
<radialGradient id="paint11_diamond_6_466" cx="0" cy="0" r="1" gradientUnits="userSpaceOnUse" gradientTransform="translate(240.261 698.758) rotate(110.863) scale(579.811 713.888)">
<stop/>
<stop offset="0.0001" stop-color="#FE3131" stop-opacity="0.22"/>
<stop offset="1" stop-opacity="0"/>
</radialGradient>
<radialGradient id="paint12_diamond_6_466" cx="0" cy="0" r="1" gradientUnits="userSpaceOnUse" gradientTransform="translate(238.904 712.856) rotate(111.065) scale(587.955 727.206)">
<stop/>
<stop offset="0.0001" stop-color="#FE3131" stop-opacity="0.22"/>
<stop offset="1" stop-opacity="0"/>
</radialGradient>
<radialGradient id="paint13_diamond_6_466" cx="0" cy="0" r="1" gradientUnits="userSpaceOnUse" gradientTransform="translate(253.577 727.005) rotate(111.859) scale(599.005 753.638)">
<stop/>
<stop offset="0.0001" stop-color="#FE3131" stop-opacity="0.22"/>
<stop offset="1" stop-opacity="0"/>
</radialGradient>
<radialGradient id="paint14_diamond_6_466" cx="0" cy="0" r="1" gradientUnits="userSpaceOnUse" gradientTransform="translate(277.312 741.251) rotate(112.947) scale(610.304 784.705)">
<stop/>
<stop offset="0.0001" stop-color="#FE3131" stop-opacity="0.22"/>
<stop offset="1" stop-opacity="0"/>
</radialGradient>
<radialGradient id="paint15_diamond_6_466" cx="0" cy="0" r="1" gradientUnits="userSpaceOnUse" gradientTransform="translate(305.153 756.54) rotate(113.852) scale(620.164 810.767)">
<stop/>
<stop offset="0.0001" stop-color="#FE3131" stop-opacity="0.22"/>
<stop offset="1" stop-opacity="0"/>
</radialGradient>
<radialGradient id="paint16_diamond_6_466" cx="0" cy="0" r="1" gradientUnits="userSpaceOnUse" gradientTransform="translate(335.023 773.084) rotate(114.676) scale(627.374 831.798)">
<stop/>
<stop offset="0.0001" stop-color="#FE3131" stop-opacity="0.22"/>
<stop offset="1" stop-opacity="0"/>
</radialGradient>
<radialGradient id="paint17_diamond_6_466" cx="0" cy="0" r="1" gradientUnits="userSpaceOnUse" gradientTransform="translate(368.904 788.146) rotate(115.346) scale(629.914 844.132)">
<stop/>
<stop offset="0.0001" stop-color="#FE3131" stop-opacity="0.22"/>
<stop offset="1" stop-opacity="0"/>
</radialGradient>
<radialGradient id="paint18_diamond_6_466" cx="0" cy="0" r="1" gradientUnits="userSpaceOnUse" gradientTransform="translate(403.896 805.005) rotate(115.81) scale(629.845 849.987)">
<stop/>
<stop offset="0.0001" stop-color="#FE3131" stop-opacity="0.22"/>
<stop offset="1" stop-opacity="0"/>
</radialGradient>
<radialGradient id="paint19_diamond_6_466" cx="0" cy="0" r="1" gradientUnits="userSpaceOnUse" gradientTransform="translate(441.016 822.027) rotate(116.057) scale(627.641 850.063)">
<stop/>
<stop offset="0.0001" stop-color="#FE3131" stop-opacity="0.22"/>
<stop offset="1" stop-opacity="0"/>
</radialGradient>
<radialGradient id="paint20_diamond_6_466" cx="0" cy="0" r="1" gradientUnits="userSpaceOnUse" gradientTransform="translate(476.809 838.396) rotate(116.294) scale(624.753 849.022)">
<stop/>
<stop offset="0.0001" stop-color="#FE3131" stop-opacity="0.22"/>
<stop offset="1" stop-opacity="0"/>
</radialGradient>
<radialGradient id="paint21_diamond_6_466" cx="0" cy="0" r="1" gradientUnits="userSpaceOnUse" gradientTransform="translate(511.74 854.81) rotate(116.497) scale(621.917 847.569)">
<stop/>
<stop offset="0.0001" stop-color="#FE3131" stop-opacity="0.22"/>
<stop offset="1" stop-opacity="0"/>
</radialGradient>
<radialGradient id="paint22_diamond_6_466" cx="0" cy="0" r="1" gradientUnits="userSpaceOnUse" gradientTransform="translate(546.429 871.258) rotate(116.693) scale(619.022 845.885)">
<stop/>
<stop offset="0.0001" stop-color="#FE3131" stop-opacity="0.22"/>
<stop offset="1" stop-opacity="0"/>
</radialGradient>
</defs>
</svg>
