<svg width="1315" height="1046" viewBox="0 0 1315 1046" fill="none" xmlns="http://www.w3.org/2000/svg">
<path d="M213.663 1038.5C252.28 1024.39 290.357 1009.8 327.894 995.091C365.43 980.259 402.427 965.186 438.883 949.63C618.195 871.248 809.119 802.995 1008.68 732.813C1203.39 663.957 1387.29 563.146 1353.54 459.802C1333.01 392.875 1195.29 366.828 1044.06 379.731C1017.6 382.143 1013.01 368.275 1022.19 359.352C1052.43 327.999 1119.4 309.428 1188.54 300.264C1250.65 291.34 1305.2 288.687 1364.61 290.376C1485.59 294.717 1614.13 287.24 1710 307.499C1681.65 307.861 1654.91 307.62 1625.75 306.534C1505.03 301.108 1400.25 293.27 1276.57 299.54C1199.34 302.917 1098.07 314.252 1063.5 353.202C1055.67 361.402 1070.53 366.949 1088.08 367.672C1205.01 369.119 1308.44 386.846 1345.98 433.152C1422.67 528.657 1252 645.989 1058.64 719.066C870.69 789.73 681.117 856.295 504.235 932.145C473.179 945.409 442.124 958.312 410.798 971.094C348.147 996.538 283.876 1021.26 218.794 1045.26L213.663 1038.5Z" fill="url(#paint0_diamond_4_32)"/>
<path d="M199.891 1020.66C238.778 1007.03 276.585 992.921 313.581 978.45C350.578 963.98 386.764 949.147 421.87 933.833C576.608 867.027 737.827 810.351 917.679 752.589C1142.36 680.598 1370.55 577.134 1333.01 461.369C1323.02 435.684 1293.86 416.752 1249.3 402.884C1183.95 383.228 1093.75 391.428 1013.55 416.872C994.373 423.625 968.988 426.399 951.435 421.093C936.312 415.546 932.802 406.863 932.802 397.457C935.772 362.246 992.212 329.567 1063.51 308.222C1115.62 292.546 1170.71 282.899 1227.96 280.125C1371.09 270.84 1522.86 264.208 1641.14 283.864C1452.64 282.417 1247.14 255.646 1053.78 319.196C994.913 338.852 933.612 376.475 974.119 401.678C982.221 406.502 998.423 407.828 1010.85 405.055C1137.77 376.716 1284.94 383.349 1321.94 436.407C1439.41 602.939 980.6 736.913 681.387 839.292C608.204 864.374 542.852 890.662 475.61 918.88C445.095 931.662 415.929 944.083 386.494 956.262C327.624 980.741 266.863 1004.26 204.482 1027.05L199.891 1020.66Z" fill="url(#paint1_diamond_4_32)"/>
<path d="M188.279 1002.93C225.816 990.148 261.732 976.642 296.298 962.774C330.864 948.786 364.35 934.315 398.916 919.483C549.063 852.195 719.194 800.825 897.155 746.801C1118.59 679.151 1357.59 573.516 1310.87 461.852C1296.29 422.299 1205.28 387.69 1104.28 415.787C1058.91 428.57 1035.42 455.823 977.36 462.937C933.882 468.243 901.746 455.22 889.324 440.146C852.057 392.876 927.131 333.185 1035.15 300.023C1087.27 284.347 1138.85 275.423 1195.29 269.997C1321.94 256.853 1453.18 248.17 1560.66 263.123C1392.15 261.194 1209.6 255.164 1039.47 305.57C977.36 323.899 930.911 349.223 909.307 379.611C892.294 405.055 890.134 432.308 932.262 446.417C958.456 454.496 1002.2 448.105 1025.16 435.926C1082.41 404.814 1170.71 389.861 1235.53 406.985C1284.94 420.732 1316 441.593 1320.59 469.69C1352.73 634.896 955.756 732.813 670.315 822.53C559.595 856.898 467.239 897.054 374.612 938.174C345.717 950.715 316.012 962.895 285.766 974.712C255.521 986.53 224.195 997.986 192.33 1009.08L188.279 1002.93Z" fill="url(#paint2_diamond_4_32)"/>
<path d="M177.747 986.047C203.131 976.762 227.976 967.356 252.55 957.589C277.125 947.821 300.889 937.812 324.383 927.442C413.229 888.371 499.104 850.024 605.773 818.551C869.34 741.495 1187.46 675.775 1287.91 529.502C1310.6 495.978 1300.88 464.505 1263.61 440.749C1242.28 427.725 1210.68 418.319 1165.85 424.228C1110.22 431.222 1106.98 457.028 1077.01 474.152C1030.56 499.475 954.946 502.249 906.337 490.069C817.221 466.796 823.432 409.517 873.661 364.658C987.621 261.193 1279.81 237.076 1475.87 246.482C1264.69 246.723 958.456 264.69 868.26 384.796C836.664 426.158 842.065 479.216 944.954 485.005C1020.3 489.105 1073.23 456.063 1117.51 428.69C1145.33 411.567 1197.72 413.617 1230.93 421.455C1300.61 438.337 1315.73 475.719 1301.96 512.016C1267.39 601.613 1107.52 672.881 932.802 727.266C716.223 794.674 498.024 849.542 324.113 936.848C301.429 946.495 278.205 955.9 254.441 965.065C230.676 974.23 206.372 983.153 181.528 991.956L177.747 986.047Z" fill="url(#paint3_diamond_4_32)"/>
<path d="M165.594 970.251C189.359 961.809 212.313 953.006 234.457 943.842C256.601 934.677 277.934 925.151 299.268 915.504C452.656 838.81 649.251 789.61 843.416 737.034C1014.63 690.728 1182.06 632.122 1255.51 546.866C1287.1 510.208 1295.75 466.917 1227.96 447.381C1209.33 442.558 1175.84 444.246 1162.61 454.858C1136.15 476.081 1135.61 505.384 1083.76 516.358C977.359 538.425 846.386 527.331 814.52 481.267C772.393 421.214 823.972 342.711 967.098 295.802C1096.45 253.235 1250.65 232.373 1385.94 235.991C1244.71 242.623 1094.83 254.802 966.017 300.023C817.761 352.961 752.949 459.802 879.332 503.093C922.54 517.684 988.701 521.061 1050.27 509.605C1100.77 500.319 1128.59 478.493 1139.93 456.425C1148.84 440.267 1187.73 434.117 1216.35 437.373C1235.53 440.025 1253.08 445.452 1261.45 453.893C1355.43 541.681 1146.95 650.572 954.945 708.816C727.565 777.31 488.302 827.474 308.18 919.965C286.306 929.854 264.432 939.501 241.748 948.786C218.794 958.071 195.3 966.995 170.455 975.556L165.594 970.251Z" fill="url(#paint4_diamond_4_32)"/>
<path d="M150.472 956.021C175.586 947.459 199.081 938.294 221.494 928.647C410.258 824.7 672.475 771.762 920.379 701.701C1078.36 656.601 1232.83 589.795 1253.35 508.157C1255.78 498.631 1250.92 490.551 1242.01 483.075C1232.01 476.201 1206.09 471.86 1194.75 479.698C1119.4 531.069 1031.64 586.178 899.045 600.286C933.342 589.675 990.862 562.181 937.932 557.478C732.156 541.198 714.873 433.272 823.702 350.911C926.59 274.096 1131.02 235.508 1301.69 228.996C1132.64 243.226 933.612 273.734 836.394 351.755C770.773 402.643 753.219 462.093 804.259 506.107C839.635 537.219 922 540.957 990.862 552.654C1004.36 555.066 1015.17 563.507 1021.11 562.663C1108.06 548.313 1134.26 504.66 1180.17 471.981C1189.89 465.71 1212.3 460.404 1227.96 463.781C1244.71 467.64 1255.78 473.91 1259.56 482.593C1273.33 525.281 1231.47 570.26 1162.88 609.331C996.803 703.992 760.781 747.283 542.312 807.939C421.33 841.221 327.353 887.768 229.056 932.506C206.102 942.394 181.797 951.921 156.143 960.724L150.472 956.021Z" fill="url(#paint5_diamond_4_32)"/>
<path d="M130.759 943.601C155.873 934.798 179.368 925.392 201.242 915.624C390.815 809.989 658.973 760.91 908.498 692.898C1045.95 655.154 1182.6 601.734 1217.43 529.864C1220.13 523.955 1217.97 518.287 1206.9 515.755C1202.31 514.911 1193.94 515.875 1189.89 517.684C950.895 641.166 531.781 674.81 330.325 580.39C338.696 579.425 343.827 582.802 349.228 584.128C490.193 620.907 680.307 638.513 852.598 589.072C876.632 582.078 852.058 572.311 837.745 569.416C655.193 535.169 698.4 424.831 803.989 346.811C896.076 279.402 1068.91 237.197 1222.83 226.826C1066.75 245.638 893.375 281.573 806.15 352.358C708.932 430.499 698.67 530.828 864.21 567.005C878.792 569.899 894.995 579.546 882.033 584.369C778.605 626.696 636.559 622.354 520.709 621.39C738.637 654.913 1022.19 605.472 1194.21 505.384C1200.96 501.405 1214.19 500.199 1220.67 502.972C1232.56 507.072 1235.26 515.272 1232.29 522.267C1214.46 564.955 1158.02 602.337 1087.54 634.655C934.152 703.028 741.068 742.098 556.085 786.957C422.411 819.275 318.442 868.474 215.014 918.036C191.52 928.527 166.135 938.536 138.32 947.821L130.759 943.601Z" fill="url(#paint6_diamond_4_32)"/>
<path d="M105.374 932.989C130.489 924.065 153.713 914.659 175.316 904.65C340.046 810.954 575.798 760.307 803.449 708.574C934.422 678.427 1080.79 637.548 1135.88 572.551C1140.47 568.692 1121.3 569.657 1113.73 572.069C904.447 629.71 671.935 658.169 472.37 630.554C303.589 607.16 209.613 542.887 89.4413 494.048C134.269 483.437 173.426 496.098 199.891 506.831C285.496 543.851 361.11 588.107 488.843 602.578C574.448 612.345 692.999 621.631 779.684 589.434C720.004 560.492 647.631 531.793 661.403 482.472C694.349 366.346 898.506 246.24 1165.85 223.811C896.345 254.681 692.459 368.999 680.847 488.743C677.336 535.41 752.14 559.407 802.098 588.831C756.19 612.104 680.307 611.139 622.516 612.466C421.601 618.375 310.611 556.031 182.878 509.604C175.587 506.348 164.515 503.695 151.282 504.901C242.559 565.678 361.11 620.907 540.692 634.775C730.806 648.763 941.173 623.439 1118.05 560.734C1131.02 555.91 1145.33 550.484 1160.45 551.328C1182.33 552.895 1165.58 567.848 1155.59 575.084C1100.5 621.269 1011.66 657.083 912.008 684.577C760.511 726.783 608.474 756.81 457.247 797.93C350.308 826.871 269.293 868.595 183.958 908.027C162.354 917.915 139.67 927.321 115.366 936.244L105.374 932.989Z" fill="url(#paint7_diamond_4_32)"/>
<path d="M73.5084 924.306C103.214 914.659 129.678 903.927 153.713 892.712C315.471 791.78 565.536 749.936 796.967 697.481C875.552 679.392 959.267 659.013 1005.98 623.199C1011.93 618.737 991.402 620.304 984.111 621.631C726.755 660.219 472.1 659.978 294.948 595.222C205.832 562.543 140.48 509.966 -2.10512 512.378C-10.2066 512.257 -22.8988 511.293 -21.0084 508.64C1.67552 484.522 69.7278 465.349 119.417 473.308C215.554 487.778 257.141 531.19 331.404 558.322C422.951 590.881 540.152 613.672 679.767 600.407C700.02 598.84 715.413 589.193 700.56 583.646C552.304 529.381 624.137 427.002 739.447 347.414C831.534 284.708 972.499 242.623 1124 219.229C1126.43 219.108 1123.46 221.4 1125.89 221.279C994.643 244.07 866.64 276.749 776.174 333.064C641.15 416.752 557.165 530.225 731.076 585.334C745.118 590.399 721.084 597.393 707.582 599.563C652.492 608.125 603.613 607.401 551.224 605.351C368.131 596.79 283.336 533.119 165.595 487.778C141.02 478.011 101.593 472.222 64.3266 480.302C44.6131 484.402 1.67552 495.978 14.0978 498.028C153.443 522.387 231.486 574.963 354.088 610.537C544.472 664.681 799.128 650.813 1038.39 605.351C1055.67 602.337 1058.1 610.657 1045.95 617.049C932.262 680.84 770.233 709.901 616.575 741.736C441.854 778.275 284.416 829.524 158.844 898.742C136.7 908.871 112.935 918.398 86.7407 927.321L73.5084 924.306Z" fill="url(#paint8_diamond_4_32)"/>
<path d="M35.4311 916.83C77.8287 901.636 118.066 884.754 155.062 866.545C222.575 838.93 272.534 803.477 353.548 780.566C513.957 735.345 695.699 721.96 838.015 665.042C847.196 660.942 833.964 657.445 825.862 657.325C536.371 674.569 313.581 623.56 139.4 547.107C93.7616 527.934 26.2496 526.125 -48.0137 536.737C-67.4571 539.872 -84.2002 531.19 -77.179 522.507C-53.9548 495.134 5.72581 473.308 67.2969 466.555C119.146 461.369 155.873 473.066 185.848 485.125C243.638 507.313 288.466 534.325 345.987 556.513C407.018 579.063 477.23 593.775 567.156 596.066C590.38 597.031 638.719 596.066 632.778 587.504C600.912 541.56 549.873 497.546 595.241 439.905C679.496 334.752 877.712 246.361 1108.33 212.235C862.589 256.008 658.973 350.429 594.431 466.675C567.966 515.031 611.984 550.002 660.593 584.61C669.504 591.001 643.58 595.946 630.347 597.151C543.932 604.628 471.559 593.654 405.397 577.134C329.244 558.443 279.825 530.587 225.815 503.093C185.308 482.593 135.349 461.611 59.1954 471.258C7.07603 477.528 -43.6929 492.602 -62.5963 516.116C-66.377 521.543 -60.706 527.572 -49.9039 526.487C23.5492 519.131 85.12 526.487 136.159 542.163C229.596 571.949 301.969 610.175 409.178 632.001C549.603 660.34 710.822 657.928 880.682 645.145C892.564 644.543 912.818 647.678 899.585 653.587C843.415 680.478 768.072 695.189 697.049 711.951C558.515 744.51 401.617 761.875 286.306 814.21C247.689 832.418 210.422 849.904 171.265 867.63C133.189 886.08 92.6814 903.324 50.0139 919.483L35.4311 916.83Z" fill="url(#paint9_diamond_4_32)"/>
<path d="M-8.8565 909.836C30.8406 895.968 68.9174 880.895 103.214 864.495C143.181 847.01 176.127 827.595 212.583 808.542C303.319 760.548 436.993 747.042 552.844 720.754C593.891 711.951 643.58 705.681 663.293 687.472C675.175 677.463 638.179 675.172 619.816 673.966C436.723 660.701 296.568 620.666 173.156 570.502C112.665 545.902 24.3593 546.625 -67.187 555.428C-104.454 558.925 -112.825 536.255 -92.3014 520.578C-61.2459 495.496 -17.2279 470.293 45.1532 464.022C187.469 448.467 242.558 509.484 321.142 541.078C356.249 555.549 391.355 570.019 437.533 577.616C476.96 584.49 522.328 595.343 571.207 582.922C574.988 582.199 576.878 579.546 575.798 579.063C505.855 503.093 551.223 407.708 697.59 330.29C810.47 269.635 953.595 228.394 1108.6 199.694C1109.95 199.091 1108.06 201.864 1106.71 202.347C870.42 245.638 662.753 328.723 575.258 438.337C533.94 490.672 553.654 537.219 599.562 578.822C607.123 585.816 579.308 589.796 564.996 590.519C492.893 592.569 437.533 579.666 382.713 564.713C303.859 542.525 256.061 509.363 190.169 482.352C154.793 468.966 111.045 456.546 52.7145 464.746C-4.53578 473.428 -57.1951 491.155 -84.47 515.634C-93.6516 524.437 -97.1622 533.481 -92.3014 541.681C-87.4406 549.76 -66.9169 553.016 -49.9038 550.002C27.8701 535.049 101.593 539.752 150.742 559.287C306.02 622.596 482.361 666.972 723.514 674.207C731.616 674.328 737.827 678.187 730.805 682.166C710.282 694.225 679.496 699.41 651.951 706.042C506.395 738.963 341.126 756.207 226.896 813.727C190.709 831.816 156.413 850.748 116.176 868.354C83.2299 884.271 46.7734 898.862 8.15656 912.489L-8.8565 909.836Z" fill="url(#paint10_diamond_4_32)"/>
<path d="M-58.5455 902.6C-25.3295 891.627 5.18586 879.568 32.7308 866.545C167.215 789.368 341.666 739.807 532.05 696.154C540.692 694.104 534.48 686.627 525.569 684.939C383.794 655.998 265.782 617.531 144.801 576.531C92.9516 559.287 19.7686 565.557 -52.0642 571.345C-92.8415 574.481 -122.007 560.251 -119.846 542.284C-116.336 509.725 -50.984 483.437 10.857 466.193C68.6473 450.757 131.569 452.807 174.776 467.399C282.526 504.901 342.746 568.21 501.535 576.41C520.168 576.531 536.101 569.416 531.24 561.337C417.28 409.155 761.591 240.693 1119.13 186.549C1119.13 186.549 1112.92 188.479 1113.46 189.926C864.749 235.87 617.655 321.608 536.911 445.934C507.746 491.878 518.818 531.069 550.413 568.692C554.464 571.587 548.253 577.134 538.531 578.701C448.335 586.901 390.545 561.095 334.645 540.837C266.863 516.478 227.436 482.472 148.041 462.334C60.8159 441.11 -49.9038 479.096 -99.8627 519.251C-110.395 528.657 -118.766 537.942 -113.905 547.107C-108.774 558.925 -86.9004 569.778 -61.2459 565.919C75.3985 545.419 170.456 572.551 247.689 605.833C336.535 644.18 457.247 662.751 576.338 683.975C598.752 688.075 585.25 699.772 564.186 704.474C445.905 730.763 317.902 745.595 217.984 788.283C157.493 814.33 105.374 844.115 47.0434 871.73C21.1187 883.909 -7.7763 895.124 -39.912 905.253L-58.5455 902.6Z" fill="url(#paint11_diamond_4_32)"/>
<path d="M-113.095 894.039C-77.1785 883.186 -38.0214 872.333 -11.8268 856.898C93.762 787.198 244.989 736.792 411.609 700.133C440.234 693.983 415.39 680.598 398.917 675.654C322.493 653.345 250.66 630.795 185.849 604.266C129.408 581.475 48.9342 579.786 -36.9412 585.213C-79.6088 587.383 -122.277 579.063 -127.948 560.01C-137.129 531.189 -93.6514 498.631 -40.992 476.201C-1.56484 459.56 51.0945 446.416 99.7031 449.19C228.246 455.822 265.783 511.413 355.709 540.837C388.115 551.81 442.124 574.601 489.383 555.548C407.288 392.875 766.452 226.343 1135.07 170.149C1137.5 170.029 1128.32 174.129 1128.32 174.129C764.832 233.82 411.339 400.593 502.075 561.216C504.776 564.713 491.003 568.089 481.551 568.572C410.799 565.316 367.861 545.057 319.252 528.175C239.858 498.751 189.899 436.407 46.5038 456.184C-42.3421 468.484 -113.095 507.675 -126.597 546.504C-133.619 564.592 -103.643 580.389 -62.3258 579.907C17.3384 580.028 101.053 569.054 160.194 590.639C246.339 620.786 326.004 649.245 423.761 675.172C442.394 679.995 471.29 686.869 457.787 698.566C448.876 706.283 431.322 710.383 414.039 713.277C283.066 739.807 146.692 768.627 67.8375 829.042C53.2548 840.256 29.7607 849.783 9.77705 859.309C-21.0085 873.659 -56.1147 886.442 -93.1113 897.536L-113.095 894.039Z" fill="url(#paint12_diamond_4_32)"/>
<path d="M-171.156 883.307C-139.29 873.539 -107.154 863.289 -78.2592 851.592C-49.0939 839.895 -23.1695 826.63 -2.91582 811.316C64.3262 758.981 180.717 725.819 297.108 701.219C318.172 696.516 324.653 685.181 314.661 678.428C233.647 632.846 131.028 593.052 -25.0596 597.754C-110.395 601.01 -167.375 566.281 -130.378 527.21C-94.7321 488.864 -17.4984 457.149 72.6977 447.984C143.72 440.749 191.789 459.802 234.187 477.528C295.758 502.611 344.366 556.152 449.685 544.093C458.057 543.128 460.217 534.687 459.137 529.502C410.258 356.82 802.638 211.029 1149.65 152.182C1146.68 154.473 1147.22 157.006 1143.44 157.729C793.457 218.747 409.988 366.226 468.859 536.375C471.289 540.958 469.399 548.434 455.896 550.605C405.667 558.925 370.291 540.837 339.235 529.261C266.052 503.696 225.275 460.767 127.248 448.949C23.5489 436.89 -94.192 484.643 -133.349 533.24C-161.704 566.522 -109.585 592.207 -38.562 594.378C28.95 596.187 99.4326 587.384 149.932 605.231C222.845 631.881 320.332 650.451 355.438 692.175C357.059 695.19 349.767 700.254 339.776 702.907C243.908 724.975 139.67 742.219 67.8369 784.545C26.5195 808.542 -4.26604 832.66 -53.1447 853.16C-82.85 866.063 -116.336 877.518 -150.632 887.527L-171.156 883.307Z" fill="url(#paint13_diamond_4_32)"/>
<path d="M-229.756 870.404C-198.43 862.083 -167.105 853.16 -139.56 842.548C-112.015 832.057 -87.9804 819.998 -71.5075 805.527C-16.9577 756.81 85.1204 719.669 190.709 692.416C203.131 689.642 215.014 684.337 215.284 678.669C216.364 650.934 165.325 635.137 116.986 626.575C52.9847 615.722 -17.4978 611.381 -83.1195 601.131C-114.445 595.343 -141.45 585.816 -145.231 568.693C-156.843 512.86 -46.393 447.622 85.9306 439.422C150.472 435.081 194.49 451.24 233.647 467.519C287.927 489.346 321.413 524.316 400.807 530.225C418.09 532.034 426.461 521.663 427.001 514.79C427.542 336.923 811.01 198.97 1160.72 134.214C1160.18 136.385 1158.02 140.123 1155.59 140.244C791.567 205.602 418.36 349.464 432.402 530.225C432.402 534.928 418.63 538.184 409.718 536.616C314.661 522.628 269.023 480.905 193.41 455.461C153.443 442.317 101.864 437.011 45.4234 447.261C-44.5027 463.781 -121.736 500.078 -142.8 541.44C-174.396 606.316 -6.69595 605.713 94.3021 615.24C164.245 621.631 211.503 643.819 249.58 669.142C259.301 676.981 257.411 689.16 234.997 694.466C125.088 720.875 20.3089 754.398 -41.262 804.683C-59.6253 820.118 -84.4699 833.504 -113.095 845.201C-141.72 856.898 -174.396 866.786 -208.152 875.227L-229.756 870.404Z" fill="url(#paint14_diamond_4_32)"/>
<path d="M-287.816 855.33C-233.267 842.065 -189.249 823.615 -152.252 802.512C-133.619 792.021 -116.876 780.806 -100.943 769.351C-63.6763 732.451 3.83565 707.127 79.9893 684.457C108.074 675.774 120.227 659.977 102.673 650.933C54.0647 625.73 -32.8908 625.851 -96.6221 608.124C-147.931 593.413 -175.206 566.039 -150.632 534.445C-121.467 493.204 -44.773 459.078 42.9927 441.593C185.308 413.013 254.17 474.392 336.805 504.178C347.607 507.795 360.839 511.292 377.312 510.448C390.545 509.242 397.836 503.092 400.537 497.304C431.322 427.243 479.121 358.99 593.891 299.299C751.059 216.093 958.996 164.843 1162.61 115.282C1162.07 117.452 1162.34 121.07 1158.56 121.793C817.761 194.99 443.744 323.055 412.419 497.787C410.798 504.178 407.558 512.136 392.435 515.995C367.591 521.422 347.337 513.584 332.214 508.037C267.943 488.742 236.617 454.857 161.274 441.351C107.534 431.463 38.4018 439.663 -20.4686 459.439C-93.3817 483.557 -153.872 517.925 -153.332 553.498C-153.602 619.339 20.5787 616.927 121.847 643.216C151.282 651.657 169.375 672.76 126.438 685.301C34.8912 712.915 -52.8743 744.509 -99.3227 788.765C-116.876 805.045 -141.99 818.671 -171.156 830.368C-200.321 842.065 -233.537 852.074 -267.293 861.118L-287.816 855.33Z" fill="url(#paint15_diamond_4_32)"/>
<path d="M-343.446 837.966C-287.546 822.169 -238.937 802.754 -199.78 780.204C-180.067 768.869 -162.784 756.81 -147.931 743.907C-129.838 729.075 -120.926 712.916 -104.183 697.963C-90.6809 686.266 -56.9248 682.528 -36.1311 670.469C-21.0085 661.907 -13.7172 651.054 -27.2196 644.904C-71.5075 625.128 -131.728 612.466 -156.303 585.334C-166.294 575.084 -171.425 563.749 -169.265 551.81C-167.375 539.872 -158.463 527.211 -140.64 514.066C-83.1195 472.464 9.77696 430.137 115.906 427.967C213.933 425.676 257.681 461.611 316.282 484.281C335.455 491.637 368.671 489.949 379.743 474.755C426.191 411.808 468.319 352.599 567.697 297.973C729.185 207.17 947.384 155.92 1152.62 96.4706C1154.51 98.5206 1156.4 100.45 1158.02 102.5C815.601 184.62 448.065 306.173 384.874 486.572C379.203 499.355 345.447 498.511 329.514 492.481C265.783 471.137 228.516 436.89 138.59 430.981C41.6428 424.349 -59.6253 458.234 -116.876 498.752C-148.471 521.302 -168.185 544.213 -162.514 567.969C-154.952 617.29 -26.1394 618.134 21.3891 652.26C53.2547 674.69 -46.393 688.075 -78.5287 707.972C-100.943 722.684 -110.934 738.36 -130.648 753.433C-146.041 765.613 -163.324 777.43 -182.767 788.404C-221.654 810.472 -268.373 829.766 -323.462 844.236L-343.446 837.966Z" fill="url(#paint16_diamond_4_32)"/>
<path d="M-395.026 818.31C-307.8 792.383 -217.334 759.583 -198.161 712.554C-191.949 700.013 -190.059 687.592 -185.198 675.292C-180.337 662.992 -172.506 650.813 -154.683 638.754C-149.282 636.463 -151.982 632.845 -153.873 630.916C-164.404 611.984 -179.257 592.81 -183.308 572.913C-187.629 553.016 -181.147 532.637 -149.282 511.413C-127.948 496.702 -104.184 483.557 -78.7992 471.86C-19.9286 445.331 52.7142 422.299 130.758 420.49C209.612 419.164 253.9 443.522 309.53 460.163C336.805 468.725 363.27 452.205 373.261 440.266C397.836 407.587 425.651 377.44 464.808 347.776C541.501 291.099 639.529 241.658 757.27 198.608C878.792 154.835 1003.28 121.914 1133.18 80.7939C1134.53 80.191 1135.88 84.2909 1140.2 85.1351C978.439 140.364 797.777 181.364 651.141 245.758C516.117 305.932 427.811 377.32 370.021 456.546C359.489 470.655 327.623 475.358 307.1 468.605C245.259 449.19 198.27 416.511 102.403 424.59C24.3592 431.102 -43.4229 453.893 -96.0823 480.663C-116.066 490.913 -133.349 502.007 -146.851 514.066C-160.624 526.004 -170.615 538.907 -176.287 552.654C-183.848 571.104 -173.856 585.575 -158.463 599.201C-145.771 617.048 -97.1625 629.228 -112.285 652.019C-117.956 660.098 -140.1 664.439 -145.771 672.519C-156.843 688.798 -163.054 703.751 -176.827 719.427C-189.249 733.898 -204.912 747.766 -223.815 760.91C-261.622 786.957 -312.661 809.507 -377.203 825.907L-395.026 818.31Z" fill="url(#paint17_diamond_4_32)"/>
<path d="M-440.124 797.448C-380.443 778.757 -314.011 761.271 -280.795 732.451C-239.208 697.963 -250.28 663.474 -242.449 628.022C-234.887 584.248 -218.954 540.595 -153.333 499.113C-130.108 484.643 -104.994 471.86 -77.9893 460.404C31.1103 405.657 187.738 398.784 301.159 428.087C314.661 430.499 335.185 423.263 344.096 416.51C463.188 322.09 595.781 233.94 803.178 165.929C908.227 131.32 1002.74 100.449 1103.47 64.032C1103.47 64.032 1109.68 66.8055 1114 68.7349C1086.46 80.0702 1059.18 90.3201 1027.59 99.726C752.139 181.002 500.454 275.302 372.451 410.36C357.869 426.278 316.281 451.36 289.006 439.181C185.848 396.734 5.72581 413.134 -99.8631 473.187C-126.868 486.451 -150.362 501.043 -168.455 516.96C-186.549 532.878 -199.511 550.122 -205.992 568.813C-209.233 581.475 -207.342 592.931 -213.013 605.713C-230.296 641.648 -221.655 672.519 -236.778 708.333C-253.791 752.589 -344.527 781.771 -424.191 805.165L-440.124 797.448Z" fill="url(#paint18_diamond_4_32)"/>
<path d="M-480.361 776.225C-401.507 755.242 -311.85 725.698 -302.129 682.769C-288.626 615.722 -284.035 546.987 -167.915 486.693C-143.07 473.911 -116.876 462.334 -89.6007 451.481C24.8996 401.678 166.405 384.555 310.881 388.776C329.514 388.896 347.607 378.043 359.219 369.12C515.037 254.561 737.017 166.05 972.229 86.5823C1033.26 61.5 1065.67 47.2706 1065.67 47.2706L1078.36 52.9383C1046.22 65.7206 1018.14 80.1911 980.87 92.0088C713.793 178.109 496.944 274.82 334.375 396.976C329.784 400.834 316.012 404.211 309.26 403.487C203.402 395.167 89.1712 392.634 -14.2572 429.052C-45.3128 438.699 -75.2882 449.672 -103.643 462.093C-131.998 474.514 -158.733 488.261 -183.308 503.575C-284.846 565.678 -269.993 627.66 -287.276 691.813C-300.508 734.26 -388.544 762.236 -466.588 783.701L-480.361 776.225Z" fill="url(#paint19_diamond_4_32)"/>
<path d="M-518.167 755.001C-437.153 738.239 -364.78 707.971 -344.256 667.695C-320.762 621.51 -321.302 577.616 -270.263 533.239C-231.106 499.234 -178.177 470.413 -116.876 445.331C-86.3601 432.79 -53.6844 421.093 -19.6582 410.481C83.2301 373.702 203.402 367.19 320.062 347.172C337.345 344.158 352.738 338.249 364.35 330.29C532.59 227.187 736.207 150.493 941.983 70.423C998.153 45.8231 1030.29 31.5937 1030.29 31.5937L1042.98 37.2613C1042.98 37.2613 1010.85 51.4908 952.785 76.3318C743.228 154.835 533.4 233.458 374.072 338.128C350.038 354.528 316.282 366.708 276.314 367.672C163.434 372.857 51.3644 389.981 -45.8529 424.951C-74.4781 434.719 -102.023 445.21 -128.218 456.666C-154.412 468.122 -179.527 480.422 -202.751 493.687C-297.268 547.107 -312.121 605.351 -324.543 663.474C-334.534 707.368 -415.279 743.304 -504.935 762.598L-518.167 755.001Z" fill="url(#paint20_diamond_4_32)"/>
<path d="M-554.353 734.139C-404.747 707.851 -369.37 638.634 -335.344 578.34C-305.369 524.919 -241.638 481.267 -159.273 444.125C-131.998 431.705 -102.563 420.008 -71.7774 408.914C44.0733 364.296 179.368 339.696 312.771 313.046C330.324 309.067 347.878 304.002 361.38 297.008C532.591 209.341 718.384 133.009 908.228 54.5059C963.047 30.0265 995.183 15.7972 995.183 15.7972L1007.88 21.4648C1007.88 21.4648 976.01 35.6942 920.65 60.1736C741.338 135.059 553.924 203.553 398.917 292.426C368.671 309.67 329.244 321.608 286.036 330.532C173.696 352.358 59.7362 371.17 -40.4517 406.261C-69.0768 415.667 -96.8919 425.675 -124.437 436.528C-269.183 493.446 -334.264 569.416 -360.729 646.11C-376.122 688.678 -453.895 722.442 -541.391 741.736L-554.353 734.139Z" fill="url(#paint21_diamond_4_32)"/>
<path d="M-590 713.639C-504.665 695.069 -426.621 665.042 -406.637 623.198C-365.32 540.837 -262.432 474.393 -131.188 417.837C-98.5124 403.728 -63.9461 390.223 -28.0297 377.199C75.1287 339.093 190.439 310.273 304.67 280.97C381.093 261.917 439.964 232.855 498.834 204.758C620.086 147.961 747.549 93.9381 873.391 38.7088C928.211 14.2295 960.077 0.000163928 960.077 0.000163928L972.769 5.66771C972.769 5.66771 940.903 19.8971 886.083 44.3765C748.359 104.912 606.043 161.708 476.15 225.258C423.761 251.426 368.941 277.714 300.079 295.32C183.688 323.658 68.1074 349.946 -37.4814 387.69C-65.5664 397.458 -93.1112 407.587 -120.116 418.199C-146.851 428.811 -173.046 439.905 -198.43 451.722C-321.032 509.122 -355.058 578.822 -411.228 648.039C-438.773 682.889 -508.716 703.631 -576.768 720.875L-590 713.639Z" fill="url(#paint22_diamond_4_32)"/>
<defs>
<radialGradient id="paint0_diamond_4_32" cx="0" cy="0" r="1" gradientUnits="userSpaceOnUse" gradientTransform="translate(927.351 656.283) rotate(-31.9656) scale(546.007 842.437)">
<stop/>
<stop offset="0.0001" stop-color="#FE3131" stop-opacity="0.22"/>
<stop offset="1" stop-opacity="0"/>
</radialGradient>
<radialGradient id="paint1_diamond_4_32" cx="0" cy="0" r="1" gradientUnits="userSpaceOnUse" gradientTransform="translate(887.303 637.779) rotate(-32.9586) scale(531.735 833.833)">
<stop/>
<stop offset="0.0001" stop-color="#FE3131" stop-opacity="0.22"/>
<stop offset="1" stop-opacity="0"/>
</radialGradient>
<radialGradient id="paint2_diamond_4_32" cx="0" cy="0" r="1" gradientUnits="userSpaceOnUse" gradientTransform="translate(842.847 620.9) rotate(-34.1769) scale(513.525 819.851)">
<stop/>
<stop offset="0.0001" stop-color="#FE3131" stop-opacity="0.22"/>
<stop offset="1" stop-opacity="0"/>
</radialGradient>
<radialGradient id="paint3_diamond_4_32" cx="0" cy="0" r="1" gradientUnits="userSpaceOnUse" gradientTransform="translate(796.894 607.111) rotate(-35.439) scale(493.233 800.453)">
<stop/>
<stop offset="0.0001" stop-color="#FE3131" stop-opacity="0.22"/>
<stop offset="1" stop-opacity="0"/>
</radialGradient>
<radialGradient id="paint4_diamond_4_32" cx="0" cy="0" r="1" gradientUnits="userSpaceOnUse" gradientTransform="translate(747.647 594.509) rotate(-36.8543) scale(472.125 778.382)">
<stop/>
<stop offset="0.0001" stop-color="#FE3131" stop-opacity="0.22"/>
<stop offset="1" stop-opacity="0"/>
</radialGradient>
<radialGradient id="paint5_diamond_4_32" cx="0" cy="0" r="1" gradientUnits="userSpaceOnUse" gradientTransform="translate(699.552 583.92) rotate(-38.1581) scale(453.227 756.386)">
<stop/>
<stop offset="0.0001" stop-color="#FE3131" stop-opacity="0.22"/>
<stop offset="1" stop-opacity="0"/>
</radialGradient>
<radialGradient id="paint6_diamond_4_32" cx="0" cy="0" r="1" gradientUnits="userSpaceOnUse" gradientTransform="translate(656.669 576.544) rotate(-38.9494) scale(438.906 737.133)">
<stop/>
<stop offset="0.0001" stop-color="#FE3131" stop-opacity="0.22"/>
<stop offset="1" stop-opacity="0"/>
</radialGradient>
<radialGradient id="paint7_diamond_4_32" cx="0" cy="0" r="1" gradientUnits="userSpaceOnUse" gradientTransform="translate(605.383 569.376) rotate(-39.151) scale(431.818 726.304)">
<stop/>
<stop offset="0.0001" stop-color="#FE3131" stop-opacity="0.22"/>
<stop offset="1" stop-opacity="0"/>
</radialGradient>
<radialGradient id="paint8_diamond_4_32" cx="0" cy="0" r="1" gradientUnits="userSpaceOnUse" gradientTransform="translate(525.911 562.686) rotate(-37.3473) scale(446.679 740.024)">
<stop/>
<stop offset="0.0001" stop-color="#FE3131" stop-opacity="0.22"/>
<stop offset="1" stop-opacity="0"/>
</radialGradient>
<radialGradient id="paint9_diamond_4_32" cx="0" cy="0" r="1" gradientUnits="userSpaceOnUse" gradientTransform="translate(487.405 555.284) rotate(-36.3705) scale(456.406 748.646)">
<stop/>
<stop offset="0.0001" stop-color="#FE3131" stop-opacity="0.22"/>
<stop offset="1" stop-opacity="0"/>
</radialGradient>
<radialGradient id="paint10_diamond_4_32" cx="0" cy="0" r="1" gradientUnits="userSpaceOnUse" gradientTransform="translate(474.981 545.39) rotate(-36.0144) scale(463.965 758.046)">
<stop/>
<stop offset="0.0001" stop-color="#FE3131" stop-opacity="0.22"/>
<stop offset="1" stop-opacity="0"/>
</radialGradient>
<radialGradient id="paint11_diamond_4_32" cx="0" cy="0" r="1" gradientUnits="userSpaceOnUse" gradientTransform="translate(471.035 535.156) rotate(-35.6413) scale(471.994 767.841)">
<stop/>
<stop offset="0.0001" stop-color="#FE3131" stop-opacity="0.22"/>
<stop offset="1" stop-opacity="0"/>
</radialGradient>
<radialGradient id="paint12_diamond_4_32" cx="0" cy="0" r="1" gradientUnits="userSpaceOnUse" gradientTransform="translate(474.007 522.966) rotate(-35.4134) scale(480.365 779.329)">
<stop/>
<stop offset="0.0001" stop-color="#FE3131" stop-opacity="0.22"/>
<stop offset="1" stop-opacity="0"/>
</radialGradient>
<radialGradient id="paint13_diamond_4_32" cx="0" cy="0" r="1" gradientUnits="userSpaceOnUse" gradientTransform="translate(458.811 508.86) rotate(-34.5371) scale(496.354 796.328)">
<stop/>
<stop offset="0.0001" stop-color="#FE3131" stop-opacity="0.22"/>
<stop offset="1" stop-opacity="0"/>
</radialGradient>
<radialGradient id="paint14_diamond_4_32" cx="0" cy="0" r="1" gradientUnits="userSpaceOnUse" gradientTransform="translate(433.442 493.642) rotate(-33.3765) scale(515.456 813.488)">
<stop/>
<stop offset="0.0001" stop-color="#FE3131" stop-opacity="0.22"/>
<stop offset="1" stop-opacity="0"/>
</radialGradient>
<radialGradient id="paint15_diamond_4_32" cx="0" cy="0" r="1" gradientUnits="userSpaceOnUse" gradientTransform="translate(403.975 477.048) rotate(-32.4429) scale(532.04 827.463)">
<stop/>
<stop offset="0.0001" stop-color="#FE3131" stop-opacity="0.22"/>
<stop offset="1" stop-opacity="0"/>
</radialGradient>
<radialGradient id="paint16_diamond_4_32" cx="0" cy="0" r="1" gradientUnits="userSpaceOnUse" gradientTransform="translate(372.689 459.173) rotate(-31.6186) scale(545.826 837.105)">
<stop/>
<stop offset="0.0001" stop-color="#FE3131" stop-opacity="0.22"/>
<stop offset="1" stop-opacity="0"/>
</radialGradient>
<radialGradient id="paint17_diamond_4_32" cx="0" cy="0" r="1" gradientUnits="userSpaceOnUse" gradientTransform="translate(337.209 442.179) rotate(-30.9649) scale(554.241 840.008)">
<stop/>
<stop offset="0.0001" stop-color="#FE3131" stop-opacity="0.22"/>
<stop offset="1" stop-opacity="0"/>
</radialGradient>
<radialGradient id="paint18_diamond_4_32" cx="0" cy="0" r="1" gradientUnits="userSpaceOnUse" gradientTransform="translate(301.127 423.518) rotate(-30.52) scale(558.48 839.321)">
<stop/>
<stop offset="0.0001" stop-color="#FE3131" stop-opacity="0.22"/>
<stop offset="1" stop-opacity="0"/>
</radialGradient>
<radialGradient id="paint19_diamond_4_32" cx="0" cy="0" r="1" gradientUnits="userSpaceOnUse" gradientTransform="translate(263.08 404.475) rotate(-30.287) scale(558.795 835.988)">
<stop/>
<stop offset="0.0001" stop-color="#FE3131" stop-opacity="0.22"/>
<stop offset="1" stop-opacity="0"/>
</radialGradient>
<radialGradient id="paint20_diamond_4_32" cx="0" cy="0" r="1" gradientUnits="userSpaceOnUse" gradientTransform="translate(226.433 386.166) rotate(-30.0641) scale(558.402 831.707)">
<stop/>
<stop offset="0.0001" stop-color="#FE3131" stop-opacity="0.22"/>
<stop offset="1" stop-opacity="0"/>
</radialGradient>
<radialGradient id="paint21_diamond_4_32" cx="0" cy="0" r="1" gradientUnits="userSpaceOnUse" gradientTransform="translate(190.762 367.913) rotate(-29.8746) scale(557.723 827.522)">
<stop/>
<stop offset="0.0001" stop-color="#FE3131" stop-opacity="0.22"/>
<stop offset="1" stop-opacity="0"/>
</radialGradient>
<radialGradient id="paint22_diamond_4_32" cx="0" cy="0" r="1" gradientUnits="userSpaceOnUse" gradientTransform="translate(155.373 349.659) rotate(-29.6931) scale(556.905 823.239)">
<stop/>
<stop offset="0.0001" stop-color="#FE3131" stop-opacity="0.22"/>
<stop offset="1" stop-opacity="0"/>
</radialGradient>
</defs>
</svg>
