<svg width="691" height="659" viewBox="0 0 691 659" fill="none" xmlns="http://www.w3.org/2000/svg">
<g filter="url(#filter0_bd_2_1214)">
<rect x="87" y="83" width="524" height="485" rx="6" fill="white" fill-opacity="0.17" shape-rendering="crispEdges"/>
<g clip-path="url(#clip0_2_1214)">
<path d="M312 362.34C311.998 362.228 311.975 362.117 311.93 362.014C311.885 361.911 311.821 361.818 311.74 361.74C311.866 361.581 311.93 361.381 311.919 361.179C311.908 360.976 311.823 360.784 311.68 360.64C311.514 360.47 311.287 360.373 311.05 360.37H309.23L309.34 359.61C309.35 359.514 309.35 359.416 309.34 359.32C309.34 358.57 308.83 357.69 308.17 357.69H308.11C307.959 357.728 307.827 357.818 307.737 357.944C307.648 358.071 307.606 358.225 307.62 358.38L307.68 359.18C307.69 359.233 307.69 359.287 307.68 359.34C307.671 359.39 307.65 359.438 307.62 359.48L306.62 361.34H306.34C306.27 361.343 306.204 361.372 306.156 361.422C306.107 361.473 306.08 361.54 306.08 361.61V365C306.08 365.07 306.107 365.137 306.156 365.187C306.204 365.238 306.27 365.267 306.34 365.27H310.34C310.501 365.272 310.658 365.224 310.791 365.132C310.923 365.041 311.024 364.911 311.08 364.76C311.135 364.587 311.135 364.402 311.08 364.23C311.23 364.164 311.358 364.057 311.449 363.92C311.539 363.784 311.588 363.624 311.59 363.46C311.593 363.346 311.569 363.233 311.52 363.13C311.669 363.06 311.793 362.947 311.879 362.807C311.964 362.666 312.006 362.504 312 362.34Z" fill="#999999"/>
<path d="M305.71 361.41C305.698 361.326 305.656 361.249 305.592 361.194C305.527 361.139 305.445 361.109 305.36 361.11H304.74C304.647 361.11 304.558 361.147 304.493 361.212C304.427 361.278 304.39 361.367 304.39 361.46V365.13C304.39 365.223 304.427 365.312 304.493 365.377C304.558 365.443 304.647 365.48 304.74 365.48H305.36C305.453 365.48 305.542 365.443 305.608 365.377C305.673 365.312 305.71 365.223 305.71 365.13V361.41Z" fill="#999999"/>
<path d="M334.67 360.83C334.67 360.942 334.692 361.052 334.735 361.155C334.777 361.258 334.84 361.352 334.92 361.43C334.812 361.583 334.75 361.763 334.74 361.95C334.743 362.172 334.833 362.383 334.99 362.54C335.159 362.704 335.384 362.797 335.62 362.8H337.44L337.32 363.56C337.315 363.657 337.315 363.753 337.32 363.85C337.32 364.6 337.83 365.48 338.48 365.48H338.54C338.692 365.444 338.827 365.355 338.919 365.228C339.011 365.102 339.054 364.946 339.04 364.79L339 364C338.99 363.95 338.99 363.9 339 363.85C339.009 363.796 339.03 363.745 339.06 363.7L340.06 361.84H340.34C340.375 361.84 340.41 361.833 340.443 361.819C340.476 361.806 340.506 361.786 340.531 361.761C340.556 361.736 340.576 361.706 340.589 361.673C340.603 361.641 340.61 361.605 340.61 361.57V358.26C340.61 358.225 340.603 358.189 340.589 358.157C340.576 358.124 340.556 358.094 340.531 358.069C340.506 358.044 340.476 358.024 340.443 358.011C340.41 357.997 340.375 357.99 340.34 357.99H336.29C336.131 357.99 335.975 358.039 335.845 358.131C335.714 358.222 335.615 358.351 335.56 358.5C335.505 358.672 335.505 358.858 335.56 359.03C335.407 359.094 335.276 359.203 335.185 359.342C335.094 359.481 335.047 359.644 335.05 359.81C335.05 359.919 335.07 360.028 335.11 360.13C334.984 360.2 334.877 360.301 334.8 360.424C334.723 360.546 334.679 360.686 334.67 360.83Z" fill="#999999"/>
<path d="M341 361.76C341.012 361.844 341.054 361.92 341.119 361.976C341.183 362.031 341.265 362.061 341.35 362.06H342C342.093 362.06 342.182 362.023 342.247 361.957C342.313 361.892 342.35 361.803 342.35 361.71V358C342.35 357.907 342.313 357.818 342.247 357.752C342.182 357.687 342.093 357.65 342 357.65H341.38C341.287 357.65 341.198 357.687 341.133 357.752C341.067 357.818 341.03 357.907 341.03 358V361.72L341 361.76Z" fill="#999999"/>
<path d="M369.47 363.9L371.25 362.11C371.312 362.048 371.362 361.975 371.396 361.895C371.429 361.814 371.447 361.727 371.447 361.64C371.447 361.552 371.429 361.466 371.396 361.385C371.362 361.304 371.312 361.231 371.25 361.17L369.35 359.27C369.289 359.208 369.215 359.158 369.135 359.124C369.054 359.091 368.967 359.073 368.88 359.073C368.793 359.073 368.706 359.091 368.625 359.124C368.545 359.158 368.471 359.208 368.41 359.27C368.286 359.399 368.218 359.571 368.22 359.75C368.219 359.837 368.235 359.923 368.268 360.004C368.301 360.085 368.349 360.158 368.41 360.22L369.11 360.92H366.77C366.676 360.908 366.58 360.917 366.49 360.945C366.399 360.973 366.315 361.02 366.244 361.083C366.173 361.146 366.116 361.223 366.077 361.31C366.038 361.396 366.018 361.49 366.018 361.585C366.018 361.68 366.038 361.774 366.077 361.86C366.116 361.947 366.173 362.024 366.244 362.087C366.315 362.15 366.399 362.197 366.49 362.225C366.58 362.253 366.676 362.261 366.77 362.25H369.23L368.53 362.95C368.461 363.014 368.406 363.091 368.368 363.177C368.33 363.263 368.311 363.356 368.311 363.45C368.311 363.544 368.33 363.637 368.368 363.723C368.406 363.809 368.461 363.886 368.53 363.95C368.595 364.009 368.67 364.055 368.753 364.084C368.835 364.114 368.923 364.127 369.01 364.122C369.098 364.117 369.184 364.095 369.263 364.057C369.341 364.019 369.412 363.966 369.47 363.9Z" fill="#999999"/>
<path d="M400.99 359.08H395.39V359.99H400.99V359.08Z" fill="#999999"/>
<path d="M399.75 361.13H395.39V362.04H399.75V361.13Z" fill="#999999"/>
<path d="M402.71 362.37H399.75V362.85H402.71V362.37Z" fill="#999999"/>
<path d="M401.47 361.13H400.99V364.09H401.47V361.13Z" fill="#999999"/>
<path d="M399.75 363.19H395.39V364.1H399.75V363.19Z" fill="#999999"/>
<path d="M426.87 361.59C426.87 361.416 426.818 361.246 426.722 361.101C426.625 360.956 426.487 360.844 426.327 360.777C426.166 360.71 425.989 360.693 425.818 360.727C425.647 360.761 425.491 360.845 425.368 360.968C425.245 361.091 425.161 361.248 425.127 361.418C425.093 361.589 425.11 361.766 425.177 361.927C425.243 362.088 425.356 362.225 425.501 362.322C425.646 362.418 425.816 362.47 425.99 362.47C426.106 362.471 426.221 362.449 426.328 362.406C426.436 362.362 426.533 362.297 426.615 362.215C426.697 362.133 426.762 362.036 426.806 361.928C426.849 361.821 426.871 361.706 426.87 361.59Z" fill="#999999"/>
<path d="M430.21 361.59C430.21 361.357 430.117 361.133 429.952 360.968C429.787 360.803 429.563 360.71 429.33 360.71C429.097 360.71 428.873 360.803 428.708 360.968C428.543 361.133 428.45 361.357 428.45 361.59C428.45 361.823 428.543 362.047 428.708 362.212C428.873 362.377 429.097 362.47 429.33 362.47C429.563 362.47 429.787 362.377 429.952 362.212C430.117 362.047 430.21 361.823 430.21 361.59Z" fill="#999999"/>
<path d="M433.56 361.59C433.56 361.416 433.508 361.246 433.412 361.101C433.315 360.956 433.178 360.844 433.017 360.777C432.856 360.71 432.679 360.693 432.508 360.727C432.338 360.761 432.181 360.845 432.058 360.968C431.935 361.091 431.851 361.248 431.817 361.418C431.783 361.589 431.8 361.766 431.867 361.927C431.934 362.088 432.046 362.225 432.191 362.322C432.336 362.418 432.506 362.47 432.68 362.47C432.913 362.47 433.137 362.377 433.302 362.212C433.467 362.047 433.56 361.823 433.56 361.59Z" fill="#999999"/>
<path d="M325.99 357.53H314.69C313.884 357.53 313.23 358.184 313.23 358.99V364.17C313.23 364.976 313.884 365.63 314.69 365.63H325.99C326.796 365.63 327.45 364.976 327.45 364.17V358.99C327.45 358.184 326.796 357.53 325.99 357.53Z" fill="#B3B3B3"/>
<path d="M356.72 357.53H345.42C344.614 357.53 343.96 358.184 343.96 358.99V364.17C343.96 364.976 344.614 365.63 345.42 365.63H356.72C357.526 365.63 358.18 364.976 358.18 364.17V358.99C358.18 358.184 357.526 357.53 356.72 357.53Z" fill="#B3B3B3"/>
<path d="M387.45 357.53H376.15C375.344 357.53 374.69 358.184 374.69 358.99V364.17C374.69 364.976 375.344 365.63 376.15 365.63H387.45C388.256 365.63 388.91 364.976 388.91 364.17V358.99C388.91 358.184 388.256 357.53 387.45 357.53Z" fill="#B3B3B3"/>
<path d="M418.19 357.53H406.89C406.084 357.53 405.43 358.184 405.43 358.99V364.17C405.43 364.976 406.084 365.63 406.89 365.63H418.19C418.996 365.63 419.65 364.976 419.65 364.17V358.99C419.65 358.184 418.996 357.53 418.19 357.53Z" fill="#B3B3B3"/>
<path d="M437.66 373.83H147.78C147.666 373.83 147.557 373.785 147.476 373.704C147.395 373.623 147.35 373.514 147.35 373.4C147.35 373.286 147.395 373.177 147.476 373.096C147.557 373.015 147.666 372.97 147.78 372.97H437.66C437.774 372.97 437.884 373.015 437.964 373.096C438.045 373.177 438.09 373.286 438.09 373.4C438.09 373.514 438.045 373.623 437.964 373.704C437.884 373.785 437.774 373.83 437.66 373.83Z" fill="#BCBEC0"/>
<path d="M418.94 380.24H386.01C383.254 380.24 381.02 382.474 381.02 385.23V385.24C381.02 387.996 383.254 390.23 386.01 390.23H418.94C421.696 390.23 423.93 387.996 423.93 385.24V385.23C423.93 382.474 421.696 380.24 418.94 380.24Z" fill="#C4222E"/>
<path d="M388.944 383.321C388.915 383.076 388.797 382.886 388.591 382.751C388.385 382.616 388.132 382.548 387.833 382.548C387.614 382.548 387.422 382.584 387.258 382.654C387.095 382.725 386.968 382.823 386.877 382.947C386.786 383.071 386.741 383.211 386.741 383.369C386.741 383.501 386.773 383.615 386.835 383.71C386.9 383.803 386.982 383.881 387.082 383.944C387.182 384.005 387.286 384.056 387.396 384.096C387.505 384.135 387.606 384.166 387.698 384.19L388.2 384.325C388.329 384.359 388.472 384.406 388.63 384.466C388.789 384.525 388.941 384.606 389.086 384.709C389.233 384.811 389.353 384.941 389.448 385.101C389.543 385.26 389.591 385.456 389.591 385.687C389.591 385.955 389.521 386.196 389.381 386.412C389.242 386.628 389.039 386.799 388.772 386.926C388.506 387.053 388.184 387.117 387.804 387.117C387.45 387.117 387.143 387.06 386.884 386.946C386.626 386.831 386.423 386.672 386.275 386.467C386.129 386.263 386.046 386.025 386.027 385.755H386.645C386.661 385.942 386.724 386.096 386.833 386.219C386.944 386.339 387.084 386.43 387.253 386.489C387.424 386.547 387.607 386.576 387.804 386.576C388.032 386.576 388.238 386.539 388.42 386.465C388.601 386.389 388.746 386.285 388.852 386.151C388.958 386.016 389.011 385.858 389.011 385.678C389.011 385.514 388.965 385.38 388.874 385.277C388.782 385.174 388.661 385.09 388.511 385.026C388.362 384.961 388.2 384.905 388.026 384.857L387.417 384.683C387.031 384.572 386.725 384.413 386.5 384.207C386.274 384.001 386.162 383.731 386.162 383.398C386.162 383.121 386.237 382.88 386.386 382.674C386.538 382.466 386.74 382.305 386.995 382.191C387.251 382.075 387.537 382.017 387.852 382.017C388.171 382.017 388.454 382.074 388.702 382.188C388.95 382.301 389.146 382.456 389.291 382.652C389.438 382.848 389.515 383.071 389.523 383.321H388.944ZM393.821 382.085H394.42V385.359C394.42 385.697 394.34 385.999 394.181 386.265C394.023 386.529 393.8 386.737 393.512 386.89C393.224 387.041 392.885 387.117 392.497 387.117C392.11 387.117 391.771 387.041 391.483 386.89C391.195 386.737 390.971 386.529 390.812 386.265C390.654 385.999 390.575 385.697 390.575 385.359V382.085H391.174V385.311C391.174 385.552 391.227 385.767 391.334 385.955C391.44 386.142 391.591 386.289 391.788 386.397C391.986 386.504 392.222 386.557 392.497 386.557C392.773 386.557 393.009 386.504 393.207 386.397C393.405 386.289 393.557 386.142 393.661 385.955C393.768 385.767 393.821 385.552 393.821 385.311V382.085ZM398.32 383.321C398.291 383.076 398.174 382.886 397.968 382.751C397.761 382.616 397.509 382.548 397.209 382.548C396.99 382.548 396.799 382.584 396.635 382.654C396.472 382.725 396.345 382.823 396.253 382.947C396.163 383.071 396.118 383.211 396.118 383.369C396.118 383.501 396.149 383.615 396.212 383.71C396.276 383.803 396.359 383.881 396.458 383.944C396.558 384.005 396.663 384.056 396.772 384.096C396.882 384.135 396.982 384.166 397.074 384.19L397.576 384.325C397.705 384.359 397.848 384.406 398.006 384.466C398.166 384.525 398.318 384.606 398.463 384.709C398.609 384.811 398.73 384.941 398.825 385.101C398.92 385.26 398.967 385.456 398.967 385.687C398.967 385.955 398.897 386.196 398.757 386.412C398.619 386.628 398.416 386.799 398.149 386.926C397.883 387.053 397.56 387.117 397.18 387.117C396.826 387.117 396.519 387.06 396.26 386.946C396.003 386.831 395.8 386.672 395.652 386.467C395.505 386.263 395.422 386.025 395.403 385.755H396.021C396.037 385.942 396.1 386.096 396.21 386.219C396.321 386.339 396.461 386.43 396.63 386.489C396.8 386.547 396.984 386.576 397.18 386.576C397.409 386.576 397.614 386.539 397.796 386.465C397.978 386.389 398.122 386.285 398.228 386.151C398.335 386.016 398.388 385.858 398.388 385.678C398.388 385.514 398.342 385.38 398.25 385.277C398.158 385.174 398.038 385.09 397.888 385.026C397.738 384.961 397.576 384.905 397.402 384.857L396.794 384.683C396.408 384.572 396.102 384.413 395.876 384.207C395.651 384.001 395.538 383.731 395.538 383.398C395.538 383.121 395.613 382.88 395.763 382.674C395.914 382.466 396.117 382.305 396.371 382.191C396.627 382.075 396.913 382.017 397.229 382.017C397.547 382.017 397.831 382.074 398.079 382.188C398.327 382.301 398.523 382.456 398.668 382.652C398.814 382.848 398.892 383.071 398.9 383.321H398.32ZM403.931 383.63H403.333C403.297 383.458 403.235 383.306 403.147 383.176C403.06 383.046 402.953 382.936 402.828 382.848C402.704 382.757 402.566 382.69 402.415 382.645C402.264 382.6 402.106 382.577 401.942 382.577C401.642 382.577 401.371 382.653 401.128 382.804C400.886 382.956 400.694 383.178 400.551 383.473C400.409 383.768 400.338 384.129 400.338 384.557C400.338 384.986 400.409 385.347 400.551 385.642C400.694 385.936 400.886 386.159 401.128 386.31C401.371 386.462 401.642 386.537 401.942 386.537C402.106 386.537 402.264 386.515 402.415 386.47C402.566 386.425 402.704 386.358 402.828 386.269C402.953 386.179 403.06 386.069 403.147 385.939C403.235 385.807 403.297 385.655 403.333 385.485H403.931C403.886 385.737 403.804 385.964 403.685 386.163C403.566 386.363 403.418 386.533 403.241 386.673C403.064 386.811 402.865 386.917 402.644 386.989C402.425 387.061 402.191 387.098 401.942 387.098C401.52 387.098 401.145 386.995 400.816 386.789C400.488 386.582 400.23 386.289 400.041 385.91C399.853 385.53 399.759 385.079 399.759 384.557C399.759 384.036 399.853 383.585 400.041 383.205C400.23 382.825 400.488 382.532 400.816 382.326C401.145 382.12 401.52 382.017 401.942 382.017C402.191 382.017 402.425 382.053 402.644 382.126C402.865 382.198 403.064 382.304 403.241 382.444C403.418 382.583 403.566 382.752 403.685 382.951C403.804 383.149 403.886 383.376 403.931 383.63ZM404.899 387.03V382.085H406.57C406.957 382.085 407.274 382.151 407.522 382.283C407.77 382.413 407.953 382.592 408.072 382.821C408.191 383.05 408.251 383.31 408.251 383.601C408.251 383.892 408.191 384.151 408.072 384.376C407.953 384.602 407.77 384.779 407.524 384.907C407.278 385.035 406.963 385.098 406.58 385.098H405.228V384.557H406.561C406.825 384.557 407.037 384.519 407.198 384.441C407.361 384.364 407.478 384.255 407.551 384.113C407.625 383.97 407.662 383.799 407.662 383.601C407.662 383.403 407.625 383.23 407.551 383.082C407.477 382.934 407.358 382.819 407.196 382.739C407.033 382.657 406.818 382.616 406.551 382.616H405.498V387.03H404.899ZM407.227 384.808L408.444 387.03H407.749L406.551 384.808H407.227ZM409.848 382.085V387.03H409.249V382.085H409.848ZM411.048 387.03V382.085H412.777C413.122 382.085 413.406 382.144 413.63 382.263C413.854 382.381 414.02 382.539 414.13 382.739C414.239 382.937 414.294 383.157 414.294 383.398C414.294 383.611 414.256 383.786 414.18 383.925C414.106 384.063 414.008 384.173 413.886 384.253C413.765 384.334 413.634 384.393 413.492 384.432V384.48C413.643 384.49 413.796 384.543 413.949 384.639C414.101 384.736 414.229 384.874 414.332 385.055C414.435 385.235 414.487 385.456 414.487 385.716C414.487 385.964 414.431 386.187 414.318 386.385C414.205 386.583 414.027 386.74 413.784 386.856C413.541 386.972 413.225 387.03 412.835 387.03H411.048ZM411.647 386.499H412.835C413.227 386.499 413.504 386.423 413.668 386.272C413.834 386.119 413.917 385.934 413.917 385.716C413.917 385.549 413.874 385.394 413.789 385.253C413.704 385.109 413.582 384.995 413.425 384.91C413.267 384.823 413.08 384.779 412.864 384.779H411.647V386.499ZM411.647 384.258H412.758C412.938 384.258 413.101 384.222 413.246 384.152C413.392 384.081 413.508 383.981 413.594 383.852C413.68 383.723 413.724 383.572 413.724 383.398C413.724 383.181 413.648 382.997 413.497 382.845C413.346 382.692 413.106 382.616 412.777 382.616H411.647V384.258ZM415.471 387.03V382.085H418.456V382.616H416.07V384.287H418.301V384.818H416.07V386.499H418.494V387.03H415.471Z" fill="white"/>
<path d="M437.6 387.68L436.9 386.98H436.83V384.48C436.828 383.927 436.652 383.389 436.327 382.943C436.003 382.496 435.545 382.162 435.02 381.99C435.025 381.943 435.025 381.897 435.02 381.85C435.02 381.622 434.929 381.403 434.768 381.242C434.607 381.081 434.388 380.99 434.16 380.99C433.932 380.99 433.713 381.081 433.552 381.242C433.391 381.403 433.3 381.622 433.3 381.85C433.295 381.897 433.295 381.943 433.3 381.99C432.775 382.162 432.318 382.496 431.993 382.943C431.668 383.389 431.492 383.927 431.49 384.48V386.98C431.49 386.98 431.44 386.98 431.43 386.98L430.72 387.68C430.695 387.706 430.678 387.74 430.672 387.775C430.665 387.811 430.669 387.848 430.682 387.882C430.696 387.915 430.719 387.944 430.749 387.965C430.779 387.986 430.814 387.998 430.85 388H437.35C437.393 388.033 437.446 388.048 437.5 388.042C437.553 388.035 437.602 388.007 437.635 387.965C437.668 387.923 437.683 387.869 437.677 387.815C437.67 387.762 437.643 387.713 437.6 387.68Z" fill="#808285"/>
<path d="M434.22 388.65H433.36C433.36 388.878 433.45 389.097 433.612 389.258C433.773 389.419 433.992 389.51 434.22 389.51C434.448 389.51 434.667 389.419 434.828 389.258C434.989 389.097 435.08 388.878 435.08 388.65H434.22Z" fill="#808285"/>
<path d="M271.36 343.32H148.79C147.995 343.32 147.35 343.965 147.35 344.76V350.81C147.35 351.605 147.995 352.25 148.79 352.25H271.36C272.155 352.25 272.8 351.605 272.8 350.81V344.76C272.8 343.965 272.155 343.32 271.36 343.32Z" fill="#B3B3B3"/>
<path d="M226.6 357.26H148.79C147.995 357.26 147.35 357.905 147.35 358.7V364.75C147.35 365.545 147.995 366.19 148.79 366.19H226.6C227.395 366.19 228.04 365.545 228.04 364.75V358.7C228.04 357.905 227.395 357.26 226.6 357.26Z" fill="#B3B3B3"/>
<path d="M434.89 132H148.25C144.798 132 142 134.798 142 138.25V326.86C142 330.312 144.798 333.11 148.25 333.11H434.89C438.342 333.11 441.14 330.312 441.14 326.86V138.25C441.14 134.798 438.342 132 434.89 132Z" fill="#1E1F21"/>
<path d="M308.518 255.072C324.491 245.713 329.851 225.177 320.492 209.205C311.132 193.233 290.596 187.872 274.624 197.232C258.652 206.591 253.291 227.127 262.651 243.099C272.011 259.071 292.546 264.432 308.518 255.072Z" fill="#333333"/>
<path d="M279.25 226.14V211.57C279.249 210.944 279.412 210.33 279.724 209.787C280.036 209.245 280.486 208.795 281.027 208.482C281.568 208.168 282.183 208.003 282.808 208.003C283.434 208.003 284.048 208.167 284.59 208.48L297.21 215.77L309.84 223.06C310.38 223.374 310.827 223.824 311.138 224.366C311.45 224.907 311.613 225.52 311.613 226.145C311.613 226.769 311.45 227.383 311.138 227.924C310.827 228.465 310.38 228.916 309.84 229.23L297.21 236.52L284.59 243.81C284.048 244.123 283.434 244.287 282.808 244.287C282.183 244.287 281.568 244.121 281.027 243.808C280.486 243.495 280.036 243.044 279.724 242.502C279.412 241.96 279.249 241.345 279.25 240.72V226.14Z" fill="#F1F2F2"/>
<path d="M434.42 315.63H150.07C149.974 315.63 149.879 315.611 149.79 315.574C149.702 315.538 149.621 315.484 149.554 315.416C149.486 315.348 149.432 315.268 149.395 315.179C149.359 315.091 149.34 314.996 149.34 314.9C149.342 314.708 149.421 314.525 149.557 314.39C149.694 314.255 149.878 314.18 150.07 314.18H434.42C434.612 314.18 434.796 314.255 434.933 314.39C435.069 314.525 435.147 314.708 435.15 314.9C435.15 314.996 435.131 315.091 435.094 315.179C435.058 315.268 435.004 315.348 434.936 315.416C434.868 315.484 434.788 315.538 434.699 315.574C434.611 315.611 434.516 315.63 434.42 315.63Z" fill="#58595B"/>
<path d="M203.569 324.514C203.277 324.514 203.027 324.435 202.821 324.275C202.615 324.115 202.458 323.882 202.349 323.578C202.241 323.272 202.186 322.903 202.186 322.471C202.186 322.041 202.241 321.674 202.349 321.369C202.459 321.064 202.617 320.831 202.823 320.67C203.031 320.508 203.279 320.427 203.569 320.427C203.859 320.427 204.107 320.508 204.313 320.67C204.52 320.831 204.678 321.064 204.787 321.369C204.897 321.674 204.952 322.041 204.952 322.471C204.952 322.903 204.898 323.272 204.789 323.578C204.68 323.882 204.523 324.115 204.317 324.275C204.111 324.435 203.862 324.514 203.569 324.514ZM203.569 324.087C203.859 324.087 204.085 323.947 204.245 323.667C204.406 323.388 204.486 322.989 204.486 322.471C204.486 322.126 204.449 321.833 204.375 321.591C204.303 321.349 204.198 321.164 204.061 321.037C203.925 320.91 203.761 320.847 203.569 320.847C203.282 320.847 203.057 320.989 202.895 321.272C202.733 321.555 202.652 321.954 202.652 322.471C202.652 322.815 202.689 323.108 202.761 323.349C202.834 323.59 202.938 323.773 203.074 323.899C203.211 324.024 203.376 324.087 203.569 324.087ZM206.032 323.951C205.936 323.951 205.854 323.917 205.786 323.848C205.717 323.779 205.683 323.697 205.683 323.601C205.683 323.506 205.717 323.423 205.786 323.355C205.854 323.286 205.936 323.252 206.032 323.252C206.128 323.252 206.21 323.286 206.279 323.355C206.348 323.423 206.382 323.506 206.382 323.601C206.382 323.665 206.366 323.723 206.333 323.776C206.302 323.829 206.26 323.872 206.207 323.904C206.155 323.935 206.097 323.951 206.032 323.951ZM206.032 321.939C205.936 321.939 205.854 321.904 205.786 321.836C205.717 321.767 205.683 321.685 205.683 321.589C205.683 321.493 205.717 321.411 205.786 321.342C205.854 321.274 205.936 321.239 206.032 321.239C206.128 321.239 206.21 321.274 206.279 321.342C206.348 321.411 206.382 321.493 206.382 321.589C206.382 321.652 206.366 321.711 206.333 321.764C206.302 321.817 206.26 321.86 206.207 321.892C206.155 321.923 206.097 321.939 206.032 321.939ZM208.494 324.514C208.202 324.514 207.952 324.435 207.747 324.275C207.541 324.115 207.383 323.882 207.275 323.578C207.166 323.272 207.111 322.903 207.111 322.471C207.111 322.041 207.166 321.674 207.275 321.369C207.385 321.064 207.543 320.831 207.748 320.67C207.956 320.508 208.204 320.427 208.494 320.427C208.784 320.427 209.032 320.508 209.238 320.67C209.446 320.831 209.604 321.064 209.712 321.369C209.822 321.674 209.877 322.041 209.877 322.471C209.877 322.903 209.823 323.272 209.714 323.578C209.605 323.882 209.448 324.115 209.242 324.275C209.036 324.435 208.787 324.514 208.494 324.514ZM208.494 324.087C208.784 324.087 209.01 323.947 209.17 323.667C209.331 323.388 209.411 322.989 209.411 322.471C209.411 322.126 209.374 321.833 209.301 321.591C209.228 321.349 209.123 321.164 208.986 321.037C208.85 320.91 208.686 320.847 208.494 320.847C208.207 320.847 207.982 320.989 207.82 321.272C207.658 321.555 207.578 321.954 207.578 322.471C207.578 322.815 207.614 323.108 207.686 323.349C207.759 323.59 207.863 323.773 207.999 323.899C208.136 324.024 208.301 324.087 208.494 324.087ZM211.913 324.514C211.62 324.514 211.371 324.435 211.165 324.275C210.959 324.115 210.802 323.882 210.693 323.578C210.584 323.272 210.53 322.903 210.53 322.471C210.53 322.041 210.584 321.674 210.693 321.369C210.803 321.064 210.961 320.831 211.167 320.67C211.374 320.508 211.623 320.427 211.913 320.427C212.203 320.427 212.451 320.508 212.657 320.67C212.864 320.831 213.022 321.064 213.131 321.369C213.241 321.674 213.296 322.041 213.296 322.471C213.296 322.903 213.242 323.272 213.133 323.578C213.024 323.882 212.867 324.115 212.661 324.275C212.455 324.435 212.206 324.514 211.913 324.514ZM211.913 324.087C212.203 324.087 212.429 323.947 212.589 323.667C212.75 323.388 212.83 322.989 212.83 322.471C212.83 322.126 212.793 321.833 212.719 321.591C212.647 321.349 212.542 321.164 212.405 321.037C212.269 320.91 212.105 320.847 211.913 320.847C211.626 320.847 211.401 320.989 211.239 321.272C211.077 321.555 210.996 321.954 210.996 322.471C210.996 322.815 211.033 323.108 211.105 323.349C211.178 323.59 211.282 323.773 211.418 323.899C211.555 324.024 211.72 324.087 211.913 324.087Z" fill="#F1F2F2"/>
<path d="M409.64 323.04H406.98C406.743 323.04 406.55 323.233 406.55 323.47V325.12C406.55 325.358 406.743 325.55 406.98 325.55H409.64C409.878 325.55 410.07 325.358 410.07 325.12V323.47C410.07 323.233 409.878 323.04 409.64 323.04Z" fill="#F1F2F2"/>
<path d="M397.3 320.49C397.367 320.489 397.433 320.501 397.494 320.525C397.556 320.55 397.613 320.586 397.66 320.633C397.708 320.679 397.745 320.735 397.771 320.796C397.797 320.858 397.81 320.924 397.81 320.99V325.77C397.81 325.837 397.797 325.902 397.771 325.964C397.745 326.025 397.708 326.081 397.66 326.127C397.613 326.174 397.556 326.21 397.494 326.235C397.433 326.259 397.367 326.271 397.3 326.27H390.53C390.397 326.27 390.27 326.217 390.176 326.124C390.083 326.03 390.03 325.903 390.03 325.77V321C390.03 320.867 390.083 320.74 390.176 320.646C390.27 320.553 390.397 320.5 390.53 320.5H397.3M397.3 319.75H390.53C390.199 319.75 389.881 319.882 389.646 320.116C389.412 320.351 389.28 320.669 389.28 321V325.78C389.28 326.112 389.412 326.429 389.646 326.664C389.881 326.898 390.199 327.03 390.53 327.03H397.3C397.465 327.031 397.629 327 397.781 326.938C397.934 326.876 398.073 326.784 398.19 326.667C398.308 326.551 398.4 326.413 398.464 326.261C398.527 326.108 398.56 325.945 398.56 325.78V321C398.56 320.835 398.527 320.672 398.464 320.519C398.4 320.367 398.308 320.229 398.19 320.113C398.073 319.996 397.934 319.905 397.781 319.842C397.629 319.78 397.465 319.749 397.3 319.75Z" fill="#F1F2F2"/>
<path d="M412.75 320.49C412.816 320.489 412.883 320.501 412.944 320.525C413.006 320.55 413.063 320.586 413.11 320.633C413.158 320.679 413.195 320.735 413.221 320.796C413.247 320.858 413.26 320.924 413.26 320.99V325.77C413.26 325.837 413.247 325.902 413.221 325.964C413.195 326.025 413.158 326.081 413.11 326.127C413.063 326.174 413.006 326.21 412.944 326.235C412.883 326.259 412.816 326.271 412.75 326.27H406C405.867 326.27 405.74 326.217 405.646 326.124C405.553 326.03 405.5 325.903 405.5 325.77V321C405.5 320.867 405.553 320.74 405.646 320.646C405.74 320.553 405.867 320.5 406 320.5H412.77M412.77 319.75H406C405.668 319.75 405.351 319.882 405.116 320.116C404.882 320.351 404.75 320.669 404.75 321V325.78C404.758 326.106 404.893 326.417 405.127 326.645C405.36 326.873 405.674 327 406 327H412.77C412.935 327.001 413.099 326.97 413.251 326.908C413.404 326.846 413.543 326.754 413.66 326.637C413.778 326.521 413.87 326.383 413.934 326.231C413.997 326.078 414.03 325.915 414.03 325.75V321C414.03 320.835 413.997 320.672 413.934 320.519C413.87 320.367 413.778 320.229 413.66 320.113C413.543 319.996 413.404 319.905 413.251 319.842C413.099 319.78 412.935 319.749 412.77 319.75Z" fill="#F1F2F2"/>
<path d="M421.9 323.25V321.06C421.9 320.919 421.956 320.785 422.055 320.685C422.155 320.586 422.289 320.53 422.43 320.53H424.26V319.74H422.43C422.08 319.74 421.744 319.879 421.496 320.127C421.249 320.374 421.11 320.71 421.11 321.06V323.25H421.9Z" fill="#F1F2F2"/>
<path d="M425.25 320.53H427.08C427.221 320.53 427.355 320.586 427.455 320.685C427.554 320.785 427.61 320.919 427.61 321.06V323.25H428.4V321.06C428.4 320.71 428.261 320.374 428.013 320.127C427.766 319.879 427.43 319.74 427.08 319.74H425.25V320.53Z" fill="#F1F2F2"/>
<path d="M427.61 324.24V325.7C427.61 325.841 427.554 325.975 427.455 326.075C427.355 326.174 427.221 326.23 427.08 326.23H425.25V327H427.08C427.43 327 427.766 326.861 428.013 326.613C428.261 326.366 428.4 326.03 428.4 325.68V324.22L427.61 324.24Z" fill="#F1F2F2"/>
<path d="M424.26 326.23H422.43C422.289 326.23 422.155 326.174 422.055 326.075C421.956 325.975 421.9 325.841 421.9 325.7V324.24H421.11V325.7C421.11 326.05 421.249 326.386 421.496 326.633C421.744 326.881 422.08 327.02 422.43 327.02H424.26V326.23Z" fill="#F1F2F2"/>
<path d="M174.18 323.38V321.38C174.18 321.357 174.186 321.334 174.198 321.314C174.21 321.293 174.227 321.277 174.247 321.266C174.268 321.254 174.291 321.249 174.314 321.25C174.338 321.25 174.36 321.257 174.38 321.27L176.13 322.27L177.89 323.27C177.909 323.282 177.924 323.298 177.934 323.317C177.945 323.336 177.951 323.358 177.951 323.38C177.951 323.402 177.945 323.424 177.934 323.443C177.924 323.462 177.909 323.478 177.89 323.49L176.13 324.49L174.38 325.49C174.36 325.503 174.338 325.51 174.314 325.51C174.291 325.511 174.268 325.506 174.247 325.494C174.227 325.483 174.21 325.467 174.198 325.446C174.186 325.426 174.18 325.403 174.18 325.38V323.38Z" fill="#F1F2F2"/>
<path d="M189.4 321.91H188C187.942 321.91 187.886 321.933 187.844 321.974C187.803 322.016 187.78 322.072 187.78 322.13V324.63C187.78 324.688 187.803 324.744 187.844 324.786C187.886 324.827 187.942 324.85 188 324.85H189.4L191.58 327V319.72L189.4 321.91Z" fill="#F1F2F2"/>
<path d="M179.07 325.63C179.021 325.631 178.972 325.623 178.927 325.605C178.881 325.587 178.84 325.559 178.805 325.525C178.771 325.49 178.743 325.449 178.725 325.403C178.707 325.358 178.698 325.309 178.7 325.26V321.5C178.698 321.451 178.707 321.402 178.725 321.357C178.743 321.311 178.771 321.27 178.805 321.235C178.84 321.201 178.881 321.173 178.927 321.155C178.972 321.137 179.021 321.129 179.07 321.13C179.119 321.129 179.168 321.137 179.213 321.155C179.259 321.173 179.3 321.201 179.335 321.235C179.369 321.27 179.396 321.311 179.414 321.357C179.433 321.402 179.441 321.451 179.44 321.5V325.26C179.441 325.309 179.433 325.358 179.414 325.403C179.396 325.449 179.369 325.49 179.335 325.525C179.3 325.559 179.259 325.587 179.213 325.605C179.168 325.623 179.119 325.631 179.07 325.63Z" fill="#F1F2F2"/>
<path d="M192.45 321.1V321.71C192.756 321.868 193.013 322.108 193.192 322.403C193.372 322.697 193.467 323.035 193.467 323.38C193.467 323.725 193.372 324.063 193.192 324.358C193.013 324.652 192.756 324.892 192.45 325.05V325.66C192.912 325.484 193.31 325.172 193.59 324.764C193.871 324.357 194.021 323.875 194.021 323.38C194.021 322.886 193.871 322.403 193.59 321.996C193.31 321.589 192.912 321.276 192.45 321.1Z" fill="#F1F2F2"/>
<path d="M192.45 319.36V320.31C193.119 320.499 193.708 320.901 194.127 321.455C194.546 322.009 194.773 322.685 194.773 323.38C194.773 324.075 194.546 324.751 194.127 325.305C193.708 325.859 193.119 326.261 192.45 326.45V327.45C193.351 327.237 194.154 326.727 194.728 326.001C195.303 325.275 195.615 324.376 195.615 323.45C195.615 322.524 195.303 321.626 194.728 320.9C194.154 320.174 193.351 319.663 192.45 319.45V319.36Z" fill="#F1F2F2"/>
<path d="M157.34 326.8C157.084 326.787 156.842 326.676 156.665 326.49C156.488 326.304 156.39 326.057 156.39 325.8V320.86C156.402 320.612 156.506 320.377 156.682 320.202C156.857 320.026 157.092 319.922 157.34 319.91C157.588 319.922 157.823 320.026 157.998 320.202C158.174 320.377 158.278 320.612 158.29 320.86V325.8C158.29 326.057 158.192 326.304 158.015 326.49C157.838 326.676 157.597 326.787 157.34 326.8Z" fill="#F1F2F2"/>
<path d="M161.63 326.8C161.373 326.787 161.132 326.676 160.955 326.49C160.778 326.304 160.68 326.057 160.68 325.8V320.86C160.692 320.612 160.796 320.377 160.972 320.202C161.147 320.026 161.382 319.922 161.63 319.91C161.878 319.922 162.113 320.026 162.288 320.202C162.464 320.377 162.568 320.612 162.58 320.86V325.8C162.58 326.057 162.482 326.304 162.305 326.49C162.128 326.676 161.886 326.787 161.63 326.8Z" fill="#F1F2F2"/>
<path d="M154.69 314.44C154.69 315.103 154.494 315.75 154.125 316.301C153.757 316.852 153.234 317.282 152.622 317.535C152.01 317.789 151.336 317.855 150.686 317.726C150.037 317.596 149.44 317.277 148.971 316.809C148.503 316.34 148.184 315.743 148.054 315.094C147.925 314.444 147.991 313.77 148.245 313.158C148.499 312.546 148.928 312.023 149.479 311.655C150.03 311.287 150.677 311.09 151.34 311.09C152.228 311.09 153.081 311.443 153.709 312.071C154.337 312.7 154.69 313.552 154.69 314.44Z" fill="#C4222E"/>
<path d="M376.06 324.09V323.09C376.38 322.95 376.71 322.83 377.06 322.67C377.176 322.599 377.278 322.508 377.36 322.4C377.57 322.14 377.41 321.9 377.3 321.66C376.97 320.93 376.97 320.92 377.55 320.4C377.6 320.365 377.657 320.34 377.718 320.328C377.778 320.316 377.84 320.317 377.9 320.33C378.18 320.41 378.45 320.54 378.73 320.64C378.873 320.68 379.025 320.67 379.161 320.612C379.298 320.554 379.41 320.451 379.48 320.32C379.63 319.98 379.79 319.64 379.94 319.32H380.86C380.99 319.61 381.14 319.9 381.25 320.2C381.285 320.302 381.343 320.395 381.419 320.471C381.496 320.547 381.588 320.605 381.69 320.64C381.97 320.77 382.17 320.59 382.38 320.5C383.08 320.22 383.07 320.22 383.61 320.73C383.668 320.777 383.708 320.842 383.725 320.914C383.741 320.987 383.732 321.063 383.7 321.13C383.59 321.38 383.49 321.64 383.38 321.9C383.331 322.047 383.338 322.206 383.399 322.348C383.459 322.49 383.57 322.604 383.71 322.67L384.51 322.98C384.573 322.996 384.627 323.035 384.664 323.088C384.701 323.141 384.717 323.206 384.71 323.27C384.71 324.03 384.71 324.03 384.01 324.33L383.82 324.41C383.723 324.432 383.632 324.477 383.557 324.542C383.481 324.607 383.422 324.689 383.386 324.782C383.349 324.875 383.336 324.975 383.347 325.074C383.358 325.173 383.394 325.268 383.45 325.35C383.55 325.57 383.65 325.8 383.73 326.03C383.75 326.072 383.76 326.118 383.76 326.165C383.76 326.212 383.75 326.258 383.73 326.3C383.19 326.91 383.19 326.91 382.44 326.61L382.28 326.54C382.191 326.48 382.089 326.443 381.983 326.433C381.877 326.422 381.769 326.437 381.671 326.478C381.572 326.518 381.484 326.583 381.416 326.665C381.348 326.747 381.301 326.845 381.28 326.95C381.19 327.17 381.11 327.4 381 327.61C380.972 327.653 380.935 327.689 380.892 327.716C380.849 327.744 380.801 327.762 380.75 327.77C379.75 327.77 380.04 327.97 379.63 327.08C379.599 326.997 379.563 326.917 379.52 326.84C379.437 326.728 379.339 326.627 379.23 326.54C378.95 326.32 378.7 326.54 378.46 326.61C377.73 326.92 377.73 326.92 377.2 326.36C377.163 326.313 377.136 326.258 377.122 326.199C377.108 326.14 377.108 326.079 377.12 326.02C377.21 325.74 377.34 325.47 377.45 325.2C377.485 325.06 377.473 324.912 377.415 324.78C377.357 324.648 377.257 324.539 377.13 324.47L376.06 324.09ZM381.74 323.58C381.748 323.306 381.674 323.036 381.528 322.804C381.382 322.572 381.169 322.389 380.919 322.278C380.668 322.167 380.39 322.133 380.12 322.181C379.85 322.229 379.6 322.356 379.403 322.547C379.205 322.737 379.069 322.982 379.012 323.25C378.954 323.518 378.977 323.797 379.079 324.052C379.181 324.306 379.356 324.525 379.582 324.68C379.809 324.834 380.076 324.918 380.35 324.92C380.53 324.924 380.708 324.892 380.875 324.827C381.042 324.762 381.195 324.664 381.324 324.54C381.453 324.415 381.557 324.266 381.628 324.101C381.699 323.937 381.737 323.76 381.74 323.58Z" fill="#F1F2F2"/>
<path d="M164.81 398C164.81 399.883 164.251 401.724 163.205 403.29C162.158 404.856 160.671 406.076 158.931 406.796C157.191 407.517 155.276 407.704 153.429 407.336C151.582 406.968 149.886 406.06 148.555 404.728C147.224 403.396 146.318 401.698 145.952 399.851C145.586 398.004 145.775 396.089 146.498 394.35C147.22 392.611 148.441 391.124 150.008 390.08C151.575 389.035 153.417 388.478 155.3 388.48C156.55 388.48 157.787 388.726 158.942 389.205C160.096 389.683 161.145 390.385 162.028 391.269C162.911 392.153 163.612 393.203 164.089 394.358C164.566 395.513 164.811 396.75 164.81 398Z" fill="#C4222E"/>
<path fill-rule="evenodd" clip-rule="evenodd" d="M155.42 398C155.897 397.998 156.363 397.854 156.758 397.587C157.154 397.321 157.461 396.942 157.641 396.501C157.822 396.059 157.867 395.574 157.771 395.106C157.675 394.639 157.443 394.21 157.104 393.875C156.764 393.54 156.333 393.313 155.864 393.223C155.396 393.133 154.911 393.184 154.472 393.37C154.032 393.556 153.658 393.868 153.396 394.267C153.134 394.665 152.996 395.133 153 395.61C153.001 395.926 153.065 396.239 153.188 396.53C153.31 396.821 153.489 397.086 153.714 397.308C153.939 397.53 154.205 397.705 154.498 397.824C154.791 397.943 155.104 398.003 155.42 398ZM157.79 398.41C157.634 398.337 157.463 398.299 157.29 398.299C157.117 398.299 156.947 398.337 156.79 398.41C156.37 398.603 155.913 398.702 155.45 398.7C154.984 398.702 154.524 398.603 154.1 398.41C153.944 398.335 153.773 398.297 153.6 398.297C153.427 398.297 153.256 398.335 153.1 398.41C152.354 398.724 151.719 399.253 151.276 399.93C150.832 400.607 150.6 401.401 150.61 402.21H160.25C160.255 401.408 160.024 400.623 159.587 399.951C159.149 399.279 158.525 398.751 157.79 398.43V398.41Z" fill="#F1F2F2"/>
<path d="M281.63 391.55H168.2C167.836 391.55 167.54 391.846 167.54 392.21V397.97C167.54 398.335 167.836 398.63 168.2 398.63H281.63C281.995 398.63 282.29 398.335 282.29 397.97V392.21C282.29 391.846 281.995 391.55 281.63 391.55Z" fill="#B3B3B3"/>
<path d="M331.84 400H168.2C167.836 400 167.54 400.295 167.54 400.66V403.94C167.54 404.305 167.836 404.6 168.2 404.6H331.84C332.205 404.6 332.5 404.305 332.5 403.94V400.66C332.5 400.295 332.205 400 331.84 400Z" fill="#B3B3B3"/>
<path d="M164.81 427.09C164.81 428.973 164.251 430.814 163.205 432.38C162.158 433.946 160.671 435.166 158.931 435.886C157.191 436.607 155.276 436.795 153.429 436.426C151.582 436.058 149.886 435.151 148.555 433.818C147.224 432.486 146.318 430.789 145.952 428.941C145.586 427.094 145.775 425.179 146.498 423.44C147.22 421.701 148.441 420.214 150.008 419.17C151.575 418.125 153.417 417.568 155.3 417.57C156.55 417.57 157.787 417.816 158.942 418.295C160.096 418.773 161.145 419.475 162.028 420.359C162.911 421.243 163.612 422.293 164.089 423.448C164.566 424.603 164.811 425.84 164.81 427.09Z" fill="#C4222E"/>
<path fill-rule="evenodd" clip-rule="evenodd" d="M155.42 427.07C155.896 427.068 156.361 426.925 156.756 426.659C157.151 426.393 157.459 426.016 157.64 425.575C157.82 425.135 157.867 424.651 157.773 424.184C157.678 423.717 157.448 423.288 157.111 422.952C156.773 422.616 156.344 422.388 155.877 422.296C155.409 422.203 154.925 422.252 154.486 422.434C154.046 422.617 153.67 422.926 153.406 423.322C153.141 423.718 153 424.184 153 424.66C152.999 424.978 153.061 425.292 153.182 425.586C153.303 425.88 153.481 426.146 153.707 426.371C153.932 426.595 154.199 426.772 154.493 426.892C154.787 427.012 155.102 427.073 155.42 427.07ZM157.79 427.47C157.633 427.399 157.462 427.363 157.29 427.363C157.118 427.363 156.947 427.399 156.79 427.47C156.368 427.659 155.912 427.758 155.45 427.76C154.985 427.758 154.525 427.659 154.1 427.47C153.943 427.398 153.773 427.361 153.6 427.361C153.428 427.361 153.257 427.398 153.1 427.47C152.354 427.787 151.72 428.318 151.276 428.997C150.833 429.675 150.601 430.47 150.61 431.28H160.25C160.256 430.474 160.027 429.684 159.59 429.007C159.153 428.33 158.527 427.796 157.79 427.47Z" fill="#F1F2F2"/>
<path d="M288.75 420.6H168.2C167.836 420.6 167.54 420.896 167.54 421.26V427.02C167.54 427.385 167.836 427.68 168.2 427.68H288.75C289.115 427.68 289.41 427.385 289.41 427.02V421.26C289.41 420.896 289.115 420.6 288.75 420.6Z" fill="#B3B3B3"/>
<path d="M375.17 429.05H168.2C167.836 429.05 167.54 429.346 167.54 429.71V432.99C167.54 433.355 167.836 433.65 168.2 433.65H375.17C375.535 433.65 375.83 433.355 375.83 432.99V429.71C375.83 429.346 375.535 429.05 375.17 429.05Z" fill="#B3B3B3"/>
<path d="M164.81 456.14C164.81 458.023 164.251 459.864 163.205 461.43C162.158 462.996 160.671 464.216 158.931 464.936C157.191 465.657 155.276 465.845 153.429 465.476C151.582 465.108 149.886 464.201 148.555 462.868C147.224 461.536 146.318 459.839 145.952 457.991C145.586 456.144 145.775 454.229 146.498 452.49C147.22 450.751 148.441 449.265 150.008 448.22C151.575 447.175 153.417 446.618 155.3 446.62C157.823 446.623 160.242 447.627 162.025 449.412C163.808 451.197 164.81 453.617 164.81 456.14Z" fill="#C4222E"/>
<path fill-rule="evenodd" clip-rule="evenodd" d="M155.42 456.12C155.896 456.118 156.361 455.975 156.756 455.709C157.151 455.443 157.458 455.066 157.639 454.625C157.82 454.185 157.867 453.701 157.772 453.234C157.678 452.767 157.448 452.338 157.111 452.002C156.773 451.666 156.344 451.438 155.876 451.346C155.409 451.253 154.925 451.302 154.485 451.484C154.046 451.667 153.67 451.976 153.405 452.372C153.141 452.768 153 453.234 153 453.71C152.999 454.028 153.06 454.343 153.182 454.636C153.303 454.93 153.481 455.196 153.706 455.421C153.932 455.645 154.199 455.822 154.493 455.942C154.787 456.062 155.102 456.123 155.42 456.12ZM157.79 456.52C157.633 456.449 157.462 456.413 157.29 456.413C157.118 456.413 156.947 456.449 156.79 456.52C156.368 456.709 155.912 456.808 155.45 456.81C154.985 456.808 154.525 456.709 154.1 456.52C153.943 456.448 153.773 456.411 153.6 456.411C153.427 456.411 153.257 456.448 153.1 456.52C152.353 456.836 151.718 457.367 151.274 458.046C150.831 458.724 150.6 459.519 150.61 460.33H160.25C160.258 459.524 160.029 458.733 159.591 458.056C159.154 457.379 158.528 456.845 157.79 456.52Z" fill="#F1F2F2"/>
<path d="M254.74 449.65H168.2C167.836 449.65 167.54 449.945 167.54 450.31V456.07C167.54 456.434 167.836 456.73 168.2 456.73H254.74C255.105 456.73 255.4 456.434 255.4 456.07V450.31C255.4 449.945 255.105 449.65 254.74 449.65Z" fill="#B3B3B3"/>
<path d="M342.45 458.1H168.2C167.836 458.1 167.54 458.396 167.54 458.76V462.04C167.54 462.405 167.836 462.7 168.2 462.7H342.45C342.815 462.7 343.11 462.405 343.11 462.04V458.76C343.11 458.396 342.815 458.1 342.45 458.1Z" fill="#B3B3B3"/>
<path d="M171.18 410.25C171.181 410.19 171.169 410.13 171.145 410.075C171.121 410.02 171.085 409.97 171.04 409.93C171.102 409.853 171.137 409.759 171.14 409.66C171.139 409.544 171.093 409.432 171.01 409.35C170.923 409.262 170.804 409.211 170.68 409.21H169.68L169.74 408.81C169.745 408.76 169.745 408.71 169.74 408.66C169.74 408.26 169.48 407.8 169.13 407.8C169.051 407.819 168.981 407.866 168.933 407.932C168.885 407.998 168.863 408.079 168.87 408.16V408.58C168.875 408.606 168.875 408.634 168.87 408.66V408.74L168.34 409.74H168.2C168.163 409.74 168.127 409.755 168.101 409.781C168.075 409.807 168.06 409.843 168.06 409.88V411.61C168.06 411.647 168.075 411.683 168.101 411.709C168.127 411.735 168.163 411.75 168.2 411.75H170.32C170.405 411.751 170.488 411.726 170.558 411.677C170.628 411.629 170.681 411.56 170.71 411.48C170.74 411.393 170.74 411.298 170.71 411.21C170.79 411.175 170.858 411.118 170.906 411.045C170.954 410.972 170.98 410.887 170.98 410.8C170.994 410.741 170.994 410.679 170.98 410.62C171.042 410.581 171.093 410.526 171.128 410.461C171.163 410.396 171.181 410.324 171.18 410.25Z" fill="#999999"/>
<path d="M167.85 409.76C167.845 409.716 167.824 409.675 167.791 409.646C167.758 409.616 167.715 409.6 167.67 409.6H167.34C167.292 409.6 167.247 409.619 167.213 409.653C167.179 409.687 167.16 409.732 167.16 409.78V411.71C167.16 411.758 167.179 411.804 167.213 411.837C167.247 411.871 167.292 411.89 167.34 411.89H167.67C167.718 411.89 167.764 411.871 167.797 411.837C167.831 411.804 167.85 411.758 167.85 411.71V409.76Z" fill="#999999"/>
<path d="M183.06 409.45C183.062 409.569 183.109 409.683 183.19 409.77C183.13 409.847 183.098 409.942 183.1 410.04C183.1 410.098 183.111 410.155 183.134 410.208C183.156 410.261 183.189 410.31 183.23 410.35C183.321 410.431 183.438 410.477 183.56 410.48H184.51L184.45 410.88C184.45 410.93 184.45 410.99 184.45 411.04C184.45 411.43 184.72 411.89 185.06 411.89C185.139 411.871 185.209 411.824 185.257 411.758C185.305 411.692 185.327 411.611 185.32 411.53V411.11C185.315 411.08 185.315 411.05 185.32 411.02C185.312 410.997 185.312 410.973 185.32 410.95L185.84 409.95H186C186.037 409.95 186.073 409.935 186.099 409.909C186.125 409.883 186.14 409.847 186.14 409.81V408.07C186.14 408.033 186.125 407.997 186.099 407.971C186.073 407.945 186.037 407.93 186 407.93H183.91C183.827 407.931 183.746 407.957 183.678 408.006C183.61 408.054 183.558 408.122 183.53 408.2C183.495 408.29 183.495 408.39 183.53 408.48C183.45 408.515 183.382 408.572 183.334 408.645C183.286 408.718 183.261 408.803 183.26 408.89C183.25 408.946 183.25 409.004 183.26 409.06C183.196 409.102 183.143 409.16 183.108 409.228C183.073 409.297 183.056 409.373 183.06 409.45Z" fill="#999999"/>
<path d="M186.38 409.94C186.387 409.984 186.411 410.024 186.446 410.052C186.481 410.079 186.525 410.093 186.57 410.09H186.89C186.939 410.09 186.985 410.071 187.021 410.038C187.056 410.004 187.077 409.959 187.08 409.91V408C187.077 407.95 187.057 407.904 187.022 407.868C186.986 407.833 186.939 407.812 186.89 407.81H186.57C186.519 407.81 186.471 407.83 186.436 407.866C186.4 407.901 186.38 407.95 186.38 408V409.95V409.94Z" fill="#999999"/>
<path d="M177.81 407.72H173.26C172.454 407.72 171.8 408.374 171.8 409.18V410.51C171.8 411.316 172.454 411.97 173.26 411.97H177.81C178.616 411.97 179.27 411.316 179.27 410.51V409.18C179.27 408.374 178.616 407.72 177.81 407.72Z" fill="#B3B3B3"/>
<path d="M193.95 407.72H189.4C188.594 407.72 187.94 408.374 187.94 409.18V410.51C187.94 411.316 188.594 411.97 189.4 411.97H193.95C194.756 411.97 195.41 411.316 195.41 410.51V409.18C195.41 408.374 194.756 407.72 193.95 407.72Z" fill="#B3B3B3"/>
<path d="M171.18 438.6C171.179 438.54 171.166 438.481 171.142 438.426C171.118 438.371 171.084 438.321 171.04 438.28C171.103 438.204 171.139 438.109 171.14 438.01C171.136 437.894 171.089 437.784 171.01 437.7C170.923 437.611 170.804 437.561 170.68 437.56H169.68L169.74 437.17C169.745 437.117 169.745 437.063 169.74 437.01C169.74 436.62 169.48 436.16 169.13 436.16C169.052 436.181 168.983 436.228 168.936 436.293C168.888 436.359 168.865 436.439 168.87 436.52V436.94C168.875 436.97 168.875 437 168.87 437.03V437.1L168.34 438.1H168.2C168.163 438.1 168.127 438.115 168.101 438.141C168.075 438.167 168.06 438.203 168.06 438.24V440C168.06 440.037 168.075 440.073 168.101 440.099C168.127 440.125 168.163 440.14 168.2 440.14H170.32C170.404 440.137 170.485 440.11 170.555 440.062C170.624 440.014 170.678 439.947 170.71 439.87C170.696 439.74 170.715 439.608 170.766 439.487C170.816 439.367 170.897 439.261 171 439.18C171.015 439.124 171.015 439.066 171 439.01C171.063 438.963 171.113 438.901 171.145 438.829C171.176 438.757 171.188 438.678 171.18 438.6Z" fill="#999999"/>
<path d="M167.85 438.11C167.845 438.066 167.824 438.025 167.791 437.995C167.758 437.966 167.715 437.95 167.67 437.95H167.34C167.292 437.953 167.246 437.974 167.212 438.009C167.179 438.044 167.16 438.091 167.16 438.14V440.06C167.16 440.108 167.179 440.153 167.213 440.187C167.247 440.221 167.292 440.24 167.34 440.24H167.67C167.718 440.24 167.764 440.221 167.797 440.187C167.831 440.153 167.85 440.108 167.85 440.06V438.11Z" fill="#999999"/>
<path d="M183.06 437.8C183.06 437.919 183.107 438.034 183.19 438.12C183.131 438.198 183.099 438.293 183.1 438.39C183.098 438.448 183.109 438.506 183.131 438.559C183.153 438.613 183.187 438.661 183.23 438.7C183.317 438.788 183.436 438.839 183.56 438.84H184.51L184.45 439.24C184.45 439.29 184.45 439.34 184.45 439.39C184.45 439.79 184.72 440.24 185.06 440.24C185.141 440.223 185.212 440.177 185.26 440.11C185.308 440.044 185.329 439.962 185.32 439.88V439.46C185.314 439.434 185.314 439.406 185.32 439.38C185.312 439.354 185.312 439.326 185.32 439.3L185.84 438.3H186C186.037 438.3 186.073 438.285 186.099 438.259C186.125 438.233 186.14 438.197 186.14 438.16V436.43C186.14 436.392 186.126 436.355 186.1 436.327C186.074 436.299 186.038 436.283 186 436.28H183.91C183.827 436.277 183.746 436.301 183.678 436.348C183.609 436.395 183.558 436.462 183.53 436.54C183.496 436.63 183.496 436.73 183.53 436.82C183.45 436.855 183.382 436.912 183.334 436.985C183.286 437.058 183.261 437.143 183.26 437.23C183.25 437.286 183.25 437.344 183.26 437.4C183.194 437.443 183.141 437.502 183.106 437.573C183.07 437.643 183.055 437.722 183.06 437.8Z" fill="#999999"/>
<path d="M186.38 438.29C186.387 438.335 186.41 438.376 186.445 438.405C186.48 438.435 186.524 438.451 186.57 438.45H186.89C186.94 438.45 186.989 438.43 187.024 438.394C187.06 438.359 187.08 438.31 187.08 438.26V436.34C187.077 436.291 187.056 436.246 187.021 436.212C186.985 436.179 186.939 436.16 186.89 436.16H186.57C186.545 436.159 186.521 436.162 186.498 436.171C186.475 436.179 186.454 436.192 186.436 436.209C186.418 436.226 186.404 436.246 186.394 436.269C186.385 436.291 186.38 436.315 186.38 436.34V438.34V438.29Z" fill="#999999"/>
<path d="M177.81 436.07H173.26C172.454 436.07 171.8 436.724 171.8 437.53V438.86C171.8 439.666 172.454 440.32 173.26 440.32H177.81C178.616 440.32 179.27 439.666 179.27 438.86V437.53C179.27 436.724 178.616 436.07 177.81 436.07Z" fill="#B3B3B3"/>
<path d="M193.95 436.07H189.4C188.594 436.07 187.94 436.724 187.94 437.53V438.86C187.94 439.666 188.594 440.32 189.4 440.32H193.95C194.756 440.32 195.41 439.666 195.41 438.86V437.53C195.41 436.724 194.756 436.07 193.95 436.07Z" fill="#B3B3B3"/>
<path d="M171.18 468.51C171.179 468.45 171.166 468.391 171.142 468.336C171.118 468.281 171.084 468.231 171.04 468.19C171.103 468.114 171.139 468.019 171.14 467.92C171.136 467.804 171.089 467.694 171.01 467.61C170.92 467.526 170.803 467.476 170.68 467.47H169.68L169.74 467.08C169.745 467.027 169.745 466.973 169.74 466.92C169.74 466.53 169.48 466.07 169.13 466.07C169.052 466.091 168.983 466.138 168.936 466.204C168.888 466.269 168.865 466.349 168.87 466.43V466.85C168.875 466.88 168.875 466.91 168.87 466.94V467.01L168.34 468.01H168.2C168.163 468.01 168.127 468.025 168.101 468.051C168.075 468.077 168.06 468.113 168.06 468.15V469.89C168.06 469.927 168.075 469.963 168.101 469.989C168.127 470.015 168.163 470.03 168.2 470.03H170.32C170.404 470.027 170.485 470 170.555 469.952C170.624 469.904 170.678 469.838 170.71 469.76C170.696 469.63 170.715 469.498 170.766 469.377C170.816 469.257 170.897 469.151 171 469.07C171.015 469.014 171.015 468.956 171 468.9C171.06 468.855 171.108 468.796 171.14 468.728C171.171 468.66 171.185 468.585 171.18 468.51Z" fill="#999999"/>
<path d="M167.85 468C167.845 467.956 167.824 467.915 167.791 467.886C167.758 467.856 167.715 467.84 167.67 467.84H167.34C167.292 467.843 167.246 467.864 167.212 467.899C167.179 467.935 167.16 467.981 167.16 468.03V470C167.16 470.049 167.179 470.096 167.212 470.131C167.246 470.166 167.292 470.188 167.34 470.19H167.67C167.719 470.188 167.765 470.166 167.798 470.131C167.832 470.096 167.85 470.049 167.85 470V468Z" fill="#999999"/>
<path d="M183.06 467.71C183.06 467.829 183.107 467.944 183.19 468.03C183.131 468.107 183.099 468.202 183.1 468.3C183.098 468.358 183.108 468.416 183.131 468.469C183.153 468.523 183.187 468.571 183.23 468.61C183.317 468.698 183.436 468.749 183.56 468.75H184.51L184.45 469.15C184.45 469.2 184.45 469.25 184.45 469.3C184.45 469.7 184.72 470.16 185.06 470.16C185.14 470.143 185.211 470.097 185.26 470.03C185.308 469.964 185.329 469.882 185.32 469.8V469.38C185.314 469.354 185.314 469.326 185.32 469.3C185.312 469.274 185.312 469.246 185.32 469.22L185.84 468.22H186C186.037 468.22 186.073 468.205 186.099 468.179C186.125 468.153 186.14 468.117 186.14 468.08V466.35C186.14 466.313 186.125 466.277 186.099 466.251C186.073 466.225 186.037 466.21 186 466.21H183.91C183.827 466.207 183.746 466.231 183.677 466.278C183.609 466.325 183.558 466.392 183.53 466.47C183.496 466.56 183.496 466.66 183.53 466.75C183.45 466.785 183.382 466.842 183.334 466.915C183.286 466.988 183.26 467.073 183.26 467.16C183.25 467.216 183.25 467.274 183.26 467.33C183.197 467.371 183.145 467.427 183.11 467.494C183.075 467.56 183.058 467.635 183.06 467.71Z" fill="#999999"/>
<path d="M186.38 468.2C186.387 468.245 186.41 468.286 186.445 468.315C186.48 468.345 186.524 468.361 186.57 468.36H186.89C186.939 468.36 186.985 468.342 187.021 468.308C187.056 468.275 187.077 468.229 187.08 468.18V466.25C187.077 466.201 187.056 466.156 187.021 466.122C186.985 466.089 186.939 466.07 186.89 466.07H186.57C186.545 466.069 186.521 466.072 186.498 466.081C186.475 466.089 186.454 466.102 186.436 466.119C186.418 466.136 186.404 466.156 186.394 466.179C186.385 466.201 186.38 466.226 186.38 466.25V468.2Z" fill="#999999"/>
<path d="M177.81 465.98H173.26C172.454 465.98 171.8 466.634 171.8 467.44V468.77C171.8 469.576 172.454 470.23 173.26 470.23H177.81C178.616 470.23 179.27 469.576 179.27 468.77V467.44C179.27 466.634 178.616 465.98 177.81 465.98Z" fill="#B3B3B3"/>
<path d="M193.95 465.98H189.4C188.594 465.98 187.94 466.634 187.94 467.44V468.77C187.94 469.576 188.594 470.23 189.4 470.23H193.95C194.756 470.23 195.41 469.576 195.41 468.77V467.44C195.41 466.634 194.756 465.98 193.95 465.98Z" fill="#B3B3B3"/>
<path d="M550.29 133.38H482.82C479.368 133.38 476.57 136.178 476.57 139.63V180.89C476.57 184.342 479.368 187.14 482.82 187.14H550.29C553.742 187.14 556.54 184.342 556.54 180.89V139.63C556.54 136.178 553.742 133.38 550.29 133.38Z" fill="#1E1F21"/>
<path d="M525.828 175.561C534.266 170.441 536.955 159.45 531.835 151.013C526.715 142.576 515.725 139.886 507.287 145.006C498.85 150.126 496.161 161.116 501.28 169.554C506.4 177.991 517.391 180.681 525.828 175.561Z" fill="#333333"/>
<path d="M510 160.26V152.49C510.001 152.157 510.09 151.83 510.257 151.542C510.424 151.254 510.664 151.015 510.952 150.849C511.241 150.683 511.568 150.595 511.901 150.595C512.234 150.596 512.562 150.683 512.85 150.85L519.57 154.73L526.3 158.62C526.589 158.787 526.828 159.027 526.995 159.315C527.162 159.604 527.249 159.932 527.249 160.265C527.249 160.598 527.162 160.926 526.995 161.215C526.828 161.503 526.589 161.743 526.3 161.91L519.57 165.79L512.85 169.68C512.559 169.848 512.228 169.936 511.891 169.935C511.555 169.933 511.225 169.842 510.935 169.672C510.645 169.501 510.406 169.256 510.241 168.962C510.077 168.668 509.994 168.336 510 168V160.26Z" fill="#F1F2F2"/>
<path d="M554.27 190.24H479C478.205 190.24 477.56 190.885 477.56 191.68V196.06C477.56 196.855 478.205 197.5 479 197.5H554.27C555.065 197.5 555.71 196.855 555.71 196.06V191.68C555.71 190.885 555.065 190.24 554.27 190.24Z" fill="#B3B3B3"/>
<path d="M517.41 199.61H479C478.205 199.61 477.56 200.255 477.56 201.05V203.2C477.56 203.995 478.205 204.64 479 204.64H517.41C518.205 204.64 518.85 203.995 518.85 203.2V201.05C518.85 200.255 518.205 199.61 517.41 199.61Z" fill="#B3B3B3"/>
<path d="M550.29 221.67H482.82C479.368 221.67 476.57 224.468 476.57 227.92V269.18C476.57 272.632 479.368 275.43 482.82 275.43H550.29C553.742 275.43 556.54 272.632 556.54 269.18V227.92C556.54 224.468 553.742 221.67 550.29 221.67Z" fill="#1E1F21"/>
<path d="M524.156 262.731C532.545 257.599 535.185 246.638 530.053 238.249C524.921 229.86 513.96 227.22 505.571 232.352C497.182 237.484 494.542 248.445 499.674 256.834C504.806 265.223 515.767 267.863 524.156 262.731Z" fill="#333333"/>
<path d="M510 248.55V240.78C510.001 240.447 510.089 240.12 510.257 239.832C510.424 239.544 510.664 239.305 510.952 239.139C511.241 238.973 511.568 238.885 511.901 238.885C512.234 238.886 512.562 238.974 512.85 239.14L519.57 243.02L526.3 246.91C526.589 247.077 526.828 247.317 526.995 247.605C527.162 247.894 527.249 248.222 527.249 248.555C527.249 248.888 527.162 249.216 526.995 249.505C526.828 249.793 526.589 250.033 526.3 250.2L519.57 254.08L512.84 258C512.551 258.167 512.223 258.255 511.889 258.255C511.555 258.254 511.227 258.166 510.938 257.999C510.649 257.832 510.409 257.591 510.243 257.302C510.076 257.012 509.989 256.684 509.99 256.35L510 248.55Z" fill="#F1F2F2"/>
<path d="M554.27 278.53H479C478.205 278.53 477.56 279.175 477.56 279.97V284.35C477.56 285.145 478.205 285.79 479 285.79H554.27C555.065 285.79 555.71 285.145 555.71 284.35V279.97C555.71 279.175 555.065 278.53 554.27 278.53Z" fill="#B3B3B3"/>
<path d="M517.41 287.9H479C478.205 287.9 477.56 288.545 477.56 289.34V291.49C477.56 292.285 478.205 292.93 479 292.93H517.41C518.205 292.93 518.85 292.285 518.85 291.49V289.34C518.85 288.545 518.205 287.9 517.41 287.9Z" fill="#B3B3B3"/>
<path d="M550.29 309.96H482.82C479.368 309.96 476.57 312.758 476.57 316.21V357.47C476.57 360.922 479.368 363.72 482.82 363.72H550.29C553.742 363.72 556.54 360.922 556.54 357.47V316.21C556.54 312.758 553.742 309.96 550.29 309.96Z" fill="#1E1F21"/>
<path d="M525.823 352.141C534.261 347.021 536.95 336.031 531.83 327.593C526.71 319.156 515.72 316.467 507.282 321.586C498.845 326.706 496.155 337.697 501.275 346.134C506.395 354.572 517.386 357.261 525.823 352.141Z" fill="#333333"/>
<path d="M510 336.84V329.07C510.001 328.737 510.089 328.41 510.257 328.122C510.424 327.834 510.664 327.595 510.952 327.429C511.241 327.263 511.568 327.175 511.901 327.176C512.234 327.176 512.562 327.264 512.85 327.43L519.57 331.31L526.3 335.2C526.589 335.367 526.828 335.607 526.995 335.895C527.162 336.184 527.249 336.512 527.249 336.845C527.249 337.178 527.162 337.506 526.995 337.795C526.828 338.083 526.589 338.323 526.3 338.49L519.57 342.37L512.85 346.26C512.561 346.427 512.233 346.515 511.899 346.515C511.565 346.514 511.237 346.426 510.948 346.259C510.659 346.092 510.419 345.851 510.253 345.562C510.086 345.272 509.999 344.944 510 344.61V336.84Z" fill="#F1F2F2"/>
<path d="M554.27 366.82H479C478.205 366.82 477.56 367.465 477.56 368.26V372.64C477.56 373.435 478.205 374.08 479 374.08H554.27C555.065 374.08 555.71 373.435 555.71 372.64V368.26C555.71 367.465 555.065 366.82 554.27 366.82Z" fill="#B3B3B3"/>
<path d="M517.41 376.19H479C478.205 376.19 477.56 376.835 477.56 377.63V379.78C477.56 380.575 478.205 381.22 479 381.22H517.41C518.205 381.22 518.85 380.575 518.85 379.78V377.63C518.85 376.835 518.205 376.19 517.41 376.19Z" fill="#B3B3B3"/>
<path d="M550.29 398.25H482.82C479.368 398.25 476.57 401.048 476.57 404.5V445.76C476.57 449.212 479.368 452.01 482.82 452.01H550.29C553.742 452.01 556.54 449.212 556.54 445.76V404.5C556.54 401.048 553.742 398.25 550.29 398.25Z" fill="#1E1F21"/>
<path d="M525.816 440.441C534.253 435.321 536.943 424.331 531.823 415.893C526.703 407.456 515.712 404.767 507.275 409.887C498.837 415.006 496.148 425.997 501.268 434.434C506.388 442.872 517.378 445.561 525.816 440.441Z" fill="#333333"/>
<path d="M510 425.13V417.36C510.001 417.027 510.089 416.7 510.257 416.412C510.424 416.124 510.664 415.885 510.952 415.719C511.241 415.552 511.568 415.465 511.901 415.465C512.234 415.466 512.562 415.553 512.85 415.72L519.57 419.6L526.3 423.49C526.589 423.657 526.828 423.897 526.995 424.185C527.162 424.474 527.249 424.802 527.249 425.135C527.249 425.468 527.162 425.796 526.995 426.085C526.828 426.373 526.589 426.613 526.3 426.78L519.57 430.66L512.85 434.55C512.561 434.717 512.233 434.805 511.899 434.804C511.565 434.804 511.237 434.716 510.948 434.549C510.659 434.381 510.419 434.141 510.253 433.851C510.086 433.562 509.999 433.234 510 432.9V425.13Z" fill="#F1F2F2"/>
<path d="M554.27 455.11H479C478.205 455.11 477.56 455.755 477.56 456.55V460.93C477.56 461.725 478.205 462.37 479 462.37H554.27C555.065 462.37 555.71 461.725 555.71 460.93V456.55C555.71 455.755 555.065 455.11 554.27 455.11Z" fill="#B3B3B3"/>
<path d="M517.41 464.48H479C478.205 464.48 477.56 465.125 477.56 465.92V468.07C477.56 468.865 478.205 469.51 479 469.51H517.41C518.205 469.51 518.85 468.865 518.85 468.07V465.92C518.85 465.125 518.205 464.48 517.41 464.48Z" fill="#B3B3B3"/>
<path d="M457.61 134.32V470.2C457.607 470.313 457.561 470.421 457.481 470.501C457.401 470.581 457.293 470.627 457.18 470.63C457.066 470.63 456.957 470.585 456.876 470.504C456.795 470.423 456.75 470.314 456.75 470.2V134.32C456.75 134.206 456.795 134.096 456.876 134.016C456.957 133.935 457.066 133.89 457.18 133.89C457.294 133.89 457.403 133.935 457.484 134.016C457.565 134.096 457.61 134.206 457.61 134.32Z" fill="#BCBEC0"/>
</g>
</g>
<defs>
<filter id="filter0_bd_2_1214" x="0" y="0" width="698" height="659" filterUnits="userSpaceOnUse" color-interpolation-filters="sRGB">
<feFlood flood-opacity="0" result="BackgroundImageFix"/>
<feGaussianBlur in="BackgroundImageFix" stdDeviation="8"/>
<feComposite in2="SourceAlpha" operator="in" result="effect1_backgroundBlur_2_1214"/>
<feColorMatrix in="SourceAlpha" type="matrix" values="0 0 0 0 0 0 0 0 0 0 0 0 0 0 0 0 0 0 127 0" result="hardAlpha"/>
<feOffset dy="4"/>
<feGaussianBlur stdDeviation="43.5"/>
<feComposite in2="hardAlpha" operator="out"/>
<feColorMatrix type="matrix" values="0 0 0 0 0 0 0 0 0 0 0 0 0 0 0 0 0 0 0.08 0"/>
<feBlend mode="normal" in2="effect1_backgroundBlur_2_1214" result="effect2_dropShadow_2_1214"/>
<feBlend mode="normal" in="SourceGraphic" in2="effect2_dropShadow_2_1214" result="shape"/>
</filter>
<clipPath id="clip0_2_1214">
<rect width="414.54" height="397.63" fill="white" transform="translate(142 132)"/>
</clipPath>
</defs>
</svg>
