<svg width="994" height="1175" viewBox="0 0 994 1175" fill="none" xmlns="http://www.w3.org/2000/svg">
<path d="M1004.47 -461.655C983.244 -436.013 962.454 -409.977 942.263 -383.585C921.906 -357.156 901.948 -330.489 882.588 -303.465C787.283 -167.048 682.077 -42.6134 571.865 85.8471C464.384 211.756 371.256 379.424 416.757 514.25C445.322 601.865 538.789 614.234 631.49 571.778C647.66 564.165 653.893 582.322 650.103 595.844C638.216 643.519 600.081 679.704 558.431 703.806C521.072 726.153 487.163 738.959 448.986 746.517C371.368 760.61 291.54 792.27 226.108 780.587C243.848 775.395 261.097 771.124 279.775 767.842C357.534 755.183 425.831 748.341 502.597 719.304C550.742 701.913 612.396 669.519 625.211 611.065C628.344 598.5 617.558 593.544 606.384 595.506C531.931 612.972 462.159 605.983 427.595 549.458C356.721 432.398 437.481 244.664 543.042 113.156C645.715 -14.1391 750.276 -135.991 844.876 -268.512C861.612 -291.707 878.12 -314.363 894.992 -336.936C928.771 -381.928 963.745 -426.205 999.42 -469.66L1004.47 -461.655Z" fill="url(#paint0_diamond_2_1066)"/>
<path d="M1017.28 -439.572C995.752 -414.514 974.992 -389.136 955.029 -363.281C934.9 -337.391 915.501 -311.334 896.768 -284.611C814.215 -168.236 725.297 -64.2945 624.692 43.9995C498.966 179.116 378.636 357.792 429.266 508.903C441.582 542.16 464.511 563.001 495.954 574.491C542.052 590.415 597.126 564.345 642.205 516.387C652.818 503.972 668.225 496.038 680.595 500.322C691.381 505.278 695.752 516.522 697.882 529.396C704.134 577.65 675.936 631.505 635.877 672.342C606.607 702.352 573.715 724.534 538.187 737.856C449.553 774.377 354.848 808.486 275.346 801.353C395.165 771.986 531.79 774.24 639.515 655.762C672.352 619.112 702.226 557.893 670.752 530.465C664.432 525.342 653.881 526.192 646.669 532.004C572.803 591.643 477.95 606.912 442.039 541.083C328.917 334.04 588.384 75.8787 754.254 -113.11C794.842 -159.432 830.166 -206.064 866.103 -255.433C882.513 -277.743 898 -299.524 913.886 -321.068C945.493 -364.119 978.528 -406.181 1012.76 -447.53L1017.28 -439.572Z" fill="url(#paint1_diamond_2_1066)"/>
<path d="M1028.7 -417.507C1007.89 -393.909 988.283 -369.596 969.603 -345C950.957 -320.248 933.108 -295.019 914.7 -269.181C835.257 -152.837 739.355 -54.6856 639.113 48.1594C514.573 176.833 387.653 360.209 443.269 504.044C461.783 555.302 527.505 587.26 584.918 532.367C610.811 507.49 619.132 466.455 654.391 447.171C680.81 432.591 703.986 445.081 715.449 463.393C750.189 521.506 716.509 615.124 655.669 678.09C626.399 708.1 595.747 728.651 561.168 745.508C483.966 784.403 402.86 818.134 331.131 815.641C438.333 790.342 555.548 768.055 651.591 671.337C686.654 636.151 710.158 594.064 716.933 549.137C721.735 511.801 716.807 474.322 686.783 462.195C668.342 455.501 642.063 471.513 630.241 491.84C601.236 543.595 548.797 578.523 503.647 566.134C469.132 555.643 444.633 532.38 435.073 495.103C376.284 275.982 604.905 76.975 765.037 -92.3698C827.32 -157.442 876.401 -227.428 925.54 -298.729C940.828 -320.63 956.913 -342.054 973.396 -363.241C989.88 -384.427 1007 -405.101 1024.51 -425.538L1028.7 -417.507Z" fill="url(#paint2_diamond_2_1066)"/>
<path d="M1039.42 -396.266C1025.45 -379.374 1011.86 -362.4 998.658 -345.188C985.493 -327.821 972.528 -310.335 960.195 -292.336C913.053 -224.564 867.359 -158.087 807.2 -97.548C658.093 50.9937 471.75 193.221 442.09 408.634C435.608 458.052 448.93 499.06 478.212 525.179C494.812 539.274 517.098 546.915 544.173 531.378C577.814 512.611 573.824 477.041 588.907 448.678C612.412 406.59 659.735 390.192 693.311 398.774C755.167 415.472 764.518 494.447 743.365 563.841C695.063 723.468 515.332 805.021 389.033 824.583C522.946 789.197 712.71 713.904 742.034 535.66C752.447 474.153 736.657 402.936 670.095 412.163C621.39 419.102 595.574 472.76 573.839 517.388C560.209 545.27 526.523 551.193 503.756 546.098C455.7 534.672 437.337 486.472 437.782 434.797C438.758 307.351 523.55 183.814 621.542 80.9739C743.045 -46.5459 868.521 -157.528 958.463 -304.972C970.505 -321.931 983.144 -338.532 996.017 -354.859C1008.89 -371.187 1022.29 -387.467 1035.93 -403.474L1039.42 -396.266Z" fill="url(#paint3_diamond_2_1066)"/>
<path d="M1050.79 -376.795C1037.54 -361.363 1025.06 -345.611 1013.35 -329.537C1001.47 -313.427 990.182 -296.96 978.967 -280.183C899.672 -150.53 786.404 -51.0112 675.644 52.8387C577.914 144.232 485.444 251.718 458.791 379.752C447.313 434.822 451.885 495.158 499.402 510.444C512.462 513.926 533.064 505.991 538.953 489.406C550.895 456.199 544.231 416.334 574.732 392.725C637.187 345.024 722.694 338.476 753.589 395.642C794.387 470.324 779.966 585.426 700.116 673.061C628.159 752.457 535.197 806.359 448.631 823.878C536.595 791.409 628.805 749.875 699.848 667.099C781.529 570.44 797.588 414.629 707.506 376.624C676.684 364.022 634.065 370.277 597.654 396.158C567.8 417.186 555.235 451.505 553.212 483.35C551.402 506.688 527.997 521.583 509.202 521.962C496.292 521.539 484.053 517.064 476.81 506.938C396.883 403.09 503.589 220.731 611.523 109.528C739.758 -21.2578 879.582 -129.204 972.22 -284.886C983.698 -302.047 995.278 -318.741 1007.62 -335.115C1019.96 -351.488 1032.87 -367.66 1046.58 -383.356L1050.79 -376.795Z" fill="url(#paint4_diamond_2_1066)"/>
<path d="M1063.63 -360.087C1049.79 -344.2 1036.92 -327.873 1025.01 -311.106C929.496 -138.522 775.753 -22.9684 635.043 113.319C545.298 200.846 463.109 317.304 468.97 431.7C469.648 445.055 474.675 455.342 481.908 463.843C489.797 471.387 507.348 473.233 512.698 460.508C548.334 378.176 591.205 288.563 672.101 247.557C652.798 267.734 622.704 314.521 657.339 312.132C791.692 300.079 827.716 443.817 777.943 573.83C730.633 695.33 609.97 781.664 503.47 818.849C607.359 771.336 726.307 696.929 769.807 574.638C799.532 494.578 796.771 410.904 754.163 359.56C724.355 323.143 671.358 331.836 625.165 327.323C616.09 326.222 607.229 316.613 603.569 318.88C551.786 352.851 545.325 416.583 523.8 468.486C519.097 478.629 506.092 489.616 495.423 487.563C483.957 485.033 475.412 478.447 471.041 467.203C452.399 411.416 468.464 343.301 502.852 278.977C586.023 122.767 725.576 24.643 849.879 -94.0542C918.845 -159.453 967.54 -238.303 1019.39 -315.405C1031.7 -332.747 1044.8 -349.612 1059.06 -365.919L1063.63 -360.087Z" fill="url(#paint5_diamond_2_1066)"/>
<path d="M1079.1 -346.397C1065.3 -330.354 1052.69 -313.598 1041.02 -296.556C945.519 -121.536 786.851 -10.2714 644.571 123.594C566.261 197.713 491.919 293.089 486.692 396.412C486.28 404.8 488.94 412.189 496.595 413.927C499.608 414.242 504.755 411.649 506.855 408.586C629.524 201.086 887.415 85.7974 1037.08 180.697C1031.97 183.446 1028.01 179.596 1024.2 178.805C926.374 152.097 801.658 159.922 704.02 255.688C690.335 269.102 708.13 278.378 718.167 279.919C841.904 296.063 840.184 453.285 791.596 576.855C748.897 683.84 649.28 769.79 554.046 809.385C648.578 757.904 750.165 680.145 788.937 569.466C832.436 447.175 815.475 309.018 701.998 287.533C692.126 285.955 679.454 275.555 686.549 266.841C742.22 192.155 833.252 174.47 907.074 156.492C761.106 147.175 592.86 261.354 507.226 426.076C503.825 432.679 495.64 436.426 491.057 433.689C482.628 430.006 479.055 419.238 479.326 409.416C480.674 348.433 507.807 288.14 544.831 232.675C626.246 114.271 739.37 29.1018 846.234 -62.5045C923.5 -128.747 977.989 -212.773 1031.85 -297.311C1044.31 -315.501 1057.9 -333.288 1073.52 -350.541L1079.1 -346.397Z" fill="url(#paint6_diamond_2_1066)"/>
<path d="M1097.6 -336.297C1083.83 -320.099 1071.22 -303.343 1059.75 -286.183C977.294 -131.432 839.555 -23.4556 707.211 84.6394C631.247 147.342 547.941 227.112 528.118 324.687C526.135 330.654 537.989 326.265 542.329 321.571C661.637 208.525 802.277 131.151 935.208 135.517C1047.75 139.31 1122.19 211.008 1209.77 257.37C1183.76 279.344 1156.09 268.49 1136.74 258.417C1073.77 222.438 1015.5 174.692 931.32 176.231C874.867 177.059 797.637 184.233 750.105 242.328C794.663 271.768 847.183 298.811 850.089 368.136C856.282 531.432 754.895 728.569 590.678 803.467C754.228 716.838 856.821 527.571 836.289 362.864C827.756 298.678 774.683 278.59 736.069 247.033C759.69 207.848 808.102 196.418 844.403 185.041C970.403 143.581 1055.26 209.902 1147.06 251.762C1152.44 254.975 1160.09 256.713 1168.24 252.81C1096.15 185.479 1008.15 130.097 891.193 140.939C767.532 153.576 639.85 222.902 542.525 337.473C535.43 346.187 527.679 355.86 517.959 357.34C503.772 358.987 510.811 335.804 515.539 324.192C539.788 252.329 587.684 188.785 644.441 134.85C730.61 52.3371 820.023 -13.8031 906.167 -94.8461C967.24 -152.006 1008.84 -222.142 1053.73 -289.908C1065.08 -306.877 1077.35 -323.561 1090.63 -339.65L1097.6 -336.297Z" fill="url(#paint7_diamond_2_1066)"/>
<path d="M1119.81 -329.779C1103.17 -311.651 1088.93 -292.907 1076.4 -273.403C997.351 -109.473 848.699 -10.9804 714.115 98.7449C668.51 136.405 620.15 178.086 598.917 234.481C596.313 241.561 608.789 236.059 613.104 232.835C767.336 137.674 928.709 95.6155 1056.05 154.248C1120.2 183.785 1173.72 244.613 1263.54 217.433C1268.82 216.273 1276.96 215.465 1276.42 219.325C1267.81 255.87 1228.89 293.203 1195.58 290.583C1131.35 286.77 1094.66 234.778 1041.5 210.317C975.895 181.262 896.135 169.792 810.972 211.083C798.496 216.585 791.013 232.218 801.799 237.174C908.33 286.215 886.749 437.38 832.227 564.691C788.463 665.239 708.967 745.8 618.406 802.755C616.953 803.237 618.289 799.852 616.836 800.334C694.78 747.447 768.211 681.882 812.561 590.318C878.644 454.125 905.316 285.9 782.489 239.945C772.5 235.464 786.151 221.895 794.161 216.559C827.029 195.847 858.358 188.652 891.879 182.765C1010.04 164.012 1078.59 236.513 1163.67 278.544C1181.43 287.665 1207.88 289.024 1229.75 271.863C1241.31 262.982 1265.73 240.056 1257.45 239.431C1163.47 229.452 1101.66 171.093 1015.8 142.899C882.41 100.887 724.364 162.066 583.309 263.611C573.025 270.422 569.486 259.809 575.774 248.993C632.811 143.42 728.907 76.9531 818.966 8.23063C921.208 -70.4852 1008.95 -166.359 1072.45 -281.159C1084.06 -298.511 1096.96 -315.495 1111.52 -332.03L1119.81 -329.779Z" fill="url(#paint8_diamond_2_1066)"/>
<path d="M1145.61 -325.839C1122.25 -298.101 1100.86 -268.515 1081.49 -237.585C1045.25 -188.8 1021.77 -132.399 975.774 -87.8204C884.609 0.343374 772.584 48.6642 695.628 149.494C690.773 156.579 699.857 159.305 705.111 157.99C884.639 86.5688 1037.7 118.736 1166.03 193.747C1199.33 212.15 1242.64 203.468 1287.18 176.778C1298.88 169.331 1311.42 178.297 1309.05 191.183C1300.56 232.255 1268 271.771 1230.53 291.216C1198.99 306.918 1172.75 297.053 1151 285.552C1109.25 264.934 1074.62 235.758 1032.86 215.14C988.884 194.684 940.979 186.315 883.468 198.114C868.459 200.754 838.068 209.859 843.892 220.622C874.787 277.789 917.395 329.133 902.1 414.977C873.308 571.953 768.144 725.013 629.965 809.657C775.627 709.38 882.423 547.176 896.351 378.491C901.747 308.322 865.76 268.216 826.902 229.229C819.775 222.006 835.031 211.013 843.05 207.302C896.049 182.827 944.483 185.71 990.289 197.142C1042.95 209.835 1080.63 239.483 1121.34 267.976C1151.75 288.967 1188.25 309.274 1234.39 283.536C1265.95 266.364 1294.57 237.311 1301.1 202.36C1302.11 194.329 1297.24 187.101 1290.67 190.33C1245.83 212.529 1205.2 212.817 1169.11 199.904C1103 174.865 1048.19 134.984 975.275 123.151C879.441 107.884 777.761 137.828 673.099 183.395C665.736 186.149 652.03 185.25 659.149 175.065C688.422 129.272 732.701 96.6213 773.99 62.1854C854.129 -5.17522 949.6 -54.7468 1010.5 -145.06C1030.7 -176.172 1050.27 -206.172 1070.94 -236.735C1090.73 -268.085 1112.52 -298.245 1135.78 -327.261L1145.61 -325.839Z" fill="url(#paint9_diamond_2_1066)"/>
<path d="M1175.34 -323.735C1153.39 -298.258 1132.77 -271.447 1115.01 -243.471C1093.78 -213.109 1077.4 -181.206 1058.6 -149.261C1012.29 -68.9823 930.633 -28.2969 863.324 26.4882C839.413 45.3986 809.432 61.898 801.066 90.0903C795.833 105.718 819.775 102.746 831.746 101.26C950.94 88.7882 1049.06 119.988 1139.03 167.778C1183.16 191.293 1238.92 175.484 1294.82 148.421C1317.55 137.578 1328.12 166.824 1318.84 191.637C1305.12 230.93 1283.07 272.536 1244.79 291.505C1158.13 336.216 1109.06 262.534 1051.76 232.635C1026.23 218.872 1000.5 204.991 969.603 202.329C943.012 199.537 911.827 192.383 883.684 217.266C881.443 218.896 880.938 222.911 881.702 223.232C943.717 314.901 937.241 452.014 862.412 581.501C805.082 682.583 724.026 762.347 632.421 827.179C631.765 828.136 632.304 824.276 632.926 823.163C772.645 725.003 884.76 577.577 914.903 414.122C928.988 336.191 905.587 276.079 866.8 227.151C860.33 218.97 877.18 208.93 885.962 205.54C931.21 190.736 969.253 199.152 1007.58 210.434C1062.75 227.459 1100.84 264.501 1148.91 290.24C1174.47 302.533 1205.01 312.269 1240.26 291.36C1274.58 270.167 1303.87 237.062 1315.35 199.4C1319.14 185.878 1319.26 172.998 1314.23 162.712C1309.21 152.425 1295.53 151.681 1285.42 158.455C1239.68 191.588 1191.63 197.569 1156.08 179.171C1042.93 118.891 920.786 87.9164 766.157 118.083C760.869 119.243 756.144 115.072 759.711 108.433C769.915 88.6235 788.208 76.4769 804.11 62.9024C888.74 -6.09385 989.299 -56.9439 1048.54 -154.052C1067.32 -184.527 1084.46 -216.11 1105.99 -246.699C1123.26 -273.754 1142.86 -299.691 1164.22 -324.712L1175.34 -323.735Z" fill="url(#paint10_diamond_2_1066)"/>
<path d="M1208.75 -322.274C1190.21 -301.776 1173.79 -280.279 1159.27 -258.057C1092.1 -130.739 993.01 -34.4918 882.371 56.4783C877.234 60.6962 883.048 69.834 889.109 70.62C985.575 86.3992 1069.47 119.09 1155.73 154.679C1192.75 169.501 1237.57 148.772 1281.76 129.156C1306.88 118.117 1328.61 132.712 1331.41 157.318C1336.75 202.192 1301.42 248.824 1266.22 282.576C1233.11 313.265 1192.85 320.792 1162.03 308.19C1084.98 275.136 1032.1 199.037 929.599 214.192C917.604 217.148 909.207 229.403 914.399 239.653C1022.11 427.545 843.099 713.782 629.065 846.625C629.065 846.625 632.618 843.08 631.811 840.979C778.775 737.162 915.351 579.654 937.535 397.281C945.298 330.01 929.165 278.555 900.425 232.793C897.26 229.419 899.889 220.87 905.658 217.165C960.897 191.059 1003.55 216.525 1043.73 234.72C1092.32 256.444 1125.29 296.234 1180.34 310.356C1240.63 324.633 1301.86 254.749 1324.24 191.755C1328.85 177.24 1331.84 163.242 1326.67 151.522C1320.59 136.423 1304.27 125.196 1288.88 134.755C1207.11 185.225 1140.33 164.238 1083.71 131.912C1018.52 94.4687 937.574 89.4411 857.134 80.3979C841.998 78.5105 847.746 60.4919 860.095 50.4623C928.823 -4.95939 1006.67 -46.4362 1060.09 -121.117C1092.38 -166.594 1118.49 -215.761 1149.04 -262.812C1162.65 -283.693 1178.35 -303.731 1196.33 -322.806L1208.75 -322.274Z" fill="url(#paint11_diamond_2_1066)"/>
<path d="M1245.16 -319.685C1224.94 -298.979 1202.73 -277.839 1189.61 -252.347C1138.87 -140.182 1054.82 -46.4197 957.669 31.0175C940.97 44.1161 959.821 58.2049 971.263 62.2039C1024.98 79.7101 1075.7 98.5257 1122.98 123.789C1164.08 145.364 1215.51 134.249 1268.62 112.676C1295.17 102.625 1324.15 106.845 1332.21 131.76C1344.62 169.389 1324.71 220.775 1296.63 260.126C1275.49 289.328 1245.27 315.804 1213.83 320.097C1130.8 332.446 1094.11 263.047 1030.25 238.002C1007.23 228.571 967.543 206.36 942.235 240.22C1032.06 447.653 843.32 733.746 622.73 871.443C621.277 871.925 626.132 864.84 626.132 864.84C842.76 723.293 1027.7 438.034 932.868 234.627C930.359 230.296 938.393 223.491 944.303 221.218C989.96 213.809 1021.82 234.319 1056.63 249.301C1113.78 276.142 1159.98 352.568 1246.21 301.931C1299.57 270.382 1335.38 205.421 1334.94 150.523C1335.18 124.764 1312.34 108.295 1286.48 115.919C1235.83 128.98 1185.34 157.786 1142.95 138.282C1081.34 111.607 1024.16 86.2354 956.104 67.3178C943.043 63.8365 923.324 59.2121 929.072 41.1934C933.002 29.1051 943.111 20.7057 953.229 13.9312C1030.12 -43.7681 1109.89 -105.68 1145.65 -200.891C1152.36 -218.47 1164.93 -235.382 1175.39 -251.668C1191.62 -276.378 1210.8 -299.459 1231.79 -320.656L1245.16 -319.685Z" fill="url(#paint12_diamond_2_1066)"/>
<path d="M1284.38 -314.617C1266.46 -296.043 1248.5 -276.813 1232.81 -255.962C1217.12 -235.112 1203.62 -212.953 1194.37 -188.797C1163.93 -106.465 1098 -42.2212 1029.79 10.8097C1017.41 20.684 1016.02 37.2586 1024.07 44.7662C1086.16 93.3041 1160.41 130.224 1258.27 97.8629C1311.54 79.3483 1355.69 117.176 1341.45 176.267C1327.88 234.4 1286.25 290.223 1231.15 317.762C1187.77 339.479 1153.01 321.557 1121.9 304.463C1076.97 280.472 1033.72 215.928 969.795 249.796C964.682 252.544 965.184 264.312 967.046 271.225C1038.23 497.879 823.533 761.19 617.271 898.674C618.573 895.134 617.659 891.755 619.9 890.125C827.463 749.102 1036.26 484.968 959.123 263.526C956.638 257.725 956.078 247.272 964.087 241.937C993.918 222.379 1020.54 241.109 1042.91 251.497C1095.34 274.168 1131.23 325.684 1195.96 325.481C1264.52 324.6 1327.91 240.087 1341.63 167.604C1351.78 117.544 1312.8 91.4362 1267.29 100.279C1223.99 108.96 1181.54 132.587 1145.34 116.771C1092.77 92.667 1026.86 83.5294 994.778 32.8051C993.067 28.9502 996.493 20.8774 1002.25 15.547C1058 -30.3573 1119.87 -71.2583 1155.58 -140.592C1176.19 -180.092 1190.06 -217.951 1216.28 -253.964C1232.12 -276.475 1250.73 -297.475 1270 -316.996L1284.38 -314.617Z" fill="url(#paint13_diamond_2_1066)"/>
<path d="M1324.7 -306.863C1306.83 -290.417 1289 -273.003 1274.09 -254.114C1259.02 -235.189 1246.67 -214.908 1239.62 -192.537C1216.32 -117.14 1160.24 -49.8492 1099.81 4.72821C1092.6 10.54 1086.3 19.7307 1087.51 27.6013C1093.23 65.5569 1129.32 78.4695 1161.97 82.0474C1205.15 86.2454 1250.79 80.3059 1294.75 83.3549C1315.95 86.0283 1335.29 94.4767 1341.65 117.162C1362.03 191.116 1307.22 298.154 1225.28 331.253C1185.44 347.8 1153.84 333.252 1125.12 317.586C1085.61 296.963 1056.33 255.061 1004.64 260.215C993.325 260.744 990.309 276.211 991.656 285.515C1032.71 527.235 821.785 778.494 615.311 924.485C615.194 921.582 615.723 916.097 617.142 915.46C832.564 766.043 1035.58 508.709 984.65 265.412C983.585 258.975 991.453 252.206 997.514 252.992C1060.94 256.329 1099.73 305.257 1153.57 327.291C1182 338.465 1215.82 337.07 1249.37 313.931C1302.49 276.576 1343.04 214.316 1346.75 154.605C1351.7 61.1039 1245.45 89.9364 1179.25 93.7147C1133.47 96.596 1098.29 74.3741 1068.23 46.3094C1060.17 37.1769 1058.57 20.4422 1071.58 9.45521C1135.18 -44.8431 1193.61 -107.767 1221.06 -186.352C1229.12 -210.41 1241.72 -232.698 1257.12 -253.32C1272.68 -273.979 1291.06 -292.816 1310.32 -310.055L1324.7 -306.863Z" fill="url(#paint14_diamond_2_1066)"/>
<path d="M1364.84 -295.98C1333.37 -268.903 1309.81 -236.565 1291.29 -201.753C1281.93 -184.407 1273.93 -166.383 1266.5 -148.157C1251.49 -91.8241 1214.57 -46.1441 1171.61 -2.71969C1155.83 13.7579 1151.8 37.2563 1165.13 46.6989C1201.89 72.9673 1256.87 58.3076 1301.4 71.8094C1337.51 83.2525 1360.94 115.861 1352.89 162.858C1343.89 223.728 1303.35 282.894 1251.7 321.393C1168.25 383.947 1110.19 311.91 1050.83 285.23C1043.19 282.022 1033.98 279.488 1023.58 283.395C1015.39 287.143 1012.14 296.804 1011.9 305.156C1008.77 405.415 994.328 506.203 935.404 606.333C855.109 745.642 735.382 849.669 617.788 950.787C617.671 947.884 616.582 942.916 618.822 941.286C818.053 785.169 1025.17 548.902 1004.36 306.321C1003.97 297.457 1004.07 286.047 1012.72 278.129C1027.18 266.66 1041.95 273.996 1052.74 278.953C1098.04 294.4 1125.73 335.35 1176.56 341.286C1213.02 345.655 1254.85 323.142 1287.52 286.528C1328.09 241.676 1358.42 184.912 1349.91 136.664C1334.77 47.082 1224.8 79.4956 1154.49 60.5834C1133.84 54.0497 1117.46 28.3539 1141.77 4.14983C1193.24 -48.626 1241.6 -106.09 1260.68 -173.89C1268.01 -198.926 1280.88 -221.597 1296.57 -242.447C1312.26 -263.297 1330.97 -282.207 1350.26 -300.103L1364.84 -295.98Z" fill="url(#paint15_diamond_2_1066)"/>
<path d="M1404.22 -281.51C1372.34 -250.765 1346.1 -216.377 1326.57 -179.066C1316.79 -160.488 1308.57 -141.113 1302.21 -121.169C1294.11 -98.0793 1292.33 -74.5862 1285.26 -51.5584C1279.34 -33.5035 1258.86 -22.6659 1248.66 -2.85639C1241.03 11.3436 1238.98 27.2506 1248.98 33.3558C1281.66 52.8717 1322.71 59.978 1344.62 92.7574C1353.36 104.995 1359.14 119.509 1360.7 136.089C1362.26 152.668 1359.43 171.349 1351.31 192.002C1324.58 258.064 1275.61 330.953 1208.79 351.627C1147.22 370.986 1111.1 329.447 1068.54 308.354C1054.57 301.493 1033.93 309.273 1030.56 331.814C1015.71 425.207 1002.97 512.443 952.594 603.376C871.406 753.62 744.972 859.442 628.688 974.429C627.118 972.007 625.382 969.622 623.812 967.2C821.71 798.685 1026.37 572.555 1024.48 316.715C1024.96 298.386 1046.68 293.949 1058.26 299.382C1103.68 317.732 1135.23 358.159 1193.63 351.209C1256.5 344.093 1312.87 281.294 1339.75 216.665C1354.42 180.907 1361.72 146.277 1352.59 114.925C1336.44 49.1565 1254.46 69.4124 1216.4 30.9009C1190.96 5.72849 1251.04 -29.0869 1266.63 -61.4661C1277.54 -85.1722 1280.11 -108.189 1289.14 -131.807C1296.03 -150.892 1304.36 -169.801 1314.04 -188.032C1333.41 -224.495 1358.72 -258.355 1390.11 -287.367L1404.22 -281.51Z" fill="url(#paint16_diamond_2_1066)"/>
<path d="M1441.55 -263.666C1392.22 -213.798 1342.58 -154.264 1341.5 -87.3198C1340.61 -69.2292 1342.14 -51.9925 1341.98 -34.5487C1341.83 -17.1049 1339.69 0.773655 1331.26 20.0293C1328.51 24.0503 1330.85 28.4174 1332.59 30.8028C1343.72 54.7191 1357.57 78.366 1364.74 104.777C1372.05 130.996 1372.86 159.943 1357.64 194.03C1347.56 217.555 1335.52 239.233 1322.14 259.575C1290.98 305.457 1250.24 348.721 1201.32 364.166C1151.61 379.136 1117.89 353.338 1078.76 339.955C1059.52 332.784 1046.55 359.709 1043.02 377.567C1034.94 426.034 1024.5 471.603 1006.55 518.492C971.156 608.255 920.503 691.602 855.884 769.715C789.19 849.421 717.809 914.861 645.079 992.311C644.423 993.269 642.571 987.98 639.557 987.665C729.247 885.67 834.128 800.03 912.142 688.229C983.683 584.031 1023.11 472.395 1041.19 355.027C1044.57 334.11 1063.63 322.285 1078.26 328.188C1122.11 344.116 1159.43 380.837 1218.34 354.089C1266.19 332.207 1304.06 290.061 1331.22 244.894C1341.47 227.677 1349.8 209.581 1355.61 191.06C1361.42 172.539 1364.84 153.403 1365.19 133.641C1365.65 107.343 1355.98 89.2899 1342.98 73.4308C1330.7 51.393 1297.12 42.8113 1301.38 9.33606C1303.1 -2.59169 1316.08 -12.1092 1317.79 -24.0369C1321.02 -48.0114 1321.55 -69.2792 1326.4 -92.9588C1331 -114.631 1337.69 -136.272 1346.63 -157.106C1364.51 -198.774 1391.61 -237.907 1428.74 -270.78L1441.55 -263.666Z" fill="url(#paint17_diamond_2_1066)"/>
<path d="M1474.91 -242.67C1441.44 -207.345 1403.33 -172.63 1389.07 -127.852C1370.73 -74.0444 1385.8 -29.0263 1389.18 20.3448C1394.55 81.1568 1394.8 143.092 1362.77 210.314C1351.47 233.782 1338.36 255.367 1324.06 275.425C1267.63 368.01 1169.93 403.429 1091.16 382.303C1082.09 381.201 1070.66 394.61 1066.72 405.074C1013.28 553.136 949.845 695.093 834.262 821.965C775.815 886.359 723.019 944.144 667.595 1010.48C667.595 1010.48 663.011 1007.74 659.823 1005.84C674.659 985.825 689.505 967.438 707.365 949.366C862.911 793.067 1000.4 623.155 1050.05 418.327C1055.53 394.348 1076.13 353.223 1096.29 365.397C1171.5 405.851 1281.81 353.675 1334.92 254.658C1349.01 232.044 1360.45 208.384 1368.24 183.897C1376 159.254 1380.28 133.748 1379.98 107.13C1379.01 89.2824 1375.35 74.1417 1375.83 55.8131C1378.53 4.13351 1365.8 -36.5175 1366.88 -87.6794C1367.45 -150.608 1418.15 -205.33 1463.18 -250.348L1474.91 -242.67Z" fill="url(#paint18_diamond_2_1066)"/>
<path d="M1505.56 -220.593C1460.47 -178.979 1410.54 -123.937 1414.31 -64.0769C1421.47 29.3715 1434.49 123.487 1374.94 224.729C1362.17 246.242 1348.39 266.346 1333.38 285.582C1272.39 372.335 1186.67 418.957 1094.05 437.314C1082.05 440.27 1073.29 457.973 1067.92 472.168C995.858 653.764 875.827 810.898 745.111 958.01C712.353 1002.13 695.097 1026.9 695.097 1026.9L685.73 1021.31C703.098 998.624 717.642 974.121 738.257 952.028C887.484 790.607 1002.49 623.186 1076.9 430.175C1078.88 424.208 1086.75 417.439 1091.38 417.237C1160.47 410.871 1233.45 395.356 1290.36 328.696C1307.86 310.542 1324.25 290.514 1339.27 268.997C1354.3 247.479 1368.09 224.28 1380.11 199.352C1429.96 98.1212 1406.13 16.3017 1402.14 -73.7732C1400.62 -133.639 1449.84 -186.409 1494.49 -228.416L1505.56 -220.593Z" fill="url(#paint19_diamond_2_1066)"/>
<path d="M1534.42 -197.962C1486.95 -161.683 1448.23 -108.448 1444.51 -50.362C1440.42 16.2673 1451.04 75.7645 1428.93 144.719C1412.11 197.543 1385.2 245.422 1352.14 289.766C1335.7 311.92 1317.66 333.123 1298.55 353.419C1241.91 420.509 1167.19 449.421 1098.05 495.823C1087.76 502.634 1079.39 513.419 1074.04 526.144C991.572 694.24 880.325 832.201 768.482 975.337C738.528 1018.03 721.603 1042.73 721.603 1042.73L712.236 1037.13C712.236 1037.13 729.161 1012.43 760.369 969.144C874.837 827.71 989.602 686.049 1066.18 517.13C1077.56 490.878 1096.09 468.755 1121.36 460.773C1191.56 434.966 1258.75 393.061 1312.17 329.444C1327.95 311.342 1343.06 292.572 1357.03 272.586C1371.04 252.755 1383.95 231.864 1395.57 209.793C1443.05 121.447 1438.84 39.8794 1433.18 -41.207C1429.27 -102.5 1472.08 -164.766 1524.38 -205.847L1534.42 -197.962Z" fill="url(#paint20_diamond_2_1066)"/>
<path d="M1562.19 -175.578C1473.47 -114.959 1467.33 -15.0156 1459.69 72.5661C1453.15 150.145 1422.93 220.063 1379.51 284.253C1364.98 305.662 1349.09 326.393 1332.23 346.684C1269.22 426.561 1189.17 482.512 1110.86 540.847C1100.76 549.247 1090.79 559.079 1083.81 570.697C995.623 718.245 895.575 852.775 793.597 991.144C764.436 1033.5 747.51 1058.2 747.51 1058.2L738.143 1052.6C738.143 1052.6 755.069 1027.9 784.396 985.515C880.59 853.945 983.415 729.708 1061.08 583.165C1076.17 554.801 1098.37 532.036 1123.73 512.644C1189.86 464.302 1257.69 419.814 1313.06 355.607C1328.94 337.971 1344.35 319.786 1359.19 300.586C1437.56 199.12 1461.22 85.0835 1460.1 -23.517C1459.99 -84.019 1501.5 -142.745 1552.35 -183.345L1562.19 -175.578Z" fill="url(#paint21_diamond_2_1066)"/>
<path d="M1589.66 -153.78C1539.93 -114.402 1497.37 -60.4882 1494.43 -0.456759C1487.41 118.39 1437.69 225.774 1367.71 324.425C1350.25 349.079 1331.47 373.21 1311.86 396.71C1255.46 465.698 1189.09 524.017 1123.53 582.813C1079.52 621.425 1048.95 670.757 1018.23 718.657C954.721 816.05 886.43 910.587 819.505 1006.61C790.509 1048.93 773.583 1073.63 773.583 1073.63L764.217 1068.04C764.217 1068.04 781.142 1043.34 810.139 1001.02C883.395 895.958 960.318 794.973 1027.93 687.08C1055.09 642.726 1083.55 597.926 1123.24 562.538C1190.4 504.695 1257.68 449.755 1315.67 380.906C1331.31 362.995 1346.32 344.572 1360.9 325.755C1375.44 306.784 1389.39 287.455 1402.64 267.304C1466.97 168.917 1472.31 68.4975 1491.9 -34.8835C1501.28 -86.8897 1540.71 -126.614 1579.85 -161.391L1589.66 -153.78Z" fill="url(#paint22_diamond_2_1066)"/>
<defs>
<radialGradient id="paint0_diamond_2_1066" cx="0" cy="0" r="1" gradientUnits="userSpaceOnUse" gradientTransform="translate(397.976 102.847) rotate(-46.9614) scale(869.885 573.679)">
<stop stop-color="#FE3131" stop-opacity="0.22"/>
<stop offset="0.807292" stop-color="#A80000" stop-opacity="0"/>
</radialGradient>
<radialGradient id="paint1_diamond_2_1066" cx="0" cy="0" r="1" gradientUnits="userSpaceOnUse" gradientTransform="translate(435.496 121.247) rotate(-48.0163) scale(850.431 568.318)">
<stop stop-color="#FE3131" stop-opacity="0.22"/>
<stop offset="0.807292" stop-color="#A80000" stop-opacity="0"/>
</radialGradient>
<radialGradient id="paint2_diamond_2_1066" cx="0" cy="0" r="1" gradientUnits="userSpaceOnUse" gradientTransform="translate(477.164 135.238) rotate(-49.1973) scale(824.152 557.974)">
<stop stop-color="#FE3131" stop-opacity="0.22"/>
<stop offset="0.807292" stop-color="#A80000" stop-opacity="0"/>
</radialGradient>
<radialGradient id="paint3_diamond_2_1066" cx="0" cy="0" r="1" gradientUnits="userSpaceOnUse" gradientTransform="translate(520.331 146.36) rotate(-50.4094) scale(794.447 544.052)">
<stop stop-color="#FE3131" stop-opacity="0.22"/>
<stop offset="0.807292" stop-color="#A80000" stop-opacity="0"/>
</radialGradient>
<radialGradient id="paint4_diamond_2_1066" cx="0" cy="0" r="1" gradientUnits="userSpaceOnUse" gradientTransform="translate(565.792 154.423) rotate(-51.7763) scale(763.352 528.342)">
<stop stop-color="#FE3131" stop-opacity="0.22"/>
<stop offset="0.807292" stop-color="#A80000" stop-opacity="0"/>
</radialGradient>
<radialGradient id="paint5_diamond_2_1066" cx="0" cy="0" r="1" gradientUnits="userSpaceOnUse" gradientTransform="translate(608.669 159.883) rotate(-52.9946) scale(735.114 512.615)">
<stop stop-color="#FE3131" stop-opacity="0.22"/>
<stop offset="0.807292" stop-color="#A80000" stop-opacity="0"/>
</radialGradient>
<radialGradient id="paint6_diamond_2_1066" cx="0" cy="0" r="1" gradientUnits="userSpaceOnUse" gradientTransform="translate(649.67 162.642) rotate(-53.9675) scale(709.472 497.034)">
<stop stop-color="#FE3131" stop-opacity="0.22"/>
<stop offset="0.807292" stop-color="#A80000" stop-opacity="0"/>
</radialGradient>
<radialGradient id="paint7_diamond_2_1066" cx="0" cy="0" r="1" gradientUnits="userSpaceOnUse" gradientTransform="translate(681.569 165.256) rotate(-54.4274) scale(694.716 487.565)">
<stop stop-color="#FE3131" stop-opacity="0.22"/>
<stop offset="0.807292" stop-color="#A80000" stop-opacity="0"/>
</radialGradient>
<radialGradient id="paint8_diamond_2_1066" cx="0" cy="0" r="1" gradientUnits="userSpaceOnUse" gradientTransform="translate(717.976 166.732) rotate(-53.1239) scale(708.165 494.161)">
<stop stop-color="#FE3131" stop-opacity="0.22"/>
<stop offset="0.807292" stop-color="#A80000" stop-opacity="0"/>
</radialGradient>
<radialGradient id="paint9_diamond_2_1066" cx="0" cy="0" r="1" gradientUnits="userSpaceOnUse" gradientTransform="translate(739.02 171.941) rotate(-52.0869) scale(723.014 501.466)">
<stop stop-color="#FE3131" stop-opacity="0.22"/>
<stop offset="0.807292" stop-color="#A80000" stop-opacity="0"/>
</radialGradient>
<radialGradient id="paint10_diamond_2_1066" cx="0" cy="0" r="1" gradientUnits="userSpaceOnUse" gradientTransform="translate(745.448 183.09) rotate(-51.7126) scale(735.429 508.79)">
<stop stop-color="#FE3131" stop-opacity="0.22"/>
<stop offset="0.807292" stop-color="#A80000" stop-opacity="0"/>
</radialGradient>
<radialGradient id="paint11_diamond_2_1066" cx="0" cy="0" r="1" gradientUnits="userSpaceOnUse" gradientTransform="translate(746.706 195.638) rotate(-51.335) scale(748.312 516.294)">
<stop stop-color="#FE3131" stop-opacity="0.22"/>
<stop offset="0.807292" stop-color="#A80000" stop-opacity="0"/>
</radialGradient>
<radialGradient id="paint12_diamond_2_1066" cx="0" cy="0" r="1" gradientUnits="userSpaceOnUse" gradientTransform="translate(747.218 210.877) rotate(-50.7244) scale(768.15 527.446)">
<stop stop-color="#FE3131" stop-opacity="0.22"/>
<stop offset="0.807292" stop-color="#A80000" stop-opacity="0"/>
</radialGradient>
<radialGradient id="paint13_diamond_2_1066" cx="0" cy="0" r="1" gradientUnits="userSpaceOnUse" gradientTransform="translate(754.584 226.923) rotate(-49.5832) scale(798.559 542.733)">
<stop stop-color="#FE3131" stop-opacity="0.22"/>
<stop offset="0.807292" stop-color="#A80000" stop-opacity="0"/>
</radialGradient>
<radialGradient id="paint14_diamond_2_1066" cx="0" cy="0" r="1" gradientUnits="userSpaceOnUse" gradientTransform="translate(764.879 244.304) rotate(-48.5004) scale(826.418 555.351)">
<stop stop-color="#FE3131" stop-opacity="0.22"/>
<stop offset="0.807292" stop-color="#A80000" stop-opacity="0"/>
</radialGradient>
<radialGradient id="paint15_diamond_2_1066" cx="0" cy="0" r="1" gradientUnits="userSpaceOnUse" gradientTransform="translate(778.283 263.343) rotate(-47.5893) scale(851.279 565.951)">
<stop stop-color="#FE3131" stop-opacity="0.22"/>
<stop offset="0.807292" stop-color="#A80000" stop-opacity="0"/>
</radialGradient>
<radialGradient id="paint16_diamond_2_1066" cx="0" cy="0" r="1" gradientUnits="userSpaceOnUse" gradientTransform="translate(795.301 282.918) rotate(-46.8266) scale(871.342 573.605)">
<stop stop-color="#FE3131" stop-opacity="0.22"/>
<stop offset="0.807292" stop-color="#A80000" stop-opacity="0"/>
</radialGradient>
<radialGradient id="paint17_diamond_2_1066" cx="0" cy="0" r="1" gradientUnits="userSpaceOnUse" gradientTransform="translate(817.442 301.713) rotate(-46.1876) scale(882.962 576.112)">
<stop stop-color="#FE3131" stop-opacity="0.22"/>
<stop offset="0.807292" stop-color="#A80000" stop-opacity="0"/>
</radialGradient>
<radialGradient id="paint18_diamond_2_1066" cx="0" cy="0" r="1" gradientUnits="userSpaceOnUse" gradientTransform="translate(842.043 322.31) rotate(-45.7631) scale(888.804 576.324)">
<stop stop-color="#FE3131" stop-opacity="0.22"/>
<stop offset="0.807292" stop-color="#A80000" stop-opacity="0"/>
</radialGradient>
<radialGradient id="paint19_diamond_2_1066" cx="0" cy="0" r="1" gradientUnits="userSpaceOnUse" gradientTransform="translate(869.975 342.433) rotate(-45.5298) scale(889.111 574.491)">
<stop stop-color="#FE3131" stop-opacity="0.22"/>
<stop offset="0.807292" stop-color="#A80000" stop-opacity="0"/>
</radialGradient>
<radialGradient id="paint20_diamond_2_1066" cx="0" cy="0" r="1" gradientUnits="userSpaceOnUse" gradientTransform="translate(897.669 362.477) rotate(-45.3269) scale(887.767 571.827)">
<stop stop-color="#FE3131" stop-opacity="0.22"/>
<stop offset="0.807292" stop-color="#A80000" stop-opacity="0"/>
</radialGradient>
<radialGradient id="paint21_diamond_2_1066" cx="0" cy="0" r="1" gradientUnits="userSpaceOnUse" gradientTransform="translate(924.614 382.197) rotate(-45.1357) scale(886.136 569.061)">
<stop stop-color="#FE3131" stop-opacity="0.22"/>
<stop offset="0.807292" stop-color="#A80000" stop-opacity="0"/>
</radialGradient>
<radialGradient id="paint22_diamond_2_1066" cx="0" cy="0" r="1" gradientUnits="userSpaceOnUse" gradientTransform="translate(951.543 401.531) rotate(-44.9681) scale(884.475 566.473)">
<stop stop-color="#FE3131" stop-opacity="0.22"/>
<stop offset="0.807292" stop-color="#A80000" stop-opacity="0"/>
</radialGradient>
</defs>
</svg>
