<svg width="1315" height="1465" viewBox="0 0 1315 1465" fill="none" xmlns="http://www.w3.org/2000/svg">
<path d="M1244.28 105.756C1211.65 126.455 1179.58 147.634 1148.01 168.884C1116.47 190.271 1085.45 211.864 1054.99 233.939C905.454 344.632 743.903 445.266 574.862 549.141C409.997 650.92 259.77 787.585 306.047 900.549C334.813 973.868 462.904 986.566 597.183 953.487C620.658 947.524 626.923 962.675 620.02 973.906C597.581 1013.12 540.088 1042.33 479.204 1061.16C424.61 1078.85 375.867 1088.51 322.077 1093.85C212.403 1103.7 97.7304 1127.87 8.24197 1116.62C33.7351 1112.74 57.8608 1109.75 84.306 1107.42C193.903 1098.84 289.515 1094.93 399.993 1072.72C469.064 1059.47 558.57 1034.27 583.736 985.917C589.534 975.671 575.3 971.2 559.373 972.523C453.793 985.157 357.88 977.7 316.951 929.819C233.188 830.977 368.957 677.21 531.958 570.815C690.462 467.811 851.056 369.254 998.788 261.727C1024.73 242.907 1050.74 224.498 1077 206.192C1129.54 169.717 1183.66 133.864 1238.62 98.7314L1244.28 105.756Z" fill="url(#paint0_diamond_6_150)"/>
<path d="M1259.42 124.295C1226.48 144.48 1194.58 165.08 1163.46 185.991C1132.35 206.902 1102.02 228.123 1072.74 249.76C943.573 344.337 807.011 428.23 653.825 515.626C462.433 624.616 272.708 769.693 324.299 896.268C337.245 924.148 366.429 942.038 408.706 952.31C470.606 966.601 550.617 946.301 618.977 907.683C635.216 897.692 657.663 891.451 674.293 895.319C688.771 899.758 693.266 909.166 694.71 919.822C697.438 960.078 651.601 1003.99 590.64 1036.88C546.086 1061 497.929 1078.66 446.771 1088.79C319.236 1116.78 183.508 1142.82 73.9166 1134.99C243.976 1113.62 433.252 1118.86 597.715 1023.26C647.742 993.802 697.201 943.693 656.834 920.084C648.794 915.608 633.991 916.084 623.224 920.742C513.214 968.342 379.586 978.794 338.107 923.197C206.701 748.862 599.538 541.068 853.422 388.551C915.512 351.2 970.361 313.439 1026.62 273.261C1052.15 255.054 1076.52 237.422 1101.17 220.03C1150.46 185.109 1201.6 151.051 1254.31 117.614L1259.42 124.295Z" fill="url(#paint1_diamond_6_150)"/>
<path d="M1272.61 142.96C1240.75 162.024 1210.46 181.71 1181.44 201.641C1152.44 221.709 1124.49 242.191 1095.63 263.215C970.668 357.779 825.261 436.747 673.206 519.678C484.067 623.354 284.943 772.209 344.177 893.017C363.387 936.049 450.699 964.15 537.388 919.988C576.304 899.968 593.289 866.224 644.511 851.076C682.871 839.757 713.825 850.589 727.332 866.15C768.166 915.157 709.685 991.949 617.447 1042.71C572.892 1066.83 527.788 1083.24 477.767 1096.27C365.667 1126.63 248.746 1152.48 149.609 1148.66C301.738 1130.28 467.148 1114.82 612.702 1036.95C665.853 1008.6 703.817 974.24 718.618 937.174C730.042 906.27 727.805 875.13 687.681 864.288C662.839 858.332 624.402 870.913 605.59 887.514C558.781 929.751 481.511 957.471 420.485 945.983C373.847 936.441 342.663 916.596 334.214 885.324C279.901 702.075 622.552 542.68 865.971 406.189C960.457 353.736 1037.51 296.967 1114.66 239.072C1138.77 221.336 1163.66 203.911 1189.1 186.83C1214.54 169.749 1241 152.946 1268.01 136.487L1272.61 142.96Z" fill="url(#paint2_diamond_6_150)"/>
<path d="M1284.69 160.802C1263.24 174.42 1242.3 188.11 1221.66 202.176C1201.01 216.242 1181.14 230.483 1161.56 245.1C1087.51 300.211 1016.02 354.139 924.735 402.819C699.082 522.294 422.538 635.586 354.475 813.571C339.182 854.321 352.773 888.792 389.997 911.158C411.219 923.308 441.131 930.108 480.615 917.941C529.666 903.226 528.624 873.594 553.005 850.534C590.969 816.174 658.673 803.801 704.34 811.666C788.208 827.156 791.404 892.809 753.032 949.764C666.232 1080.9 406.661 1143.89 228.566 1157.17C418.806 1131.11 691.973 1073.37 754.807 926.289C776.927 875.571 763.916 816.116 670.322 822.118C601.807 826.671 559.187 870.566 523.485 906.985C501.051 929.781 453.532 933.854 422.401 929.028C357.033 918.406 337.669 877.9 344.507 835.095C361.899 729.366 495.005 629.107 644.086 546.162C828.882 443.353 1017.06 354.554 1160.36 234.411C1179.32 220.712 1198.8 207.22 1218.81 193.936C1238.81 180.652 1259.34 167.575 1280.37 154.569L1284.69 160.802Z" fill="url(#paint3_diamond_6_150)"/>
<path d="M1298.06 177.216C1277.95 189.68 1258.62 202.455 1240.07 215.542C1221.52 228.628 1203.76 242.026 1186.02 255.56C1059.59 361.175 890.003 440.915 723.126 524.184C575.968 597.547 434.105 684.384 381.008 789.942C358.167 835.331 357.026 885.433 421.098 899.292C438.627 902.482 468.54 896.482 478.834 882.844C499.421 855.568 495.41 822.303 540.443 803.541C632.924 765.551 752.638 762.132 788.42 810.431C835.596 873.326 801.171 968.563 679.412 1039.18C569.395 1103.2 433.661 1145.66 311.202 1158.07C437.441 1133.32 570.615 1101.22 679.737 1034.27C805.195 956.192 847.192 827.234 726.673 793.614C685.502 782.358 625.37 786.609 571.652 807.104C527.576 823.788 505.864 851.912 499.032 878.299C493.483 897.694 459.388 909.408 433.097 909.214C415.414 908.549 398.765 904.544 389.926 896.002C291.776 808.014 462.905 659.195 626.966 569.769C821.328 464.411 1029.21 378.369 1177.31 251.592C1195.5 237.719 1213.73 224.119 1232.74 210.83C1252 197.508 1271.8 184.531 1292.87 171.798L1298.06 177.216Z" fill="url(#paint4_diamond_6_150)"/>
<path d="M1313.87 191.491C1292.56 204.257 1272.8 217.508 1254.08 231.174C1099.96 371.985 871.817 463.971 659.203 573.61C523.783 643.991 394.858 738.536 388.897 833.534C388.169 844.624 393.789 853.184 402.966 860.567C413.024 867.134 437.049 868.888 446.066 858.623C506.067 791.225 576.687 718.075 693.992 685.904C664.719 702.114 617.112 740.285 665.525 739.152C853.434 732.476 885.572 852.643 800.156 959.24C719.242 1058.83 540.971 1127.5 388.192 1155.71C538.327 1118.96 712.971 1060.09 788.591 959.833C839.906 894.169 846.597 824.671 793.853 781.035C757.203 750.105 682.416 755.924 618.574 751.078C606.038 749.994 595.01 741.749 589.786 743.431C513.639 770.304 496.738 822.958 460.39 865.587C452.592 873.878 433.211 882.625 418.58 880.712C402.902 878.384 391.964 872.631 387.224 863.256C368.263 816.573 399.073 760.504 454.88 707.865C589.992 580.344 796.009 502.485 983.545 407.095C1087.44 354.619 1164.97 290.411 1246.68 227.725C1265.84 213.72 1286.28 199.96 1308.04 186.855L1313.87 191.491Z" fill="url(#paint5_diamond_6_150)"/>
<path d="M1333.54 203.156C1312.26 216.195 1292.54 229.72 1274.33 243.456C1119.73 386.278 885.649 474.618 671.26 582.132C553.203 641.674 438.283 718.878 417.926 804.557C416.4 811.581 419.217 817.739 429.581 819.256C433.847 819.652 441.242 817.537 444.614 814.993C640.999 645.919 1013.47 556.639 1209.48 639.021C1202.08 641.136 1196.94 637.937 1191.87 637.094C1059.21 612.632 885.214 615.893 737.564 692.94C716.982 703.798 740.624 711.864 753.964 713.396C923.705 729.912 901.71 860.195 818.548 961.478C745.922 1049.09 596.676 1118.01 459.575 1148.55C597.326 1108.18 748.022 1046.3 815.75 955.458C891.351 855.059 885.197 740.138 730.489 719.359C716.905 717.86 700.825 708.908 711.764 701.861C798.459 641.281 927.112 628.86 1031.64 615.811C830.139 604.433 582.242 695.061 442.609 829.456C437.137 834.789 425.4 837.77 419.134 835.419C407.799 832.225 404.107 823.264 405.71 814.977C415.217 764.438 460.333 715.195 518.879 669.977C646.59 573.788 814.567 505.952 974.356 432.548C1089.84 379.615 1175.97 311.182 1261.55 242.405C1281.11 227.651 1302.44 213.213 1326.08 199.297L1333.54 203.156Z" fill="url(#paint6_diamond_6_150)"/>
<path d="M1358.04 212.081C1336.78 225.256 1317.3 238.748 1299.37 252.725C1165.33 378.988 960.684 465.148 763.505 551.549C650.122 601.692 524.517 665.874 484.857 746.238C481.313 751.17 498.44 747.737 504.883 744.081C684.609 653.228 889.739 592.602 1073.79 599.527C1229.46 605.428 1324 666.776 1439.77 707.438C1401.01 724.933 1363.79 715.367 1338.29 706.439C1255.48 674.946 1180.56 634.036 1063.24 633.234C984.612 632.618 876.369 636.57 803.205 683.63C861.421 709.133 931.036 732.815 926.197 790.374C914.337 925.962 748.822 1086.96 511.378 1145.01C749.473 1077.13 915.633 922.726 907.716 785.643C903.716 732.342 832.633 714.286 783.102 687.049C820.894 655.077 889.415 646.907 941.282 638.349C1121.41 607.128 1230.98 664.213 1353.2 701.22C1360.27 704.018 1370.65 705.672 1382.39 702.691C1290.82 644.976 1175.52 596.875 1011.58 603.086C838.139 610.445 652.48 664.816 502.73 757.451C491.791 764.498 479.728 772.393 465.972 773.283C446.023 774.177 458.813 755.192 466.706 745.775C509.254 686.724 583.809 635.302 669.374 591.988C799.398 525.677 931.779 473.099 1061.73 408.051C1153.64 362.207 1220.23 305.046 1291.07 249.954C1309.02 236.114 1328.01 222.688 1348.54 209.612L1358.04 212.081Z" fill="url(#paint7_diamond_6_150)"/>
<path d="M1388.09 218.027C1362.8 232.583 1340.6 247.973 1320.67 263.613C1190.41 397.711 971.522 475.645 771.048 563.326C703.018 593.412 630.717 626.721 594.12 673C589.452 678.781 607.703 674.499 614.069 672.106C840.031 596.971 1069.52 566.158 1239.08 617.899C1324.39 644.045 1391.34 695.634 1519.45 675.496C1526.76 674.643 1538.35 674.187 1537.05 677.423C1520.31 707.517 1461.94 737.547 1415.95 734.595C1327.11 729.937 1282.97 685.83 1211.89 664.155C1124.41 638.443 1015.31 626.928 891.549 659C873.541 663.248 861.152 676.057 875.386 680.528C1017.3 723.91 968.29 848.67 876.609 952.917C803.261 1035.2 682.708 1100.09 549.796 1145.09C547.625 1145.52 549.949 1142.56 547.778 1143C662.534 1101.15 772.851 1048.5 845.72 973.658C954.534 862.36 1012.79 723.547 847.632 682.341C834.202 678.317 854.784 667.459 866.617 663.351C914.94 646.926 959.092 641.779 1006.61 637.707C1172.9 625.056 1259.07 686.841 1372.12 723.838C1395.76 731.904 1432.17 733.649 1464.51 719.946C1481.65 712.895 1518.56 694.538 1507.05 693.732C1377.76 683.144 1299.37 633.104 1183.44 607.767C1003.59 569.665 776.265 616.463 567.661 697.176C552.551 702.701 549.084 693.571 559.052 684.847C651.699 598.696 793.23 545.991 926.793 491.165C1078.61 428.441 1212.6 351.158 1315.12 257.408C1333.52 243.229 1353.47 229.535 1375.7 216.227L1388.09 218.027Z" fill="url(#paint8_diamond_6_150)"/>
<path d="M1423.54 221.85C1387.67 244.24 1354.01 268.278 1323.47 293.424C1266.88 332.952 1227.31 379.217 1157.83 415.065C1020.24 485.88 858.536 523.23 739.043 605.088C731.399 610.854 743.858 613.201 751.177 612.349C1009.37 557.473 1217.94 588.067 1386.62 653.423C1430.68 669.574 1491.79 663.382 1557.07 642.294C1574.11 636.368 1590.53 644.161 1585.53 654.855C1568.81 688.703 1518.39 720.717 1463.95 735.884C1418.02 748.088 1383.14 739.319 1354.28 729.316C1298.8 711.232 1254.26 686.101 1199.03 667.985C1140.58 649.887 1075.06 641.79 993.68 650.171C972.607 651.913 929.201 658.907 935.868 667.882C971.632 716.045 1024.38 759.681 992.345 830.525C932.57 959.944 767.54 1084.28 564.982 1151.1C779.685 1071.51 948.656 939.678 988.966 800.096C1005.39 742.08 960.36 707.833 911.25 674.556C902.239 668.403 924.839 659.637 936.577 656.656C1013.29 637.636 1080.19 641.234 1142.34 651.875C1213.82 663.755 1262.62 689.282 1315.51 713.838C1355.15 732.119 1403.39 749.793 1470.52 729.567C1516.52 716.1 1559.95 692.825 1573.38 663.876C1575.95 657.267 1569.91 651.128 1560.35 653.676C1495.29 670.977 1438.69 670.159 1390.29 658.628C1301.53 636.289 1230.46 601.815 1130.51 590.174C999.631 575.209 854.739 597.622 703.652 632.839C693.038 634.973 674.308 633.893 685.324 625.583C731.807 588.26 797.435 562.395 858.856 534.735C978.681 480.936 1117.39 442.109 1213.25 368.739C1245.25 343.395 1276.14 319.036 1308.7 294.173C1340.18 268.622 1374.03 244.14 1410 220.624L1423.54 221.85Z" fill="url(#paint9_diamond_6_150)"/>
<path d="M1464.52 224.367C1430.88 244.925 1398.89 266.651 1370.5 289.418C1337.18 314.107 1310.47 340.124 1280.55 366.161C1206.16 431.613 1087.79 463.232 987.438 507.158C951.804 522.142 907.996 535.312 893.028 558.348C883.858 571.138 917.545 569.218 934.276 568.342C1101.28 561.02 1233.71 589.269 1352.61 631.039C1410.89 651.525 1490.34 639.926 1571.48 618.777C1604.52 610.266 1615.54 634.929 1599.46 655.195C1575.32 687.403 1539.53 721.331 1484.29 736.05C1358.44 771.047 1299.44 708.641 1223.79 682.439C1189.93 670.33 1156.08 658.221 1113.31 655.251C1076.73 652.277 1034.18 645.519 992.048 665.558C988.753 666.839 987.457 670.075 988.504 670.49C1063.19 748.023 1036.95 861.629 916.952 967.207C824.554 1049.71 701.925 1113.9 566.664 1165.34C565.54 1166.19 566.818 1162.82 567.96 1162.11C774.221 1084.21 948.581 964.731 1010.59 829.861C1039.79 765.524 1014.88 715.194 967.129 673.664C959.242 666.663 983.694 658.759 996.479 656.192C1061.13 645.068 1112.99 652.929 1164.68 663.178C1239.14 678.69 1287.29 710.426 1350.81 732.986C1384.74 743.832 1426.06 752.564 1477.36 736.153C1527.61 719.328 1572.34 692.816 1593.16 661.753C1600.08 650.658 1601.86 639.983 1596.22 631.286C1590.6 622.726 1571.6 621.543 1556.74 627.035C1488.96 653.47 1421.81 657.141 1374.53 641.008C1224.9 588.237 1059.2 559.487 840.804 580.728C833.486 581.58 827.297 577.966 833.012 572.601C849.654 556.433 876.596 546.8 900.397 535.924C1026.49 480.858 1172.76 441.146 1266.85 362.033C1296.68 337.123 1324.68 311.487 1358.23 286.628C1385.47 264.572 1416.08 243.591 1448.78 223.438L1464.52 224.367Z" fill="url(#paint10_diamond_6_150)"/>
<path d="M1510.4 226.499C1482.16 242.987 1456.51 260.374 1433.69 278.491C1324.37 382.346 1174.79 459.793 1009.95 532.49C1002.48 535.868 1009.22 543.58 1017.51 544.405C1149.7 559.887 1261.93 589.064 1377.23 620.747C1426.6 633.954 1491.57 617.916 1555.41 602.59C1591.67 594.06 1620.13 606.621 1620.94 627.241C1622.78 664.557 1567.93 702.318 1514.86 729.404C1465.15 753.946 1408.15 759.305 1366.97 748.048C1264.13 718.712 1200.16 654.337 1055.82 664.43C1039.02 666.568 1025.75 676.574 1031.37 685.134C1157.41 843.639 873.038 1076.53 559.192 1181.52C559.192 1181.52 564.492 1178.58 563.784 1177C780.83 1094.59 990.307 967.287 1043.98 816.573C1063.2 760.96 1047.21 717.91 1012.97 679.141C1008.87 676.356 1013.62 669.314 1022.14 666.351C1102.15 646.05 1158.18 668.233 1211.66 684.361C1276.47 703.684 1317.21 737.399 1391.84 750.523C1473.69 763.92 1567.62 707.369 1606.47 655.775C1614.52 643.833 1620.64 632.291 1614.85 622.501C1608.41 609.739 1587.04 600.113 1564.51 607.617C1444.54 647.523 1354.73 628.387 1280.03 600.107C1194.09 567.507 1082.48 561.203 971.914 551.696C951.089 549.786 961.46 534.886 979.717 526.986C1082.26 482.764 1195.31 450.334 1278.79 389.773C1329.3 352.878 1371.68 312.771 1420 274.364C1441.49 257.4 1465.81 241.167 1493.21 225.768L1510.4 226.499Z" fill="url(#paint11_diamond_6_150)"/>
<path d="M1560.87 229.54C1530.17 246.221 1496.56 263.297 1475.32 283.982C1390.88 375.839 1262.36 451.407 1117.86 513.279C1093.01 523.741 1117.45 535.874 1133.05 539.464C1205.34 555.41 1273.52 572.189 1335.99 594.334C1390.34 613.266 1463.11 605.355 1539.65 588.724C1577.77 581.056 1617.49 585.275 1625.52 606.169C1638.22 637.7 1604.04 679.896 1560.04 711.735C1527.07 735.402 1481.64 756.722 1437.41 759.514C1320.57 767.691 1278.22 709.291 1192.68 686.932C1161.79 678.456 1109.63 659.227 1069.98 686.582C1168.91 860.863 870.86 1093.38 547.353 1202.04C545.182 1202.48 552.826 1196.71 552.826 1196.71C871.173 1084.71 1164.08 852.614 1057.67 681.711C1054.7 678.078 1066.59 672.572 1075.03 670.871C1139.28 665.923 1181.08 683.634 1227.47 696.827C1303.52 720.471 1358.11 785.006 1484.27 745.095C1562.44 720.314 1620.17 667.275 1626.38 621.635C1629.93 600.285 1600.49 586.047 1563.34 591.637C1491.54 601.225 1417.8 623.877 1361.2 606.641C1278.95 583.001 1202.8 560.484 1110.74 543.043C1093.21 539.853 1066.12 535.593 1076.49 520.693C1083.34 510.861 1098.52 504.073 1113.65 498.684C1227.59 452.639 1346.04 403.339 1407.82 325.266C1419.24 310.78 1438.94 297.119 1455.49 283.887C1481.02 263.871 1510.69 245.103 1542.32 228.018L1560.87 229.54Z" fill="url(#paint12_diamond_6_150)"/>
<path d="M1614.83 234.612C1587.62 249.568 1560.23 265.104 1535.99 281.883C1511.51 298.696 1490.19 316.889 1474.29 336.712C1421.74 404.214 1321.96 455.993 1220.86 498.072C1202.6 505.972 1198.5 519.605 1208.54 526.036C1288.54 567.79 1387.11 600.348 1527.02 575.966C1603.41 561.86 1660.08 594.251 1632.75 643.033C1606.51 690.83 1541.79 736.189 1461.93 757.583C1399.05 774.45 1352.81 758.732 1311.89 743.824C1252.56 722.923 1200.55 668.197 1107.5 694.715C1100.11 696.83 1099.46 706.657 1101.23 712.4C1171.77 902.075 840.606 1115.15 536.972 1224.18C539.297 1221.22 538.422 1218.42 541.717 1217.14C847.695 1105.28 1170.57 891.386 1091.41 705.799C1088.52 700.905 1089.07 692.203 1100.91 688.096C1144.89 672.537 1179.54 688.712 1209.3 698.037C1279.16 718.067 1322.49 761.726 1412.63 763.149C1507.92 764.152 1606.68 695.677 1634.5 635.839C1654.94 594.67 1604.03 571.932 1539.71 578.143C1478.6 584.335 1416.44 602.912 1368.2 588.857C1298.42 567.564 1207.73 558.425 1169.69 515.439C1167.77 512.221 1173.56 505.593 1182.16 501.368C1265.15 464.663 1356.42 432.402 1414.65 375.679C1448.19 343.448 1472.23 312.365 1513.13 283.173C1537.91 264.928 1566.32 247.862 1595.69 232.335L1614.83 234.612Z" fill="url(#paint13_diamond_6_150)"/>
<path d="M1669.61 242.077C1642.66 255.328 1615.81 269.262 1592.62 284.647C1569.41 299.895 1549.6 316.492 1536.98 334.897C1495.31 396.751 1409.04 451.291 1318.08 495.057C1307.31 499.716 1297.42 507.178 1298.05 513.632C1301.33 545.187 1349.74 556.854 1394.61 560.653C1453.95 565.136 1518.12 561.451 1578.82 565.053C1607.93 567.787 1633.73 575.283 1639.76 594.222C1658.79 656.06 1569.29 743.455 1451.32 768.899C1393.83 781.696 1351.69 768.762 1313.91 755.098C1261.65 736.995 1226.12 701.463 1153.67 704.46C1137.82 704.521 1131.87 717.292 1132.44 725.145C1159.25 926.728 834.914 1129.83 529.754 1245.89C529.907 1243.36 531.28 1238.87 533.451 1238.43C851.415 1119.95 1165.6 911.398 1125.2 708.317C1124.48 702.989 1136.39 697.619 1144.66 698.307C1232.46 702.551 1279.98 744.251 1352.02 763.848C1390.05 773.861 1437.34 773.576 1486.62 755.073C1565.11 725.379 1629.12 674.828 1641.75 625.395C1660.27 548.036 1509.26 569.19 1416.79 570.726C1352.79 572.023 1306.8 552.654 1268.61 528.612C1258.65 520.918 1258.48 506.889 1277.86 498.141C1372.84 454.804 1462.1 404.033 1509.86 339.546C1524.04 319.816 1544.37 301.619 1568.36 284.872C1592.36 268.125 1620.28 252.934 1649.4 239.249L1669.61 242.077Z" fill="url(#paint14_diamond_6_150)"/>
<path d="M1724.24 252.067C1677.12 273.755 1640.29 300.031 1610.2 328.456C1595.02 342.617 1581.66 357.367 1569.06 372.291C1541.14 418.646 1484.2 455.578 1419.06 490.559C1395.09 503.824 1386.57 523.205 1403.77 531.309C1451.44 553.929 1529.77 543.177 1589.91 555.481C1638.4 565.885 1667.18 593.569 1649.89 632.363C1629.94 682.648 1566.07 730.674 1489.68 761.198C1365.83 810.95 1294.37 749.816 1215.34 726.158C1205.05 723.378 1192.59 721.031 1177.88 723.998C1166.14 726.98 1160.51 734.838 1158.97 741.725C1141.98 824.86 1109.39 908.023 1015.14 989.661C886.303 1103.12 706.813 1186.56 530.957 1267.57C531.111 1265.04 530.312 1260.98 533.607 1259.7C829.443 1135.17 1146.78 944.418 1148.19 742.629C1148.67 735.19 1150.37 725.778 1163.4 719.56C1184.95 710.379 1204.4 716.787 1218.88 721.226C1279.75 735.239 1313.18 769.806 1383.14 775.91C1433.08 780.553 1494.11 762.824 1544.12 733.231C1606.11 697.006 1655.34 650.685 1649.39 610.448C1639.53 535.819 1482.96 559.814 1387.68 542.393C1359.86 536.423 1340.32 514.723 1377.08 495.273C1455.33 452.811 1529.56 406.302 1564.62 350.492C1577.93 329.906 1598.47 311.402 1622.95 294.589C1647.44 277.777 1675.83 262.382 1704.86 248.015L1724.24 252.067Z" fill="url(#paint15_diamond_6_150)"/>
<path d="M1777.03 264.95C1729.08 289.671 1688.27 317.601 1656.45 347.929C1640.42 363.178 1626.7 378.95 1615.3 395.381C1601.27 414.394 1595.73 433.789 1582.93 452.774C1572.56 467.675 1542.72 476.031 1525.84 492.231C1513.53 503.777 1508.62 516.963 1521.73 522.283C1564.67 539.282 1620.88 546.276 1647.18 574.016C1657.76 584.41 1664.12 596.626 1664.01 610.415C1664.14 624.171 1658.05 639.604 1644.01 656.672C1598.57 710.828 1521.36 770.122 1426.07 785.536C1338.1 800.099 1293.16 764.726 1236.88 746.195C1218.48 740.201 1188.81 746.169 1181.17 764.735C1148.98 841.721 1120.11 913.945 1038.95 987.965C907.382 1110.55 718.645 1195.25 542.847 1287.66C540.829 1285.57 538.83 1283.62 537.055 1281.49C832.981 1146.65 1145.48 964.072 1174.73 751.972C1177.88 736.798 1208.42 733.634 1223.7 738.52C1284.4 754.922 1323.24 789.173 1405.17 784.89C1493.54 780.57 1579.58 729.817 1624.95 676.924C1649.96 647.518 1664.2 619.154 1655.45 592.932C1641.06 537.977 1524.87 552.745 1476.81 519.883C1444.65 498.361 1532.38 471.032 1558.28 444.566C1576.22 425.163 1582.82 406.182 1598.27 386.698C1610.27 371.02 1624.02 355.521 1639.86 340.715C1671.51 310.967 1710.64 283.404 1758.06 260.285L1777.03 264.95Z" fill="url(#paint16_diamond_6_150)"/>
<path d="M1826.52 280.923C1751.91 320.944 1675.43 369.149 1665.37 424.771C1661.7 439.738 1661.9 454.041 1659.41 468.57C1656.92 483.099 1651.73 497.853 1637.52 513.691C1633.01 516.946 1636 520.715 1638 522.67C1650.39 542.834 1666.72 562.744 1673.42 584.792C1680.37 606.807 1677.66 630.687 1652.2 658.623C1635.24 677.895 1615.84 695.687 1594.77 712.038C1545.8 749.282 1483.88 784.244 1413.84 795.82C1342.99 806.949 1299.35 784.758 1246.67 772.695C1220.78 766.324 1199.47 788.272 1192.3 803.017C1175.17 843.042 1154.74 880.592 1124.01 918.981C1063.61 992.555 982.871 1060.54 883.391 1123.68C780.616 1188.11 673.498 1240.61 562.773 1303.05C561.649 1303.9 559.803 1299.42 555.78 1298.99C693.051 1216.67 849.54 1148.17 971.778 1057.31C1084.2 972.652 1152.81 880.993 1192.72 784.178C1200.04 766.907 1228.03 757.689 1247.56 762.835C1306.26 777.282 1353.62 808.57 1438.76 787.714C1508.08 770.809 1565.65 736.714 1608.99 699.955C1625.42 685.903 1639.29 671.224 1649.61 655.914C1660.18 640.707 1667.21 624.869 1670.21 608.602C1674.19 586.776 1662.96 571.601 1647 558.041C1632.83 539.371 1587.16 531.506 1597.29 503.838C1601.16 493.992 1620.44 486.371 1624.31 476.525C1631.79 456.73 1635.09 439.03 1645.09 419.588C1654.06 401.677 1666.05 384.054 1681.06 366.855C1711.13 332.729 1753.66 300.95 1809.29 274.491L1826.52 280.923Z" fill="url(#paint17_diamond_6_150)"/>
<path d="M1870.36 299.053C1819.45 327.515 1762.28 355.434 1736.77 392.142C1704.6 436.292 1719.87 474.014 1718.25 515.137C1718.16 565.653 1710.5 617.055 1657.74 672.064C1639.04 691.293 1618.37 708.841 1595.8 725.117C1505.9 800.461 1365.83 827.368 1259.14 808.014C1246.6 806.93 1229.22 817.633 1222.22 826.372C1129.41 947.884 1023.47 1063.94 847.042 1166.31C757.703 1218.35 677.279 1264.86 592.111 1318.41C592.111 1318.41 586.089 1316.03 581.899 1314.37C604.978 1298.17 627.98 1283.22 655.005 1268.71C890.716 1143 1103.02 1005.44 1197.62 836.801C1208.32 816.987 1241.94 783.493 1268.38 793.962C1367.85 829.46 1527.62 788.891 1613.54 707.965C1635.84 689.64 1654.77 670.24 1668.63 649.998C1682.49 629.755 1691.52 608.636 1694.49 586.668C1695.47 571.927 1692.01 559.179 1695.15 544.005C1705.21 501.182 1692.69 467.262 1700.81 424.839C1709.35 372.622 1786.63 328.484 1854.81 292.254L1870.36 299.053Z" fill="url(#paint18_diamond_6_150)"/>
<path d="M1909.87 318.186C1842.04 351.584 1765.79 396.001 1763.62 445.825C1761.75 523.435 1768.16 601.869 1672.79 684.355C1652.36 701.87 1630.54 718.183 1607.63 733.809C1512.11 804.211 1387.23 840.885 1256.41 853.739C1239.6 855.877 1224.97 870.382 1215.87 881.91C1093.06 1030.72 906.637 1158.1 706.903 1276.84C655.763 1312.71 628.748 1332.79 628.748 1332.79L616.442 1327.92C643.435 1309.51 666.52 1289.69 698.284 1271.75C925.712 1141.6 1106.25 1005.56 1233.98 847.317C1237.53 842.385 1249.42 836.878 1255.61 836.874C1352.27 833.378 1455.58 822.303 1543.19 768.418C1569.69 753.697 1595.01 737.605 1618.65 720.072C1642.3 702.538 1664.27 683.7 1684.07 663.349C1766.02 580.594 1743.12 512.184 1748.85 437.392C1754.26 387.685 1829.29 345.243 1896.31 311.397L1909.87 318.186Z" fill="url(#paint19_diamond_6_150)"/>
<path d="M1947.19 337.617C1876.77 366.497 1816.2 409.624 1803.89 457.76C1789.81 512.954 1797.04 562.619 1757.86 619.126C1727.8 662.433 1684.53 701.547 1633.15 737.447C1607.58 755.381 1579.93 772.622 1550.9 788.798C1463.84 843.028 1356.56 865.075 1254.52 901.995C1239.41 907.52 1226.45 916.094 1217.21 926.528C1081.45 1063.88 909.755 1175.62 736.636 1291.46C689.801 1326.19 663.03 1346.23 663.03 1346.23L650.724 1341.36C650.724 1341.36 677.495 1321.32 725.996 1286.08C902.763 1171.56 1079.75 1056.87 1207.25 918.835C1226.39 897.32 1254.93 879.401 1290.79 873.429C1391.71 853.775 1490.06 820.694 1572.28 769.206C1596.58 754.645 1619.78 739.397 1641.63 723.22C1663.47 707.044 1684.21 690.042 1703.1 672.179C1780.06 600.118 1784.51 532.317 1786.78 464.949C1789.04 413.999 1856.28 363.429 1934.1 330.625L1947.19 337.617Z" fill="url(#paint20_diamond_6_150)"/>
<path d="M1983 356.835C1852.23 404.881 1830.98 487.62 1809.58 560.085C1790.77 624.267 1740.05 681.504 1671.53 733.638C1648.87 751.039 1624.14 767.885 1598.1 784.212C1500.57 848.904 1382.44 893.29 1266.33 939.769C1251.13 946.42 1236.09 954.301 1224.99 963.873C1084.19 1084.1 928.498 1193.26 769.493 1305.37C723.857 1339.8 697.086 1359.84 697.086 1359.84L684.78 1354.97C684.78 1354.97 711.307 1334.96 757.431 1300.47C907.501 1193.74 1065.85 1093.26 1191.88 973.647C1216.48 950.418 1250.17 932.079 1287.74 916.695C1385.61 878.253 1485.4 843.028 1570.29 791.041C1594.63 776.891 1618.16 762.156 1641.31 746.497C1763 664.342 1809.97 570.326 1822.05 480.204C1829.38 430.098 1894.28 382.35 1970.15 349.81L1983 356.835Z" fill="url(#paint21_diamond_6_150)"/>
<path d="M2018.26 375.709C1944.22 407.166 1878.51 450.711 1866.93 500.558C1842.34 598.915 1759.84 686.753 1650.26 766.849C1622.99 786.823 1593.92 806.344 1563.55 825.484C1476.45 881.249 1376.98 927.977 1278.55 975.121C1212.62 1006.04 1164.04 1046.15 1115.3 1085.17C1014.77 1164.32 908.217 1241.08 803.307 1319.02C757.67 1353.44 731.142 1373.46 731.142 1373.46L718.836 1368.58C718.836 1368.58 745.364 1348.57 791.001 1314.15C905.802 1228.75 1025.31 1147.03 1132.6 1059.17C1175.78 1023.13 1221.14 986.655 1280.49 958.302C1381.01 911.988 1481.11 868.096 1570.46 812.444C1594.27 797.949 1617.53 783.11 1640.23 767.791C1662.69 752.505 1684.59 736.738 1705.65 720.25C1807.31 640.252 1827.27 557.131 1867.25 471.854C1886.72 429.008 1946.56 396.971 2005.23 369.127L2018.26 375.709Z" fill="url(#paint22_diamond_6_150)"/>
<defs>
<radialGradient id="paint0_diamond_6_150" cx="0" cy="0" r="1" gradientUnits="userSpaceOnUse" gradientTransform="translate(627.091 617.332) rotate(114.326) scale(631.314 832.148)">
<stop/>
<stop offset="0.0001" stop-color="#FE3131" stop-opacity="0.22"/>
<stop offset="1" stop-opacity="0"/>
</radialGradient>
<radialGradient id="paint1_diamond_6_150" cx="0" cy="0" r="1" gradientUnits="userSpaceOnUse" gradientTransform="translate(667.158 633.243) rotate(113.349) scale(625.207 809.955)">
<stop/>
<stop offset="0.0001" stop-color="#FE3131" stop-opacity="0.22"/>
<stop offset="1" stop-opacity="0"/>
</radialGradient>
<radialGradient id="paint2_diamond_6_150" cx="0" cy="0" r="1" gradientUnits="userSpaceOnUse" gradientTransform="translate(711.24 646.781) rotate(112.193) scale(616.096 780.472)">
<stop/>
<stop offset="0.0001" stop-color="#FE3131" stop-opacity="0.22"/>
<stop offset="1" stop-opacity="0"/>
</radialGradient>
<radialGradient id="paint3_diamond_6_150" cx="0" cy="0" r="1" gradientUnits="userSpaceOnUse" gradientTransform="translate(756.317 656.695) rotate(111.043) scale(603.952 746.613)">
<stop/>
<stop offset="0.0001" stop-color="#FE3131" stop-opacity="0.22"/>
<stop offset="1" stop-opacity="0"/>
</radialGradient>
<radialGradient id="paint4_diamond_6_150" cx="0" cy="0" r="1" gradientUnits="userSpaceOnUse" gradientTransform="translate(804.256 664.867) rotate(109.807) scale(591.134 710.025)">
<stop/>
<stop offset="0.0001" stop-color="#FE3131" stop-opacity="0.22"/>
<stop offset="1" stop-opacity="0"/>
</radialGradient>
<radialGradient id="paint5_diamond_6_150" cx="0" cy="0" r="1" gradientUnits="userSpaceOnUse" gradientTransform="translate(850.672 670.938) rotate(108.716) scale(578.911 676.328)">
<stop/>
<stop offset="0.0001" stop-color="#FE3131" stop-opacity="0.22"/>
<stop offset="1" stop-opacity="0"/>
</radialGradient>
<radialGradient id="paint6_diamond_6_150" cx="0" cy="0" r="1" gradientUnits="userSpaceOnUse" gradientTransform="translate(891.476 674.105) rotate(108.074) scale(567.298 651.354)">
<stop/>
<stop offset="0.0001" stop-color="#FE3131" stop-opacity="0.22"/>
<stop offset="1" stop-opacity="0"/>
</radialGradient>
<radialGradient id="paint7_diamond_6_150" cx="0" cy="0" r="1" gradientUnits="userSpaceOnUse" gradientTransform="translate(939.239 676.052) rotate(107.913) scale(559.803 639.873)">
<stop/>
<stop offset="0.0001" stop-color="#FE3131" stop-opacity="0.22"/>
<stop offset="1" stop-opacity="0"/>
</radialGradient>
<radialGradient id="paint8_diamond_6_150" cx="0" cy="0" r="1" gradientUnits="userSpaceOnUse" gradientTransform="translate(1010.53 674.187) rotate(109.389) scale(563.547 669.917)">
<stop/>
<stop offset="0.0001" stop-color="#FE3131" stop-opacity="0.22"/>
<stop offset="1" stop-opacity="0"/>
</radialGradient>
<radialGradient id="paint9_diamond_6_150" cx="0" cy="0" r="1" gradientUnits="userSpaceOnUse" gradientTransform="translate(1045.53 677.999) rotate(110.223) scale(567.157 688.073)">
<stop/>
<stop offset="0.0001" stop-color="#FE3131" stop-opacity="0.22"/>
<stop offset="1" stop-opacity="0"/>
</radialGradient>
<radialGradient id="paint10_diamond_6_150" cx="0" cy="0" r="1" gradientUnits="userSpaceOnUse" gradientTransform="translate(1057.7 687.668) rotate(110.533) scale(573.329 700.626)">
<stop/>
<stop offset="0.0001" stop-color="#FE3131" stop-opacity="0.22"/>
<stop offset="1" stop-opacity="0"/>
</radialGradient>
<radialGradient id="paint11_diamond_6_150" cx="0" cy="0" r="1" gradientUnits="userSpaceOnUse" gradientTransform="translate(1062.26 698.758) rotate(110.863) scale(579.811 713.888)">
<stop/>
<stop offset="0.0001" stop-color="#FE3131" stop-opacity="0.22"/>
<stop offset="1" stop-opacity="0"/>
</radialGradient>
<radialGradient id="paint12_diamond_6_150" cx="0" cy="0" r="1" gradientUnits="userSpaceOnUse" gradientTransform="translate(1060.9 712.856) rotate(111.065) scale(587.955 727.206)">
<stop/>
<stop offset="0.0001" stop-color="#FE3131" stop-opacity="0.22"/>
<stop offset="1" stop-opacity="0"/>
</radialGradient>
<radialGradient id="paint13_diamond_6_150" cx="0" cy="0" r="1" gradientUnits="userSpaceOnUse" gradientTransform="translate(1075.58 727.006) rotate(111.859) scale(599.005 753.638)">
<stop/>
<stop offset="0.0001" stop-color="#FE3131" stop-opacity="0.22"/>
<stop offset="1" stop-opacity="0"/>
</radialGradient>
<radialGradient id="paint14_diamond_6_150" cx="0" cy="0" r="1" gradientUnits="userSpaceOnUse" gradientTransform="translate(1099.31 741.251) rotate(112.947) scale(610.304 784.705)">
<stop/>
<stop offset="0.0001" stop-color="#FE3131" stop-opacity="0.22"/>
<stop offset="1" stop-opacity="0"/>
</radialGradient>
<radialGradient id="paint15_diamond_6_150" cx="0" cy="0" r="1" gradientUnits="userSpaceOnUse" gradientTransform="translate(1127.15 756.54) rotate(113.852) scale(620.164 810.767)">
<stop/>
<stop offset="0.0001" stop-color="#FE3131" stop-opacity="0.22"/>
<stop offset="1" stop-opacity="0"/>
</radialGradient>
<radialGradient id="paint16_diamond_6_150" cx="0" cy="0" r="1" gradientUnits="userSpaceOnUse" gradientTransform="translate(1157.02 773.084) rotate(114.676) scale(627.374 831.798)">
<stop/>
<stop offset="0.0001" stop-color="#FE3131" stop-opacity="0.22"/>
<stop offset="1" stop-opacity="0"/>
</radialGradient>
<radialGradient id="paint17_diamond_6_150" cx="0" cy="0" r="1" gradientUnits="userSpaceOnUse" gradientTransform="translate(1190.9 788.146) rotate(115.346) scale(629.914 844.132)">
<stop/>
<stop offset="0.0001" stop-color="#FE3131" stop-opacity="0.22"/>
<stop offset="1" stop-opacity="0"/>
</radialGradient>
<radialGradient id="paint18_diamond_6_150" cx="0" cy="0" r="1" gradientUnits="userSpaceOnUse" gradientTransform="translate(1225.9 805.005) rotate(115.81) scale(629.845 849.987)">
<stop/>
<stop offset="0.0001" stop-color="#FE3131" stop-opacity="0.22"/>
<stop offset="1" stop-opacity="0"/>
</radialGradient>
<radialGradient id="paint19_diamond_6_150" cx="0" cy="0" r="1" gradientUnits="userSpaceOnUse" gradientTransform="translate(1263.02 822.027) rotate(116.057) scale(627.641 850.063)">
<stop/>
<stop offset="0.0001" stop-color="#FE3131" stop-opacity="0.22"/>
<stop offset="1" stop-opacity="0"/>
</radialGradient>
<radialGradient id="paint20_diamond_6_150" cx="0" cy="0" r="1" gradientUnits="userSpaceOnUse" gradientTransform="translate(1298.81 838.396) rotate(116.294) scale(624.753 849.022)">
<stop/>
<stop offset="0.0001" stop-color="#FE3131" stop-opacity="0.22"/>
<stop offset="1" stop-opacity="0"/>
</radialGradient>
<radialGradient id="paint21_diamond_6_150" cx="0" cy="0" r="1" gradientUnits="userSpaceOnUse" gradientTransform="translate(1333.74 854.81) rotate(116.497) scale(621.917 847.569)">
<stop/>
<stop offset="0.0001" stop-color="#FE3131" stop-opacity="0.22"/>
<stop offset="1" stop-opacity="0"/>
</radialGradient>
<radialGradient id="paint22_diamond_6_150" cx="0" cy="0" r="1" gradientUnits="userSpaceOnUse" gradientTransform="translate(1368.43 871.258) rotate(116.693) scale(619.022 845.885)">
<stop/>
<stop offset="0.0001" stop-color="#FE3131" stop-opacity="0.22"/>
<stop offset="1" stop-opacity="0"/>
</radialGradient>
</defs>
</svg>
