<svg width="67" height="67" viewBox="0 0 67 67" fill="none" xmlns="http://www.w3.org/2000/svg">
<path d="M33.5 61.4167C48.918 61.4167 61.4167 48.918 61.4167 33.5C61.4167 18.0821 48.918 5.58337 33.5 5.58337C18.0821 5.58337 5.58337 18.0821 5.58337 33.5C5.58337 48.918 18.0821 61.4167 33.5 61.4167Z" stroke="white" stroke-width="5" stroke-linecap="round" stroke-linejoin="round"/>
<path d="M53.0417 53.0417L48.8542 48.8542M13.9584 13.9584L18.1459 18.1459" stroke="white" stroke-width="5" stroke-linecap="round" stroke-linejoin="round"/>
<path d="M19.5417 43.2709L20.738 39.0834M20.738 39.0834L25.1251 23.7292L29.5122 39.0834M20.738 39.0834H29.5122M30.7084 43.2709L29.5122 39.0834M48.8542 33.5001C48.8542 40.4792 43.8544 43.2709 37.6876 43.2709V23.7292C43.8544 23.7292 48.8542 26.5209 48.8542 33.5001Z" stroke="white" stroke-width="5" stroke-linecap="round" stroke-linejoin="round"/>
</svg>
