<svg width="986" height="1814" viewBox="0 0 986 1814" fill="none" xmlns="http://www.w3.org/2000/svg">
<path d="M1069.2 1490.54C1088.57 1463.07 1107.33 1435.39 1125.66 1407.82C1143.93 1380.14 1161.71 1352.47 1178.88 1324.6C1262.39 1185.87 1358.91 1051.33 1460.39 911.71C1559.2 775.155 1634.63 615.193 1559.86 539.031C1512.36 489.18 1405.09 521.035 1308.05 591.956C1291.15 604.5 1281.07 594.304 1282.9 582.949C1287.92 543.847 1324.46 501.305 1367.18 466.056C1405.23 433.789 1441.23 409.94 1482.73 387.93C1567.68 343.892 1651.91 286.632 1727.64 266.302C1708.42 277.817 1690 288.171 1669.5 298.754C1584.19 341.745 1508.57 376.353 1427.07 430.648C1375.9 464.085 1312.27 513.911 1308.09 561.299C1306.84 571.495 1319.77 570.431 1332.15 564.122C1412.89 519.178 1492.52 493.667 1541.36 518.939C1641.6 571.349 1583.47 740.39 1487.7 880.067C1394.42 1015.52 1297.97 1148.06 1214.86 1283.64C1200.24 1307.39 1185.44 1330.84 1170.39 1354.28C1140.24 1401.07 1108.62 1447.87 1076.09 1494.36L1069.2 1490.54Z" fill="url(#paint0_diamond_6_372)"/>
<path d="M1050.85 1480.53C1070.65 1453.36 1089.46 1426.21 1107.55 1399.06C1125.63 1371.91 1142.97 1344.77 1159.34 1317.64C1231.82 1198.65 1313.81 1085.87 1408 964.792C1525.75 813.679 1630.17 633.922 1546.6 548.497C1526.92 530.201 1497.5 525.328 1460.07 530.922C1405.53 539.719 1347.9 582.455 1305.74 636.177C1296 649.6 1280.01 662.031 1265.35 664.371C1252.23 665.542 1245.48 659.41 1240.78 651.264C1225.21 619.596 1247.49 568.997 1285.6 522.346C1313.43 488.178 1346.31 458.059 1384.1 433.038C1477.39 368.451 1577.93 302.747 1668.7 273.039C1538.99 346.256 1384.98 404.264 1284.44 535.69C1253.98 575.971 1230.84 632.773 1271.17 638.595C1279.12 639.572 1290.87 634.319 1297.99 627.01C1370.67 552.323 1474.7 499.921 1526.54 531.254C1690.2 629.064 1443.22 926.356 1289.66 1133.23C1252.12 1183.87 1220.54 1232.45 1188.64 1283.46C1174.15 1306.58 1160.4 1328.86 1146.35 1351.04C1118.3 1395.5 1088.48 1439.87 1057.19 1484.25L1050.85 1480.53Z" fill="url(#paint1_diamond_6_372)"/>
<path d="M1034.04 1469.77C1053.34 1443.87 1071.16 1417.98 1087.88 1392.31C1104.54 1366.54 1120.22 1340.78 1136.46 1314.28C1205.56 1196.69 1296.29 1084.98 1391.06 967.888C1508.77 821.815 1619.49 635.911 1531.69 557.664C1501.94 529.172 1422.36 535.154 1367.29 599.389C1342.64 628.383 1340.19 661.267 1304.01 690.367C1276.91 712.139 1248.41 713.557 1232.37 705.411C1183.24 679.197 1204.76 597.843 1262.1 526.447C1289.93 492.28 1320.76 464.174 1356.67 437.176C1436.77 375.755 1522.24 316.384 1603.26 286.871C1486.98 351.775 1359.05 418.676 1267.83 529.544C1234.49 569.957 1215.37 610.238 1215.78 645.091C1216.86 673.847 1229.01 698.303 1264.89 693.877C1286.86 690.525 1313.6 667.706 1323.22 648.09C1346.84 598.528 1399.79 550.691 1452.7 539.914C1493.39 532.295 1525.07 538.092 1542.26 560.611C1646.86 690.987 1424.17 932.622 1273.7 1123.09C1215.12 1196.6 1172 1267.86 1129.17 1340.07C1115.67 1362.35 1101.43 1384.63 1086.64 1406.81C1071.86 1429 1056.15 1451.29 1039.89 1473.49L1034.04 1469.77Z" fill="url(#paint2_diamond_6_372)"/>
<path d="M1018.39 1459.31C1031.12 1441.24 1043.42 1423.27 1055.35 1405.11C1067.28 1386.94 1078.54 1368.88 1089.43 1350.62C1130.7 1281.68 1170.29 1214.54 1227.54 1145.14C1369.37 974.282 1554.2 791.684 1549.81 625.319C1548.57 587.325 1526.18 563.909 1488.8 558.059C1467.69 555.209 1441.37 559.546 1413.64 582.374C1379.07 610.409 1389.76 634.038 1377.81 660.71C1358.69 700.992 1308.33 733.267 1268.98 741.924C1196.36 756.976 1171.97 704.917 1183.91 646.224C1210.16 511.598 1398.05 375.272 1536.91 305.96C1392.53 389.601 1191.95 526.149 1190.29 665.798C1189.35 714.101 1219.57 757.917 1292.87 722.281C1346.48 696.065 1366.18 646.539 1382.8 605.336C1393.27 579.517 1430.14 560.594 1456.79 554.26C1512.91 541.354 1541.95 567.753 1550.67 604.628C1571.82 695.878 1498.06 820.758 1405.69 936.886C1291.19 1080.83 1169.31 1214.55 1093.95 1358.87C1083.25 1376.19 1072.06 1393.51 1060.38 1410.83C1048.7 1428.16 1036.53 1445.49 1023.93 1462.93L1018.39 1459.31Z" fill="url(#paint3_diamond_6_372)"/>
<path d="M1002.18 1450.43C1014.22 1433.73 1025.53 1417.03 1036.1 1400.35C1046.67 1383.66 1056.5 1366.99 1066.28 1350.2C1132.89 1223.18 1242.82 1102.9 1349.4 980.66C1443.41 872.916 1528.68 756.014 1536.32 653.16C1539.61 608.93 1523.87 568.025 1467.72 577.886C1452.56 581.071 1430.49 595.762 1426.74 610.18C1419.24 639.016 1433.53 664.606 1403.53 694.594C1341.76 755.742 1246.58 797.879 1201.75 770.575C1142.89 735.212 1138.94 646.849 1213.42 549.678C1280.66 461.709 1375.74 382.721 1470.13 332.402C1376.8 393.945 1280.33 463.707 1214.79 553.76C1139.81 658.179 1148.88 776.312 1257.01 763.872C1293.87 759.438 1340.84 736.222 1377.24 701.976C1407.15 673.983 1415.28 644.092 1412 620.5C1410.02 602.985 1433.56 582.296 1454.77 573.806C1469.22 568.528 1483.94 566.293 1493.89 570.296C1602.1 609.194 1513.88 785.862 1411.61 912.16C1290.26 1061.31 1151.62 1199.28 1074.61 1350.55C1064.58 1367.75 1054.44 1384.75 1043.56 1401.75C1032.49 1418.86 1020.88 1435.87 1008.16 1453.1L1002.18 1450.43Z" fill="url(#paint4_diamond_6_372)"/>
<path d="M984.715 1444.08C997.62 1426.74 1009.12 1409.52 1019.63 1392.31C1096.83 1227.71 1249.79 1078.27 1384.4 919.654C1469.96 818.182 1542.26 699.3 1515.48 620.491C1512.38 611.28 1505.02 606.204 1495.18 603.25C1484.91 601.245 1464.99 607.728 1461.15 618.997C1435.28 693.251 1402.78 775.652 1319.1 840.255C1337.26 817.516 1362.87 770.98 1324.3 787.818C1175.35 855.018 1109.56 768.38 1142.85 654.056C1174.85 546.884 1295.45 432.7 1408.98 359.632C1300.41 438.744 1179.47 543.796 1151.96 649.773C1132.5 719.769 1150.21 778.189 1207.14 796.142C1246.91 809.109 1305.14 779.806 1358.11 762.73C1368.56 759.484 1380.17 762.526 1383.81 759.448C1436.14 712.666 1432.24 664.513 1447.31 618.074C1450.83 608.803 1463.52 595.353 1475.92 592.089C1489.31 588.816 1500.02 589.872 1506.95 595.897C1537.72 627.425 1531.57 682.915 1504.16 743.851C1437.85 891.445 1297.98 1022.18 1178.81 1161.03C1112.66 1237.65 1071.63 1315.09 1026.73 1392.67C1015.97 1410.3 1004.1 1428.15 990.947 1445.91L984.715 1444.08Z" fill="url(#paint5_diamond_6_372)"/>
<path d="M965.016 1441.11C977.8 1423.56 989.174 1406.14 999.259 1389.04C1076.17 1222.66 1235.13 1074.21 1371.87 916.726C1447.06 829.733 1513.85 729.484 1501.76 653.479C1500.65 647.295 1496.34 643.24 1487.5 645.421C1483.93 646.504 1478.69 650.647 1476.82 653.814C1375.02 855.174 1105.04 1049.89 919.973 1047.72C925.219 1043.57 930.418 1044.47 934.778 1043.48C1049.63 1019.64 1188.53 959.78 1281.71 848.894C1294.66 833.342 1272.96 834.592 1261.71 837.74C1119.67 880.204 1094.07 767.578 1127.31 658.294C1156.62 563.535 1253.79 458.702 1353.93 388.907C1256.53 466.866 1155.86 566.482 1131.56 662.245C1104.11 768.326 1147.25 859.267 1278.62 825.196C1290.04 821.941 1305.95 823.894 1299.5 833.192C1249.88 910.711 1150.51 963.07 1070.75 1008.01C1236.64 950.938 1405.96 796.095 1473.63 641.455C1476.26 635.341 1484.71 629.069 1490.53 628.91C1500.71 627.766 1506.66 633.801 1508.12 641.032C1517.27 685.042 1497.34 739.715 1465.27 795.549C1394.49 915.362 1281.9 1025.48 1177.74 1137.41C1102.43 1218.21 1055.88 1301.9 1009.89 1385.68C999.057 1404.05 986.691 1422.75 972.3 1441.78L965.016 1441.11Z" fill="url(#paint6_diamond_6_372)"/>
<path d="M942.339 1441.95C955.063 1424.3 966.252 1406.98 976.031 1389.77C1041.91 1243.55 1177.91 1106.55 1307.82 971.804C1382.38 893.951 1462.09 800.722 1467.29 722.668C1468.51 717.512 1455.87 725.923 1451.9 730.999C1337.5 863.603 1192.63 980.11 1042.26 1035.04C915.063 1081.46 818.618 1062.93 711.966 1068.11C737.336 1041.21 770.462 1036.7 793.938 1035.54C871.028 1033.78 944.898 1042.24 1039.54 1004.3C1103 978.941 1188.77 940.145 1231.99 878.014C1176.68 876.529 1112.81 880.267 1097.57 832.113C1062.05 718.529 1141.7 533.856 1313.44 408.807C1144.45 542.02 1062.09 721.573 1114.01 829.862C1134.94 871.664 1198.13 862.893 1247.03 868.636C1227.25 906.929 1174.84 936.074 1135.96 960.054C1001.43 1044.55 894.303 1034.41 783.683 1044.67C777.065 1044.73 768.162 1046.8 759.71 1053.08C852.559 1069.65 961.298 1070.64 1091.12 1011.7C1228.21 948.705 1359.5 843.663 1449.19 719.475C1455.65 710.177 1462.73 699.823 1473.5 694.579C1489.25 687.295 1485.27 706.859 1482.05 717.073C1467.44 778.835 1424.55 844.953 1370.11 908.132C1287.55 1004.54 1198.52 1090.61 1115.6 1185.97C1056.89 1253.28 1022.31 1321.42 983.633 1389.28C973.794 1406.38 962.974 1423.49 950.804 1440.82L942.339 1441.95Z" fill="url(#paint7_diamond_6_372)"/>
<path d="M916.192 1447.02C931.696 1426.93 944.439 1407.18 955.279 1387.97C1015.5 1236.65 1165.7 1101.62 1297.84 964.757C1342.57 918.045 1389.67 867.322 1403.73 817.848C1405.57 811.637 1392.31 821.103 1387.98 825.132C1231.16 960.227 1056.78 1060.63 903.181 1074.54C825.859 1081.44 754.851 1061.73 658.485 1120.15C652.881 1123.25 643.714 1127.43 643.681 1124.38C647.145 1094.53 684.126 1051.04 722.108 1038.3C795.13 1012.85 845.294 1034.02 909.678 1028.18C988.603 1020.21 1080.2 993.64 1169.1 926.993C1182.18 917.633 1187.89 903.198 1174.95 904.262C1046.37 915.84 1044.33 798.798 1083.45 684.315C1115.11 593.629 1190.53 501.49 1282.5 421.376C1284.1 420.312 1283.22 423.469 1284.82 422.405C1206.41 493.994 1135.15 572.867 1101.4 657.378C1050.85 783.199 1050.12 914.651 1196.68 893.668C1208.82 892.506 1195.87 908.058 1187.72 915.273C1154.3 944.452 1120.49 963.137 1083.61 982.06C954.044 1046.98 864.183 1025.34 760.943 1032.59C739.242 1033.84 709.368 1044.41 687.907 1066.13C676.467 1077.47 652.873 1104.46 662.398 1101.32C769.931 1067.37 849.625 1082.06 951.308 1064.43C1108.66 1036.11 1275.99 923.488 1416.98 789.589C1427.3 780.15 1433.13 786.396 1428.01 796.732C1382.1 896.893 1285.76 986.076 1196.53 1074.35C1095.24 1175.03 1013.13 1281.61 961.805 1391.16C951.716 1408.69 940.217 1426.32 926.754 1444.4L916.192 1447.02Z" fill="url(#paint8_diamond_6_372)"/>
<path d="M886.398 1455.59C907.813 1425.68 926.907 1395.16 943.119 1364.78C975.51 1314.19 991.971 1263.75 1035.95 1211.9C1123.11 1109.36 1240.78 1025.97 1309.71 920.448C1313.94 913.27 1303.14 915.469 1297.54 918.565C1108.06 1047.87 930.101 1091.72 772.682 1094.32C731.865 1095.75 684.762 1120.85 639.25 1159.38C627.512 1169.78 611.714 1168.88 612.177 1158.58C614.383 1125.7 644.309 1083.22 683.066 1053.05C715.954 1028.07 746.934 1023.69 773.476 1022.29C824.116 1018.68 868.297 1024.36 918.753 1020.85C971.791 1016.27 1027.19 1001.27 1089.88 967.724C1106.25 959.384 1138.85 939.451 1130.5 934.383C1085.72 907.184 1028.79 889.231 1031.01 821.388C1036.09 697.036 1127.54 542.176 1268.29 421.507C1122.01 556.505 1029.89 718.72 1043.84 844.892C1049.91 897.225 1097.52 910.12 1148.09 920.888C1157.38 922.902 1142.11 937.426 1133.66 943.698C1078.26 984.314 1023.25 1003.4 969.717 1015.24C908.26 1029.14 860.515 1024.54 809.809 1022.06C771.84 1020.31 727.162 1021.88 679.873 1060.32C647.344 1086.34 620.139 1119.46 618.961 1147.29C619.087 1153.48 625.982 1156.46 632.831 1151.25C679.417 1115.86 725.228 1097.91 767.993 1091.32C846.824 1080.2 915.462 1084.71 999.738 1061.26C1110 1030.32 1219.12 964.538 1328.96 886.359C1336.79 881.143 1352.22 875.856 1346.12 886.201C1321.13 931.681 1276.92 974.189 1236.7 1016.76C1158.18 1099.69 1059.5 1176.72 1006.76 1267.6C989.44 1298.63 972.681 1328.49 954.749 1359.31C937.918 1390.34 918.821 1421.27 897.703 1452.12L886.398 1455.59Z" fill="url(#paint9_diamond_6_372)"/>
<path d="M852.595 1467.03C872.826 1439.33 891.345 1411.24 906.614 1383.48C925.221 1352.55 938.058 1322.72 953.479 1291.82C991.573 1214.41 1076.29 1149.9 1142.43 1081.36C1166.11 1057.52 1196.98 1032.46 1201.36 1008.9C1204.49 995.539 1178.03 1008.17 1164.86 1014.38C1032.94 1075.23 917.012 1095.93 807.479 1101.25C753.785 1103.84 693.719 1139.36 635.475 1183.15C611.722 1200.9 594.658 1184.57 600.864 1162.89C609.575 1128.9 627.095 1089.68 666.647 1059.6C756.255 989.906 824.462 1020.98 894.034 1017.3C925.292 1015.96 956.551 1014.62 991.949 1002.96C1022.37 993.333 1058.84 984.808 1086.08 954.74C1088.3 952.62 1088.27 949.576 1087.29 949.585C1001.44 911.425 984.793 810.895 1046.24 686.023C1093.16 588.897 1170.48 496.635 1262.2 410.54C1262.82 409.484 1262.92 412.633 1262.23 413.584C1122.18 544.43 1021.62 698.429 1016.55 827.925C1014.45 889.573 1051.21 922.095 1103.43 939.987C1112.1 943.057 1095.06 957.492 1085.62 963.773C1037.31 994.035 992.974 1004.73 947.985 1013.44C882.931 1025.38 833.641 1015.54 775.046 1018.18C744.145 1020.57 707.998 1027.1 672.183 1057.24C637.348 1087.38 610.176 1123.54 603.751 1155.51C601.87 1166.76 603.99 1175.98 611.416 1181.16C618.782 1186.24 634.454 1180.95 644.589 1171.62C690.333 1127.94 743.133 1102.89 786.533 1100.39C924.444 1093.87 1067.3 1062.63 1235.94 973.622C1241.55 970.525 1247.73 971.413 1244.91 977.634C1236.9 996.185 1218.42 1012.84 1202.89 1029.46C1119.75 1115.48 1015.27 1195.71 965.866 1290.65C950.147 1320.62 936.145 1350.56 917.413 1381.71C902.827 1408.51 885.176 1435.55 865.563 1462.6L852.595 1467.03Z" fill="url(#paint10_diamond_6_372)"/>
<path d="M814.975 1480.39C832.218 1457.77 847.07 1435.27 859.407 1413.11C912.846 1293.14 1007.44 1181.29 1115.9 1068.27C1120.78 1063.08 1112.8 1059.06 1105.85 1061.12C994.366 1092.07 894.377 1105.38 791.09 1117.67C746.987 1123.22 700.043 1157.56 653.782 1190.96C627.446 1209.78 600.373 1208.98 592.868 1192.57C578.991 1162.98 610.567 1114.4 644.263 1075.03C676.091 1038.83 720.173 1015.75 757.036 1011.32C849.52 1001.22 922.383 1032.26 1035.14 976.627C1047.95 969.37 1055.3 956.913 1047.93 951.837C893.859 865.067 1045.24 583.144 1262.84 394.995C1262.84 394.995 1259.55 399.12 1260.64 400.16C1113.42 538.211 987.203 710.084 994.112 849.655C997.126 900.966 1024.3 930.532 1064.73 950.632C1068.95 951.538 1067.47 958.796 1061.6 963.994C1003.98 1006.73 951.535 1007.21 903.153 1011.75C844.59 1017.44 800.607 1003.57 736.209 1017.49C665.909 1033.57 609.136 1110.21 595.027 1164.73C592.523 1177.03 591.437 1188.38 599.345 1194.4C608.765 1202.61 629.16 1203.36 644.786 1189.88C728.042 1118.15 806.655 1104.09 876.148 1102.4C956.118 1100.51 1048.01 1068.9 1140.11 1040.23C1157.5 1034.92 1154.11 1050.39 1142.05 1062.78C1074.25 1132.28 994.075 1195.69 947.045 1272.14C918.675 1318.6 897.902 1364.98 871.794 1411.94C860.143 1432.73 845.978 1453.86 829.052 1475.33L814.975 1480.39Z" fill="url(#paint11_diamond_6_372)"/>
<path d="M773.366 1494.53C792.517 1470.94 813.885 1446.07 824.093 1422.36C861.497 1320.28 939.779 1216.88 1035.47 1119.3C1051.98 1102.67 1028.29 1100.89 1014.54 1103.12C951.092 1113.99 890.661 1122.84 833.046 1125.47C783.029 1128.03 727.116 1158.36 671.065 1196.99C642.952 1215.73 609.595 1225.38 596.188 1211.12C575.494 1189.79 588.967 1144.41 613.787 1104.19C632.446 1074.2 661.909 1042.01 696.559 1025.21C787.837 980.166 841.319 1013.48 917.567 1003.43C945.229 1000.13 993.583 998.532 1016.4 963.361C878.882 854.916 1041.39 568.796 1265.54 374.498C1267.14 373.433 1262.91 380.611 1262.91 380.611C1044.02 575.911 885.513 859.999 1027.91 963.255C1031.51 965.216 1023.78 973.582 1017.55 977.734C967.505 1002.87 927.993 1002.29 886.289 1006.87C817.248 1012.76 751.889 978.502 663.652 1052.28C609.004 1098.04 580.184 1159.93 590.359 1198.89C594.598 1217.33 623.009 1219.17 651.041 1202.43C705.616 1171.06 757.415 1128.48 808.678 1123.81C882.7 1115.88 951.444 1109.05 1031.3 1092.88C1046.47 1089.7 1069.67 1084.24 1066.28 1099.7C1064.04 1109.9 1054.08 1120.39 1043.7 1129.73C967.342 1204.45 888.432 1283.28 864.679 1366.76C860.308 1382.23 848.994 1399.76 840.082 1415.91C826.191 1440.5 808.559 1465.44 788.789 1489.66L773.366 1494.53Z" fill="url(#paint12_diamond_6_372)"/>
<path d="M728.269 1508.17C745.19 1487.13 762.056 1465.55 775.98 1444.01C790.09 1422.35 801.197 1400.62 807.4 1379.36C827.246 1307.47 890.311 1232.77 957.658 1165.48C969.72 1153.08 968.487 1140.71 958.274 1138.81C880.044 1131.34 789.926 1137.42 685.466 1203.16C628.699 1239.69 572.343 1232.13 578.124 1183.68C583.344 1136.38 620.337 1078.4 677.476 1034.83C722.459 1000.51 764.879 998.016 802.755 996.617C857.429 994.013 917.463 1021.18 983.503 969.124C988.749 964.981 986.007 956.817 982.675 952.753C862.887 822.518 1058.5 541.237 1266.53 353.176C1265.65 356.334 1267.28 358.314 1265.06 360.434C1056.07 551.548 867.405 830.77 992.765 954.865C996.719 957.873 999.164 965.095 991.009 972.309C960.798 999.36 927.546 997.671 900.506 999.915C837.645 1006.69 788.276 985.621 715.287 1014.12C638.297 1044.64 581.603 1132.51 579.106 1190.07C576.344 1230.1 624.852 1231.75 674.538 1205.57C721.641 1180.46 765.471 1144.99 808.951 1140.5C872.17 1134.77 948.166 1112.34 993.051 1134.6C995.667 1136.57 993.21 1143.84 987.699 1150.08C933.131 1207.07 870.423 1263.19 842.431 1328.22C826.155 1365.33 817.148 1398.38 793.95 1435.44C780.074 1458.35 762.888 1481.5 744.423 1503.72L728.269 1508.17Z" fill="url(#paint13_diamond_6_372)"/>
<path d="M681.717 1520.15C698.993 1500.57 715.967 1480.47 729.51 1460.39C743.114 1440.42 753.531 1420.49 757.568 1401.45C770.538 1337.7 821.819 1265.21 880.447 1199.89C887.561 1192.58 893.039 1183.29 890.39 1178.28C877.262 1153.83 834.437 1160.32 797.078 1172C747.856 1187.89 697.454 1211.97 647.424 1229.02C623.094 1236.38 599.851 1238.8 588.702 1225.47C552.84 1181.7 595.802 1081.57 682.251 1022.19C724.246 992.93 762.447 989.534 797.381 988.162C845.438 985.619 885.838 1002.68 943.122 976.425C955.853 971.163 956.396 958.875 953.329 952.709C864.765 798.458 1058.2 527.486 1265.13 333.242C1265.84 335.335 1266.23 339.426 1264.63 340.49C1048.21 540.912 864.753 812.946 964.743 963.942C967.094 968.015 959.298 976.276 952.416 978.439C880.374 1003.88 828.282 985.777 763.818 993.616C729.896 998.023 691.948 1013.81 658.451 1044.98C605.174 1094.82 570.472 1156.76 576.739 1200.91C587.556 1269.57 702.012 1202.8 775.888 1171.14C826.945 1149.05 870.378 1149.59 909.096 1156.48C919.667 1159.43 924.464 1170.72 911.779 1184.17C849.772 1250.46 794.834 1320.89 777.843 1388.77C772.995 1409.39 762.686 1430.8 748.947 1452.23C735.207 1473.67 717.791 1495.15 698.912 1515.79L681.717 1520.15Z" fill="url(#paint14_diamond_6_372)"/>
<path d="M634.449 1530.04C665.145 1497 686.041 1463.63 700.807 1430.74C708.312 1414.29 714.162 1397.96 719.337 1381.75C726.388 1335.07 759.925 1286.46 800.702 1236.74C815.579 1218.13 815.996 1199.65 799.463 1198.75C753.598 1196.13 694.155 1230.59 641.68 1240.41C599.214 1247.94 566.863 1235.01 567.882 1197.94C567.219 1150.7 602.637 1090.85 653.953 1041.03C737.05 960.056 814.862 986.006 886.301 979.153C895.502 978.019 906.305 975.819 917.156 968.58C925.608 962.308 927.522 954.101 926.476 948.022C912.512 875.184 911.094 797.191 959.786 700.153C1025.73 566.001 1142.4 439.465 1256.95 316.099C1257.67 318.192 1259.66 321.218 1257.44 323.338C1060.83 521.373 868.918 780.046 934.848 943.745C936.935 949.92 938.697 958.093 930.278 967.409C915.99 981.924 898.211 983.138 885.089 984.309C831.461 992.992 793.083 976.023 734.772 994.093C693.054 1006.76 649.847 1041.18 619.45 1081.56C581.614 1131.25 557.404 1184.92 575.561 1215.51C608.296 1272.64 726.282 1201.73 808.724 1184.49C833.087 1180.17 856.02 1191.3 832.908 1219.12C784.071 1279.21 739.81 1341.24 730.153 1397.92C726.281 1418.95 715.908 1440.68 701.799 1462.33C687.69 1483.98 669.965 1505.77 651.387 1526.94L634.449 1530.04Z" fill="url(#paint15_diamond_6_372)"/>
<path d="M587.7 1536.98C618.054 1501.21 641.609 1465.19 657.129 1430.19C664.952 1412.59 670.749 1395.32 674.461 1378.27C679.426 1358.28 677.445 1340.77 681.426 1321.2C684.817 1305.74 706.047 1289.16 714.247 1270.51C720.314 1257.12 719.877 1244.84 707.563 1244.85C667.368 1245.22 619.828 1258.04 589.446 1244.25C577.484 1239.32 568.305 1231.54 563.814 1220.34C559.139 1209.26 558.906 1194.77 564.53 1176.35C583.09 1117.59 625.496 1044.23 697.035 1000.43C762.969 959.713 810.874 973.55 862.309 970.031C879.107 968.826 900.993 954.241 900.973 936.708C901.284 863.844 900.507 795.924 941.198 709.354C1006.3 566.915 1129.99 436.325 1240.71 303.755C1243.03 304.784 1245.29 305.708 1247.42 306.843C1054.16 513.245 863.434 763.719 910.392 944.916C912.903 958.226 889.382 970.831 875.464 971.904C821.181 978.599 778.556 963.664 714.065 994.074C644.408 1026.63 592.052 1095.99 573.135 1153.69C562.789 1185.71 560.755 1213.34 576.513 1231.67C606.348 1271.4 694.917 1221.23 744.504 1232.01C777.524 1238.85 716.028 1289.81 703.986 1319.73C696.004 1341.33 697.004 1358.85 691.051 1379.7C686.608 1396.33 680.69 1413.39 672.871 1430.57C657.295 1465.05 634.972 1500.21 604.51 1534.51L587.7 1536.98Z" fill="url(#paint16_diamond_6_372)"/>
<path d="M542.576 1540.33C589.301 1483.42 634.807 1419.27 624.413 1370.97C622.393 1357.65 617.476 1346.15 614.652 1333.58C611.828 1321 611.098 1307.36 617.265 1289.88C619.815 1285.76 616.158 1283.69 613.9 1282.77C597.227 1270.53 577.477 1259.8 564.756 1244.17C551.851 1228.64 546.096 1208.43 557.29 1177.46C564.533 1156.29 574.223 1135.52 585.745 1115.36C612.766 1069.13 650.959 1020.48 703.46 988.083C756.757 955.78 799.242 959.378 845.63 951.811C868.575 948.45 878.425 923.687 879.293 909.401C879.77 871.391 883.73 834.294 895.693 793.133C919.836 713.75 962.196 632.204 1021.24 548.405C1082.51 462.485 1151.24 384.79 1219.57 297.861C1220.19 296.805 1223.16 299.822 1226.54 298.846C1143.47 410.584 1040.34 517.467 972.192 631.167C909.882 736.624 885.148 833.336 885.215 924.78C885.063 941.159 865.609 957.822 848.188 960.082C796.163 967.701 747.669 957.964 686.107 1002.84C635.957 1039.31 600.969 1085.83 578.32 1129.81C569.77 1146.59 563.49 1163.02 560.28 1178.8C556.825 1194.58 556.439 1209.7 559.432 1223.85C563.482 1242.81 577.555 1251.4 594.901 1257.12C612.51 1267.56 651.863 1258.9 652.91 1284.61C653.069 1293.85 640.086 1306.36 640.245 1315.6C640.809 1334.07 644.035 1349.47 642.448 1368.49C641.183 1385.93 637.399 1404.13 631.035 1422.98C618.188 1460.47 594.537 1500.17 558.571 1539.87L542.576 1540.33Z" fill="url(#paint17_diamond_6_372)"/>
<path d="M501.284 1540.08C532.778 1500.32 569.495 1458.93 577.814 1420.85C589.029 1374.55 564.208 1349.05 551.84 1315.26C535.128 1274.36 524.204 1230.26 548.368 1168.41C557.025 1146.7 567.82 1125.71 580.571 1105.12C627.855 1014.61 731.599 946.773 823.863 927.34C834.309 924.094 844.736 909.719 847.457 900.351C881.741 771.529 928.4 642.804 1036.32 501.966C1090.9 430.491 1140.14 366.415 1190.86 295.08C1190.86 295.08 1196.5 295.029 1200.42 294.992C1187.24 315.691 1173.7 335.344 1156.78 355.973C1008.93 535.185 883.849 716.286 863.786 883.822C861.766 903.368 845.849 941.521 821.095 941.749C729.28 945.745 614.222 1031.11 571.994 1124.83C560.147 1146.99 551.366 1168.91 546.943 1189.84C542.521 1210.78 542.273 1230.83 547.183 1249.58C551.297 1261.82 558.318 1271 560.829 1284.31C566.969 1322.26 588.318 1345.58 595.877 1382.57C606.363 1427.62 558.863 1488.74 516.046 1540.47L501.284 1540.08Z" fill="url(#paint18_diamond_6_372)"/>
<path d="M463.138 1537.6C506.607 1488.27 553.187 1427.27 538.375 1386.25C514.091 1322.85 482.865 1261.51 532.179 1163.42C542.789 1142.53 554.926 1122.16 568.164 1101.98C621.615 1013.61 709.885 942.879 810.86 889.454C823.671 882.197 830.626 865.65 834.111 853.334C883.457 692.563 991.102 528.21 1112.32 366.461C1141.55 320.627 1156.61 295.501 1156.61 295.501L1168.13 295.395C1152.53 319.161 1140.54 342.789 1120.95 367.747C981.239 547.829 881.206 717.256 831.037 887.274C829.825 892.429 822.089 900.795 817.107 902.835C740.508 937.452 661.074 980.389 608.507 1052.79C592.079 1073.41 577.053 1094.76 563.86 1116.72C550.667 1138.68 539.246 1161.15 530.087 1184.12C491.656 1278.02 532.811 1325.83 553.06 1388.21C565.229 1430.2 518.974 1489.21 476.301 1538.63L463.138 1537.6Z" fill="url(#paint19_diamond_6_372)"/>
<path d="M426.655 1534.16C473.713 1487.63 508.104 1432.83 502.01 1389.84C494.994 1340.56 472.678 1302.76 485.416 1244.16C495.208 1199.24 517.017 1153.37 546.424 1107.43C561.035 1084.51 577.547 1061.47 595.525 1038.84C647.542 966.34 726.519 913.224 796.342 849.797C806.661 840.358 814.24 829.16 818.207 817.68C881.782 661.922 982.77 515.058 1083.55 364.416C1109.68 320.921 1124.56 295.901 1124.56 295.901L1136.08 295.795C1136.08 295.795 1121.2 320.814 1093.89 365.266C989.745 516.043 885.472 667.032 828.778 820.627C820.532 844.325 803.522 868.209 776.655 884.835C702.004 933.922 633.876 993.028 584.835 1061.72C570.131 1081.49 556.528 1101.46 544.331 1121.73C532.133 1142 521.098 1162.57 511.838 1183.24C473.87 1266.84 492.828 1323.15 513.389 1378.39C528.499 1420.36 491.213 1483.38 439.509 1535.51L426.655 1534.16Z" fill="url(#paint20_diamond_6_372)"/>
<path d="M391.463 1530.39C480.695 1448.51 470.294 1374.59 463.431 1308.93C457.233 1250.83 479.018 1187.84 516.809 1123.14C529.263 1101.61 543.557 1079.85 559.077 1058.08C616.045 973.665 696.326 898.909 774.29 823.124C784.312 812.743 793.791 801.422 799.534 790.03C872.859 646.466 961.831 506.957 1052.49 363.968C1077.76 321.11 1092.64 296.091 1092.64 296.091L1104.16 295.985C1104.16 295.985 1089.47 320.897 1063.82 363.968C978.564 499.664 884.564 633.025 822.929 771.232C810.854 798.115 789.843 824.03 764.738 848.829C698.777 912.115 630.199 973.43 579.186 1043.4C564.301 1062.86 550.272 1082.51 536.849 1102.8C466.258 1209.27 459.708 1300.78 479.945 1377.65C490.696 1420.6 454.358 1480.57 404.132 1531.84L391.463 1530.39Z" fill="url(#paint21_diamond_6_372)"/>
<path d="M356.82 1526.72C405.929 1476.92 444.322 1420.08 437.074 1375.95C424.167 1288.3 461.352 1190.11 522.884 1089.28C538.189 1064.15 555.09 1038.79 573.156 1013.33C624.694 939.569 689.191 869.053 752.707 798.546C795.478 751.852 821.232 703.425 847.468 655.834C902.043 558.742 962.254 461.598 1020.75 364.051C1046.03 321.193 1060.72 296.28 1060.72 296.28L1072.24 296.174C1072.24 296.174 1057.55 321.086 1032.27 363.944C968.295 470.782 899.307 576.195 842.196 682.549C819.43 725.909 795.06 770.334 756.741 812.787C691.264 883.312 625.316 951.742 571.934 1026.15C557.599 1045.7 543.815 1065.36 530.641 1085.21C517.652 1104.97 505.274 1124.92 493.813 1145.19C438.616 1243.33 450.182 1317.14 446.353 1399.27C444.929 1440.34 407.438 1485.93 369.492 1527.75L356.82 1526.72Z" fill="url(#paint22_diamond_6_372)"/>
<defs>
<radialGradient id="paint0_diamond_6_372" cx="0" cy="0" r="1" gradientUnits="userSpaceOnUse" gradientTransform="translate(1407.65 815.952) rotate(-89.2921) scale(493.151 645.615)">
<stop/>
<stop offset="0.0001" stop-color="#FE3131" stop-opacity="0.22"/>
<stop offset="1" stop-opacity="0"/>
</radialGradient>
<radialGradient id="paint1_diamond_6_372" cx="0" cy="0" r="1" gradientUnits="userSpaceOnUse" gradientTransform="translate(1368.86 816.952) rotate(-90.2459) scale(488.761 627.907)">
<stop/>
<stop offset="0.0001" stop-color="#FE3131" stop-opacity="0.22"/>
<stop offset="1" stop-opacity="0"/>
</radialGradient>
<radialGradient id="paint2_diamond_6_372" cx="0" cy="0" r="1" gradientUnits="userSpaceOnUse" gradientTransform="translate(1327.4 821.507) rotate(-91.3718) scale(482.072 604.507)">
<stop/>
<stop offset="0.0001" stop-color="#FE3131" stop-opacity="0.22"/>
<stop offset="1" stop-opacity="0"/>
</radialGradient>
<radialGradient id="paint3_diamond_6_372" cx="0" cy="0" r="1" gradientUnits="userSpaceOnUse" gradientTransform="translate(1286.34 829.613) rotate(-92.4898) scale(472.983 577.776)">
<stop/>
<stop offset="0.0001" stop-color="#FE3131" stop-opacity="0.22"/>
<stop offset="1" stop-opacity="0"/>
</radialGradient>
<radialGradient id="paint4_diamond_6_372" cx="0" cy="0" r="1" gradientUnits="userSpaceOnUse" gradientTransform="translate(1243.51 840.161) rotate(-93.689) scale(463.367 548.961)">
<stop/>
<stop offset="0.0001" stop-color="#FE3131" stop-opacity="0.22"/>
<stop offset="1" stop-opacity="0"/>
</radialGradient>
<radialGradient id="paint5_diamond_6_372" cx="0" cy="0" r="1" gradientUnits="userSpaceOnUse" gradientTransform="translate(1202.82 851.837) rotate(-94.7462) scale(454.141 522.499)">
<stop/>
<stop offset="0.0001" stop-color="#FE3131" stop-opacity="0.22"/>
<stop offset="1" stop-opacity="0"/>
</radialGradient>
<radialGradient id="paint6_diamond_6_372" cx="0" cy="0" r="1" gradientUnits="userSpaceOnUse" gradientTransform="translate(1168.15 863.874) rotate(-95.367) scale(445.23 502.98)">
<stop/>
<stop offset="0.0001" stop-color="#FE3131" stop-opacity="0.22"/>
<stop offset="1" stop-opacity="0"/>
</radialGradient>
<radialGradient id="paint7_diamond_6_372" cx="0" cy="0" r="1" gradientUnits="userSpaceOnUse" gradientTransform="translate(1128.86 878.714) rotate(-95.5228) scale(439.397 494.059)">
<stop/>
<stop offset="0.0001" stop-color="#FE3131" stop-opacity="0.22"/>
<stop offset="1" stop-opacity="0"/>
</radialGradient>
<radialGradient id="paint8_diamond_6_372" cx="0" cy="0" r="1" gradientUnits="userSpaceOnUse" gradientTransform="translate(1073.74 903.029) rotate(-94.094) scale(441.876 517.795)">
<stop/>
<stop offset="0.0001" stop-color="#FE3131" stop-opacity="0.22"/>
<stop offset="1" stop-opacity="0"/>
</radialGradient>
<radialGradient id="paint9_diamond_6_372" cx="0" cy="0" r="1" gradientUnits="userSpaceOnUse" gradientTransform="translate(1045.25 910.975) rotate(-93.2853) scale(444.437 532.151)">
<stop/>
<stop offset="0.0001" stop-color="#FE3131" stop-opacity="0.22"/>
<stop offset="1" stop-opacity="0"/>
</radialGradient>
<radialGradient id="paint10_diamond_6_372" cx="0" cy="0" r="1" gradientUnits="userSpaceOnUse" gradientTransform="translate(1032.64 906.544) rotate(-92.9841) scale(449.171 541.983)">
<stop/>
<stop offset="0.0001" stop-color="#FE3131" stop-opacity="0.22"/>
<stop offset="1" stop-opacity="0"/>
</radialGradient>
<radialGradient id="paint11_diamond_6_372" cx="0" cy="0" r="1" gradientUnits="userSpaceOnUse" gradientTransform="translate(1025.73 898.426) rotate(-92.6647) scale(454.138 552.378)">
<stop/>
<stop offset="0.0001" stop-color="#FE3131" stop-opacity="0.22"/>
<stop offset="1" stop-opacity="0"/>
</radialGradient>
<radialGradient id="paint12_diamond_6_372" cx="0" cy="0" r="1" gradientUnits="userSpaceOnUse" gradientTransform="translate(1022.47 885.801) rotate(-92.4677) scale(460.447 562.768)">
<stop/>
<stop offset="0.0001" stop-color="#FE3131" stop-opacity="0.22"/>
<stop offset="1" stop-opacity="0"/>
</radialGradient>
<radialGradient id="paint13_diamond_6_372" cx="0" cy="0" r="1" gradientUnits="userSpaceOnUse" gradientTransform="translate(1007 878.043) rotate(-91.6958) scale(468.818 583.574)">
<stop/>
<stop offset="0.0001" stop-color="#FE3131" stop-opacity="0.22"/>
<stop offset="1" stop-opacity="0"/>
</radialGradient>
<radialGradient id="paint14_diamond_6_372" cx="0" cy="0" r="1" gradientUnits="userSpaceOnUse" gradientTransform="translate(984.59 873.125) rotate(-90.6375) scale(477.261 608.141)">
<stop/>
<stop offset="0.0001" stop-color="#FE3131" stop-opacity="0.22"/>
<stop offset="1" stop-opacity="0"/>
</radialGradient>
<radialGradient id="paint15_diamond_6_372" cx="0" cy="0" r="1" gradientUnits="userSpaceOnUse" gradientTransform="translate(958.331 868.884) rotate(-89.7547) scale(484.625 628.788)">
<stop/>
<stop offset="0.0001" stop-color="#FE3131" stop-opacity="0.22"/>
<stop offset="1" stop-opacity="0"/>
</radialGradient>
<radialGradient id="paint16_diamond_6_372" cx="0" cy="0" r="1" gradientUnits="userSpaceOnUse" gradientTransform="translate(929.906 864.558) rotate(-88.9507) scale(489.936 645.524)">
<stop/>
<stop offset="0.0001" stop-color="#FE3131" stop-opacity="0.22"/>
<stop offset="1" stop-opacity="0"/>
</radialGradient>
<radialGradient id="paint17_diamond_6_372" cx="0" cy="0" r="1" gradientUnits="userSpaceOnUse" gradientTransform="translate(898.485 863.205) rotate(-88.296) scale(491.651 655.453)">
<stop/>
<stop offset="0.0001" stop-color="#FE3131" stop-opacity="0.22"/>
<stop offset="1" stop-opacity="0"/>
</radialGradient>
<radialGradient id="paint18_diamond_6_372" cx="0" cy="0" r="1" gradientUnits="userSpaceOnUse" gradientTransform="translate(865.279 861.031) rotate(-87.8415) scale(491.409 660.252)">
<stop/>
<stop offset="0.0001" stop-color="#FE3131" stop-opacity="0.22"/>
<stop offset="1" stop-opacity="0"/>
</radialGradient>
<radialGradient id="paint19_diamond_6_372" cx="0" cy="0" r="1" gradientUnits="userSpaceOnUse" gradientTransform="translate(830 859.646) rotate(-87.6005) scale(489.59 660.445)">
<stop/>
<stop offset="0.0001" stop-color="#FE3131" stop-opacity="0.22"/>
<stop offset="1" stop-opacity="0"/>
</radialGradient>
<radialGradient id="paint20_diamond_6_372" cx="0" cy="0" r="1" gradientUnits="userSpaceOnUse" gradientTransform="translate(795.979 858.419) rotate(-87.368) scale(487.242 659.766)">
<stop/>
<stop offset="0.0001" stop-color="#FE3131" stop-opacity="0.22"/>
<stop offset="1" stop-opacity="0"/>
</radialGradient>
<radialGradient id="paint21_diamond_6_372" cx="0" cy="0" r="1" gradientUnits="userSpaceOnUse" gradientTransform="translate(762.594 856.87) rotate(-87.1687) scale(484.948 658.748)">
<stop/>
<stop offset="0.0001" stop-color="#FE3131" stop-opacity="0.22"/>
<stop offset="1" stop-opacity="0"/>
</radialGradient>
<radialGradient id="paint22_diamond_6_372" cx="0" cy="0" r="1" gradientUnits="userSpaceOnUse" gradientTransform="translate(729.381 855.222) rotate(-86.9767) scale(482.611 657.547)">
<stop/>
<stop offset="0.0001" stop-color="#FE3131" stop-opacity="0.22"/>
<stop offset="1" stop-opacity="0"/>
</radialGradient>
</defs>
</svg>
