<svg width="70" height="70" viewBox="0 0 70 70" fill="none" xmlns="http://www.w3.org/2000/svg">
<path d="M23.3334 5.83337H46.6667C51.308 5.83337 55.7592 7.67712 59.0411 10.959C62.323 14.2409 64.1667 18.6921 64.1667 23.3334V46.6667C64.1667 51.308 62.323 55.7592 59.0411 59.0411C55.7592 62.323 51.308 64.1667 46.6667 64.1667H23.3334C18.6921 64.1667 14.2409 62.323 10.959 59.0411C7.67712 55.7592 5.83337 51.308 5.83337 46.6667L5.83337 23.3334C5.83337 18.6921 7.67712 14.2409 10.959 10.959C14.2409 7.67712 18.6921 5.83337 23.3334 5.83337ZM23.3334 11.6667C20.2392 11.6667 17.2717 12.8959 15.0838 15.0838C12.8959 17.2717 11.6667 20.2392 11.6667 23.3334V46.6667C11.6667 49.7609 12.8959 52.7284 15.0838 54.9163C17.2717 57.1042 20.2392 58.3334 23.3334 58.3334H46.6667C49.7609 58.3334 52.7284 57.1042 54.9163 54.9163C57.1042 52.7284 58.3334 49.7609 58.3334 46.6667V23.3334C58.3334 20.2392 57.1042 17.2717 54.9163 15.0838C52.7284 12.8959 49.7609 11.6667 46.6667 11.6667H23.3334ZM40.8334 32.0834H49.5834C50.3569 32.0834 51.0988 32.3907 51.6458 32.9376C52.1927 33.4846 52.5 34.2265 52.5 35C52.5 35.7736 52.1927 36.5155 51.6458 37.0624C51.0988 37.6094 50.3569 37.9167 49.5834 37.9167H40.8334C40.0598 37.9167 39.318 37.6094 38.771 37.0624C38.224 36.5155 37.9167 35.7736 37.9167 35C37.9167 34.2265 38.224 33.4846 38.771 32.9376C39.318 32.3907 40.0598 32.0834 40.8334 32.0834ZM35 43.75H49.5834C50.3569 43.75 51.0988 44.0573 51.6458 44.6043C52.1927 45.1513 52.5 45.8932 52.5 46.6667C52.5 47.4403 52.1927 48.1821 51.6458 48.7291C51.0988 49.2761 50.3569 49.5834 49.5834 49.5834H35C34.2265 49.5834 33.4846 49.2761 32.9376 48.7291C32.3907 48.1821 32.0834 47.4403 32.0834 46.6667C32.0834 45.8932 32.3907 45.1513 32.9376 44.6043C33.4846 44.0573 34.2265 43.75 35 43.75ZM35 20.4167H49.5834C50.3569 20.4167 51.0988 20.724 51.6458 21.271C52.1927 21.818 52.5 22.5598 52.5 23.3334C52.5 24.1069 52.1927 24.8488 51.6458 25.3958C51.0988 25.9427 50.3569 26.25 49.5834 26.25H35C34.2265 26.25 33.4846 25.9427 32.9376 25.3958C32.3907 24.8488 32.0834 24.1069 32.0834 23.3334C32.0834 22.5598 32.3907 21.818 32.9376 21.271C33.4846 20.724 34.2265 20.4167 35 20.4167ZM22.8317 35.7088L29.0209 29.5167C29.2919 29.2459 29.6135 29.0311 29.9675 28.8847C30.3215 28.7382 30.7009 28.6629 31.084 28.663C31.4671 28.6631 31.8464 28.7387 32.2003 28.8854C32.5542 29.0322 32.8757 29.2472 33.1465 29.5182C33.4173 29.7892 33.6321 30.1108 33.7785 30.4648C33.925 30.8188 34.0003 31.1982 34.0002 31.5813C34.0001 31.9644 33.9245 32.3437 33.7778 32.6976C33.631 33.0515 33.416 33.373 33.145 33.6438L24.8967 41.8921C24.6258 42.1633 24.3042 42.3784 23.9501 42.5252C23.596 42.672 23.2165 42.7475 22.8332 42.7475C22.4499 42.7475 22.0703 42.672 21.7163 42.5252C21.3622 42.3784 21.0405 42.1633 20.7696 41.8921L16.6455 37.7709C16.1142 37.2208 15.8202 36.484 15.8268 35.7193C15.8335 34.9545 16.1402 34.223 16.681 33.6822C17.2218 33.1415 17.9533 32.8347 18.718 32.8281C19.4828 32.8214 20.2195 33.1154 20.7696 33.6467L22.8317 35.7088Z" fill="white"/>
</svg>
