<svg width="31" height="30" viewBox="0 0 31 30" fill="none" xmlns="http://www.w3.org/2000/svg">
<g id="ri:firefox-fill">
<path id="Vector" d="M15.5012 2.5C22.405 2.5 28.0012 8.09625 28.0012 15C28.0012 21.9037 22.405 27.5 15.5012 27.5C8.59747 27.5 3.00122 21.9037 3.00122 15C3.00122 13.1712 3.39372 11.4325 4.10122 9.8675C4.68372 8.69375 5.64247 7.525 6.41372 7.125C5.59747 8.72875 5.19747 10.3 5.11372 11.3538C5.68122 9.47875 6.75747 7.9075 8.26372 6.79875C10.8462 4.9 14.3237 4.815 15.7087 6.02375C13.1387 6.9075 10.3387 10.4587 10.955 14.6187C11.055 15.3062 11.2612 15.9725 11.5662 16.5963C11.0862 15.3338 11.0437 13.555 11.8187 12.3987C12.6837 11.1112 13.9162 10.8387 14.5762 10.9787C14.3162 10.9237 13.7412 12.0238 13.6562 12.2175C13.4398 12.7095 13.3327 13.2426 13.3425 13.78C13.3609 14.903 13.8239 15.9729 14.63 16.755C17.0325 19.0938 20.9087 18.1738 22.6437 15.5025C23.8362 13.6638 23.9812 10.5425 22.4512 8.0625C22.0695 7.45862 21.6143 6.9044 21.0962 6.4125C18.7837 4.205 15.4962 3.2 12.3687 3.65625C10.9862 3.8775 9.80997 4.27625 8.83872 4.85125C10.195 3.4975 12.8912 2.5 15.5012 2.5Z" fill="white"/>
</g>
</svg>
