<svg width="909" height="1280" viewBox="0 0 909 1280" fill="none" xmlns="http://www.w3.org/2000/svg">
<path d="M139.551 91.9467C111.208 110.024 83.352 128.523 55.9356 147.083C28.5354 165.763 1.59039 184.625 -24.8669 203.907C-154.746 300.602 -295.078 388.491 -441.918 479.208C-585.129 568.095 -715.592 687.503 -675.286 786.33C-650.231 850.473 -538.894 861.674 -422.215 832.846C-401.816 827.648 -396.36 840.903 -402.351 850.72C-421.824 884.998 -471.771 910.505 -524.671 926.92C-572.107 942.352 -614.464 950.768 -661.209 955.397C-756.522 963.929 -856.168 984.974 -933.953 975.069C-911.799 971.702 -890.833 969.105 -867.851 967.087C-772.604 959.659 -689.509 956.311 -593.507 936.976C-533.486 925.437 -455.714 903.462 -433.877 861.198C-428.846 852.241 -441.221 848.32 -455.062 849.465C-546.814 860.435 -630.179 853.841 -665.788 811.937C-738.661 725.432 -620.777 591.057 -479.19 498.13C-341.508 408.167 -202.007 322.094 -73.6903 228.167C-51.1544 211.728 -28.5699 195.648 -5.75779 179.658C39.8826 147.798 86.8889 116.483 134.627 85.7992L139.551 91.9467Z" fill="url(#paint0_diamond_2_1235)"/>
<path d="M152.731 108.171C124.111 125.8 96.4025 143.791 69.3766 162.056C42.3507 180.32 16.0077 198.857 -9.42471 217.757C-121.617 300.373 -240.243 373.639 -373.314 449.957C-539.575 545.131 -704.36 671.865 -659.426 782.6C-648.154 806.993 -622.776 822.66 -586.025 831.675C-532.215 844.22 -462.692 826.526 -403.307 792.804C-389.201 784.078 -369.697 778.637 -355.24 782.033C-342.654 785.925 -338.74 794.157 -337.477 803.477C-335.076 838.685 -374.881 877.056 -427.839 905.77C-466.544 926.833 -508.385 942.237 -552.84 951.059C-663.661 975.443 -781.606 998.115 -876.86 991.185C-729.074 972.623 -564.566 977.351 -421.7 893.864C-378.243 868.141 -335.295 824.356 -370.396 803.678C-377.387 799.758 -390.252 800.162 -399.606 804.228C-495.183 845.774 -611.314 854.815 -647.406 806.161C-761.744 653.598 -420.477 472.166 -199.936 338.972C-146 306.354 -98.3584 273.371 -49.4957 238.275C-27.318 222.371 -6.14891 206.969 15.264 191.778C58.0736 161.275 102.493 131.527 148.278 102.325L152.731 108.171Z" fill="url(#paint1_diamond_2_1235)"/>
<path d="M164.202 124.505C136.527 141.153 110.217 158.347 85.0136 175.756C59.826 193.285 35.549 211.176 10.4747 229.541C-98.0577 312.148 -224.374 381.101 -356.467 453.514C-520.774 544.043 -693.725 674.075 -642.153 779.772C-625.424 817.42 -549.519 842.061 -474.209 803.504C-440.401 786.025 -425.664 756.526 -381.158 743.317C-347.826 733.447 -320.915 742.943 -309.165 756.563C-273.639 799.452 -324.408 866.566 -404.536 910.887C-443.241 931.95 -482.43 946.265 -525.894 957.63C-623.3 984.09 -724.899 1006.62 -811.063 1003.2C-678.86 987.237 -535.11 973.846 -408.664 905.849C-362.491 881.096 -329.521 851.075 -316.685 818.67C-306.78 791.651 -308.747 764.416 -343.627 754.904C-365.223 749.676 -398.62 760.651 -414.958 775.155C-455.608 812.058 -522.745 836.243 -575.792 826.15C-616.333 817.77 -643.45 800.392 -650.817 773.036C-698.159 612.735 -400.474 473.593 -189.016 354.407C-106.936 308.605 -40.0108 259.015 26.9959 208.441C47.9373 192.948 69.5616 177.728 91.6575 162.809C113.753 147.89 136.743 133.214 160.205 118.84L164.202 124.505Z" fill="url(#paint2_diamond_2_1235)"/>
<path d="M174.716 140.117C156.086 152.012 137.895 163.968 119.965 176.254C102.034 188.54 84.7704 200.979 67.7666 213.748C3.44494 261.89 -58.6479 309 -137.945 351.504C-333.975 455.822 -574.24 554.694 -633.262 710.3C-646.523 745.926 -634.685 776.084 -602.316 795.671C-583.863 806.314 -557.86 812.282 -523.553 801.672C-480.933 788.839 -481.86 762.924 -460.688 742.775C-427.719 712.754 -368.885 701.984 -329.189 708.897C-256.286 722.506 -253.459 779.925 -286.766 829.706C-362.108 944.323 -587.658 999.219 -742.434 1010.7C-577.112 988.055 -339.74 937.764 -285.241 809.177C-266.054 764.838 -277.407 712.833 -358.746 718.012C-418.291 721.942 -455.299 760.299 -486.302 792.122C-505.783 812.042 -547.079 815.568 -574.14 811.324C-630.96 801.986 -647.82 766.546 -641.909 729.117C-626.873 636.664 -511.262 549.083 -381.756 476.655C-221.223 386.881 -57.7374 309.363 66.7152 204.399C83.1818 192.433 100.104 180.648 117.481 169.046C134.858 157.443 152.691 146.022 170.962 134.663L174.716 140.117Z" fill="url(#paint3_diamond_2_1235)"/>
<path d="M186.352 154.482C168.878 165.368 152.086 176.526 135.978 187.957C119.869 199.388 104.444 211.091 89.0342 222.914C-20.7729 315.185 -168.103 384.795 -313.077 457.493C-440.92 521.542 -564.15 597.379 -610.219 689.655C-630.037 729.333 -630.991 773.149 -575.295 785.317C-560.057 788.12 -534.064 782.895 -525.127 770.976C-507.255 747.137 -510.766 718.042 -471.641 701.667C-391.292 668.513 -287.249 665.612 -256.114 707.879C-215.065 762.919 -244.913 846.183 -350.684 907.85C-446.253 963.755 -564.191 1000.79 -670.613 1011.55C-560.915 989.998 -445.195 962.029 -350.405 903.553C-241.426 835.367 -205.022 722.618 -309.792 693.126C-345.583 683.25 -397.842 686.923 -444.514 704.807C-482.809 719.365 -501.658 743.945 -507.576 767.016C-512.385 783.974 -542.008 794.193 -564.859 794.003C-580.228 793.409 -594.7 789.893 -602.389 782.417C-687.759 705.393 -539.139 575.372 -396.618 497.287C-227.772 405.292 -47.1624 330.199 81.4573 219.438C97.2572 207.319 113.089 195.439 129.605 183.831C146.331 172.195 163.53 160.86 181.833 149.74L186.352 154.482Z" fill="url(#paint4_diamond_2_1235)"/>
<path d="M200.103 166.979C181.588 178.127 164.422 189.701 148.167 201.639C14.319 324.669 -183.892 404.945 -368.597 500.671C-486.24 562.121 -598.22 644.708 -603.33 727.784C-603.954 737.482 -599.064 744.973 -591.082 751.436C-582.335 757.188 -561.453 758.739 -553.625 749.769C-501.527 690.871 -440.204 626.951 -338.277 598.904C-363.706 613.058 -405.054 646.405 -362.978 645.45C-199.668 639.753 -171.645 744.868 -245.802 838.029C-316.052 925.063 -470.939 984.988 -603.701 1009.55C-473.244 977.512 -321.501 926.166 -255.854 838.539C-211.303 781.151 -205.541 720.377 -251.414 682.175C-283.291 655.098 -348.285 660.131 -403.775 655.845C-414.671 654.887 -424.262 647.669 -428.801 649.135C-494.961 672.58 -509.611 718.616 -541.17 755.87C-547.941 763.115 -564.779 770.75 -577.496 769.066C-591.124 767.018 -600.635 761.979 -604.761 753.776C-621.276 712.936 -594.54 663.923 -546.078 617.93C-428.745 506.507 -249.749 438.57 -86.8296 355.288C3.43165 309.473 70.7671 253.378 141.729 198.617C158.374 186.383 176.126 174.365 195.032 162.92L200.103 166.979Z" fill="url(#paint5_diamond_2_1235)"/>
<path d="M217.207 177.195C198.724 188.583 181.59 200.396 165.774 212.395C31.5182 337.184 -171.862 414.266 -358.111 508.133C-460.672 560.116 -560.494 627.549 -578.122 702.464C-579.443 708.606 -576.991 713.993 -567.981 715.328C-564.273 715.677 -557.848 713.833 -554.919 711.611C-384.364 563.894 -60.7102 486.094 109.708 558.288C103.282 560.132 98.8115 557.331 94.4044 556.589C-20.9103 535.097 -172.135 537.818 -300.402 605.089C-318.282 614.569 -297.729 621.641 -286.133 622.991C-138.595 637.562 -157.614 751.485 -229.816 840C-292.871 916.567 -422.532 976.726 -541.667 1003.33C-421.974 968.132 -291.048 914.13 -232.253 834.733C-166.621 746.986 -172.056 646.476 -306.532 628.188C-318.339 626.868 -332.321 619.027 -322.819 612.872C-247.516 559.957 -135.71 549.19 -44.8689 537.856C-220.01 527.755 -435.394 606.828 -556.651 724.258C-561.403 728.918 -571.602 731.517 -577.049 729.456C-586.903 726.653 -590.119 718.814 -588.732 711.568C-580.507 667.376 -541.333 624.345 -490.483 584.843C-379.559 500.816 -233.618 441.617 -94.797 377.54C5.53198 331.335 80.3349 271.551 154.666 211.466C171.654 198.578 190.186 185.967 210.719 173.815L217.207 177.195Z" fill="url(#paint6_diamond_2_1235)"/>
<path d="M238.507 185.018C220.041 196.525 203.119 208.31 187.547 220.52C71.1413 330.843 -106.655 406.041 -277.962 481.455C-376.468 525.223 -485.585 581.259 -519.995 651.512C-523.072 655.822 -508.188 652.833 -502.591 649.64C-346.456 570.319 -168.219 517.453 -8.2497 523.647C127.047 528.925 209.261 582.647 309.913 618.295C276.237 633.566 243.877 625.172 221.714 617.345C149.714 589.741 84.5664 553.907 -17.3922 553.118C-85.7332 552.52 -179.806 555.895 -243.359 596.996C-192.743 619.344 -132.222 640.107 -136.384 690.442C-146.59 809.011 -290.322 949.687 -496.646 1000.27C-289.763 941.093 -145.466 806.182 -152.45 686.29C-155.967 639.673 -217.76 623.829 -260.829 599.971C-228.007 572.038 -168.46 564.944 -123.387 557.499C33.138 530.33 128.414 580.336 234.663 612.792C240.809 615.245 249.835 616.699 260.034 614.1C180.404 563.557 80.1629 521.404 -62.3131 526.712C-213.052 533.019 -374.372 580.429 -504.453 661.331C-513.955 667.486 -524.433 674.382 -536.388 675.15C-553.726 675.917 -542.623 659.323 -535.771 651.093C-498.836 599.482 -434.077 554.567 -359.743 516.751C-246.786 458.856 -131.771 412.973 -18.8795 356.182C60.9692 316.158 118.803 266.218 180.327 218.091C195.915 206 212.414 194.273 230.247 182.852L238.507 185.018Z" fill="url(#paint7_diamond_2_1235)"/>
<path d="M264.624 190.241C242.66 202.952 223.379 216.395 206.065 230.058C92.9575 347.236 -97.2274 415.229 -271.398 491.76C-330.501 518.021 -393.315 547.097 -425.087 587.543C-429.14 592.595 -413.28 588.864 -407.749 586.776C-211.418 521.236 -11.9885 494.461 135.416 539.838C209.582 562.767 267.812 607.935 379.134 590.419C385.493 589.679 395.561 589.289 394.437 592.118C379.913 618.424 329.202 644.643 289.227 642.027C212.008 637.886 173.616 599.279 111.825 580.271C35.7721 557.718 -59.057 547.567 -166.596 575.522C-182.244 579.224 -193.002 590.417 -180.627 594.338C-57.2558 632.384 -99.7566 741.456 -179.361 832.556C-243.047 904.463 -347.773 961.121 -463.256 1000.37C-465.143 1000.75 -463.125 998.166 -465.011 998.544C-365.307 962.036 -269.467 916.074 -206.191 850.672C-111.702 753.418 -61.1752 632.063 -204.748 595.902C-216.423 592.373 -198.543 582.892 -188.262 579.309C-146.276 564.981 -107.906 560.513 -66.6094 556.986C77.9031 546.048 152.846 600.146 251.126 632.587C271.679 639.659 303.328 641.212 331.423 629.253C346.309 623.098 378.375 607.072 368.373 606.358C255.995 597.002 187.827 553.181 87.0529 530.935C-69.2884 497.478 -266.824 538.235 -448.065 608.666C-461.193 613.487 -464.213 605.5 -455.556 597.877C-375.1 522.603 -252.132 476.616 -136.091 428.769C-4.18792 374.027 112.207 306.539 201.238 224.627C217.217 212.24 234.546 200.279 253.859 188.658L264.624 190.241Z" fill="url(#paint8_diamond_2_1235)"/>
<path d="M295.443 193.611C264.285 213.165 235.046 234.163 208.521 256.132C159.366 290.658 125.008 331.09 64.6488 362.388C-54.8814 424.216 -195.39 456.76 -299.183 528.26C-305.822 533.296 -294.991 535.358 -288.632 534.618C-64.2723 486.82 117.022 513.733 263.672 571.016C301.981 585.174 355.086 579.805 411.81 561.411C426.613 556.242 440.889 563.069 436.557 572.418C422.047 602.007 378.247 629.967 330.943 643.19C291.041 653.829 260.713 646.134 235.624 637.364C187.394 621.507 148.667 599.496 100.65 583.61C49.8344 567.739 -7.11777 560.609 -77.8382 567.878C-96.1524 569.386 -133.872 575.469 -128.071 583.323C-96.9518 625.471 -51.0786 663.673 -78.8636 725.605C-130.719 838.744 -274.056 947.362 -450.053 1005.64C-263.51 936.198 -116.753 821.032 -81.8233 698.991C-67.5932 648.265 -106.754 618.281 -149.462 589.142C-157.298 583.754 -137.662 576.105 -127.463 573.506C-60.803 556.93 -2.66108 560.127 51.3621 569.479C113.5 579.922 155.936 602.283 201.917 623.799C236.386 639.816 278.322 655.309 336.655 637.671C376.623 625.928 414.352 605.605 425.997 580.298C428.229 574.52 422.979 569.146 414.666 571.368C358.139 586.449 308.941 585.691 266.873 575.571C189.712 555.968 127.911 525.765 41.0355 515.509C-72.723 502.324 -198.635 521.817 -329.921 552.503C-339.144 554.361 -355.423 553.402 -345.855 546.143C-305.484 513.537 -248.465 490.966 -195.104 466.821C-91.001 419.861 29.5201 386.01 112.783 321.916C140.576 299.775 167.408 278.495 195.689 256.775C223.026 234.453 252.429 213.068 283.668 192.529L295.443 193.611Z" fill="url(#paint9_diamond_2_1235)"/>
<path d="M331.059 195.843C301.838 213.797 274.047 232.773 249.395 252.663C220.448 274.23 197.257 296.963 171.27 319.711C106.666 376.896 3.8114 404.46 -83.3713 442.8C-114.33 455.878 -152.395 467.363 -165.386 487.498C-173.346 498.677 -144.07 497.023 -129.529 496.269C15.6145 489.991 130.732 514.796 234.099 551.414C284.767 569.374 353.814 559.29 424.314 540.855C453.024 533.436 462.623 555.013 448.657 572.725C427.708 600.875 396.625 630.519 348.622 643.351C239.276 673.863 187.949 619.242 122.175 596.27C92.7439 585.655 63.3126 575.039 26.1347 572.41C-5.65979 569.781 -42.6404 563.839 -79.2454 581.333C-82.1085 582.451 -83.2325 585.28 -82.3219 585.643C-17.357 653.506 -40.0747 752.841 -144.287 845.084C-224.53 917.166 -331.061 973.216 -448.58 1018.1C-449.557 1018.84 -448.449 1015.89 -447.457 1015.27C-268.25 947.305 -116.799 842.942 -63.0059 725.038C-37.6803 668.794 -59.3653 624.76 -100.897 588.403C-107.757 582.275 -86.5116 575.381 -75.4019 573.145C-19.22 563.465 25.8595 570.378 70.7914 579.381C135.514 593.003 177.392 620.794 232.613 640.571C262.11 650.082 298.032 657.749 342.604 643.436C386.266 628.759 425.119 605.606 443.189 578.455C449.196 568.758 450.731 559.423 445.824 551.813C440.933 544.323 424.426 543.274 411.509 548.066C352.619 571.134 294.262 574.294 253.155 560.15C123.072 513.886 -20.9624 488.619 -210.759 507.031C-217.118 507.771 -222.5 504.606 -217.536 499.918C-203.085 485.791 -179.676 477.387 -158.998 467.893C-49.4466 419.829 77.6457 385.209 159.367 316.091C185.272 294.328 209.585 271.929 238.727 250.214C262.387 230.945 288.974 212.619 317.382 195.019L331.059 195.843Z" fill="url(#paint10_diamond_2_1235)"/>
<path d="M370.938 197.742C346.403 212.14 324.128 227.327 304.308 243.155C209.367 333.899 79.4246 401.518 -63.787 464.972C-70.2782 467.92 -64.4111 474.67 -57.2066 475.398C57.6902 489.037 155.258 514.637 255.492 542.432C298.406 554.019 354.867 540.042 410.335 526.686C441.843 519.253 466.59 530.26 467.311 548.294C468.933 580.93 421.292 613.913 375.185 637.562C332.007 658.988 282.464 663.631 246.673 653.756C157.269 628.023 101.616 571.676 -23.817 580.395C-38.4232 582.252 -49.9436 590.992 -45.0528 598.483C64.6102 737.198 -182.372 940.66 -455.062 1032.24C-455.062 1032.24 -450.458 1029.67 -451.075 1028.3C-262.498 956.383 -80.5321 845.208 -33.9999 713.442C-17.3315 664.82 -31.2625 627.159 -61.0533 593.228C-64.6136 590.789 -60.495 584.634 -53.0932 582.049C16.4302 564.355 65.145 583.796 111.635 597.942C167.979 614.89 203.416 644.405 268.286 655.938C339.434 667.717 421.029 618.33 454.756 573.238C461.74 562.8 467.048 552.711 462.012 544.144C456.407 532.978 437.823 524.544 418.253 531.089C314.012 565.899 235.939 549.097 170.996 524.309C96.2804 495.734 -0.730888 490.137 -96.8297 481.739C-114.93 480.054 -105.928 467.031 -90.0666 460.136C-0.980864 421.538 97.2551 393.261 169.76 340.36C213.628 308.132 250.439 273.087 292.405 239.535C311.069 224.715 332.189 210.537 355.991 197.09L370.938 197.742Z" fill="url(#paint11_diamond_2_1235)"/>
<path d="M414.8 200.44C388.134 215.005 358.931 229.913 340.493 247.988C267.173 328.258 155.528 394.25 29.9853 448.252C8.39725 457.383 29.6477 468.011 43.2099 471.163C106.045 485.163 165.318 499.888 219.628 519.302C266.881 535.9 330.12 529.036 396.632 514.548C429.75 507.871 464.276 511.59 471.275 529.869C482.333 557.455 452.661 594.331 414.439 622.143C385.802 642.816 346.334 661.428 307.9 663.836C206.36 670.9 169.505 619.794 95.1418 600.176C68.2945 592.74 22.9447 575.885 -11.5011 599.778C74.6193 752.27 -184.251 955.396 -465.336 1050.18C-467.223 1050.56 -460.584 1045.53 -460.584 1045.53C-183.986 947.815 70.4114 745.052 -22.2002 595.509C-24.7841 592.33 -14.4535 587.523 -7.11751 586.042C48.7195 581.763 85.0598 597.283 125.387 608.856C191.504 629.591 238.992 686.071 348.617 651.261C416.533 629.648 466.671 583.306 472.031 543.396C475.1 524.726 449.508 512.252 417.221 517.113C354.827 525.445 290.751 545.2 241.545 530.084C170.045 509.348 103.847 489.598 23.8213 474.277C8.58363 471.474 -14.9643 467.728 -5.96222 454.704C-0.0204966 446.111 13.1733 440.186 26.3176 435.485C125.309 395.302 228.222 352.275 281.855 284.042C291.767 271.382 308.884 259.45 323.253 247.889C345.431 230.404 371.204 214.013 398.683 199.094L414.8 200.44Z" fill="url(#paint12_diamond_2_1235)"/>
<path d="M461.703 204.915C438.063 217.975 414.276 231.541 393.222 246.198C371.956 260.883 353.437 276.777 339.635 294.102C294.01 353.097 207.327 398.305 119.495 435.029C103.633 441.924 100.08 453.844 108.81 459.476C178.365 496.052 264.058 524.599 385.645 503.381C452.026 491.102 501.305 519.472 477.581 562.114C454.818 603.895 398.601 643.515 329.208 662.165C274.568 676.87 234.371 663.088 198.794 650.02C147.216 631.697 101.967 583.797 21.1203 606.919C14.6948 608.763 14.1365 617.357 15.6785 622.381C77.1343 788.314 -210.529 974.41 -474.342 1069.54C-472.324 1066.95 -473.087 1064.5 -470.224 1063.38C-204.376 965.788 76.083 778.965 7.14351 616.601C4.62526 612.318 5.10163 604.708 15.3827 601.125C53.5953 587.551 83.7237 601.723 109.595 609.9C170.33 627.47 208.022 665.685 286.365 666.996C369.181 667.945 454.962 608.134 479.098 555.824C496.832 519.835 452.574 499.911 396.671 505.294C343.565 510.664 289.559 526.864 247.622 514.536C186.952 495.862 108.126 487.801 75.0357 450.18C73.3622 447.364 78.3914 441.572 85.8589 437.883C157.961 405.845 237.266 377.699 287.829 328.136C316.959 299.973 337.826 272.808 373.346 247.308C394.874 231.371 419.555 216.467 445.066 202.91L461.703 204.915Z" fill="url(#paint13_diamond_2_1235)"/>
<path d="M509.319 211.485C485.908 223.053 462.578 235.219 442.435 248.657C422.275 261.975 405.075 276.474 394.12 292.561C357.947 346.625 283.006 394.258 203.988 432.466C194.633 436.532 186.042 443.05 186.591 448.695C189.469 476.294 231.554 486.534 270.553 489.89C322.124 493.855 377.895 490.68 430.653 493.876C455.958 496.288 478.382 502.864 483.642 519.431C500.23 573.526 422.505 649.891 319.996 672.054C270.042 683.202 233.406 671.859 200.56 659.881C155.129 644.01 124.214 612.909 61.2543 615.476C47.4787 615.517 42.3161 626.682 42.816 633.55C66.2726 809.864 -215.466 987.248 -480.599 1088.52C-480.468 1086.31 -479.278 1082.37 -477.391 1082C-201.132 978.613 71.7782 796.463 36.5147 618.828C35.8833 614.167 46.2302 609.48 53.4185 610.088C129.727 613.866 171.063 650.37 233.685 667.562C266.745 676.347 307.844 676.134 350.661 659.989C418.856 634.079 474.457 589.917 485.397 546.695C501.427 479.055 370.198 497.442 289.836 498.716C234.213 499.802 194.23 482.829 161.016 461.774C152.352 455.038 152.196 442.768 169.034 435.132C251.549 397.303 329.091 352.968 370.551 296.606C382.857 279.363 400.513 263.463 421.357 248.835C442.2 234.208 466.458 220.943 491.756 208.997L509.319 211.485Z" fill="url(#paint14_diamond_2_1235)"/>
<path d="M556.805 220.263C515.873 239.195 483.884 262.147 457.748 286.984C444.567 299.357 432.963 312.246 422.025 325.288C397.799 365.808 348.336 398.064 291.751 428.607C270.926 440.191 263.531 457.134 278.49 464.234C319.934 484.052 388.005 474.708 440.287 485.513C482.438 494.649 507.469 518.881 492.469 552.796C475.169 596.757 419.699 638.711 353.325 665.348C245.728 708.766 183.568 655.248 114.865 634.498C105.922 632.059 95.091 629.997 82.3059 632.581C72.1068 635.18 67.2233 642.048 65.8859 648.07C51.1867 720.763 22.9233 793.469 -58.9291 864.795C-170.822 963.92 -326.758 1036.76 -479.538 1107.48C-479.406 1105.27 -480.103 1101.71 -477.24 1100.6C-220.217 991.908 55.4477 825.326 56.5173 648.853C56.928 642.348 58.3969 634.117 69.72 628.689C88.4449 620.676 105.356 626.295 117.942 630.187C170.857 642.489 199.935 672.744 260.742 678.135C304.149 682.233 357.179 666.773 400.62 640.931C454.474 609.297 497.224 568.823 492.025 533.629C483.397 468.355 347.336 489.223 264.513 473.916C240.332 468.673 223.331 449.681 255.268 432.698C323.242 395.622 387.722 355.004 418.15 306.221C429.708 288.227 447.544 272.06 468.81 257.375C490.076 242.69 514.741 229.248 539.958 216.705L556.805 220.263Z" fill="url(#paint15_diamond_2_1235)"/>
<path d="M602.695 231.569C561.046 253.153 525.591 277.548 497.958 304.048C484.044 317.372 472.13 331.155 462.233 345.517C450.057 362.134 445.249 379.092 434.146 395.686C425.144 408.709 399.215 415.995 384.552 430.15C373.86 440.239 369.608 451.767 381.006 456.429C418.339 471.328 467.193 477.487 490.077 501.766C499.277 510.864 504.816 521.552 504.727 533.611C504.85 545.642 499.572 559.134 487.381 574.05C447.928 621.378 380.871 673.176 298.063 686.586C221.614 699.255 182.535 668.286 133.606 652.037C117.606 646.782 91.8243 651.979 85.1947 668.21C57.2762 735.514 32.2391 798.656 -38.2407 863.33C-152.497 970.442 -316.468 1044.37 -469.189 1125.06C-470.944 1123.23 -472.683 1121.52 -474.227 1119.66C-217.134 1001.95 54.3308 842.513 79.5906 657.043C82.3149 643.775 108.859 641.031 122.145 645.315C174.912 659.705 208.69 689.689 279.896 686.005C356.697 682.292 431.442 637.971 470.829 591.747C492.542 566.05 504.902 541.254 497.272 518.315C484.73 470.243 383.755 483.071 341.958 454.296C313.996 435.45 390.224 411.615 412.715 388.489C428.29 371.533 434.009 354.938 447.421 337.91C457.839 324.208 469.785 310.664 483.536 297.727C511.022 271.734 545.013 247.659 586.206 227.475L602.695 231.569Z" fill="url(#paint16_diamond_2_1235)"/>
<path d="M645.721 245.575C580.903 280.52 514.471 322.62 505.772 371.257C502.592 384.344 502.78 396.853 500.625 409.557C498.47 422.261 493.973 435.161 481.636 449.001C477.715 451.845 480.315 455.143 482.054 456.855C492.843 474.498 507.047 491.923 512.89 511.21C518.944 530.468 516.605 551.351 494.504 575.762C479.774 592.604 462.931 608.15 444.625 622.434C402.091 654.968 348.303 685.498 287.437 695.57C225.872 705.25 187.924 685.809 142.131 675.22C119.625 669.63 101.121 688.808 94.8998 701.698C80.0452 736.688 62.3133 769.513 35.6356 803.063C-16.8071 867.362 -86.9258 926.755 -173.338 981.905C-262.614 1038.17 -355.673 1084 -451.859 1138.53C-452.836 1139.27 -454.443 1135.35 -457.94 1134.97C-338.696 1063.08 -202.741 1003.29 -96.5685 923.924C1.0779 849.971 60.6378 769.862 95.2516 685.222C101.604 670.124 125.924 662.083 142.9 666.598C193.929 679.276 235.109 706.675 309.089 688.499C369.324 673.767 419.338 643.992 456.976 611.877C471.248 599.6 483.291 586.773 492.244 573.391C501.426 560.1 507.517 546.254 510.112 532.03C513.555 512.945 503.789 499.665 489.907 487.795C477.573 471.456 437.877 464.543 446.658 440.354C450.014 431.747 466.77 425.096 470.126 416.488C476.609 399.181 479.465 383.705 488.145 366.709C495.929 351.052 506.331 335.648 519.368 320.618C545.474 290.796 582.41 263.036 630.745 239.938L645.721 245.575Z" fill="url(#paint17_diamond_2_1235)"/>
<path d="M683.834 261.464C639.613 286.317 589.944 310.692 567.804 342.775C539.871 381.362 553.171 414.364 551.799 450.326C551.755 494.506 545.14 539.454 499.327 587.522C483.085 604.325 465.136 619.656 445.529 633.873C367.453 699.697 245.735 723.124 152.992 706.119C142.096 705.161 126.997 714.508 120.926 722.145C40.3526 828.344 -51.6348 929.762 -204.897 1019.16C-282.505 1064.6 -352.368 1105.22 -426.35 1151.99C-426.35 1151.99 -431.585 1149.9 -435.228 1148.45C-415.182 1134.29 -395.201 1121.24 -371.724 1108.57C-166.957 998.808 17.454 878.662 99.5491 731.248C108.83 713.927 138.026 684.66 161.018 693.836C247.49 724.955 386.326 689.596 460.94 618.886C480.305 602.876 496.742 585.925 508.772 568.232C520.802 550.539 528.637 532.076 531.202 512.867C532.039 499.976 529.021 488.824 531.746 475.556C540.454 438.112 529.543 408.438 536.576 371.344C543.956 325.684 611.085 287.14 670.322 255.507L683.834 261.464Z" fill="url(#paint18_diamond_2_1235)"/>
<path d="M718.189 278.227C659.263 307.384 593.028 346.172 591.179 389.744C589.608 457.616 595.241 526.216 512.413 598.282C494.675 613.585 475.719 627.835 455.819 641.483C372.851 702.982 264.35 734.961 150.658 746.105C136.051 747.963 123.341 760.637 115.447 770.711C8.82034 900.762 -153.108 1012.02 -326.612 1115.72C-371.033 1147.05 -394.496 1164.59 -394.496 1164.59L-405.195 1160.32C-381.749 1144.24 -361.701 1126.92 -334.107 1111.26C-136.543 997.607 20.2677 878.767 131.161 740.472C134.237 736.161 144.568 731.354 149.951 731.355C233.957 728.37 323.74 718.762 399.836 671.702C422.858 658.848 444.855 644.794 465.39 629.478C485.925 614.162 505.013 597.703 522.199 579.92C593.366 507.608 573.415 447.763 578.335 382.357C582.997 338.891 648.174 301.829 706.401 272.279L718.189 278.227Z" fill="url(#paint19_diamond_2_1235)"/>
<path d="M750.642 295.248C689.457 320.452 636.852 358.123 626.189 400.212C613.993 448.472 620.309 491.911 586.303 541.3C560.208 579.152 522.633 613.326 478.002 644.684C455.791 660.349 431.776 675.407 406.558 689.532C330.934 736.893 237.713 756.094 149.054 788.306C135.926 793.127 124.666 800.615 116.643 809.734C-1.24872 929.75 -150.385 1027.35 -300.76 1128.53C-341.439 1158.86 -364.692 1176.37 -364.692 1176.37L-375.391 1172.1C-375.391 1172.1 -352.138 1154.59 -310.012 1123.82C-156.466 1023.79 -2.72494 923.623 107.978 802.998C124.595 784.197 149.391 768.547 180.557 763.351C268.246 746.238 353.699 717.381 425.126 672.414C446.229 659.698 466.388 646.38 485.361 632.249C504.333 618.118 522.347 603.265 538.751 587.657C605.586 524.693 609.396 465.401 611.32 406.486C613.25 361.929 671.649 317.754 739.26 289.123L750.642 295.248Z" fill="url(#paint20_diamond_2_1235)"/>
<path d="M781.776 312.082C668.162 354.002 649.755 426.346 631.207 489.704C614.908 545.821 570.867 595.839 511.361 641.381C491.672 656.583 470.194 671.297 447.578 685.556C362.856 742.059 260.223 780.789 159.344 821.35C146.134 827.155 133.07 834.036 123.436 842.399C1.14688 947.435 -134.083 1042.79 -272.193 1140.72C-311.831 1170.79 -335.083 1188.3 -335.083 1188.3L-345.782 1184.03C-345.782 1184.03 -322.741 1166.55 -282.68 1136.42C-152.331 1043.19 -14.7806 955.434 94.66 850.922C116.027 830.625 145.296 814.613 177.93 801.186C262.963 767.64 349.669 736.91 423.406 691.508C444.557 679.151 464.993 666.282 485.104 652.605C590.799 580.848 631.559 498.661 641.985 419.854C648.323 376.039 704.687 334.33 770.607 305.928L781.776 312.082Z" fill="url(#paint21_diamond_2_1235)"/>
<path d="M812.44 328.615C748.115 356.07 691.037 394.103 681.008 437.688C659.713 523.687 588.071 600.444 492.899 670.411C469.208 687.858 443.956 704.909 417.581 721.624C341.923 770.329 255.503 811.121 169.994 852.276C112.712 879.264 70.5174 914.308 28.1935 948.395C-59.1223 1017.54 -151.674 1084.6 -242.795 1152.68C-282.433 1182.75 -305.473 1200.23 -305.473 1200.23L-316.172 1195.96C-316.172 1195.96 -293.132 1178.48 -253.494 1148.41C-153.781 1073.81 -49.9725 1002.43 43.2031 925.675C80.7112 894.186 120.106 862.321 171.662 837.569C258.993 797.14 345.964 758.829 423.574 710.226C444.253 697.567 464.461 684.607 484.181 671.227C503.69 657.875 522.711 644.103 541.001 629.699C629.293 559.813 646.578 487.135 681.267 412.585C698.156 375.129 750.137 347.156 801.108 322.848L812.44 328.615Z" fill="url(#paint22_diamond_2_1235)"/>
<defs>
<radialGradient id="paint0_diamond_2_1235" cx="0" cy="0" r="1" gradientUnits="userSpaceOnUse" gradientTransform="translate(-396.473 538.883) rotate(114.16) scale(551.181 724.462)">
<stop/>
<stop offset="0.0001" stop-color="#FE3131" stop-opacity="0.22"/>
<stop offset="1" stop-opacity="0"/>
</radialGradient>
<radialGradient id="paint1_diamond_2_1235" cx="0" cy="0" r="1" gradientUnits="userSpaceOnUse" gradientTransform="translate(-361.638 552.828) rotate(113.185) scale(545.903 705.072)">
<stop/>
<stop offset="0.0001" stop-color="#FE3131" stop-opacity="0.22"/>
<stop offset="1" stop-opacity="0"/>
</radialGradient>
<radialGradient id="paint2_diamond_2_1235" cx="0" cy="0" r="1" gradientUnits="userSpaceOnUse" gradientTransform="translate(-323.315 564.701) rotate(112.033) scale(538.009 679.33)">
<stop/>
<stop offset="0.0001" stop-color="#FE3131" stop-opacity="0.22"/>
<stop offset="1" stop-opacity="0"/>
</radialGradient>
<radialGradient id="paint3_diamond_2_1235" cx="0" cy="0" r="1" gradientUnits="userSpaceOnUse" gradientTransform="translate(-284.13 573.405) rotate(110.887) scale(527.462 649.787)">
<stop/>
<stop offset="0.0001" stop-color="#FE3131" stop-opacity="0.22"/>
<stop offset="1" stop-opacity="0"/>
</radialGradient>
<radialGradient id="paint4_diamond_2_1235" cx="0" cy="0" r="1" gradientUnits="userSpaceOnUse" gradientTransform="translate(-242.46 580.588) rotate(109.655) scale(516.327 617.872)">
<stop/>
<stop offset="0.0001" stop-color="#FE3131" stop-opacity="0.22"/>
<stop offset="1" stop-opacity="0"/>
</radialGradient>
<radialGradient id="paint5_diamond_2_1235" cx="0" cy="0" r="1" gradientUnits="userSpaceOnUse" gradientTransform="translate(-202.114 585.932) rotate(108.568) scale(505.701 588.49)">
<stop/>
<stop offset="0.0001" stop-color="#FE3131" stop-opacity="0.22"/>
<stop offset="1" stop-opacity="0"/>
</radialGradient>
<radialGradient id="paint6_diamond_2_1235" cx="0" cy="0" r="1" gradientUnits="userSpaceOnUse" gradientTransform="translate(-166.649 588.732) rotate(107.929) scale(495.585 566.727)">
<stop/>
<stop offset="0.0001" stop-color="#FE3131" stop-opacity="0.22"/>
<stop offset="1" stop-opacity="0"/>
</radialGradient>
<radialGradient id="paint7_diamond_2_1235" cx="0" cy="0" r="1" gradientUnits="userSpaceOnUse" gradientTransform="translate(-125.135 590.471) rotate(107.769) scale(489.045 556.73)">
<stop/>
<stop offset="0.0001" stop-color="#FE3131" stop-opacity="0.22"/>
<stop offset="1" stop-opacity="0"/>
</radialGradient>
<radialGradient id="paint8_diamond_2_1235" cx="0" cy="0" r="1" gradientUnits="userSpaceOnUse" gradientTransform="translate(-63.1801 588.894) rotate(109.239) scale(492.25 582.947)">
<stop/>
<stop offset="0.0001" stop-color="#FE3131" stop-opacity="0.22"/>
<stop offset="1" stop-opacity="0"/>
</radialGradient>
<radialGradient id="paint9_diamond_2_1235" cx="0" cy="0" r="1" gradientUnits="userSpaceOnUse" gradientTransform="translate(-32.7571 592.253) rotate(110.07) scale(495.366 598.792)">
<stop/>
<stop offset="0.0001" stop-color="#FE3131" stop-opacity="0.22"/>
<stop offset="1" stop-opacity="0"/>
</radialGradient>
<radialGradient id="paint10_diamond_2_1235" cx="0" cy="0" r="1" gradientUnits="userSpaceOnUse" gradientTransform="translate(-22.1653 600.718) rotate(110.379) scale(500.742 609.735)">
<stop/>
<stop offset="0.0001" stop-color="#FE3131" stop-opacity="0.22"/>
<stop offset="1" stop-opacity="0"/>
</radialGradient>
<radialGradient id="paint11_diamond_2_1235" cx="0" cy="0" r="1" gradientUnits="userSpaceOnUse" gradientTransform="translate(-18.1968 610.421) rotate(110.707) scale(506.388 621.296)">
<stop/>
<stop offset="0.0001" stop-color="#FE3131" stop-opacity="0.22"/>
<stop offset="1" stop-opacity="0"/>
</radialGradient>
<radialGradient id="paint12_diamond_2_1235" cx="0" cy="0" r="1" gradientUnits="userSpaceOnUse" gradientTransform="translate(-19.3663 622.75) rotate(110.909) scale(513.491 632.898)">
<stop/>
<stop offset="0.0001" stop-color="#FE3131" stop-opacity="0.22"/>
<stop offset="1" stop-opacity="0"/>
</radialGradient>
<radialGradient id="paint13_diamond_2_1235" cx="0" cy="0" r="1" gradientUnits="userSpaceOnUse" gradientTransform="translate(-6.60298 635.134) rotate(111.701) scale(523.101 655.952)">
<stop/>
<stop offset="0.0001" stop-color="#FE3131" stop-opacity="0.22"/>
<stop offset="1" stop-opacity="0"/>
</radialGradient>
<radialGradient id="paint14_diamond_2_1235" cx="0" cy="0" r="1" gradientUnits="userSpaceOnUse" gradientTransform="translate(14.0362 647.61) rotate(112.785) scale(532.911 683.065)">
<stop/>
<stop offset="0.0001" stop-color="#FE3131" stop-opacity="0.22"/>
<stop offset="1" stop-opacity="0"/>
</radialGradient>
<radialGradient id="paint15_diamond_2_1235" cx="0" cy="0" r="1" gradientUnits="userSpaceOnUse" gradientTransform="translate(38.2453 661.003) rotate(113.687) scale(541.473 705.814)">
<stop/>
<stop offset="0.0001" stop-color="#FE3131" stop-opacity="0.22"/>
<stop offset="1" stop-opacity="0"/>
</radialGradient>
<radialGradient id="paint16_diamond_2_1235" cx="0" cy="0" r="1" gradientUnits="userSpaceOnUse" gradientTransform="translate(64.2177 675.493) rotate(114.509) scale(547.722 724.183)">
<stop/>
<stop offset="0.0001" stop-color="#FE3131" stop-opacity="0.22"/>
<stop offset="1" stop-opacity="0"/>
</radialGradient>
<radialGradient id="paint17_diamond_2_1235" cx="0" cy="0" r="1" gradientUnits="userSpaceOnUse" gradientTransform="translate(93.6759 688.691) rotate(115.177) scale(549.902 734.972)">
<stop/>
<stop offset="0.0001" stop-color="#FE3131" stop-opacity="0.22"/>
<stop offset="1" stop-opacity="0"/>
</radialGradient>
<radialGradient id="paint18_diamond_2_1235" cx="0" cy="0" r="1" gradientUnits="userSpaceOnUse" gradientTransform="translate(124.101 703.462) rotate(115.64) scale(549.815 740.105)">
<stop/>
<stop offset="0.0001" stop-color="#FE3131" stop-opacity="0.22"/>
<stop offset="1" stop-opacity="0"/>
</radialGradient>
<radialGradient id="paint19_diamond_2_1235" cx="0" cy="0" r="1" gradientUnits="userSpaceOnUse" gradientTransform="translate(156.375 718.376) rotate(115.886) scale(547.877 740.191)">
<stop/>
<stop offset="0.0001" stop-color="#FE3131" stop-opacity="0.22"/>
<stop offset="1" stop-opacity="0"/>
</radialGradient>
<radialGradient id="paint20_diamond_2_1235" cx="0" cy="0" r="1" gradientUnits="userSpaceOnUse" gradientTransform="translate(187.496 732.718) rotate(116.123) scale(545.343 739.302)">
<stop/>
<stop offset="0.0001" stop-color="#FE3131" stop-opacity="0.22"/>
<stop offset="1" stop-opacity="0"/>
</radialGradient>
<radialGradient id="paint21_diamond_2_1235" cx="0" cy="0" r="1" gradientUnits="userSpaceOnUse" gradientTransform="translate(217.868 747.1) rotate(116.325) scale(542.856 738.053)">
<stop/>
<stop offset="0.0001" stop-color="#FE3131" stop-opacity="0.22"/>
<stop offset="1" stop-opacity="0"/>
</radialGradient>
<radialGradient id="paint22_diamond_2_1235" cx="0" cy="0" r="1" gradientUnits="userSpaceOnUse" gradientTransform="translate(248.029 761.51) rotate(116.521) scale(540.318 736.601)">
<stop/>
<stop offset="0.0001" stop-color="#FE3131" stop-opacity="0.22"/>
<stop offset="1" stop-opacity="0"/>
</radialGradient>
</defs>
</svg>
